<?xml version="1.0" standalone="no"?>
<!DOCTYPE svg PUBLIC "-//W3C//DTD SVG 1.1//EN" "http://www.w3.org/Graphics/SVG/1.1/DTD/svg11.dtd" >
<svg xmlns="http://www.w3.org/2000/svg" xmlns:xlink="http://www.w3.org/1999/xlink" version="1.1">
<metadata>
Created by FontForge 20161116 at Fri Sep 27 14:13:20 2013
 By Jimmy Warting
Copyright (c) 2010-2012 by Claus Eggers Srensen (es@forthehearts.net), with Reserved Font Name 'Playfair'.
</metadata>
<defs>
<font id="PlayfairDisplaySC-Italic" horiz-adv-x="1294" >
  <font-face 
    font-family="Playfair Display SC"
    font-weight="400"
    font-style="italic"
    font-stretch="normal"
    units-per-em="2048"
    panose-1="0 0 5 0 0 0 0 0 0 0"
    ascent="1638"
    descent="-410"
    x-height="1245"
    cap-height="1450"
    bbox="-295 -399 2250 1962"
    underline-thickness="0"
    underline-position="0"
    slope="-14"
    unicode-range="U+000D-0491"
  />
<missing-glyph horiz-adv-x="1151" 
d="M1027 0h-905v1581h905v-1581zM953 1520h-757v-1459h757v1459z" />
    <glyph glyph-name="uni00540068.liga" unicode="Th" horiz-adv-x="2353" 
d="M2199 182q-74 -211 -248 -211q-143 0 -143 128q0 63 32 159l195 586q21 61 21 102q0 70 -66 70q-79 0 -172 -105t-185 -295t-169 -436l-50 -180h-178l388 1382q-106 -43 -277 -43q-131 0 -314 29l-301 -1130q-18 -64 -18 -104q0 -35 17 -54.5t53.5 -28t101.5 -10.5
l-8 -41q-108 6 -306 6q-200 0 -299 -6l9 41q87 3 134.5 21t74.5 58t51 118l308 1159q-164 24 -263 24q-178 0 -230 -35q16 -21 26.5 -54.5t10.5 -63.5q0 -47 -26 -83t-76 -36q-44 0 -67 27.5t-23 74.5q0 107 108 160q96 47 275 47q95 0 177.5 -9.5t214.5 -29.5
q118 -19 204.5 -29t179.5 -10q92 0 154.5 10.5t121.5 38.5l48 170q119 5 186 29l-301 -1071q81 191 158 305.5t157 166.5t172 52q165 0 165 -153q0 -63 -30 -156l-198 -598q-17 -45 -17 -77q0 -50 50 -50q41 0 79 46.5t78 162.5l27 76h39z" />
    <glyph glyph-name=".notdef" horiz-adv-x="1151" 
d="M1027 0h-905v1581h905v-1581zM953 1520h-757v-1459h757v1459z" />
    <glyph glyph-name="space" unicode=" " horiz-adv-x="518" 
 />
    <glyph glyph-name="A" unicode="A" horiz-adv-x="1288" 
d="M1066.5 74q29.5 -31 66.5 -33l-9 -41q-82 6 -223 6q-165 0 -246 -6l9 41q70 3 108 17.5t54.5 50t13.5 104.5l-19 336h-503l-154 -217q-96 -136 -96 -204q0 -84 151 -87l-10 -41q-114 6 -234 6q-89 0 -153 -6l10 41q94 20 205 178l883 1241h30l82 -1288q5 -67 34.5 -98z
M785 1209l-438 -619h472z" />
    <glyph glyph-name="Aacute" horiz-adv-x="1288" 
d="M0 0zM1066.5 74q29.5 -31 66.5 -33l-9 -41q-82 6 -223 6q-165 0 -246 -6l9 41q70 3 108 17.5t54.5 50t13.5 104.5l-19 336h-503l-154 -217q-96 -136 -96 -204q0 -84 151 -87l-10 -41q-114 6 -234 6q-89 0 -153 -6l10 41q94 20 205 178l883 1241h30l82 -1288
q5 -67 34.5 -98zM785 1209l-438 -619h472zM1060 1789q101 78 147 105q39 24 78 24q43 0 58 -34q4 -9 4 -20q0 -25 -21.5 -49.5t-50.5 -40.5q-50 -29 -163 -70q-170 -63 -292 -123l-14 23q119 80 254 185z" />
    <glyph glyph-name="B" unicode="B" 
d="M1145 432q0 -139 -88 -237t-228 -146.5t-294 -48.5q-70 0 -150 3q-183 3 -203 3q-163 0 -250 -6l9 41q74 3 110.5 16t58.5 48t42 112l270 1016q17 68 17 98q0 41 -30 59t-108 19l10 41q84 -6 244 -6q44 0 138 2q98 2 151 2q190 0 287.5 -70t97.5 -192q0 -100 -59 -183.5
t-154 -142.5t-207 -94q336 -55 336 -334zM623 770q119 0 211 55.5t142 147.5t50 198q0 122 -52.5 180t-168.5 58q-62 0 -96.5 -12t-54.5 -42t-36 -91l-130 -494h135zM823.5 152q116.5 105 116.5 311q0 272 -293 272h-168l-137 -518q-19 -73 -19 -100q0 -38 27 -54t96 -16
q261 0 377.5 105z" />
    <glyph glyph-name="C" unicode="C" horiz-adv-x="1372" 
d="M1326 979h-45q12 80 12 140q0 96 -32 163q-38 76 -110.5 118t-158.5 42q-170 0 -328.5 -160t-257 -402.5t-98.5 -469.5q0 -198 77.5 -300t215.5 -102q90 0 190.5 42t174.5 118q52 53 91.5 124t92.5 200h45q-93 -340 -121 -492h-45q6 44 6 70q0 52 -24 52q-16 0 -43 -18
q-73 -47 -122.5 -73t-114.5 -43t-150 -17q-228 0 -353 123t-125 359t118 475.5t323.5 395t451.5 155.5q83 0 139 -18t90.5 -44.5t76.5 -70.5q18 -18 31 -18q36 0 81 122h43q-68 -177 -131 -471z" />
    <glyph glyph-name="D" unicode="D" horiz-adv-x="1485" 
d="M1315.5 511q-126.5 -230 -349 -370.5t-495.5 -140.5q-47 0 -119 3q-171 3 -168 3q-165 0 -245 -6l6 41q70 3 105.5 16t57.5 48.5t42 111.5l268 1016q19 74 19 101q0 40 -30 56.5t-108 18.5l6 41q110 -7 200 -7l50 1l84 2q160 4 225 4q288 0 433 -115t145 -338
q0 -256 -126.5 -486zM880.5 175.5q180.5 138.5 272.5 369t92 504.5q0 185 -104 274.5t-334 89.5q-64 0 -100 -14.5t-58 -51.5t-41 -110l-268 -1024q-19 -71 -19 -101q0 -39 28 -57t97 -18q254 0 434.5 138.5z" />
    <glyph glyph-name="E" unicode="E" horiz-adv-x="1249" 
d="M1315 1450q-54 -148 -78 -242q-23 -80 -29 -127h-47q18 110 18 165q0 59 -19 92.5t-63.5 49t-123.5 15.5h-150q-73 0 -109.5 -12t-58.5 -46.5t-43 -111.5l-129 -483h135q72 0 119 34t73.5 79.5t53.5 114.5q15 39 17 42h47q-44 -135 -75 -255l-9 -36q-27 -96 -66 -291h-47
l4 26q12 78 12 113q0 63 -31 97.5t-110 34.5h-134l-132 -492q-18 -64 -18 -99q0 -30 14 -45t43 -20.5t82 -5.5h149q128 0 203.5 34t125.5 109t103 220h48q-20 -50 -46 -148q-30 -110 -55 -262q-139 6 -469 6q-393 0 -592 -6l11 41q74 3 110 16t58 48t43 112l272 1016
q18 65 18 100q0 30 -13.5 45.5t-42 22t-81.5 8.5l10 41q201 -6 594 -6q287 0 408 6z" />
    <glyph glyph-name="F" unicode="F" horiz-adv-x="1159" 
d="M1315 1450q-53 -149 -84 -262q-22 -76 -39 -168h-47q23 136 23 204q0 67 -21.5 105.5t-72.5 56t-142 17.5h-109q-73 0 -109.5 -12t-58.5 -46.5t-43 -111.5l-135 -504h150q73 0 120.5 35t73.5 81.5t53 116.5q10 26 15 37h47q-42 -127 -74 -250q-5 -25 -10 -40l-9 -36
q-75 -342 -57 -255h-47l5 31q12 78 12 111q0 61 -31 94.5t-109 33.5h-150l-126 -471q-16 -61 -16 -91q0 -34 17 -51.5t54 -24.5t105 -9l-11 -41q-106 6 -301 6q-173 0 -260 -6l11 41q74 3 110 16t58 48t43 112l272 1016q18 65 18 100q0 30 -13.5 45.5t-42 22t-81.5 8.5
l10 41q201 -6 594 -6q287 0 408 6z" />
    <glyph glyph-name="G" unicode="G" horiz-adv-x="1444" 
d="M774 31q61 19 106 45q41 24 61.5 55t32.5 74l47 180q18 68 18 106q0 36 -17 54.5t-52.5 26t-102.5 10.5l11 41q99 -7 286 -7q146 0 215 7l-10 -41q-49 -4 -73 -16.5t-40.5 -46.5t-37.5 -113l-109 -406h-41q6 32 6 54q0 63 -31 63q-13 0 -27.5 -6.5t-49.5 -28.5
q-86 -55 -169.5 -83t-179.5 -28q-250 0 -383 122t-133 347q0 237 116 479.5t321.5 401t459.5 158.5q85 0 146 -17t103.5 -45t86.5 -71q19 -19 36 -19q39 0 81 123h45q-68 -177 -131 -471h-45q10 88 10 154q0 94 -28 149q-43 75 -128 117.5t-188 42.5q-212 0 -369.5 -178
t-241 -430t-83.5 -461q0 -184 87 -272.5t267 -88.5q67 0 128 19z" />
    <glyph glyph-name="H" unicode="H" horiz-adv-x="1546" 
d="M1679 1450l-10 -41q-75 -3 -111.5 -16t-58 -48t-41.5 -112l-270 -1016q-18 -70 -18 -100t13.5 -45.5t42.5 -22t83 -8.5l-9 -41q-86 6 -262 6q-164 0 -260 -6l8 41q74 3 111 16t58.5 48t41.5 112l131 492h-657l-131 -492q-17 -66 -17 -99q0 -30 13.5 -46t42.5 -22.5
t82 -8.5l-8 -41q-96 6 -260 6q-171 0 -261 -6l11 41q72 3 108 16t57.5 48.5t41.5 111.5l270 1016q17 65 17 98q0 31 -14 47t-42.5 22.5t-81.5 8.5l10 41q84 -6 260 -6q164 0 262 6l-10 -41q-75 -3 -111.5 -16t-58 -48t-41.5 -112l-128 -483h657l129 483q18 63 18 98
q0 31 -14 47t-43 22.5t-82 8.5l10 41q93 -6 258 -6q175 0 264 6z" />
    <glyph glyph-name="I" unicode="I" horiz-adv-x="698" 
d="M323 118q0 -30 13.5 -46t42.5 -22.5t82 -8.5l-8 -41q-96 6 -260 6q-171 0 -261 -6l11 41q72 3 108 16t57.5 48.5t41.5 111.5l270 1016q17 65 17 98q0 31 -14 47t-42.5 22.5t-81.5 8.5l10 41q84 -6 260 -6q165 0 262 6l-10 -41q-75 -3 -111.5 -16t-58 -48t-41.5 -112
l-270 -1016q-17 -66 -17 -99z" />
    <glyph glyph-name="J" unicode="J" horiz-adv-x="1303" 
d="M1521 1470q0 -50 -150 -106q-286 -191 -426 -614h203l-6 -41h-210q-8 -26 -22 -80l-127 -496q-58 -229 -179.5 -373.5t-303.5 -144.5q-96 0 -152.5 30t-56.5 87q0 29 14.5 55.5t40.5 43.5t58 17q37 0 61.5 -24.5t24.5 -60.5q0 -34 -23 -61.5t-59 -43.5q30 -10 72 -10
q93 0 153 69.5t95.5 174t80.5 288.5q9 39 29 117l61 240q24 92 57 172h-272l7 41h283q59 129 143.5 234.5t184 191t234.5 182.5q-237 -123 -405 -123q-66 0 -119.5 14t-131.5 43q-76 29 -131 43.5t-122 14.5q-68 0 -102 -36t-31 -100q1 -60 40 -97.5t111 -51.5l-6 -41
q-93 16 -157.5 73t-67.5 165q-3 73 25 130t83 89t130 32q53 0 99 -15t84 -37t90 -59q52 -36 88 -57.5t81 -36t96 -14.5q66 0 122.5 11t107 29t133.5 52q77 120 127 120q14 0 28 -11q13 -11 13 -25z" />
    <glyph glyph-name="K" unicode="K" horiz-adv-x="1382" 
d="M1419 1448.5q29 -30.5 29 -79.5q0 -27 -12.5 -60.5t-39 -57.5t-67.5 -24t-60.5 24t-19.5 58q0 29 19 64.5t47 62.5h-6q-41 -2 -74 -29q-35 -32 -60.5 -86.5t-59.5 -151.5q-43 -122 -81 -200.5t-106 -139t-172 -72.5q74 -16 118 -42t70 -87t26 -173l-1 -35l-8 -232l-1 -24
q0 -40 13 -60t49 -20q52 0 87 38t65 122l34 104h41l-53 -158q-38 -112 -99.5 -165.5t-150.5 -53.5q-173 0 -173 203q0 23 1 35l14 231q3 43 3 79q0 91 -18 136.5t-57 78.5q-72 -19 -118 -19q-63 0 -63 41t61 41q41 0 125 -21q104 13 170.5 71.5t103 134t78.5 196.5
q35 102 62.5 160.5t68.5 93.5q61 47 123 47q63 0 92 -30.5zM323 118q0 -30 13.5 -46t42.5 -22.5t82 -8.5l-8 -41q-96 6 -260 6q-171 0 -261 -6l11 41q72 3 108 16t57.5 48.5t41.5 111.5l270 1016q17 65 17 98q0 31 -14 47t-42.5 22.5t-81.5 8.5l10 41q84 -6 260 -6
q164 0 262 6l-10 -41q-75 -3 -111.5 -16t-58 -48t-41.5 -112l-270 -1016q-17 -66 -17 -99z" />
    <glyph glyph-name="L" unicode="L" horiz-adv-x="1200" 
d="M1052 292q-2 -10 -8 -30q-30 -110 -55 -262q-139 6 -469 6q-393 0 -592 -6l11 41q74 3 110 16t58 48t43 112l272 1016q18 65 18 100q0 30 -13.5 45.5t-42 22t-81.5 8.5l10 41q87 -6 262 -6q165 0 261 6l-11 -41q-75 -3 -111.5 -16t-58.5 -48t-43 -112l-272 -1016
q-18 -64 -18 -99q0 -30 14 -45t43 -20.5t82 -5.5h149q128 0 204 36t127.5 115.5t107.5 231.5h47q-13 -34 -44 -138z" />
    <glyph glyph-name="M" unicode="M" horiz-adv-x="1778" 
d="M1911 1450l-10 -41q-75 -3 -111.5 -16t-58 -48t-41.5 -112l-271 -1016q-17 -65 -17 -98q0 -31 14 -47t42.5 -22.5t81.5 -8.5l-8 -41q-96 6 -254 6q-180 0 -266 -6l8 41q75 3 111.5 16t58 48t41.5 112l297 1104l-850 -1331h-45l-139 1347l-291 -1099q-18 -70 -18 -103
q0 -50 34.5 -70.5t120.5 -23.5l-10 -41q-70 6 -207 6q-122 0 -193 -6l11 41q72 3 110.5 20.5t61 57.5t43.5 119l266 995q17 65 17 98q0 31 -14 47t-42.5 22.5t-81.5 8.5l10 41q65 -6 183 -6q109 0 180 6l112 -1214l770 1208h99q157 0 256 6z" />
    <glyph glyph-name="N" unicode="N" horiz-adv-x="1577" 
d="M1757.5 1515q28.5 -29 28.5 -75q0 -36 -14 -70t-41.5 -56t-65.5 -22q-41 0 -59.5 24t-18.5 56q0 33 19 67.5t47 61.5h-6q-100 -3 -168 -104q-91 -136 -189 -477t-223 -930h-45l-467 1319q-99 -511 -189 -867t-171 -465q-47 -60 -96.5 -94.5t-123.5 -34.5q-122 0 -122 107
q0 35 14 68.5t41 55t65 21.5q42 0 60 -24t18 -56q0 -33 -18.5 -67.5t-46.5 -61.5h6q106 4 170 107q79 123 162 443.5t182 836.5q4 24 4 46q0 34 -14.5 51.5t-47.5 24.5t-96 9l10 41q66 -6 183 -6q95 0 166 6l387 -1132q88 393 172.5 681t171.5 414q90 131 221 131
q66 0 94.5 -29z" />
    <glyph glyph-name="O" unicode="O" horiz-adv-x="1493" 
d="M219 932q109 237 304.5 392t440.5 155q151 0 259.5 -58t166 -169t57.5 -267q0 -231 -110 -467.5t-306 -391.5t-440 -155q-151 0 -259 58t-165 168.5t-57 265.5q0 232 109 469zM647.5 1294.5q-143.5 -147.5 -232 -381.5t-88.5 -477q0 -132 35.5 -228.5t99.5 -148
t147 -51.5q155 0 298.5 147.5t232 381.5t88.5 477q0 132 -36 228.5t-100 148t-147 51.5q-154 0 -297.5 -147.5z" />
    <glyph glyph-name="P" unicode="P" horiz-adv-x="1206" 
d="M1166.5 1365.5q103.5 -82.5 103.5 -226.5q0 -160 -97.5 -286.5t-273.5 -198.5t-401 -72h-61l-97 -365q-20 -78 -20 -103q0 -38 30.5 -54.5t110.5 -18.5l-8 -41q-96 6 -254 6q-180 0 -267 -6l9 41q74 3 110.5 16t58.5 48t42 112l270 1016q18 65 18 98q0 42 -30.5 59.5
t-108.5 18.5l10 41q84 -6 252 -6q49 0 147 2q100 2 152 2q201 0 304.5 -82.5zM934 772.5q129 149.5 129 398.5q0 122 -62 180t-198 58q-62 0 -96.5 -15t-56 -52t-40.5 -109l-162 -610h70q287 0 416 149.5z" />
    <glyph glyph-name="Q" unicode="Q" horiz-adv-x="1599" 
d="M1398.5 71q28.5 -31 28.5 -85q0 -90 -79.5 -176.5t-202 -140.5t-242.5 -54q-100 0 -186.5 39t-154.5 96.5t-149 142.5q-172 -61 -292 -61q-101 0 -157 40.5t-56 111.5q0 53 32.5 94.5t89.5 64.5t128 23q73 0 136.5 -24t115.5 -59.5t130 -97.5q202 102 383 274
t292.5 378.5t111.5 404.5q0 120 -40.5 210t-119.5 140t-190 50q-151 0 -270 -88t-184.5 -228t-65.5 -288q0 -147 63.5 -220t169.5 -73q90 0 164 49t116 124.5t42 149.5q0 57 -15 82q-21 -42 -63.5 -67t-87.5 -25t-70.5 26.5t-25.5 69.5q0 54 40 89.5t101 35.5
q73 0 117.5 -55t44.5 -145q0 -101 -56.5 -188.5t-157.5 -140t-227 -52.5q-115 0 -197 45t-124.5 126t-42.5 187q0 175 109.5 318t286 224t368.5 81q162 0 281.5 -51t183 -146.5t63.5 -226.5q0 -207 -142.5 -418.5t-365 -388t-460.5 -289.5q80 -63 149 -106t157.5 -71
t194.5 -28q102 0 175.5 31.5t119.5 108.5q-29 -13 -63 -13q-47 0 -74 28t-27 71q0 31 16 59.5t43.5 45.5t61.5 17q45 0 73.5 -31zM389 -81q-68 71 -110 110t-88.5 65.5t-94.5 26.5q-37 0 -71.5 -16t-56 -46.5t-21.5 -70.5q0 -121 196 -121q105 0 246 52z" />
    <glyph glyph-name="R" unicode="R" horiz-adv-x="1360" 
d="M1260 248l-9 -27q-36 -129 -92.5 -189.5t-150.5 -60.5q-61 0 -103 24.5t-62.5 65.5t-20.5 89l1 18l17 229q3 34 3 64q0 87 -31 134.5t-112 69.5t-235 23l-125 -471q-19 -71 -19 -100q0 -41 30.5 -58t109.5 -18l-8 -41q-96 6 -254 6q-180 0 -267 -6l9 41q74 3 110.5 16
t58.5 48t42 112l270 1016q18 65 18 96q0 43 -31 61t-108 19l10 41q84 -6 252 -6q49 0 147 2q100 2 152 2q201 0 304.5 -77.5t103.5 -211.5q0 -111 -65.5 -204.5t-186.5 -158t-283 -91.5q24 -3 72 -11q80 -15 128.5 -39.5t73.5 -69.5t25 -118q0 -13 -2 -43l-16 -209
q-2 -28 -2 -42q0 -126 65 -126q35 0 63 42t60 130l10 29h48zM539 729q276 0 400 120.5t124 321.5q0 122 -62 180t-198 58q-62 0 -96.5 -15t-56 -52t-40.5 -109l-134 -504h63z" />
    <glyph glyph-name="S" unicode="S" horiz-adv-x="1135" 
d="M1059 1047h-41q12 57 12 116q0 78 -30.5 140.5t-96 99.5t-164.5 37q-129 0 -207.5 -66t-78.5 -194q0 -70 33.5 -134.5t82.5 -117.5t134 -132q89 -83 142 -140.5t89.5 -129.5t36.5 -153q0 -134 -77 -224.5t-195.5 -134t-245.5 -43.5q-108 0 -173.5 26.5t-117.5 68.5
q-39 30 -74 30q-24 0 -41 -24t-43 -86h-41q69 163 139 491h41q-11 -61 -15 -94.5t-3 -71.5q13 -299 334 -299q139 0 220 63.5t81 192.5q0 78 -31 144t-75.5 116.5t-121.5 123.5q-81 77 -129.5 132.5t-82 130t-33.5 164.5q0 126 64 216.5t167.5 137t218.5 46.5
q84 0 145.5 -20.5t121.5 -65.5q47 -37 67 -37q17 0 32 25t36 83h41q-74 -180 -121 -417z" />
    <glyph glyph-name="T" unicode="T" horiz-adv-x="1350" 
d="M1640.5 1645q23.5 -28 23.5 -70q0 -45 -26.5 -83t-69.5 -65q-109 -67 -324 -67q-89 0 -210 14l-302 -1136q-18 -65 -18 -104q0 -35 17 -54.5t53.5 -28t101.5 -10.5l-8 -41q-108 6 -306 6q-200 0 -299 -6l9 41q87 3 134.5 21t74.5 58t51 118l309 1160q-159 23 -264 23
q-178 0 -230 -35q16 -21 26.5 -54.5t10.5 -63.5q0 -47 -26 -83t-76 -36q-44 0 -67 27.5t-23 74.5q0 107 108 160q96 47 275 47q130 0 341 -29q214 -28 333 -28q91 0 152.5 10t110.5 35q-50 52 -50 115q0 46 25.5 79t74.5 33q45 0 68.5 -28z" />
    <glyph glyph-name="U" unicode="U" horiz-adv-x="1397" 
d="M1305 1303q0 56 -35 79t-116 27l10 41q70 -6 207 -6q123 0 193 6l-11 -41q-72 -3 -111.5 -21t-63 -58t-42.5 -118l-159 -616q-75 -285 -201 -434q-75 -88 -185 -139.5t-235 -51.5q-219 0 -315 111q-72 80 -72 208q0 106 51 300l170 643q17 65 17 98q0 31 -13.5 47
t-42.5 22.5t-82 8.5l13 41q82 -6 264 -6q157 0 256 6l-12 -41q-75 -3 -112 -16t-58 -48t-41 -112l-181 -678q-45 -177 -45 -277q0 -113 55.5 -174t186.5 -61q215 0 338.5 139.5t189.5 390.5l168 639q14 56 14 91z" />
    <glyph glyph-name="V" unicode="V" 
d="M1519 1450l-11 -41q-109 -23 -206 -178l-807 -1241h-31l-162 1288q-8 67 -39 98t-67 33l10 41q80 -6 221 -6q156 0 246 6l-10 -41q-64 -3 -98 -11.5t-52 -33t-18 -74.5q0 -13 4 -53l116 -989l568 870q88 135 88 203q0 45 -37.5 65.5t-114.5 22.5l10 41q114 -6 234 -6
q91 0 156 6z" />
    <glyph glyph-name="W" unicode="W" horiz-adv-x="1847" 
d="M2035 1450l-11 -41q-121 -25 -194 -178l-612 -1241h-33l-147 933l-556 -933h-32l-162 1288q-18 127 -113 131l8 41q84 -6 203 -6q148 0 221 6l-8 -41q-63 -4 -90.5 -28.5t-27.5 -90.5q0 -23 3 -53l115 -977l429 726l-46 292q-20 127 -92 131l8 41q73 -6 182 -6
q177 0 262 6l-8 -41q-62 -3 -95.5 -12t-49.5 -31t-16 -64q0 -27 6 -65l146 -931l400 812q68 136 68 200q0 50 -38 69.5t-120 21.5l11 41q112 -6 233 -6q92 0 156 6z" />
    <glyph glyph-name="X" unicode="X" horiz-adv-x="1432" 
d="M1505.5 1449.5q29.5 -29.5 29.5 -76.5q0 -30 -13 -64t-40.5 -58t-68.5 -24q-39 0 -58.5 22.5t-19.5 55.5q0 31 18.5 67.5t47.5 63.5h-6q-71 0 -131 -43q-92 -67 -206 -226t-219 -386l54 -464q12 -108 49 -170.5t113 -62.5q60 0 97 37.5t67 122.5l34 104h41l-53 -158
q-38 -112 -99.5 -165.5t-150.5 -53.5q-134 0 -192.5 90t-75.5 230l-37 322q-81 -169 -207 -329.5t-237 -240.5q-95 -72 -189 -72q-63 0 -92.5 29.5t-29.5 76.5q0 30 13 64t40.5 58t68.5 24q40 0 59 -22.5t19 -55.5q0 -30 -18 -67t-47 -64h8q69 3 129 43q106 70 234 230.5
t241 392.5l-53 453q-13 108 -50 170.5t-112 62.5q-60 0 -97 -37.5t-67 -122.5l-35 -104h-41l53 158q39 112 100.5 165.5t149.5 53.5q134 0 192.5 -89.5t76.5 -230.5l37 -316q80 173 188.5 329t204.5 235q93 72 188 72q63 0 92.5 -29.5z" />
    <glyph glyph-name="Y" unicode="Y" horiz-adv-x="1372" 
d="M1520 1447.5q27 -31.5 27 -78.5q0 -30 -13 -63t-40.5 -56t-67.5 -23q-77 0 -77 81q0 33 18 67t47 61h-6q-55 -3 -113 -45q-107 -78 -230.5 -251.5t-237.5 -447.5l-119 -475q-17 -66 -17 -99q0 -30 13.5 -46t42 -22.5t81.5 -8.5l-10 -41q-92 6 -254 6q-180 0 -268 -6
l10 41q74 3 111 16t59 48.5t41 111.5l120 478q-73 671 -239 671q-35 0 -58 -22t-40 -74l-57 -168h-45l67 198q22 64 46 102t61 57.5t94 19.5q108 0 174.5 -88t103.5 -245.5t64 -408.5q148 372 383 609q133 133 242 133q60 0 87 -31.5z" />
    <glyph glyph-name="Z" unicode="Z" horiz-adv-x="1335" 
d="M1472 1433q0 -28 -38 -62.5t-115 -63.5l-567 -557h311l-16 -41h-336l-580 -570q188 111 354 111q58 0 103.5 -14t114.5 -43q65 -29 113.5 -43.5t107.5 -14.5q68 0 103.5 35.5t35.5 99.5q0 120 -148 150l9 41q92 -17 154.5 -73.5t62.5 -164.5q0 -73 -30 -130t-86.5 -89.5
t-131.5 -32.5q-47 0 -87.5 15t-72.5 37t-79 59q-45 36 -76 57.5t-70 36t-84 14.5q-79 0 -142.5 -21.5t-160.5 -70.5q-37 -53 -78.5 -86t-72.5 -33q-16 0 -29 11q-12 10 -12 27q0 28 38 62.5t115 63.5l576 566h-332l14 41h359l571 561q-188 -111 -355 -111q-58 0 -103.5 14
t-114.5 43q-66 29 -113.5 43.5t-106.5 14.5q-68 0 -103.5 -35.5t-35.5 -99.5q0 -120 147 -150l-8 -41q-92 17 -154.5 73.5t-62.5 164.5q0 73 30 130t86.5 89.5t131.5 32.5q47 0 87.5 -15t72.5 -37t78 -59q47 -37 77.5 -58t69.5 -35.5t84 -14.5q79 0 142 21t161 71
q37 53 77.5 86t72.5 33q16 0 30 -11q12 -10 12 -27z" />
    <glyph glyph-name="a" unicode="a" 
d="M1071 73.5q28 -30.5 64 -32.5l-11 -41q-82 6 -223 6q-165 0 -246 -6l11 41q63 3 101 14.5t58 39t20 78.5q0 18 -3 40l-31 254h-519l-140 -174q-81 -99 -81 -164q0 -78 124 -88v-41q-61 6 -187 6q-125 0 -178 -6v41q90 23 223 190l824 1029h30l127 -1088q9 -68 37 -98.5z
M743 1027l-418 -519h481z" />
    <glyph glyph-name="b" unicode="b" horiz-adv-x="1255" 
d="M1014.5 567.5q79.5 -71.5 79.5 -176.5q0 -109 -77 -198.5t-205.5 -141t-274.5 -51.5q-70 0 -150 3q-183 3 -203 3q-163 0 -250 -6l9 41q74 3 110.5 16t58.5 48t42 112l217 811q18 65 18 98q0 42 -31 60t-108 18l10 41q83 -6 244 -6q44 0 138 2q98 2 151 2
q190 0 287.5 -59t97.5 -162q0 -85 -59 -156.5t-154 -122t-207 -79.5q177 -25 256.5 -96.5zM571 668q120 0 212 46.5t142 124.5t50 169q0 99 -53 147.5t-168 48.5q-63 0 -97 -11.5t-54 -42t-36 -91.5l-104 -391h108zM717.5 93.5q96.5 46.5 134 128t37.5 200.5q0 211 -293 211
h-142l-110 -416q-19 -73 -19 -101q0 -38 27.5 -53.5t96.5 -15.5q172 0 268.5 46.5z" />
    <glyph glyph-name="c" unicode="c" horiz-adv-x="1362" 
d="M304.5 21q-106.5 50 -163 146.5t-56.5 233.5q0 207 105 410t296.5 333t438.5 130q112 0 180.5 -35.5t122.5 -97.5q15 -18 29 -18q38 0 83 122h45q-64 -189 -133 -471h-45q13 101 13 158q0 78 -33 145q-37 78 -111.5 119t-169.5 41q-162 0 -304 -135.5t-227 -341
t-85 -400.5q0 -169 77 -260.5t212 -91.5q94 0 194 42t174 118q54 56 93 126t92 198h45q-97 -355 -121 -492h-45q6 44 6 70q0 52 -26 52q-16 0 -42 -18q-93 -65 -182.5 -99t-206.5 -34q-149 0 -255.5 50z" />
    <glyph glyph-name="d" unicode="d" horiz-adv-x="1483" 
d="M1280 387q-113 -181 -321 -284t-484 -103q-47 0 -119 3q-171 3 -168 3q-165 0 -245 -6l6 41q70 3 105.5 16t57.5 48.5t42 111.5l215 811q19 67 19 100q0 42 -30.5 58.5t-107.5 17.5l6 41q110 -7 200 -7l50 1l84 2q160 4 225 4q288 0 433 -115t145 -337q0 -225 -113 -406z
M872.5 138.5q166.5 101.5 245 282t78.5 423.5q0 185 -104 274.5t-334 89.5q-64 0 -100 -14.5t-58 -51.5t-41 -110l-215 -819q-18 -69 -18 -102q0 -40 27.5 -57t97.5 -17q255 0 421.5 101.5z" />
    <glyph glyph-name="e" unicode="e" horiz-adv-x="1268" 
d="M1278 1245q-30 -75 -74 -221l-6 -23q-22 -88 -29 -124h-47q19 93 19 149q0 63 -22 100.5t-70 54.5t-127 17h-150q-74 0 -110.5 -11.5t-58.5 -46.5t-42 -112l-103 -381h191q65 0 110.5 37t70.5 83t51 110h47q-52 -157 -74 -250l-13 -49q-28 -106 -42 -201h-47q9 58 9 94
q0 64 -31.5 99.5t-113.5 35.5h-169l-105 -389q-17 -66 -17 -99q0 -30 13.5 -45t42.5 -20.5t82 -5.5h149q112 0 187.5 34.5t131.5 112.5t107 216h47q-35 -108 -49 -168q-24 -81 -51 -242q-143 6 -481 6q-379 0 -574 -6l11 41q74 3 110.5 16t58.5 48t42 112l219 811
q17 66 17 100q0 30 -13.5 45.5t-42 22t-80.5 8.5l10 41q193 -6 572 -6q309 0 444 6z" />
    <glyph glyph-name="f" unicode="f" horiz-adv-x="1184" 
d="M1284 1245q-30 -75 -74 -221q-29 -117 -34 -147h-48q18 86 18 145q0 95 -52 135.5t-172 40.5h-150q-74 0 -110.5 -11.5t-58.5 -46.5t-42 -112l-103 -381h212q65 0 110 37t70 83t51 110h47q-45 -136 -74 -250l-12 -48q-27 -99 -43 -202h-47q8 64 8 96q0 63 -26.5 98
t-96.5 35h-210l-105 -389q-15 -57 -15 -90q0 -34 17 -52t53.5 -25t104.5 -9l-10 -41q-105 6 -299 6q-173 0 -263 -6l11 41q74 3 110.5 16t58.5 48t42 112l219 811q17 66 17 100q0 30 -13.5 45.5t-42 22t-80.5 8.5l10 41q193 -6 572 -6q315 0 450 6z" />
    <glyph glyph-name="g" unicode="g" horiz-adv-x="1427" 
d="M1058 44q0 52 -31 52q-33 0 -108 -47q-68 -41 -143 -59.5t-175 -18.5q-251 0 -383.5 111t-132.5 317q0 201 102 404.5t293.5 337t444.5 133.5q84 0 145 -17t104 -45t87 -71q19 -19 35 -19q39 0 81 123h45q-66 -193 -131 -471h-45q10 88 10 154q0 94 -28 149
q-43 75 -127.5 117.5t-188.5 42.5q-209 0 -353 -154t-214 -367.5t-70 -383.5q0 -163 87.5 -241.5t267.5 -78.5q61 0 129.5 16t123 52.5t70.5 95.5l37 137q19 71 19 106q0 36 -17 54t-52.5 26t-102.5 11l8 41q108 -6 289 -6q138 0 213 6l-9 -41q-51 -3 -75.5 -15.5t-41 -47
t-38.5 -113.5l-90 -334h-41q6 28 6 44z" />
    <glyph glyph-name="h" unicode="h" horiz-adv-x="1552" 
d="M1628 1245l-10 -41q-75 -3 -111.5 -16t-58 -48t-41.5 -112l-215 -811q-17 -66 -17 -99q0 -30 13.5 -46t42.5 -22.5t82 -8.5l-8 -41q-87 6 -263 6q-164 0 -260 -6l9 41q74 3 110.5 16t58 48t41.5 112l104 389h-658l-103 -389q-17 -66 -17 -99q0 -30 13.5 -46t42.5 -22.5
t82 -8.5l-8 -41q-96 6 -260 6q-172 0 -260 -6l10 41q72 3 108 16t57.5 48.5t41.5 111.5l215 811q17 65 17 98q0 31 -14 47t-42.5 22.5t-81.5 8.5l10 41q82 -6 260 -6q165 0 262 6l-10 -41q-75 -3 -111.5 -16t-58 -48t-41.5 -112l-101 -381h658l101 381q17 65 17 98
q0 31 -14 47t-42.5 22.5t-81.5 8.5l10 41q91 -6 258 -6q175 0 264 6z" />
    <glyph glyph-name="i" unicode="i" horiz-adv-x="705" 
d="M327 118q0 -30 13.5 -46t42.5 -22.5t82 -8.5l-8 -41q-96 6 -260 6q-172 0 -260 -6l10 41q72 3 108 16t57.5 48.5t41.5 111.5l215 811q17 65 17 98q0 31 -14 47t-42.5 22.5t-81.5 8.5l10 41q82 -6 260 -6q165 0 262 6l-10 -41q-75 -3 -111.5 -16t-58 -48t-41.5 -112
l-215 -811q-17 -66 -17 -99z" />
    <glyph glyph-name="i.loclTRK" horiz-adv-x="705" 
d="M0 0zM327 118q0 -30 13.5 -46t42.5 -22.5t82 -8.5l-8 -41q-96 6 -260 6q-172 0 -260 -6l10 41q72 3 108 16t57.5 48.5t41.5 111.5l215 811q17 65 17 98q0 31 -14 47t-42.5 22.5t-81.5 8.5l10 41q82 -6 260 -6q165 0 262 6l-10 -41q-75 -3 -111.5 -16t-58 -48t-41.5 -112
l-215 -811q-17 -66 -17 -99zM482.5 1556.5q20.5 35.5 55.5 58.5t76 23q47 0 75.5 -30.5t28.5 -77.5q0 -37 -20.5 -73t-56 -58.5t-76.5 -22.5q-46 0 -74.5 31t-28.5 78q0 36 20.5 71.5z" />
    <glyph glyph-name="j" unicode="j" horiz-adv-x="1260" 
d="M1390 1245q0 -49 -150 -106q-88 -71 -148.5 -158.5t-105 -194t-92.5 -262.5h205l-6 -41h-211l-4 -12l-144 -481q-32 -106 -97 -191t-163.5 -134.5t-222.5 -49.5q-96 0 -152.5 30t-56.5 87q0 29 14.5 55.5t40.5 43.5t58 17q37 0 61.5 -24.5t24.5 -60.5q0 -34 -23 -61.5
t-59 -43.5q30 -10 71 -10q101 0 160.5 49.5t95 134.5t87.5 260q-2 -8 18 62l67 225q13 42 35 104h-258l6 41h267q56 140 128 242t150 176t219 191q-95 -58 -179.5 -90.5t-164.5 -32.5q-64 0 -116 14.5t-124 42.5q-75 29 -127 43t-116 14q-68 0 -102 -35.5t-31 -99.5
q3 -121 151 -149l-6 -41q-93 16 -157.5 72.5t-67.5 164.5q-3 73 25 130t82.5 89.5t129.5 32.5q51 0 96 -15t80.5 -37t87.5 -59q50 -36 85 -57.5t78 -36t92 -14.5q78 0 140.5 21.5t160.5 70.5q77 120 128 120q14 0 27 -11t13 -25z" />
    <glyph glyph-name="k" unicode="k" horiz-adv-x="1380" 
d="M1331 1244q29 -30 29 -80q0 -27 -12.5 -60.5t-39 -57.5t-67.5 -24t-60.5 24t-19.5 58q0 29 19 64.5t47 62.5h-6q-25 0 -40.5 -6.5t-33.5 -22.5q-30 -28 -51.5 -75t-50.5 -128q-37 -103 -69.5 -170t-89.5 -118.5t-143 -62.5q109 -24 165 -86t56 -186q0 -23 -1 -36l-5 -176
q-1 -37 19 -58.5t49 -21.5q52 0 87 38t65 122l34 104h41l-53 -158q-38 -112 -99.5 -165.5t-150.5 -53.5q-86 0 -130 50t-44 145q0 13 2 43l13 151q2 17 2 51q0 82 -23.5 141.5t-64.5 78.5q-81 -21 -131 -21q-66 0 -66 37q0 39 64 39q46 0 127 -20q90 8 147.5 56.5t88.5 113
t65 167.5q31 90 55 141.5t61 82.5q60 47 123 47t92 -30zM327 118q0 -30 13.5 -46t42.5 -22.5t82 -8.5l-8 -41q-96 6 -260 6q-172 0 -260 -6l10 41q72 3 108 16t57.5 48.5t41.5 111.5l215 811q17 65 17 98q0 31 -14 47t-42.5 22.5t-81.5 8.5l10 41q82 -6 260 -6q164 0 262 6
l-10 -41q-75 -3 -111.5 -16t-58 -48t-41.5 -112l-215 -811q-17 -66 -17 -99z" />
    <glyph glyph-name="l" unicode="l" horiz-adv-x="1217" 
d="M1042 242q-20 -67 -51 -242q-143 6 -487 6q-379 0 -574 -6l11 41q74 3 110.5 16t58.5 48t42 112l219 811q17 66 17 100q0 30 -13.5 45.5t-42 22t-80.5 8.5l10 41q82 -6 260 -6q165 0 262 6l-10 -41q-75 -3 -112 -16t-59 -48t-42 -112l-219 -811q-17 -66 -17 -99
q0 -30 13.5 -45t42.5 -20.5t82 -5.5h129q155 0 270.5 89t190.5 294h47q-43 -125 -58 -188z" />
    <glyph glyph-name="m" unicode="m" horiz-adv-x="1774" 
d="M1862 1274l-11 -41q-75 -3 -111.5 -16t-58 -48t-41.5 -112l-223 -840q-17 -65 -17 -98q0 -31 14 -47t42.5 -22.5t81.5 -8.5l-8 -41q-96 6 -254 6q-180 0 -266 -6l8 41q75 3 111 16t57.5 48t42.5 112l248 925l-801 -1152h-45l-188 1168l-242 -920q-18 -70 -18 -104
q0 -50 34 -70t119 -23l-10 -41q-75 6 -207 6q-126 0 -193 -6l11 41q72 3 111.5 20.5t62.5 57.5t45 119l217 819q17 65 17 98q0 31 -14 47t-42.5 22.5t-81.5 8.5l10 41q64 -6 182 -6q101 0 172 6l162 -1056l729 1050h99q157 0 256 6z" />
    <glyph glyph-name="n" unicode="n" horiz-adv-x="1632" 
d="M1755.5 1310q28.5 -29 28.5 -75q0 -36 -14 -70t-41.5 -56t-65.5 -22q-41 0 -59.5 24.5t-18.5 55.5q0 34 19 69.5t47 59.5h-6q-53 -1 -92.5 -28t-75.5 -76q-91 -128 -192 -421t-220 -781h-45l-466 1124q-222 -963 -361 -1137q-33 -40 -61.5 -66.5t-68 -44.5t-90.5 -18
q-123 0 -123 107q0 36 14 69t41.5 54.5t65.5 21.5q42 0 60 -24t18 -56q0 -33 -18.5 -67.5t-46.5 -61.5h4q100 4 172 107q145 215 348 1111q2 39 -11.5 58t-46.5 26.5t-100 10.5l10 41q64 -6 183 -6q95 0 166 6l388 -964q90 333 175 576.5t168 350.5q96 131 221 131
q66 0 94.5 -29z" />
    <glyph glyph-name="o" unicode="o" horiz-adv-x="1499" 
d="M333 25.5q-113 54.5 -176.5 165t-63.5 274.5q0 185 104.5 374t291 312t419.5 123q151 0 264 -54.5t176.5 -165t63.5 -274.5q0 -185 -104.5 -374t-291 -312t-419.5 -123q-151 0 -264 54.5zM594.5 1120.5q-132.5 -116.5 -207.5 -302t-75 -382.5q0 -222 81 -325t222 -103
q163 0 295.5 116.5t207.5 302t75 382.5q0 222 -81 325t-222 103q-163 0 -295.5 -116.5z" />
    <glyph glyph-name="p" unicode="p" horiz-adv-x="1192" 
d="M1113.5 1171.5q103.5 -71.5 103.5 -196.5q0 -135 -95 -243.5t-266.5 -170t-390.5 -61.5h-48l-75 -283q-17 -70 -17 -98q0 -39 29.5 -56.5t108.5 -21.5l-8 -41q-96 6 -254 6q-180 0 -267 -6l9 41q74 3 110.5 16t58.5 48t42 112l215 811q14 65 14 90q0 43 -29 62.5
t-106 23.5l10 41q82 -6 252 -6q47 0 147 2t152 2q201 0 304.5 -71.5zM886 668q124 127 124 340q0 100 -62 148t-198 48q-62 0 -96.5 -15t-56 -52t-40.5 -109l-129 -487h57q277 0 401 127z" />
    <glyph glyph-name="q" unicode="q" horiz-adv-x="1591" 
d="M1389 30q28 -31 28 -83q0 -97 -77 -173t-195 -117.5t-234 -41.5q-110 0 -202.5 37t-164.5 92.5t-150 134.5q-159 -47 -279 -47q-104 0 -160.5 39t-56.5 106q0 82 66 125t175 43q75 0 141.5 -24t122.5 -59.5t134 -95.5q195 85 364 223t272 311t103 354q0 115 -40.5 201.5
t-119 134t-188.5 47.5q-141 0 -261 -69t-190.5 -189.5t-70.5 -265.5q0 -135 65 -203t174 -68q73 0 146 36.5t120 97.5t47 131q0 53 -16 81q-22 -43 -62.5 -68.5t-84.5 -25.5q-45 0 -71 27t-26 70q0 53 40 88.5t98 35.5q75 0 120 -52t45 -138q0 -100 -60.5 -175t-158.5 -115
t-207 -40q-126 0 -210.5 37.5t-126 104t-41.5 155.5q0 176 116 308.5t291.5 203t345.5 70.5q156 0 278 -50.5t191.5 -147t69.5 -228.5q0 -182 -134 -358t-343.5 -318t-439.5 -233q77 -58 141.5 -96.5t143.5 -63.5t171 -25q118 0 197.5 23t142.5 82q-37 -19 -74 -19
q-46 0 -73 29t-27 72q0 31 16 58.5t43.5 44.5t61.5 17q46 0 74 -31zM368 -95q-68 70 -108.5 107t-86.5 62.5t-93 25.5q-60 0 -103 -30.5t-43 -85.5q0 -59 54.5 -88t124.5 -29q121 0 255 38z" />
    <glyph glyph-name="r" unicode="r" horiz-adv-x="1325" 
d="M1208 248l-8 -27q-36 -127 -96.5 -188.5t-155.5 -61.5q-94 0 -136.5 57t-37.5 140l8 129q2 40 2 57q0 82 -26 129.5t-91.5 72t-188.5 30.5h-11h-26l-99 -369q-17 -70 -17 -98q0 -39 29.5 -56.5t108.5 -21.5l-8 -41q-96 6 -254 6q-180 0 -267 -6l9 41q74 3 110.5 16
t58.5 48t42 112l217 811q14 65 14 90q0 43 -29 62.5t-106 23.5l10 41q83 -6 252 -6q47 0 147 2t152 2q201 0 304.5 -66t103.5 -182q0 -103 -64 -184t-181.5 -134.5t-277.5 -75.5l45 -7q81 -15 131 -41.5t75 -74t25 -124.5q0 -20 -1 -30l-6 -109q-2 -36 -2 -52
q0 -57 14.5 -86.5t49.5 -29.5q36 0 63.5 41.5t60.5 130.5l10 29h47zM487 627q196 0 310.5 39t164.5 121.5t50 220.5q0 100 -62 148t-198 48q-62 0 -96.5 -15t-56 -52t-40.5 -109l-107 -401h35z" />
    <glyph glyph-name="s" unicode="s" horiz-adv-x="1153" 
d="M1018 842h-41q12 59 12 114q0 124 -72 201.5t-223 77.5q-124 0 -203 -55.5t-79 -161.5q0 -69 34 -124t88 -98.5t144 -101.5q103 -67 160 -112.5t96 -108.5t39 -145q0 -117 -76.5 -197.5t-195.5 -120t-244 -39.5q-77 0 -132.5 14t-90 33.5t-70.5 47.5q-40 30 -72 30
q-26 0 -42 -23t-44 -87h-41q69 163 139 491h41q-18 -104 -18 -151q0 -150 82.5 -232t255.5 -82q138 0 217.5 54t79.5 165q0 71 -31.5 127t-80 98t-126.5 95q-99 68 -151.5 110.5t-89.5 105.5t-37 148q0 113 64 194.5t168.5 123t223.5 41.5q85 0 142 -21t119 -65
q48 -37 67 -37q17 0 32 25t36 84h41q-74 -184 -121 -418z" />
    <glyph glyph-name="t" unicode="t" horiz-adv-x="1251" 
d="M1472.5 1440.5q23.5 -27.5 23.5 -68.5q0 -82 -94 -151q-60 -34 -125 -50t-158 -16q-68 0 -173 11l-269 -928q-19 -66 -19 -102t17 -56t54 -29t101 -10l-8 -41q-106 6 -305 6q-200 0 -299 -6l8 41q89 3 135.5 19.5t74 56.5t50.5 121l277 954q-173 25 -258 25
q-130 0 -193 -35q16 -22 26.5 -55.5t10.5 -63.5q0 -47 -26.5 -83t-75.5 -36q-43 0 -66.5 28t-23.5 75q0 103 106 159q88 47 232 47q75 0 144 -7t181 -22q204 -28 307 -28q76 0 127 10.5t101 34.5q-51 51 -51 115q0 46 25.5 79t74.5 33q45 0 68.5 -27.5z" />
    <glyph glyph-name="u" unicode="u" horiz-adv-x="1399" 
d="M974 162q-75 -88 -185 -139.5t-235 -51.5q-229 0 -315 111q-38 46 -55.5 96t-17.5 114q0 101 52 298l117 438q17 65 17 98q0 31 -14 47t-42.5 22.5t-81.5 8.5l12 41q84 -6 265 -6q157 0 256 6l-13 -41q-75 -3 -111.5 -16t-58 -48t-41.5 -112l-127 -473q-45 -177 -45 -277
q0 -113 56 -174t186 -61q215 0 338.5 139.5t189.5 390.5l117 435q15 54 15 91q0 55 -36 78t-116 27l10 41q74 -6 207 -6q125 0 192 6l-10 -41q-63 -3 -102.5 -21t-66.5 -59t-48 -116l-108 -412q-75 -285 -201 -434z" />
    <glyph glyph-name="v" unicode="v" horiz-adv-x="1303" 
d="M1486 1245l-10 -41q-61 -24 -107 -65t-121 -135l-809 -1014h-30l-136 1083q-8 67 -39 98t-67 33l10 41q80 -6 221 -6q158 0 246 6l-10 -41q-63 -3 -97.5 -12t-52 -34.5t-17.5 -74.5q0 -22 3 -51l98 -811l557 697q116 144 116 211q0 70 -130 75l10 41q59 -6 226 -6
q83 0 139 6z" />
    <glyph glyph-name="w" unicode="w" horiz-adv-x="1855" 
d="M2010 1245l-10 -41q-63 -19 -112 -63t-107 -140l-619 -1011h-33l-150 926l-552 -926h-33l-135 1083q-17 127 -113 131l9 41q83 -6 202 -6q147 0 222 6l-9 -41q-63 -4 -90.5 -28.5t-27.5 -88.5q0 -27 4 -55l88 -769l424 716l-15 94q-19 127 -92 131l8 41q75 -6 183 -6
q175 0 262 6l-8 -41q-62 -3 -96 -12t-50.5 -30.5t-16.5 -62.5q0 -31 7 -67l131 -770l385 633q93 153 93 225q0 44 -31 63t-93 21l11 41q62 -6 186 -6q129 0 178 6z" />
    <glyph glyph-name="x" unicode="x" horiz-adv-x="1384" 
d="M1405.5 1245q29.5 -29 29.5 -76q0 -31 -13 -65t-40.5 -58t-68.5 -24q-40 0 -59 22.5t-19 55.5q0 30 18 67t47 64h-6q-68 -3 -131 -43q-81 -59 -180.5 -191t-193.5 -318l40 -362q13 -108 50 -170.5t112 -62.5q60 0 97 37.5t67 122.5l35 104h41l-53 -158
q-39 -112 -100.5 -165.5t-149.5 -53.5q-135 0 -194 90.5t-75 229.5l-25 221q-82 -144 -189 -271.5t-201 -197.5q-99 -72 -189 -72q-63 0 -92.5 29.5t-29.5 76.5q0 30 13 64t40.5 58t68.5 24q40 0 59 -22.5t19 -55.5q0 -30 -18 -67t-47 -64h6q73 3 131 43q93 60 205 194
t217 328l-39 349q-13 108 -49.5 170.5t-112.5 62.5q-60 0 -97 -37.5t-67 -122.5l-35 -104h-41l54 158q38 112 99.5 165.5t149.5 53.5q135 0 194 -90.5t75 -229.5l24 -215q77 148 169 273t173 190q91 72 189 72q63 0 92.5 -29z" />
    <glyph glyph-name="y" unicode="y" horiz-adv-x="1307" 
d="M1403.5 1242.5q27.5 -31.5 27.5 -78.5q0 -30 -13.5 -63t-40.5 -56t-67 -23q-78 0 -78 81q0 31 18.5 65.5t46.5 62.5h-6q-50 -3 -112 -45q-104 -78 -220.5 -231t-221.5 -393l-89 -345q-17 -66 -17 -99q0 -30 13.5 -46t42.5 -22.5t82 -8.5l-10 -41q-93 6 -254 6
q-180 0 -268 -6l10 41q74 3 111 16t59 48.5t41 111.5l97 376q-59 568 -191 568q-36 0 -59 -22t-40 -74l-57 -168h-45l67 199q22 64 46 101.5t61 57t94 19.5q85 0 136 -60t81 -170t62 -307l15 -100q144 310 349 512q55 54 118 89.5t124 35.5q60 0 87.5 -31.5z" />
    <glyph glyph-name="z" unicode="z" horiz-adv-x="1339" 
d="M1433 1228q0 -28 -38 -62.5t-115 -63.5l-549 -455h238l-17 -41h-270l-563 -467q186 111 354 111q58 0 103.5 -14t114.5 -43q66 -29 113.5 -43.5t106.5 -14.5q69 0 104.5 35.5t35.5 99.5q0 120 -148 150l8 41q93 -17 155 -73.5t62 -164.5q0 -73 -30 -130t-86 -89.5
t-131 -32.5q-47 0 -87.5 15t-72.5 37t-79 59q-45 36 -76 57.5t-70 36t-84 14.5q-79 0 -142.5 -21.5t-160.5 -70.5q-37 -53 -78.5 -86t-73.5 -33q-16 0 -29 11q-12 10 -12 27q0 28 38 62.5t116 63.5l558 463h-233l15 41h268l553 459q-188 -111 -354 -111q-58 0 -104.5 14
t-114.5 43q-66 29 -113.5 43.5t-106.5 14.5q-68 0 -103.5 -35.5t-35.5 -99.5q0 -120 147 -150l-8 -41q-92 17 -154.5 73.5t-62.5 164.5q0 73 30 130t86.5 89.5t131.5 32.5q47 0 87.5 -15t72.5 -37t78 -59q47 -37 77.5 -58t69.5 -35.5t84 -14.5q55 0 102 11t90 29t111 52
q37 53 78 86t72 33q16 0 30 -11q12 -10 12 -27z" />
    <glyph glyph-name="uni0410" unicode="&#x410;" horiz-adv-x="1288" 
d="M0 0zM1066.5 74q29.5 -31 66.5 -33l-9 -41q-82 6 -223 6q-165 0 -246 -6l9 41q70 3 108 17.5t54.5 50t13.5 104.5l-19 336h-503l-154 -217q-96 -136 -96 -204q0 -84 151 -87l-10 -41q-114 6 -234 6q-89 0 -153 -6l10 41q94 20 205 178l883 1241h30l82 -1288
q5 -67 34.5 -98zM785 1209l-438 -619h472z" />
    <glyph glyph-name="uni0411" unicode="&#x411;" horiz-adv-x="1292" 
d="M1323 1450q-50 -129 -78 -242q-11 -46 -26 -127h-45q15 84 15 144q0 97 -43 137.5t-138 40.5h-191q-72 0 -108 -12t-57.5 -46.5t-41.5 -111.5l-122 -463h73q201 0 327.5 -30.5t191.5 -104.5t65 -203q0 -139 -88 -237t-228 -146.5t-294 -48.5q-70 0 -150 3q-183 3 -203 3
q-163 0 -250 -6l9 41q74 3 110.5 16t58.5 48t42 112l270 1016q17 65 17 98q0 31 -14 47t-42.5 22.5t-81.5 8.5l10 41l70 -2q114 -4 178 -4q45 -1 131 -1l209 1q295 0 424 6zM342 217q-19 -73 -19 -100q0 -38 27 -54t96 -16q261 0 377.5 105t116.5 311q0 94 -36 153
t-124.5 89t-244.5 30h-56z" />
    <glyph glyph-name="uni0412" unicode="&#x412;" 
d="M0 0zM1145 432q0 -139 -88 -237t-228 -146.5t-294 -48.5q-70 0 -150 3q-183 3 -203 3q-163 0 -250 -6l9 41q74 3 110.5 16t58.5 48t42 112l270 1016q17 68 17 98q0 41 -30 59t-108 19l10 41q84 -6 244 -6q44 0 138 2q98 2 151 2q190 0 287.5 -70t97.5 -192
q0 -100 -59 -183.5t-154 -142.5t-207 -94q336 -55 336 -334zM623 770q119 0 211 55.5t142 147.5t50 198q0 122 -52.5 180t-168.5 58q-62 0 -96.5 -12t-54.5 -42t-36 -91l-130 -494h135zM823.5 152q116.5 105 116.5 311q0 272 -293 272h-168l-137 -518q-19 -73 -19 -100
q0 -38 27 -54t96 -16q261 0 377.5 105z" />
    <glyph glyph-name="uni0413" unicode="&#x413;" horiz-adv-x="1090" 
d="M324 126q0 -34 17 -51.5t54 -24.5t105 -9l-11 -41q-106 6 -301 6q-173 0 -260 -6l11 41q74 3 110 16t58 48t43 112l272 1016q18 65 18 100q0 30 -13.5 45.5t-42 22t-81.5 8.5l10 41l81 -2q124 -4 192 -4q42 -1 124 -1l197 1q244 0 346 6q-46 -133 -84 -262
q-16 -60 -39 -168h-47q22 114 22 194q0 101 -37.5 145t-115.5 44h-129q-73 0 -109.5 -12t-58.5 -46.5t-43 -111.5l-272 -1016q-16 -61 -16 -91z" />
    <glyph glyph-name="uni0403" unicode="&#x403;" horiz-adv-x="1090" 
d="M0 0zM324 126q0 -34 17 -51.5t54 -24.5t105 -9l-11 -41q-106 6 -301 6q-173 0 -260 -6l11 41q74 3 110 16t58 48t43 112l272 1016q18 65 18 100q0 30 -13.5 45.5t-42 22t-81.5 8.5l10 41l81 -2q124 -4 192 -4q42 -1 124 -1l197 1q244 0 346 6q-46 -133 -84 -262
q-16 -60 -39 -168h-47q22 114 22 194q0 101 -37.5 145t-115.5 44h-129q-73 0 -109.5 -12t-58.5 -46.5t-43 -111.5l-272 -1016q-16 -61 -16 -91zM898 1789q101 78 147 105q39 24 78 24q43 0 58 -34q4 -9 4 -20q0 -25 -21.5 -49.5t-50.5 -40.5q-50 -29 -163 -70
q-170 -63 -292 -123l-14 23q119 80 254 185z" />
    <glyph glyph-name="uni0490" unicode="&#x490;" horiz-adv-x="1030" 
d="M1118.5 1479.5q49.5 29.5 84.5 95t81 197.5h47q-17 -44 -39 -127q-32 -128 -51 -242h-418q-74 0 -110.5 -12t-58.5 -46.5t-42 -111.5l-272 -1016q-16 -61 -16 -91q0 -34 17 -51.5t54 -24.5t105 -9l-11 -41q-106 6 -301 6q-173 0 -260 -6l11 41q75 3 111 16t57.5 48
t42.5 112l272 1016q17 66 17 99q0 30 -13.5 46t-41.5 22.5t-81 8.5l10 41q107 -6 308 -6q82 0 180 3q198 3 184 3q84 0 133.5 29.5z" />
    <glyph glyph-name="uni0414" unicode="&#x414;" horiz-adv-x="1333" 
d="M1454 1450l-10 -41q-75 -3 -111.5 -16t-58 -48t-41.5 -112l-270 -1016q-17 -65 -17 -100q0 -31 13.5 -47t42.5 -22.5t81 -6.5h64q-46 -120 -90 -303q-12 -47 -27 -127h-45q14 83 14 153q0 242 -186 242q-26 0 -114 -2q-144 -4 -312 -4h-237q-113 0 -213 -89t-187 -300
h-45l14 38q13 30 33 89q61 182 84 303h148q76 0 141 53q75 63 167.5 219t187 392.5t171.5 527.5q18 63 18 99q0 30 -14 46t-43 22.5t-82 8.5l11 41q64 -6 190 -6q14 0 52 2q62 4 130 4q107 0 201 -4q58 -2 76 -2q175 0 264 6zM1060 1333q0 45 -30.5 60.5t-107.5 15.5h-29
q-69 0 -104 -13.5t-56 -49.5t-41 -113q-62 -236 -151 -473t-190.5 -423.5t-196.5 -266.5q-13 -11 -41 -29h458q69 0 104.5 14t55.5 49.5t41 112.5l270 1016q18 64 18 100z" />
    <glyph glyph-name="uni0415" unicode="&#x415;" horiz-adv-x="1249" 
d="M0 0zM1315 1450q-54 -148 -78 -242q-23 -80 -29 -127h-47q18 110 18 165q0 59 -19 92.5t-63.5 49t-123.5 15.5h-150q-73 0 -109.5 -12t-58.5 -46.5t-43 -111.5l-129 -483h135q72 0 119 34t73.5 79.5t53.5 114.5q15 39 17 42h47q-44 -135 -75 -255l-9 -36
q-27 -96 -66 -291h-47l4 26q12 78 12 113q0 63 -31 97.5t-110 34.5h-134l-132 -492q-18 -64 -18 -99q0 -30 14 -45t43 -20.5t82 -5.5h149q128 0 203.5 34t125.5 109t103 220h48q-20 -50 -46 -148q-30 -110 -55 -262q-139 6 -469 6q-393 0 -592 -6l11 41q74 3 110 16t58 48
t43 112l272 1016q18 65 18 100q0 30 -13.5 45.5t-42 22t-81.5 8.5l10 41q201 -6 594 -6q287 0 408 6z" />
    <glyph glyph-name="uni0401" unicode="&#x401;" horiz-adv-x="1249" 
d="M0 0zM1315 1450q-54 -148 -78 -242q-23 -80 -29 -127h-47q18 110 18 165q0 59 -19 92.5t-63.5 49t-123.5 15.5h-150q-73 0 -109.5 -12t-58.5 -46.5t-43 -111.5l-129 -483h135q72 0 119 34t73.5 79.5t53.5 114.5q15 39 17 42h47q-44 -135 -75 -255l-9 -36
q-27 -96 -66 -291h-47l4 26q12 78 12 113q0 63 -31 97.5t-110 34.5h-134l-132 -492q-18 -64 -18 -99q0 -30 14 -45t43 -20.5t82 -5.5h149q128 0 203.5 34t125.5 109t103 220h48q-20 -50 -46 -148q-30 -110 -55 -262q-139 6 -469 6q-393 0 -592 -6l11 41q74 3 110 16t58 48
t43 112l272 1016q18 65 18 100q0 30 -13.5 45.5t-42 22t-81.5 8.5l10 41q201 -6 594 -6q287 0 408 6zM573 1748q19 31 51 51t68 20q43 0 72.5 -30t29.5 -73q0 -33 -19 -64.5t-50.5 -51t-67.5 -19.5q-46 0 -74.5 29.5t-28.5 75.5q0 31 19 62zM1008 1748q19 31 50.5 51
t67.5 20q43 0 72.5 -30t29.5 -73q0 -33 -19 -64.5t-50.5 -51t-67.5 -19.5q-45 0 -73.5 30t-28.5 75q0 31 19 62z" />
    <glyph glyph-name="uni0416" unicode="&#x416;" horiz-adv-x="1939" 
d="M600.5 632.5q-51.5 -62.5 -113.5 -192.5l-108 -231q-41 -88 -73 -136.5t-74.5 -75t-104.5 -26.5q-160 0 -215 189l31 14q42 -90 123 -90q40 0 63.5 25t50.5 79l119 232q64 127 121.5 193.5t117.5 95.5t152 48q-90 11 -126 63.5t-36 137.5q0 63 27 206q23 119 23 169
q0 43 -18 73t-60 30h-6q16 -30 16 -66t-19.5 -69t-52 -53.5t-69.5 -20.5q-64 0 -64 63q0 48 27.5 91.5t73.5 70.5t100 27q55 0 86 -33t31 -94q0 -52 -25 -177q-29 -143 -29 -206q0 -83 37 -133.5t127 -59.5q52 18 83 18q45 0 42 -36q-5 -41 -53 -41q-39 0 -88 17
q-65 -39 -116.5 -101.5zM1976 1448.5q29 -30.5 29 -79.5q0 -27 -12.5 -60.5t-39 -57.5t-67.5 -24q-40 0 -60 24t-20 58q0 29 19 64.5t47 62.5h-6q-41 -2 -74 -29q-35 -32 -60.5 -86.5t-59.5 -151.5q-43 -122 -81 -200.5t-106 -139t-171 -72.5q73 -16 117 -41.5t70 -87
t26 -173.5l-1 -35l-8 -232q-2 -54 9.5 -79t51.5 -25q52 0 87 38t65 122l34 104h41l-53 -158q-38 -112 -99.5 -165.5t-150.5 -53.5q-173 0 -173 203q0 23 1 35l15 231q3 38 3 75q0 68 -16.5 122t-60.5 96q-43 -12 -78 -12q-42 0 -42 28q0 42 52 42q28 0 75 -15
q104 13 170.5 71.5t102.5 134t78 196.5q35 102 62.5 160.5t68.5 93.5q61 47 123 47q63 0 92 -30.5zM941 117q0 -38 30 -55t108 -21l-8 -41q-94 6 -264 6q-167 0 -256 -6l10 41q72 3 108 16t57.5 48.5t41.5 111.5l268 1016q18 72 18 96q0 39 -29.5 57t-106.5 23l10 41
q83 -6 256 -6q167 0 266 6l-10 -41q-75 -3 -111.5 -16t-58 -48t-41.5 -112l-268 -1016q-20 -76 -20 -100z" />
    <glyph glyph-name="uni0417" unicode="&#x417;" horiz-adv-x="1145" 
d="M564.5 58.5q105.5 52.5 170 145t64.5 206.5q0 81 -34.5 155.5t-100.5 124.5t-156 60q-62 -30 -95 -30q-42 0 -42 28q0 39 58 39q30 0 67 -11q110 21 209.5 84t161 155t61.5 195q0 100 -58 147.5t-155 47.5q-166 0 -275 -111.5t-176 -314.5h-45q94 302 119 471h43
q-3 -21 -5 -50q-1 -4 -1 -13q0 -56 29 -56q13 0 36 15q72 47 121 73.5t108.5 43t133.5 16.5q146 0 234.5 -64.5t88.5 -183.5q0 -122 -93 -219t-227 -158t-259 -86q105 0 208.5 -40t171.5 -120.5t68 -195.5q0 -135 -93.5 -235.5t-243.5 -153t-314 -52.5q-195 0 -289 74
q-59 47 -59 111q0 37 19 70t51.5 53t70.5 20t61 -20.5t23 -59.5q0 -45 -32 -83.5t-85 -51.5q8 -20 44.5 -38t88.5 -29t105 -11q117 0 222.5 52.5z" />
    <glyph glyph-name="uni0418" unicode="&#x418;" horiz-adv-x="1595" 
d="M1733 1450l-11 -41q-75 -3 -111.5 -16t-58.5 -48t-43 -112l-272 -1016q-18 -65 -18 -100q0 -30 13.5 -45.5t42 -22t81.5 -8.5l-10 -41q-87 6 -263 6q-164 0 -260 -6l11 41q75 3 111.5 16t58.5 48t43 112l254 950l-965 -965q-14 -56 -14 -85q0 -30 13.5 -45.5t42 -22
t81.5 -8.5l-10 -41q-96 6 -261 6q-173 0 -260 -6l11 41q74 3 110 16t58 48t43 112l272 1016q18 64 18 100q0 30 -13.5 45.5t-42 22t-81.5 8.5l10 41q87 -6 262 -6q165 0 261 6l-11 -41q-75 -3 -111.5 -16t-58.5 -48t-43 -112l-255 -952l966 968q14 54 14 84t-13.5 45.5
t-42 22t-81.5 8.5l10 41q96 -6 260 -6q176 0 263 6z" />
    <glyph glyph-name="uni0419" unicode="&#x419;" horiz-adv-x="1595" 
d="M0 0zM1733 1450l-11 -41q-75 -3 -111.5 -16t-58.5 -48t-43 -112l-272 -1016q-18 -65 -18 -100q0 -30 13.5 -45.5t42 -22t81.5 -8.5l-10 -41q-87 6 -263 6q-164 0 -260 -6l11 41q75 3 111.5 16t58.5 48t43 112l254 950l-965 -965q-14 -56 -14 -85q0 -30 13.5 -45.5t42 -22
t81.5 -8.5l-10 -41q-96 6 -261 6q-173 0 -260 -6l11 41q74 3 110 16t58 48t43 112l272 1016q18 64 18 100q0 30 -13.5 45.5t-42 22t-81.5 8.5l10 41q87 -6 262 -6q165 0 261 6l-11 -41q-75 -3 -111.5 -16t-58.5 -48t-43 -112l-255 -952l966 968q14 54 14 84t-13.5 45.5
t-42 22t-81.5 8.5l10 41q96 -6 260 -6q176 0 263 6zM882.5 1603.5q50.5 -10.5 107.5 -10.5q296 0 520 211l29 -24q-116 -115 -261 -172.5t-302 -57.5q-113 0 -204 36.5t-91 121.5q0 37 18.5 67t50 47t68.5 17q41 0 64.5 -22t23.5 -64q0 -43 -26 -75.5t-70 -47.5
q22 -16 72.5 -26.5z" />
    <glyph glyph-name="uni040D" unicode="&#x40d;" horiz-adv-x="1595" 
d="M0 0zM1733 1450l-11 -41q-75 -3 -111.5 -16t-58.5 -48t-43 -112l-272 -1016q-18 -65 -18 -100q0 -30 13.5 -45.5t42 -22t81.5 -8.5l-10 -41q-87 6 -263 6q-164 0 -260 -6l11 41q75 3 111.5 16t58.5 48t43 112l254 950l-965 -965q-14 -56 -14 -85q0 -30 13.5 -45.5t42 -22
t81.5 -8.5l-10 -41q-96 6 -261 6q-173 0 -260 -6l11 41q74 3 110 16t58 48t43 112l272 1016q18 64 18 100q0 30 -13.5 45.5t-42 22t-81.5 8.5l10 41q87 -6 262 -6q165 0 261 6l-11 -41q-75 -3 -111.5 -16t-58.5 -48t-43 -112l-255 -952l966 968q14 54 14 84t-13.5 45.5
t-42 22t-81.5 8.5l10 41q96 -6 260 -6q176 0 263 6zM868 1725q-94 67 -123 96q-16 16 -27.5 37.5t-11.5 42.5q0 23 14 41q17 20 46 20q23 0 47.5 -12t41.5 -31q26 -28 88 -119q72 -111 146 -205l-21 -20q-91 74 -200 150z" />
    <glyph glyph-name="uni041A" unicode="&#x41a;" horiz-adv-x="1382" 
d="M0 0zM1419 1448.5q29 -30.5 29 -79.5q0 -27 -12.5 -60.5t-39 -57.5t-67.5 -24t-60.5 24t-19.5 58q0 29 19 64.5t47 62.5h-6q-41 -2 -74 -29q-35 -32 -60.5 -86.5t-59.5 -151.5q-43 -122 -81 -200.5t-106 -139t-172 -72.5q74 -16 118 -42t70 -87t26 -173l-1 -35l-8 -232
l-1 -24q0 -40 13 -60t49 -20q52 0 87 38t65 122l34 104h41l-53 -158q-38 -112 -99.5 -165.5t-150.5 -53.5q-173 0 -173 203q0 23 1 35l14 231q3 43 3 79q0 91 -18 136.5t-57 78.5q-72 -19 -118 -19q-63 0 -63 41t61 41q41 0 125 -21q104 13 170.5 71.5t103 134t78.5 196.5
q35 102 62.5 160.5t68.5 93.5q61 47 123 47q63 0 92 -30.5zM323 118q0 -30 13.5 -46t42.5 -22.5t82 -8.5l-8 -41q-96 6 -260 6q-171 0 -261 -6l11 41q72 3 108 16t57.5 48.5t41.5 111.5l270 1016q17 65 17 98q0 31 -14 47t-42.5 22.5t-81.5 8.5l10 41q84 -6 260 -6
q164 0 262 6l-10 -41q-75 -3 -111.5 -16t-58 -48t-41.5 -112l-270 -1016q-17 -66 -17 -99z" />
    <glyph glyph-name="uni040C" unicode="&#x40c;" horiz-adv-x="1382" 
d="M0 0zM1419 1448.5q29 -30.5 29 -79.5q0 -27 -12.5 -60.5t-39 -57.5t-67.5 -24t-60.5 24t-19.5 58q0 29 19 64.5t47 62.5h-6q-41 -2 -74 -29q-35 -32 -60.5 -86.5t-59.5 -151.5q-43 -122 -81 -200.5t-106 -139t-172 -72.5q74 -16 118 -42t70 -87t26 -173l-1 -35l-8 -232
l-1 -24q0 -40 13 -60t49 -20q52 0 87 38t65 122l34 104h41l-53 -158q-38 -112 -99.5 -165.5t-150.5 -53.5q-173 0 -173 203q0 23 1 35l14 231q3 43 3 79q0 91 -18 136.5t-57 78.5q-72 -19 -118 -19q-63 0 -63 41t61 41q41 0 125 -21q104 13 170.5 71.5t103 134t78.5 196.5
q35 102 62.5 160.5t68.5 93.5q61 47 123 47q63 0 92 -30.5zM323 118q0 -30 13.5 -46t42.5 -22.5t82 -8.5l-8 -41q-96 6 -260 6q-171 0 -261 -6l11 41q72 3 108 16t57.5 48.5t41.5 111.5l270 1016q17 65 17 98q0 31 -14 47t-42.5 22.5t-81.5 8.5l10 41q84 -6 260 -6
q164 0 262 6l-10 -41q-75 -3 -111.5 -16t-58 -48t-41.5 -112l-270 -1016q-17 -66 -17 -99zM1050 1789q101 78 147 105q39 24 78 24q43 0 58 -34q4 -9 4 -20q0 -25 -21.5 -49.5t-50.5 -40.5q-50 -29 -163 -70q-170 -63 -292 -123l-14 23q119 80 254 185z" />
    <glyph glyph-name="uni041B" unicode="&#x41b;" horiz-adv-x="1358" 
d="M141 68q78 62 172.5 222t192.5 402.5t182 540.5q17 65 17 98q0 31 -13.5 47t-42.5 22.5t-82 8.5l11 41q65 -6 190 -6q14 0 52 2q62 4 130 4q107 0 201 -4q58 -2 76 -2q176 0 264 6l-10 -41q-75 -3 -111.5 -16t-58 -48t-41.5 -112l-271 -1016q-17 -65 -17 -99
q0 -30 13.5 -46t42.5 -22.5t82 -8.5l-8 -41q-85 6 -262 6q-165 0 -260 -6l8 41q74 3 110.5 16t58.5 48t42 112l270 1016q18 63 18 100q0 31 -14 47t-43.5 22.5t-81.5 6.5h-28q-69 0 -104 -13.5t-56 -49.5t-41 -113q-64 -241 -156 -484t-197.5 -434t-205.5 -272
q-87 -72 -182 -72q-121 0 -121 109q0 31 13 64t40.5 56t67.5 23t59 -23.5t19 -58.5q0 -29 -19 -64.5t-47 -62.5h6q66 3 135 54z" />
    <glyph glyph-name="uni041C" unicode="&#x41c;" horiz-adv-x="1778" 
d="M0 0zM1911 1450l-10 -41q-75 -3 -111.5 -16t-58 -48t-41.5 -112l-271 -1016q-17 -65 -17 -98q0 -31 14 -47t42.5 -22.5t81.5 -8.5l-8 -41q-96 6 -254 6q-180 0 -266 -6l8 41q75 3 111.5 16t58 48t41.5 112l297 1104l-850 -1331h-45l-139 1347l-291 -1099
q-18 -70 -18 -103q0 -50 34.5 -70.5t120.5 -23.5l-10 -41q-70 6 -207 6q-122 0 -193 -6l11 41q72 3 110.5 20.5t61 57.5t43.5 119l266 995q17 65 17 98q0 31 -14 47t-42.5 22.5t-81.5 8.5l10 41q65 -6 183 -6q109 0 180 6l112 -1214l770 1208h99q157 0 256 6z" />
    <glyph glyph-name="uni041D" unicode="&#x41d;" horiz-adv-x="1546" 
d="M0 0zM1679 1450l-10 -41q-75 -3 -111.5 -16t-58 -48t-41.5 -112l-270 -1016q-18 -70 -18 -100t13.5 -45.5t42.5 -22t83 -8.5l-9 -41q-86 6 -262 6q-164 0 -260 -6l8 41q74 3 111 16t58.5 48t41.5 112l131 492h-657l-131 -492q-17 -66 -17 -99q0 -30 13.5 -46t42.5 -22.5
t82 -8.5l-8 -41q-96 6 -260 6q-171 0 -261 -6l11 41q72 3 108 16t57.5 48.5t41.5 111.5l270 1016q17 65 17 98q0 31 -14 47t-42.5 22.5t-81.5 8.5l10 41q84 -6 260 -6q164 0 262 6l-10 -41q-75 -3 -111.5 -16t-58 -48t-41.5 -112l-128 -483h657l129 483q18 63 18 98
q0 31 -14 47t-43 22.5t-82 8.5l10 41q93 -6 258 -6q175 0 264 6z" />
    <glyph glyph-name="uni041E" unicode="&#x41e;" horiz-adv-x="1493" 
d="M111 0zM219 932q109 237 304.5 392t440.5 155q151 0 259.5 -58t166 -169t57.5 -267q0 -231 -110 -467.5t-306 -391.5t-440 -155q-151 0 -259 58t-165 168.5t-57 265.5q0 232 109 469zM647.5 1294.5q-143.5 -147.5 -232 -381.5t-88.5 -477q0 -132 35.5 -228.5t99.5 -148
t147 -51.5q155 0 298.5 147.5t232 381.5t88.5 477q0 132 -36 228.5t-100 148t-147 51.5q-154 0 -297.5 -147.5z" />
    <glyph glyph-name="uni041F" unicode="&#x41f;" horiz-adv-x="1548" 
d="M1306 1446q86 -2 111 -2q176 0 264 6l-10 -41q-75 -3 -111.5 -16t-58 -48t-41.5 -112l-270 -1016q-18 -70 -18 -100t13.5 -45.5t42.5 -22t83 -8.5l-8 -41q-87 6 -263 6q-164 0 -260 -6l8 41q74 3 111 16t58.5 48t41.5 112l271 1016q18 63 18 99q0 46 -31 61.5t-108 15.5
h-336q-68 0 -103.5 -14t-56 -49.5t-41.5 -112.5l-270 -1016q-17 -66 -17 -99q0 -30 13.5 -46t42.5 -22.5t82 -8.5l-8 -41q-96 6 -260 6q-171 0 -261 -6l11 41q72 3 108 16t57.5 48.5t41.5 111.5l270 1016q17 65 17 98q0 31 -14 47t-42.5 22.5t-81.5 8.5l10 41q84 -6 260 -6
q26 0 116 2q144 4 310 4q169 0 309 -4z" />
    <glyph glyph-name="uni0420" unicode="&#x420;" horiz-adv-x="1206" 
d="M0 0zM1166.5 1365.5q103.5 -82.5 103.5 -226.5q0 -160 -97.5 -286.5t-273.5 -198.5t-401 -72h-61l-97 -365q-20 -78 -20 -103q0 -38 30.5 -54.5t110.5 -18.5l-8 -41q-96 6 -254 6q-180 0 -267 -6l9 41q74 3 110.5 16t58.5 48t42 112l270 1016q18 65 18 98
q0 42 -30.5 59.5t-108.5 18.5l10 41q84 -6 252 -6q49 0 147 2q100 2 152 2q201 0 304.5 -82.5zM934 772.5q129 149.5 129 398.5q0 122 -62 180t-198 58q-62 0 -96.5 -15t-56 -52t-40.5 -109l-162 -610h70q287 0 416 149.5z" />
    <glyph glyph-name="uni0421" unicode="&#x421;" horiz-adv-x="1372" 
d="M104 0zM1326 979h-45q12 80 12 140q0 96 -32 163q-38 76 -110.5 118t-158.5 42q-170 0 -328.5 -160t-257 -402.5t-98.5 -469.5q0 -198 77.5 -300t215.5 -102q90 0 190.5 42t174.5 118q52 53 91.5 124t92.5 200h45q-93 -340 -121 -492h-45q6 44 6 70q0 52 -24 52
q-16 0 -43 -18q-73 -47 -122.5 -73t-114.5 -43t-150 -17q-228 0 -353 123t-125 359t118 475.5t323.5 395t451.5 155.5q83 0 139 -18t90.5 -44.5t76.5 -70.5q18 -18 31 -18q36 0 81 122h43q-68 -177 -131 -471z" />
    <glyph glyph-name="uni0422" unicode="&#x422;" horiz-adv-x="1350" 
d="M203 0zM1640.5 1645q23.5 -28 23.5 -70q0 -45 -26.5 -83t-69.5 -65q-109 -67 -324 -67q-89 0 -210 14l-302 -1136q-18 -65 -18 -104q0 -35 17 -54.5t53.5 -28t101.5 -10.5l-8 -41q-108 6 -306 6q-200 0 -299 -6l9 41q87 3 134.5 21t74.5 58t51 118l309 1160
q-159 23 -264 23q-178 0 -230 -35q16 -21 26.5 -54.5t10.5 -63.5q0 -47 -26 -83t-76 -36q-44 0 -67 27.5t-23 74.5q0 107 108 160q96 47 275 47q130 0 341 -29q214 -28 333 -28q91 0 152.5 10t110.5 35q-50 52 -50 115q0 46 25.5 79t74.5 33q45 0 68.5 -28z" />
    <glyph glyph-name="uni0423" unicode="&#x423;" horiz-adv-x="1300" 
d="M1537 1450l-10 -41q-38 -2 -86 -34t-90 -97l-609 -942l-22 -36q-75 -120 -124.5 -184t-118 -104.5t-161.5 -40.5q-95 0 -151.5 30t-56.5 88q0 29 14.5 56t40.5 43.5t57 16.5q37 0 61.5 -25t24.5 -61q0 -33 -23.5 -61t-58.5 -44q32 -10 80 -10q67 0 120 24.5t96.5 70
t93.5 118.5l-253 1061q-11 46 -37.5 75t-56 42t-53.5 14l10 41q81 -6 221 -6q157 0 246 6l-10 -41q-74 -3 -103.5 -20t-29.5 -63q0 -31 14 -89l197 -805l520 805q52 80 52 114q0 28 -29.5 42.5t-96.5 15.5l11 41q57 -6 188 -6q77 0 133 6z" />
    <glyph glyph-name="uni040E" unicode="&#x40e;" horiz-adv-x="1300" 
d="M109 0zM1537 1450l-10 -41q-38 -2 -86 -34t-90 -97l-609 -942l-22 -36q-75 -120 -124.5 -184t-118 -104.5t-161.5 -40.5q-95 0 -151.5 30t-56.5 88q0 29 14.5 56t40.5 43.5t57 16.5q37 0 61.5 -25t24.5 -61q0 -33 -23.5 -61t-58.5 -44q32 -10 80 -10q67 0 120 24.5
t96.5 70t93.5 118.5l-253 1061q-11 46 -37.5 75t-56 42t-53.5 14l10 41q81 -6 221 -6q157 0 246 6l-10 -41q-74 -3 -103.5 -20t-29.5 -63q0 -31 14 -89l197 -805l520 805q52 80 52 114q0 28 -29.5 42.5t-96.5 15.5l11 41q57 -6 188 -6q77 0 133 6zM748.5 1603.5
q50.5 -10.5 107.5 -10.5q296 0 520 211l29 -24q-116 -115 -261 -172.5t-302 -57.5q-113 0 -204 36.5t-91 121.5q0 37 18.5 67t50 47t68.5 17q41 0 64.5 -22t23.5 -64q0 -43 -26 -75.5t-70 -47.5q22 -16 72.5 -26.5z" />
    <glyph glyph-name="uni0424" unicode="&#x424;" horiz-adv-x="1919" 
d="M1768 449q-113 -139 -329 -230t-511 -103q-139 -501 -487 -501q-85 0 -142.5 29t-57.5 87q0 29 15 56t40.5 44t56.5 17q37 0 61.5 -24.5t24.5 -60.5q0 -34 -23 -61.5t-59 -43.5q32 -10 70 -10q89 0 148 62t94.5 159t72.5 249q-214 11 -364 65t-228.5 146.5t-78.5 217.5
q0 158 122.5 301.5t356 233t549.5 89.5h27q66 72 157 135.5t227 139.5q-114 -57 -229.5 -90t-212.5 -33q-67 0 -121.5 15.5t-94.5 37t-91 55.5q-53 35 -88 51.5t-74 16.5q-41 0 -64.5 -20.5t-23.5 -55.5q0 -48 47 -86l-29 -32q-77 49 -77 135q0 75 57.5 118.5t151.5 43.5
q53 0 102 -14t89.5 -33.5t100.5 -53.5q87 -49 148 -73.5t131 -24.5q102 0 295 72q77 119 127 119q14 0 28 -11q13 -11 13 -25q0 -50 -150 -106q-183 -122 -286 -287q198 -15 337.5 -70t212 -145.5t72.5 -210.5q0 -151 -113 -290zM752 156q11 47 35 141l107 397
q40 150 87.5 255t113.5 186h-4q-262 0 -441.5 -75t-269.5 -211.5t-90 -320.5q0 -338 462 -372zM1338 242.5q162 77.5 243 209t81 306.5q0 325 -425 370q-76 -136 -130 -342l-168 -632q237 11 399 88.5z" />
    <glyph glyph-name="uni0425" unicode="&#x425;" horiz-adv-x="1432" 
d="M0 0zM1505.5 1449.5q29.5 -29.5 29.5 -76.5q0 -30 -13 -64t-40.5 -58t-68.5 -24q-39 0 -58.5 22.5t-19.5 55.5q0 31 18.5 67.5t47.5 63.5h-6q-71 0 -131 -43q-92 -67 -206 -226t-219 -386l54 -464q12 -108 49 -170.5t113 -62.5q60 0 97 37.5t67 122.5l34 104h41l-53 -158
q-38 -112 -99.5 -165.5t-150.5 -53.5q-134 0 -192.5 90t-75.5 230l-37 322q-81 -169 -207 -329.5t-237 -240.5q-95 -72 -189 -72q-63 0 -92.5 29.5t-29.5 76.5q0 30 13 64t40.5 58t68.5 24q40 0 59 -22.5t19 -55.5q0 -30 -18 -67t-47 -64h8q69 3 129 43q106 70 234 230.5
t241 392.5l-53 453q-13 108 -50 170.5t-112 62.5q-60 0 -97 -37.5t-67 -122.5l-35 -104h-41l53 158q39 112 100.5 165.5t149.5 53.5q134 0 192.5 -89.5t76.5 -230.5l37 -316q80 173 188.5 329t204.5 235q93 72 188 72q63 0 92.5 -29.5z" />
    <glyph glyph-name="uni0427" unicode="&#x427;" horiz-adv-x="1360" 
d="M1496 1450l-10 -41q-75 -3 -111.5 -16t-58.5 -48t-43 -112l-273 -1016q-18 -70 -18 -99q0 -30 13.5 -46t42 -22.5t81.5 -8.5l-10 -41q-85 6 -262 6q-194 0 -301 -6l10 41q92 3 137 16t70.5 48t46.5 112l111 416q-69 -38 -173.5 -67t-201.5 -29q-178 0 -258 100
q-51 63 -51 156q0 63 24 151l84 316q11 42 11 68q0 44 -30 61.5t-96 17.5l11 43l28 -1q131 -7 222 -7q87 0 204 7l27 1l-10 -43q-54 0 -87 -14t-53 -45.5t-36 -87.5l-91 -322q-26 -93 -26 -154q0 -88 53 -135t174 -47q78 0 156 18t129 49l151 564q19 68 19 100
q0 30 -14 45.5t-42.5 22t-80.5 8.5l10 41q86 -6 262 -6q166 0 260 6z" />
    <glyph glyph-name="uni0426" unicode="&#x426;" horiz-adv-x="1559" 
d="M926 4q-144 -4 -312 -4t-308 4q-86 2 -111 2q-175 0 -265 -6l11 41q75 3 111.5 16t58 48t41.5 112l270 1016q17 66 17 99q0 30 -13.5 46t-42.5 22.5t-82 8.5l8 41q87 -6 262 -6q166 0 260 6l-8 -41q-74 -3 -110.5 -16t-58.5 -48t-42 -112l-270 -1016q-18 -63 -18 -99
q0 -46 31 -61.5t108 -15.5h336q68 0 103.5 14t56 50t40.5 112l271 1016q17 66 17 99q0 30 -13.5 46t-42.5 22.5t-82 8.5l8 41q96 -6 260 -6q171 0 260 6l-10 -41q-72 -3 -108 -16t-57.5 -48.5t-41.5 -111.5l-270 -1016q-17 -65 -17 -99q0 -46 30.5 -61.5t107.5 -15.5h63
q-41 -105 -90 -303q-13 -57 -20 -94l-7 -33h-45q15 88 15 155q0 240 -187 240q-26 0 -114 -2z" />
    <glyph glyph-name="uni0428" unicode="&#x428;" horiz-adv-x="1964" 
d="M702 4q-120 -4 -202 -4q-75 0 -153 3l-159 3q-173 0 -260 -6l11 41q74 3 110 16t58 48t43 112l272 1016q18 65 18 100q0 30 -13.5 45.5t-42 22t-81.5 8.5l10 41q87 -6 262 -6q151 0 240 6l-10 -41q-66 -3 -98.5 -16t-53 -48t-41.5 -112l-272 -1016q-19 -70 -19 -102
q0 -30 13.5 -46t43 -22t81.5 -6h110q73 0 110 13t59.5 49t43.5 114l273 1016q20 72 20 106q0 27 -12 41.5t-36.5 20.5t-70.5 8l11 41q89 -6 239 -6q162 0 242 6l-10 -41q-67 -3 -99.5 -16t-52.5 -47.5t-41 -112.5l-272 -1016q-19 -70 -19 -102q0 -30 13.5 -46t43 -22
t81.5 -6h110q72 0 109.5 13t60 49.5t43.5 113.5l273 1016q20 72 20 106q0 27 -12 41.5t-36.5 20.5t-70.5 8l10 41q90 -6 240 -6q176 0 262 6l-10 -41q-75 -3 -111.5 -16t-58.5 -48t-43 -112l-272 -1016q-19 -68 -19 -100q0 -30 14 -45.5t42.5 -22t80.5 -8.5l-10 -41
q-85 6 -262 6q-2 0 -164 -3q-78 -3 -149 -3q-81 0 -199 4q-88 2 -117 2t-121 -2z" />
    <glyph glyph-name="uni0429" unicode="&#x429;" horiz-adv-x="1970" 
d="M1303 2q-114 -2 -164 -2q-83 0 -197 4q-90 2 -117 2t-121 -2q-120 -4 -204 -4q-74 0 -152 3q-159 3 -158 3q-175 0 -262 -6l11 41q74 3 110.5 16t59 48t43.5 112l270 1016q19 70 19 101q0 29 -14 44.5t-42.5 22t-81.5 8.5l12 41q84 -6 260 -6q151 0 242 6l-12 -41
q-65 -3 -98 -16t-53.5 -48t-41.5 -112l-270 -1016q-19 -71 -19 -104q0 -29 13.5 -44.5t42 -21.5t80.5 -6h110q73 0 111 13t60.5 49.5t43.5 113.5l271 1016q20 72 20 107q0 39 -26 52.5t-93 16.5l13 41q86 -6 237 -6q162 0 244 6l-12 -41q-66 -3 -98.5 -16t-53 -48
t-41.5 -112l-270 -1016q-19 -71 -19 -104q0 -29 13.5 -44.5t42 -21.5t80.5 -6h110q73 0 110.5 13t60.5 49.5t44 113.5l271 1016q20 72 20 107q0 39 -26 52.5t-93 16.5l13 41q86 -6 237 -6q175 0 264 6l-12 -41q-74 -3 -110.5 -16t-59 -48t-43.5 -112l-270 -1016
q-19 -70 -19 -102q0 -29 13.5 -44t42 -21.5t79.5 -8.5h23q-53 -149 -84 -262l-9 -36q-27 -117 -30 -132h-47q24 126 24 207q0 101 -37 143.5t-114 42.5q-39 0 -147 -2z" />
    <glyph glyph-name="uni040F" unicode="&#x40f;" horiz-adv-x="1546" 
d="M1677 1450l-10 -41q-72 -3 -108 -16t-57.5 -48.5t-41.5 -111.5l-270 -1016q-17 -65 -17 -98q0 -31 14 -47t42.5 -22.5t81.5 -8.5l-11 -41q-82 6 -260 6q-26 0 -114 -2l-91 -2q-73 -7 -120 -42t-82 -100t-82 -188h-47q26 130 26 193q0 65 -27 97.5t-92 39.5q-45 0 -105 2
q-86 2 -111 2q-175 0 -265 -6l11 41q75 3 111.5 16t58 48t41.5 112l270 1016q17 66 17 99q0 30 -13.5 46t-42.5 22.5t-82 8.5l8 41q87 -6 262 -6q166 0 260 6l-8 -41q-74 -3 -110.5 -16t-58.5 -48t-42 -112l-270 -1016q-18 -63 -18 -99q0 -46 31 -61.5t108 -15.5h336
q68 0 103.5 14t56 50t40.5 112l271 1016q17 66 17 99q0 30 -13.5 46t-42.5 22.5t-82 8.5l8 41q96 -6 260 -6q172 0 260 6z" />
    <glyph glyph-name="uni042F" unicode="&#x42f;" horiz-adv-x="1319" 
d="M1450 1450l-10 -41q-72 -3 -108 -16t-57.5 -48.5t-41.5 -111.5l-270 -1016q-17 -65 -17 -99q0 -30 13.5 -46t42 -22.5t81.5 -8.5l-10 -41q-82 6 -260 6q-164 0 -262 -6l10 41q75 3 111.5 16t58 48t41.5 112l128 482q-84 -30 -164 -34q-63 -12 -108 -29.5t-88 -59
t-75 -115.5l-109 -252q-34 -81 -69 -132t-82.5 -78.5t-114.5 -27.5q-160 0 -215 189l31 14q44 -90 123 -90q46 0 74 25.5t55 78.5l118 252q40 85 92 134.5t110.5 71t132.5 30.5q-105 19 -178.5 65t-110.5 111.5t-37 142.5q0 148 98.5 251t260.5 153.5t351 50.5q44 0 91 -3
q102 -3 104 -3q172 0 260 6zM1060 1336q0 39 -21 55t-70 16q-227 0 -352 -112t-125 -332q0 -133 61.5 -195.5t198.5 -62.5q73 0 158 32l132 496q18 66 18 103z" />
    <glyph glyph-name="uni042C" unicode="&#x42c;" horiz-adv-x="1251" 
d="M888.5 739.5q126.5 -30.5 191.5 -104.5t65 -203q0 -139 -88 -237t-228 -146.5t-294 -48.5q-70 0 -150 3q-183 3 -203 3q-163 0 -250 -6l9 41q74 3 110.5 16t58.5 48t42 112l270 1016q17 65 17 98q0 31 -14 47t-42.5 22.5t-81.5 8.5l10 41q84 -6 260 -6q164 0 263 6
l-11 -41q-75 -3 -111.5 -16t-58 -48t-41.5 -112l-123 -463h72q201 0 327.5 -30.5zM823.5 152q116.5 105 116.5 311q0 94 -36 153t-124.5 89t-244.5 30h-55l-138 -518q-19 -73 -19 -100q0 -38 27 -54t96 -16q261 0 377.5 105z" />
    <glyph glyph-name="uni042A" unicode="&#x42a;" horiz-adv-x="1516" 
d="M1151.5 739.5q126.5 -30.5 191.5 -104.5t65 -203q0 -139 -88 -237t-227.5 -146.5t-294.5 -48.5q-70 0 -150 3q-183 3 -203 3q-163 0 -249 -6l8 41q74 3 110.5 16t58.5 48t42 112l270 1016q19 73 19 107q0 43 -27 58t-94 15q-164 0 -236 -55q16 -22 26.5 -55.5t10.5 -63.5
q0 -47 -26.5 -83t-75.5 -36q-44 0 -67 27.5t-23 75.5q0 99 106 161q112 66 276 66q19 0 85 -2q98 -4 188 -4q151 0 250 6l-11 -41q-75 -3 -111.5 -16t-57.5 -48t-41 -112l-123 -463h71q201 0 327.5 -30.5zM1086.5 152.5q116.5 105.5 116.5 310.5q0 94 -36 153t-124.5 89
t-244.5 30h-55l-138 -518q-19 -73 -19 -100q0 -38 27.5 -54t96.5 -16q260 0 376.5 105.5z" />
    <glyph glyph-name="uni042B" unicode="&#x42b;" horiz-adv-x="1949" 
d="M0 0zM888.5 739.5q126.5 -30.5 191.5 -104.5t65 -203q0 -139 -88 -237t-228 -146.5t-294 -48.5q-70 0 -150 3q-183 3 -203 3q-163 0 -250 -6l9 41q74 3 110.5 16t58.5 48t42 112l270 1016q17 65 17 98q0 31 -14 47t-42.5 22.5t-81.5 8.5l10 41q84 -6 260 -6q164 0 263 6
l-11 -41q-75 -3 -111.5 -16t-58 -48t-41.5 -112l-123 -463h72q201 0 327.5 -30.5zM823.5 152q116.5 105 116.5 311q0 94 -36 153t-124.5 89t-244.5 30h-55l-138 -518q-19 -73 -19 -100q0 -38 27 -54t96 -16q261 0 377.5 105zM1574 118q0 -30 13.5 -46t42.5 -22.5t82 -8.5
l-8 -41q-96 6 -260 6q-171 0 -261 -6l11 41q72 3 108 16t57.5 48.5t41.5 111.5l270 1016q17 65 17 98q0 31 -14 47t-42.5 22.5t-81.5 8.5l10 41q84 -6 260 -6q165 0 262 6l-10 -41q-75 -3 -111.5 -16t-58 -48t-41.5 -112l-270 -1016q-17 -66 -17 -99z" />
    <glyph glyph-name="uni0409" unicode="&#x409;" horiz-adv-x="1915" 
d="M1546.5 739.5q126.5 -30.5 191 -104.5t64.5 -203q0 -139 -88 -237t-227.5 -146.5t-294.5 -48.5q-70 0 -150 3q-183 3 -202 3q-164 0 -250 -6l8 41q74 3 110.5 16t58.5 48t42 112l270 1016q18 63 18 100q0 31 -14 47t-43.5 22.5t-81.5 6.5h-28q-69 0 -104 -13.5t-56 -49.5
t-41 -113q-64 -241 -156 -484t-197.5 -434t-205.5 -272q-87 -72 -182 -72q-121 0 -121 109q0 31 13 64t40.5 56t67.5 23t59 -23.5t19 -58.5q0 -29 -19 -64.5t-47 -62.5h4q73 3 137 54q78 62 172.5 222t192.5 402.5t182 540.5q17 65 17 98q0 31 -13.5 47t-42.5 22.5t-82 8.5
l11 41q65 -6 190 -6q14 0 52 2q62 4 130 4q107 0 201 -4q58 -2 76 -2q176 0 264 6l-10 -41q-75 -3 -111.5 -16t-58 -48t-41.5 -112l-123 -463h72q201 0 327.5 -30.5zM1480.5 152.5q116.5 105.5 116.5 310.5q0 94 -36 153t-124.5 89t-244.5 30h-55l-138 -518q-18 -67 -18 -99
q0 -39 27 -55t96 -16q260 0 376.5 105.5z" />
    <glyph glyph-name="uni040A" unicode="&#x40a;" horiz-adv-x="2054" 
d="M1845.5 673.5q102.5 -76.5 102.5 -218.5q0 -146 -107.5 -249t-271.5 -154.5t-332 -51.5q-43 0 -91 3q-102 3 -104 3q-170 0 -260 -6l11 41q72 3 108 16t57 48.5t41 111.5l131 492h-657l-131 -492q-17 -66 -17 -99q0 -30 13.5 -46t42.5 -22.5t82 -8.5l-8 -41q-96 6 -260 6
q-171 0 -261 -6l11 41q72 3 108 16t57.5 48.5t41.5 111.5l270 1016q17 65 17 98q0 31 -14 47t-42.5 22.5t-81.5 8.5l10 41q84 -6 260 -6q164 0 263 6l-11 -41q-75 -3 -111.5 -16t-58 -48t-41.5 -112l-128 -483h657l129 483q17 65 17 98q0 31 -14 47t-42.5 22.5t-81.5 8.5
l10 41q82 -6 260 -6q165 0 262 6l-10 -41q-75 -3 -111.5 -16t-58 -48t-41.5 -112l-128 -483h208q203 0 305.5 -76.5zM1518.5 96.5q107.5 53.5 165 153.5t57.5 237q0 80 -26.5 128.5t-83.5 71t-150 22.5h-160l-131 -492q-18 -66 -18 -103q0 -39 21.5 -55t70.5 -16
q147 0 254.5 53.5z" />
    <glyph glyph-name="uni0405" unicode="&#x405;" horiz-adv-x="1135" 
d="M0 0zM1059 1047h-41q12 57 12 116q0 78 -30.5 140.5t-96 99.5t-164.5 37q-129 0 -207.5 -66t-78.5 -194q0 -70 33.5 -134.5t82.5 -117.5t134 -132q89 -83 142 -140.5t89.5 -129.5t36.5 -153q0 -134 -77 -224.5t-195.5 -134t-245.5 -43.5q-108 0 -173.5 26.5t-117.5 68.5
q-39 30 -74 30q-24 0 -41 -24t-43 -86h-41q69 163 139 491h41q-11 -61 -15 -94.5t-3 -71.5q13 -299 334 -299q139 0 220 63.5t81 192.5q0 78 -31 144t-75.5 116.5t-121.5 123.5q-81 77 -129.5 132.5t-82 130t-33.5 164.5q0 126 64 216.5t167.5 137t218.5 46.5
q84 0 145.5 -20.5t121.5 -65.5q47 -37 67 -37q17 0 32 25t36 83h41q-74 -180 -121 -417z" />
    <glyph glyph-name="uni0404" unicode="&#x404;" horiz-adv-x="1378" 
d="M1326 979h-45q12 79 12 140q0 96 -32 163q-38 76 -110.5 118t-158.5 42q-133 0 -262 -101.5t-228.5 -268.5t-150.5 -356q50 77 123 120t146 43q65 0 112.5 -22t108.5 -65q58 -41 101.5 -61t100.5 -20q47 0 98 27.5t95 82.5l27 -18q-170 -211 -336 -211q-47 0 -86 12
t-68 29t-70 46q-59 41 -102 61t-102 20q-93 0 -163 -108q-28 -128 -28 -242q0 -198 77.5 -300t215.5 -102q90 0 190.5 42t174.5 118q52 53 91.5 124t92.5 200h45q-93 -340 -121 -492h-45q6 44 6 70q0 52 -24 52q-16 0 -43 -18q-73 -47 -122.5 -73t-114.5 -43t-150 -17
q-228 0 -353 123t-125 359t118 475.5t323.5 395t451.5 155.5q83 0 139 -18t90.5 -44.5t76.5 -70.5q18 -18 31 -18q36 0 81 122h43q-68 -177 -131 -471z" />
    <glyph glyph-name="uni042D" unicode="&#x42d;" horiz-adv-x="1382" 
d="M1119.5 1411.5q107.5 -67.5 159.5 -185t52 -270.5q0 -231 -111 -460t-310.5 -377t-450.5 -148q-84 0 -141 17.5t-94 44.5t-81 71q-16 17 -32 17q-45 0 -82 -121h-45q67 204 141 492h45q-16 -98 -16 -167q0 -94 28 -157q32 -73 108.5 -116.5t172.5 -43.5q154 0 283 110
t217.5 283.5t131.5 363.5q-48 -81 -123.5 -127t-150.5 -46q-65 0 -112 22t-110 65q-58 41 -101.5 61t-100.5 20q-46 0 -97 -28t-95 -83l-27 19q170 211 336 211q47 0 86 -12t68 -29t70 -46q59 -41 102 -61t102 -20q95 0 165 110q21 113 21 211q0 118 -31.5 210.5t-96.5 146
t-162 53.5q-87 0 -183.5 -42.5t-173.5 -117.5q-59 -57 -96.5 -123.5t-83.5 -179.5h-45q90 291 119 471h43q-3 -21 -5 -50q-1 -4 -1 -13q0 -56 29 -56q14 0 36 15q66 44 115.5 71t114 44.5t145.5 17.5q160 0 267.5 -67.5z" />
    <glyph glyph-name="uni0406" unicode="&#x406;" horiz-adv-x="698" 
d="M0 0zM323 118q0 -30 13.5 -46t42.5 -22.5t82 -8.5l-8 -41q-96 6 -260 6q-171 0 -261 -6l11 41q72 3 108 16t57.5 48.5t41.5 111.5l270 1016q17 65 17 98q0 31 -14 47t-42.5 22.5t-81.5 8.5l10 41q84 -6 260 -6q165 0 262 6l-10 -41q-75 -3 -111.5 -16t-58 -48t-41.5 -112
l-270 -1016q-17 -66 -17 -99z" />
    <glyph glyph-name="uni0407" unicode="&#x407;" horiz-adv-x="698" 
d="M0 0zM323 118q0 -30 13.5 -46t42.5 -22.5t82 -8.5l-8 -41q-96 6 -260 6q-171 0 -261 -6l11 41q72 3 108 16t57.5 48.5t41.5 111.5l270 1016q17 65 17 98q0 31 -14 47t-42.5 22.5t-81.5 8.5l10 41q84 -6 260 -6q165 0 262 6l-10 -41q-75 -3 -111.5 -16t-58 -48t-41.5 -112
l-270 -1016q-17 -66 -17 -99zM304 1748q19 31 51 51t68 20q43 0 72.5 -30t29.5 -73q0 -33 -19 -64.5t-50.5 -51t-67.5 -19.5q-46 0 -74.5 29.5t-28.5 75.5q0 31 19 62zM739 1748q19 31 50.5 51t67.5 20q43 0 72.5 -30t29.5 -73q0 -33 -19 -64.5t-50.5 -51t-67.5 -19.5
q-45 0 -73.5 30t-28.5 75q0 31 19 62z" />
    <glyph glyph-name="uni0408" unicode="&#x408;" horiz-adv-x="1303" 
d="M92 0zM1521 1470q0 -50 -150 -106q-286 -191 -426 -614h203l-6 -41h-210q-8 -26 -22 -80l-127 -496q-58 -229 -179.5 -373.5t-303.5 -144.5q-96 0 -152.5 30t-56.5 87q0 29 14.5 55.5t40.5 43.5t58 17q37 0 61.5 -24.5t24.5 -60.5q0 -34 -23 -61.5t-59 -43.5
q30 -10 72 -10q93 0 153 69.5t95.5 174t80.5 288.5q9 39 29 117l61 240q24 92 57 172h-272l7 41h283q59 129 143.5 234.5t184 191t234.5 182.5q-237 -123 -405 -123q-66 0 -119.5 14t-131.5 43q-76 29 -131 43.5t-122 14.5q-68 0 -102 -36t-31 -100q1 -60 40 -97.5
t111 -51.5l-6 -41q-93 16 -157.5 73t-67.5 165q-3 73 25 130t83 89t130 32q53 0 99 -15t84 -37t90 -59q52 -36 88 -57.5t81 -36t96 -14.5q66 0 122.5 11t107 29t133.5 52q77 120 127 120q14 0 28 -11q13 -11 13 -25z" />
    <glyph glyph-name="uni040B" unicode="&#x40b;" horiz-adv-x="1657" 
d="M1583.5 1645q23.5 -28 23.5 -70q0 -45 -26.5 -83t-70.5 -65q-89 -67 -262 -67q-119 0 -280 23l-167 -628q69 38 173.5 67.5t200.5 29.5q175 0 258 -100q50 -61 50 -156q0 -62 -24 -152l-65 -254q-11 -42 -11 -68q0 -44 29.5 -61.5t95.5 -17.5l-10 -43l-28 1
q-128 7 -222 7q-87 0 -204 -7l-27 -1l10 43q54 0 87 14t53 45.5t36 87.5l72 261q26 93 26 154q0 87 -53 134t-174 47q-77 0 -154.5 -17.5t-128.5 -48.5l-128 -482q-19 -68 -19 -104q0 -35 17 -54.5t53.5 -28t101.5 -10.5l-8 -41q-108 6 -305 6q-201 0 -299 -6l8 41
q88 3 136.5 21t76 58t47.5 118l311 1170q-121 13 -192 13q-177 0 -230 -35q16 -21 26.5 -54.5t10.5 -63.5q0 -47 -26 -83t-76 -36q-43 0 -66.5 27.5t-23.5 74.5q0 107 108 160q97 47 275 47q130 0 341 -29q216 -28 333 -28q72 0 118.5 10t83.5 35q-51 53 -51 115q0 46 26 79
t75 33q45 0 68.5 -28z" />
    <glyph glyph-name="uni042E" unicode="&#x42e;" horiz-adv-x="2146" 
d="M1877.5 1421q108.5 -58 166 -169t57.5 -267q0 -231 -110 -467.5t-306 -391.5t-440 -155q-151 0 -259 58t-165 168.5t-57 265.5q0 117 31 246h-322l-131 -492q-17 -66 -17 -99q0 -30 13.5 -46t42.5 -22.5t82 -8.5l-8 -41q-96 6 -260 6q-171 0 -261 -6l11 41q72 3 108 16
t57.5 48.5t41.5 111.5l270 1016q17 65 17 98q0 31 -14 47t-42.5 22.5t-81.5 8.5l10 41q84 -6 260 -6q165 0 262 6l-10 -41q-75 -3 -111.5 -16t-58 -48t-41.5 -112l-128 -483h321q54 193 169.5 359.5t281.5 268t362 101.5q151 0 259.5 -58zM1561.5 155.5
q143.5 147.5 232 381.5t88.5 477q0 132 -36 228.5t-100 148t-147 51.5q-154 0 -297.5 -147.5t-232 -381.5t-88.5 -477q0 -132 36 -228.5t100 -148t147 -51.5q154 0 297.5 147.5z" />
    <glyph glyph-name="uni0402" unicode="&#x402;" horiz-adv-x="1640" 
d="M968 1383l-177 -663q77 57 186 94.5t220 37.5q158 0 248 -80t90 -235q0 -141 -73.5 -272t-201.5 -212.5t-284 -81.5q-99 0 -164 35.5t-65 108.5q0 38 18 70.5t50 52.5t73 20q39 0 61.5 -20t22.5 -56q0 -47 -33.5 -87.5t-83.5 -57.5q22 -35 102 -35q120 0 207.5 81.5
t132.5 204t45 242.5q0 142 -62.5 199t-170.5 57q-89 0 -180.5 -30t-148.5 -78l-187 -701q-94 29 -256 29q-63 0 -131 -6l10 41q92 3 137 17.5t70.5 54t48.5 125.5l311 1170q-124 13 -202 13q-167 0 -220 -35q16 -21 26.5 -54.5t10.5 -63.5q0 -47 -26 -83t-76 -36
q-43 0 -66.5 27.5t-23.5 74.5q0 107 108 160q97 47 275 47q82 0 154 -7t190 -22q212 -28 326 -28q75 0 122 9.5t84 35.5q-51 53 -51 115q0 46 26 79t75 33q45 0 68.5 -28t23.5 -70q0 -45 -26.5 -83t-70.5 -65q-46 -34 -109.5 -50.5t-162.5 -16.5q-96 0 -270 23z" />
    <glyph glyph-name="uni0430" unicode="&#x430;" 
d="M0 0zM1071 73.5q28 -30.5 64 -32.5l-11 -41q-82 6 -223 6q-165 0 -246 -6l11 41q63 3 101 14.5t58 39t20 78.5q0 18 -3 40l-31 254h-519l-140 -174q-81 -99 -81 -164q0 -78 124 -88v-41q-61 6 -187 6q-125 0 -178 -6v41q90 23 223 190l824 1029h30l127 -1088
q9 -68 37 -98.5zM743 1027l-418 -519h481z" />
    <glyph glyph-name="uni0431" unicode="&#x431;" horiz-adv-x="1249" 
d="M1229 1245q-30 -81 -78 -241q-19 -69 -27 -127h-45q15 86 15 144q0 96 -42.5 136.5t-138.5 40.5h-149q-72 0 -107 -11.5t-56.5 -46.5t-41.5 -112l-95 -360h210q150 0 244 -39.5t135 -102t41 -135.5q0 -108 -76.5 -193t-204 -136.5t-276.5 -61.5q-23 -2 -71 -2
q-56 0 -121 3q-82 5 -161 5q-163 0 -250 -6l9 41q74 3 110.5 16t58.5 48t42 112l215 811q17 65 17 98q0 31 -14 47t-42.5 22.5t-81.5 8.5l10 41q199 -6 588 -6q266 0 383 6zM344 217q-19 -73 -19 -101q0 -38 27.5 -53.5t96.5 -15.5q172 0 268.5 46.5t134 128t37.5 200.5
q0 211 -293 211h-142z" />
    <glyph glyph-name="uni0432" unicode="&#x432;" horiz-adv-x="1255" 
d="M0 0zM1014.5 567.5q79.5 -71.5 79.5 -176.5q0 -109 -77 -198.5t-205.5 -141t-274.5 -51.5q-70 0 -150 3q-183 3 -203 3q-163 0 -250 -6l9 41q74 3 110.5 16t58.5 48t42 112l217 811q18 65 18 98q0 42 -31 60t-108 18l10 41q83 -6 244 -6q44 0 138 2q98 2 151 2
q190 0 287.5 -59t97.5 -162q0 -85 -59 -156.5t-154 -122t-207 -79.5q177 -25 256.5 -96.5zM571 668q120 0 212 46.5t142 124.5t50 169q0 99 -53 147.5t-168 48.5q-63 0 -97 -11.5t-54 -42t-36 -91.5l-104 -391h108zM717.5 93.5q96.5 46.5 134 128t37.5 200.5q0 211 -293 211
h-142l-110 -416q-19 -73 -19 -101q0 -38 27.5 -53.5t96.5 -15.5q172 0 268.5 46.5z" />
    <glyph glyph-name="uni0433" unicode="&#x433;" horiz-adv-x="1106" 
d="M661.5 1186.5q-36.5 -11.5 -58.5 -46.5t-42 -112l-219 -811q-15 -57 -15 -90q0 -34 17 -52t53.5 -25t104.5 -9l-10 -41q-105 6 -299 6q-173 0 -263 -6l11 41q74 3 110.5 16t58.5 48t42 112l219 811q17 66 17 100q0 30 -13.5 45.5t-42 22t-80.5 8.5l10 41q199 -6 592 -6
q244 0 348 6q-60 -160 -84 -262q-31 -113 -39 -168h-47q22 121 22 193q0 101 -37.5 145.5t-115.5 44.5h-129q-74 0 -110.5 -11.5z" />
    <glyph glyph-name="uni0453" unicode="&#x453;" horiz-adv-x="1106" 
d="M0 0zM661.5 1186.5q-36.5 -11.5 -58.5 -46.5t-42 -112l-219 -811q-15 -57 -15 -90q0 -34 17 -52t53.5 -25t104.5 -9l-10 -41q-105 6 -299 6q-173 0 -263 -6l11 41q74 3 110.5 16t58.5 48t42 112l219 811q17 66 17 100q0 30 -13.5 45.5t-42 22t-80.5 8.5l10 41
q199 -6 592 -6q244 0 348 6q-60 -160 -84 -262q-31 -113 -39 -168h-47q22 121 22 193q0 101 -37.5 145.5t-115.5 44.5h-129q-74 0 -110.5 -11.5zM846 1586q105 81 144 104q40 23 78 23q43 0 58 -34q4 -9 4 -20q0 -25 -21.5 -49.5t-50.5 -40.5q-50 -29 -163 -70
q-170 -63 -292 -123l-14 23q119 80 257 187z" />
    <glyph glyph-name="uni0491" unicode="&#x491;" horiz-adv-x="1069" 
d="M1066.5 1274.5q49.5 29.5 84.5 94.5t82 198h47q-18 -47 -41 -127q-32 -125 -49 -242h-418q-74 0 -110.5 -11.5t-58.5 -46.5t-42 -112l-219 -811q-16 -61 -16 -91q0 -34 17.5 -51.5t54.5 -24.5t106 -9l-8 -41q-108 6 -306 6q-171 0 -258 -6l9 41q74 3 110.5 16t58.5 48
t42 112l219 811q17 66 17 100q0 30 -13.5 45.5t-42 22t-80.5 8.5l10 41q90 -6 264 -6q70 0 173 3q240 3 235 3q83 0 132.5 29.5z" />
    <glyph glyph-name="uni0434" unicode="&#x434;" horiz-adv-x="1303" 
d="M1366 1245l-10 -41q-75 -3 -111.5 -16t-58 -47.5t-41.5 -112.5l-215 -811q-17 -65 -17 -99q0 -31 13.5 -47.5t43 -23t81.5 -6.5h63q-41 -105 -90 -303q-13 -57 -20 -94l-7 -33h-45q14 83 14 153q0 127 -48.5 181.5t-137.5 54.5h-602q-112 0 -212 -89t-187 -300h-45l15 40
l32 87q58 173 84 303h127q76 0 141 53q61 54 137 180.5t153.5 320t139.5 433.5q18 65 18 100q0 30 -14 45.5t-42.5 22t-82.5 8.5l11 41q64 -6 190 -6q14 0 52 2q62 4 130 4q108 0 202 -4q56 -2 75 -2q176 0 264 6zM972 1129q0 31 -14 47t-43 22t-81 6h-29q-69 0 -104 -13.5
t-56 -49t-41 -113.5q-50 -190 -124 -385t-157.5 -349t-160.5 -224q-13 -11 -41 -29h418q68 0 103.5 14t55.5 49.5t41 112.5l215 811q18 65 18 101z" />
    <glyph glyph-name="uni0435" unicode="&#x435;" horiz-adv-x="1268" 
d="M0 0zM1278 1245q-30 -75 -74 -221l-6 -23q-22 -88 -29 -124h-47q19 93 19 149q0 63 -22 100.5t-70 54.5t-127 17h-150q-74 0 -110.5 -11.5t-58.5 -46.5t-42 -112l-103 -381h191q65 0 110.5 37t70.5 83t51 110h47q-52 -157 -74 -250l-13 -49q-28 -106 -42 -201h-47
q9 58 9 94q0 64 -31.5 99.5t-113.5 35.5h-169l-105 -389q-17 -66 -17 -99q0 -30 13.5 -45t42.5 -20.5t82 -5.5h149q112 0 187.5 34.5t131.5 112.5t107 216h47q-35 -108 -49 -168q-24 -81 -51 -242q-143 6 -481 6q-379 0 -574 -6l11 41q74 3 110.5 16t58.5 48t42 112l219 811
q17 66 17 100q0 30 -13.5 45.5t-42 22t-80.5 8.5l10 41q193 -6 572 -6q309 0 444 6z" />
    <glyph glyph-name="uni0451" unicode="&#x451;" horiz-adv-x="1268" 
d="M0 0zM1278 1245q-30 -75 -74 -221l-6 -23q-22 -88 -29 -124h-47q19 93 19 149q0 63 -22 100.5t-70 54.5t-127 17h-150q-74 0 -110.5 -11.5t-58.5 -46.5t-42 -112l-103 -381h191q65 0 110.5 37t70.5 83t51 110h47q-52 -157 -74 -250l-13 -49q-28 -106 -42 -201h-47
q9 58 9 94q0 64 -31.5 99.5t-113.5 35.5h-169l-105 -389q-17 -66 -17 -99q0 -30 13.5 -45t42.5 -20.5t82 -5.5h149q112 0 187.5 34.5t131.5 112.5t107 216h47q-35 -108 -49 -168q-24 -81 -51 -242q-143 6 -481 6q-379 0 -574 -6l11 41q74 3 110.5 16t58.5 48t42 112l219 811
q17 66 17 100q0 30 -13.5 45.5t-42 22t-80.5 8.5l10 41q193 -6 572 -6q309 0 444 6zM509 1543q19 31 51 51t68 20q43 0 72.5 -30t29.5 -73q0 -33 -19 -64.5t-50.5 -51t-67.5 -19.5q-46 0 -74.5 29.5t-28.5 75.5q0 31 19 62zM944 1543q19 31 50.5 51t67.5 20q43 0 72.5 -30
t29.5 -73q0 -33 -19 -64.5t-50.5 -51t-67.5 -19.5q-45 0 -73.5 30t-28.5 75q0 31 19 62z" />
    <glyph glyph-name="uni0436" unicode="&#x436;" horiz-adv-x="1866" 
d="M548.5 545.5q-46.5 -48.5 -87.5 -146.5l-82 -190q-38 -87 -70.5 -137.5t-75 -75.5t-102.5 -25q-164 0 -219 189l31 14q42 -90 123 -90q40 0 64.5 25.5t49.5 78.5l80 170q62 133 150 197.5t218 92.5q-77 11 -108 56t-31 117q0 58 24 176q20 106 20 144q0 40 -13 61
q-18 29 -63 29h-4q16 -38 16 -66q0 -35 -19.5 -68t-52.5 -54t-69 -21q-64 0 -64 63q0 48 27.5 91.5t74 70.5t99.5 27q65 0 98 -47q17 -27 17 -73t-21 -153q-24 -118 -24 -174q0 -67 31 -108.5t106 -50.5q46 17 76 20h8q32 0 32 -24q0 -5 -2 -15q-11 -41 -53 -41
q-24 0 -78 18q-60 -32 -106.5 -80.5zM1816.5 1244q28.5 -30 28.5 -80q0 -27 -12 -60.5t-39 -57.5t-68 -24q-40 0 -59.5 23.5t-19.5 58.5q0 30 18.5 65t46.5 62h-6q-24 0 -39.5 -6.5t-34.5 -22.5q-30 -28 -52 -76t-49 -127q-38 -106 -70 -172t-89 -117.5t-143 -62.5
q109 -24 164.5 -86.5t55.5 -188.5q0 -21 -1 -32l-8 -150q-5 -106 71 -106q52 0 87 38t65 122l35 104h41l-53 -158q-39 -112 -100.5 -165.5t-149.5 -53.5q-86 0 -130 49.5t-44 143.5q0 29 2 45l12 151q2 32 2 46q0 81 -22.5 141.5t-62.5 81.5q-60 -23 -91 -23q-42 0 -37 35
q7 43 51 43q28 0 70 -18q89 8 146 56t88 112.5t65 167.5q30 89 55 141.5t62 83.5q60 47 122 47q64 0 92.5 -30zM894 118q0 -30 13.5 -46t42.5 -22.5t82 -8.5l-8 -41q-95 6 -260 6q-172 0 -260 -6l10 41q72 3 108 16t57.5 48.5t41.5 111.5l215 811q17 65 17 98q0 31 -14 47
t-42.5 22.5t-81.5 8.5l10 41q84 -6 260 -6q164 0 263 6l-11 -41q-75 -3 -111.5 -16t-58 -48t-41.5 -112l-215 -811q-17 -66 -17 -99z" />
    <glyph glyph-name="uni0437" unicode="&#x437;" horiz-adv-x="1137" 
d="M546.5 52q100.5 46 162 129t61.5 188q0 67 -31.5 123t-92.5 92t-146 43q-24 -12 -53 -21.5t-48 -9.5q-16 0 -26.5 10t-10.5 23q0 35 60 35q34 0 65 -11q105 18 200 72t153.5 133t58.5 168t-59 131.5t-152 42.5q-119 0 -204.5 -53.5t-142.5 -146t-105 -226.5h-46
q93 300 119 471h43q-5 -35 -5 -50q-1 -4 -1 -12q0 -56 30 -56q15 0 36 14q72 48 121 74.5t108 42.5t133 16q96 0 169 -26.5t114 -77.5t41 -121q0 -107 -89 -191t-217.5 -137.5t-252.5 -75.5q121 2 218.5 -34t153.5 -105t56 -162q0 -114 -91 -198.5t-236.5 -129.5t-303.5 -45
q-195 0 -289 74q-59 47 -59 111q0 37 19.5 70t52 53t69.5 20q38 0 61 -20.5t23 -59.5q0 -45 -32 -83.5t-85 -51.5q8 -20 44.5 -38t88.5 -29t105 -11q112 0 212.5 46z" />
    <glyph glyph-name="uni0438" unicode="&#x438;" horiz-adv-x="1561" 
d="M1640 1245l-10 -41q-75 -3 -112 -16t-59 -48t-42 -112l-219 -811q-17 -66 -17 -99q0 -30 13.5 -46t41.5 -22.5t81 -8.5l-10 -41q-84 6 -260 6q-164 0 -263 -6l11 41q75 3 112 16t59 48t42 112l208 769l-884 -812q-7 -31 -7 -56q0 -30 13.5 -46t41.5 -22.5t81 -8.5
l-10 -41q-93 6 -258 6q-173 0 -263 -6l11 41q74 3 110.5 16t58.5 48t42 112l219 811q17 66 17 100q0 30 -13.5 45.5t-42 22t-80.5 8.5l10 41q83 -6 260 -6q165 0 262 6l-10 -41q-75 -3 -112 -16t-59 -48t-42 -112l-211 -782l885 815q9 41 9 67q0 30 -13.5 45.5t-42 22
t-80.5 8.5l10 41q93 -6 258 -6q176 0 264 6z" />
    <glyph glyph-name="uni0439" unicode="&#x439;" horiz-adv-x="1561" 
d="M0 0zM1640 1245l-10 -41q-75 -3 -112 -16t-59 -48t-42 -112l-219 -811q-17 -66 -17 -99q0 -30 13.5 -46t41.5 -22.5t81 -8.5l-10 -41q-84 6 -260 6q-164 0 -263 -6l11 41q75 3 112 16t59 48t42 112l208 769l-884 -812q-7 -31 -7 -56q0 -30 13.5 -46t41.5 -22.5t81 -8.5
l-10 -41q-93 6 -258 6q-173 0 -263 -6l11 41q74 3 110.5 16t58.5 48t42 112l219 811q17 66 17 100q0 30 -13.5 45.5t-42 22t-80.5 8.5l10 41q83 -6 260 -6q165 0 262 6l-10 -41q-75 -3 -112 -16t-59 -48t-42 -112l-211 -782l885 815q9 41 9 67q0 30 -13.5 45.5t-42 22
t-80.5 8.5l10 41q93 -6 258 -6q176 0 264 6zM798 1403.5q51 -10.5 108 -10.5q273 0 479 231l29 -25q-106 -124 -241.5 -186.5t-280.5 -62.5q-113 0 -204 36t-91 121q0 37 18.5 67t50 47t68.5 17q41 0 64.5 -22t23.5 -64q0 -43 -26 -75.5t-70 -47.5q21 -15 72 -25.5z" />
    <glyph glyph-name="uni045D" unicode="&#x45d;" horiz-adv-x="1561" 
d="M0 0zM1640 1245l-10 -41q-75 -3 -112 -16t-59 -48t-42 -112l-219 -811q-17 -66 -17 -99q0 -30 13.5 -46t41.5 -22.5t81 -8.5l-10 -41q-84 6 -260 6q-164 0 -263 -6l11 41q75 3 112 16t59 48t42 112l208 769l-884 -812q-7 -31 -7 -56q0 -30 13.5 -46t41.5 -22.5t81 -8.5
l-10 -41q-93 6 -258 6q-173 0 -263 -6l11 41q74 3 110.5 16t58.5 48t42 112l219 811q17 66 17 100q0 30 -13.5 45.5t-42 22t-80.5 8.5l10 41q83 -6 260 -6q165 0 262 6l-10 -41q-75 -3 -112 -16t-59 -48t-42 -112l-211 -782l885 815q9 41 9 67q0 30 -13.5 45.5t-42 22
t-80.5 8.5l10 41q93 -6 258 -6q176 0 264 6zM794 1522q-94 67 -123 96q-39 39 -39 80q0 23 14 41q17 21 46 21q23 0 47.5 -12.5t41.5 -31.5q17 -17 36 -43.5t32 -46t20 -29.5q80 -122 146 -204l-21 -21q-91 74 -200 150z" />
    <glyph glyph-name="uni043A" unicode="&#x43a;" horiz-adv-x="1380" 
d="M0 0zM1331 1244q29 -30 29 -80q0 -27 -12.5 -60.5t-39 -57.5t-67.5 -24t-60.5 24t-19.5 58q0 29 19 64.5t47 62.5h-6q-25 0 -40.5 -6.5t-33.5 -22.5q-30 -28 -51.5 -75t-50.5 -128q-37 -103 -69.5 -170t-89.5 -118.5t-143 -62.5q109 -24 165 -86t56 -186q0 -23 -1 -36
l-5 -176q-1 -37 19 -58.5t49 -21.5q52 0 87 38t65 122l34 104h41l-53 -158q-38 -112 -99.5 -165.5t-150.5 -53.5q-86 0 -130 50t-44 145q0 13 2 43l13 151q2 17 2 51q0 82 -23.5 141.5t-64.5 78.5q-81 -21 -131 -21q-66 0 -66 37q0 39 64 39q46 0 127 -20q90 8 147.5 56.5
t88.5 113t65 167.5q31 90 55 141.5t61 82.5q60 47 123 47t92 -30zM327 118q0 -30 13.5 -46t42.5 -22.5t82 -8.5l-8 -41q-96 6 -260 6q-172 0 -260 -6l10 41q72 3 108 16t57.5 48.5t41.5 111.5l215 811q17 65 17 98q0 31 -14 47t-42.5 22.5t-81.5 8.5l10 41q82 -6 260 -6
q164 0 262 6l-10 -41q-75 -3 -111.5 -16t-58 -48t-41.5 -112l-215 -811q-17 -66 -17 -99z" />
    <glyph glyph-name="uni045C" unicode="&#x45c;" horiz-adv-x="1380" 
d="M0 0zM1331 1244q29 -30 29 -80q0 -27 -12.5 -60.5t-39 -57.5t-67.5 -24t-60.5 24t-19.5 58q0 29 19 64.5t47 62.5h-6q-25 0 -40.5 -6.5t-33.5 -22.5q-30 -28 -51.5 -75t-50.5 -128q-37 -103 -69.5 -170t-89.5 -118.5t-143 -62.5q109 -24 165 -86t56 -186q0 -23 -1 -36
l-5 -176q-1 -37 19 -58.5t49 -21.5q52 0 87 38t65 122l34 104h41l-53 -158q-38 -112 -99.5 -165.5t-150.5 -53.5q-86 0 -130 50t-44 145q0 13 2 43l13 151q2 17 2 51q0 82 -23.5 141.5t-64.5 78.5q-81 -21 -131 -21q-66 0 -66 37q0 39 64 39q46 0 127 -20q90 8 147.5 56.5
t88.5 113t65 167.5q31 90 55 141.5t61 82.5q60 47 123 47t92 -30zM327 118q0 -30 13.5 -46t42.5 -22.5t82 -8.5l-8 -41q-96 6 -260 6q-172 0 -260 -6l10 41q72 3 108 16t57.5 48.5t41.5 111.5l215 811q17 65 17 98q0 31 -14 47t-42.5 22.5t-81.5 8.5l10 41q82 -6 260 -6
q164 0 262 6l-10 -41q-75 -3 -111.5 -16t-58 -48t-41.5 -112l-215 -811q-17 -66 -17 -99zM922 1586q105 81 144 104q40 23 78 23q43 0 58 -34q4 -9 4 -20q0 -25 -21.5 -49.5t-50.5 -40.5q-50 -29 -163 -70q-170 -63 -292 -123l-14 23q119 80 257 187z" />
    <glyph glyph-name="uni043B" unicode="&#x43b;" horiz-adv-x="1305" 
d="M281.5 252q74.5 131 152.5 330.5t144 445.5q17 66 17 99q0 31 -13.5 46.5t-42 22t-82.5 8.5l10 41q64 -6 190 -6q12 0 52 2q62 4 131 4q109 0 201 -4q58 -2 75 -2q176 0 264 6l-10 -41q-75 -3 -111.5 -16t-58 -48t-41.5 -112l-215 -811q-17 -66 -17 -99q0 -30 13.5 -46
t42.5 -22.5t82 -8.5l-8 -41q-87 6 -262 6q-165 0 -260 -6l8 41q74 3 110.5 16t58.5 48t42 112l215 811q18 65 18 101q0 31 -14 47t-43.5 22t-81.5 6h-29q-69 0 -104 -13.5t-56 -49t-41 -113.5q-50 -195 -124 -396t-157.5 -360t-160.5 -229q-87 -72 -182 -72q-64 0 -92.5 30
t-28.5 79q0 31 13 64t40.5 56t67.5 23t59 -23.5t19 -58.5q0 -29 -19 -64.5t-47 -62.5h4q75 3 137 54q60 53 134.5 184z" />
    <glyph glyph-name="uni043C" unicode="&#x43c;" horiz-adv-x="1774" 
d="M0 0zM1862 1274l-11 -41q-75 -3 -111.5 -16t-58 -48t-41.5 -112l-223 -840q-17 -65 -17 -98q0 -31 14 -47t42.5 -22.5t81.5 -8.5l-8 -41q-96 6 -254 6q-180 0 -266 -6l8 41q75 3 111 16t57.5 48t42.5 112l248 925l-801 -1152h-45l-188 1168l-242 -920q-18 -70 -18 -104
q0 -50 34 -70t119 -23l-10 -41q-75 6 -207 6q-126 0 -193 -6l11 41q72 3 111.5 20.5t62.5 57.5t45 119l217 819q17 65 17 98q0 31 -14 47t-42.5 22.5t-81.5 8.5l10 41q64 -6 182 -6q101 0 172 6l162 -1056l729 1050h99q157 0 256 6z" />
    <glyph glyph-name="uni043D" unicode="&#x43d;" horiz-adv-x="1552" 
d="M0 0zM1628 1245l-10 -41q-75 -3 -111.5 -16t-58 -48t-41.5 -112l-215 -811q-17 -66 -17 -99q0 -30 13.5 -46t42.5 -22.5t82 -8.5l-8 -41q-87 6 -263 6q-164 0 -260 -6l9 41q74 3 110.5 16t58 48t41.5 112l104 389h-658l-103 -389q-17 -66 -17 -99q0 -30 13.5 -46
t42.5 -22.5t82 -8.5l-8 -41q-96 6 -260 6q-172 0 -260 -6l10 41q72 3 108 16t57.5 48.5t41.5 111.5l215 811q17 65 17 98q0 31 -14 47t-42.5 22.5t-81.5 8.5l10 41q82 -6 260 -6q165 0 262 6l-10 -41q-75 -3 -111.5 -16t-58 -48t-41.5 -112l-101 -381h658l101 381
q17 65 17 98q0 31 -14 47t-42.5 22.5t-81.5 8.5l10 41q91 -6 258 -6q175 0 264 6z" />
    <glyph glyph-name="uni043E" unicode="&#x43e;" horiz-adv-x="1499" 
d="M94 0zM333 25.5q-113 54.5 -176.5 165t-63.5 274.5q0 185 104.5 374t291 312t419.5 123q151 0 264 -54.5t176.5 -165t63.5 -274.5q0 -185 -104.5 -374t-291 -312t-419.5 -123q-151 0 -264 54.5zM594.5 1120.5q-132.5 -116.5 -207.5 -302t-75 -382.5q0 -222 81 -325
t222 -103q163 0 295.5 116.5t207.5 302t75 382.5q0 222 -81 325t-222 103q-163 0 -295.5 -116.5z" />
    <glyph glyph-name="uni043F" unicode="&#x43f;" horiz-adv-x="1552" 
d="M1208 1242q147 -3 156 -3q175 0 264 6l-10 -41q-75 -3 -111.5 -16t-58 -48t-41.5 -112l-215 -811q-17 -66 -17 -99q0 -30 13.5 -46t42.5 -22.5t82 -8.5l-8 -41q-87 6 -263 6q-164 0 -260 -6l9 41q74 3 110.5 16t58 48t41.5 112l216 811q17 65 17 100q0 31 -14 47.5
t-43 22.5t-81 6h-326q-74 0 -111 -13t-58.5 -49t-41.5 -114l-215 -811q-17 -66 -17 -99q0 -30 13.5 -46t42.5 -22.5t82 -8.5l-8 -41q-96 6 -260 6q-172 0 -260 -6l10 41q72 3 108 16t57.5 48.5t41.5 111.5l215 811q17 65 17 98q0 31 -14 47t-42.5 22.5t-81.5 8.5l10 41
q82 -6 260 -6q7 0 154 3q61 3 108 3h326q44 0 102 -3z" />
    <glyph glyph-name="uni0440" unicode="&#x440;" horiz-adv-x="1192" 
d="M0 0zM1113.5 1171.5q103.5 -71.5 103.5 -196.5q0 -135 -95 -243.5t-266.5 -170t-390.5 -61.5h-48l-75 -283q-17 -70 -17 -98q0 -39 29.5 -56.5t108.5 -21.5l-8 -41q-96 6 -254 6q-180 0 -267 -6l9 41q74 3 110.5 16t58.5 48t42 112l215 811q14 65 14 90q0 43 -29 62.5
t-106 23.5l10 41q82 -6 252 -6q47 0 147 2t152 2q201 0 304.5 -71.5zM886 668q124 127 124 340q0 100 -62 148t-198 48q-62 0 -96.5 -15t-56 -52t-40.5 -109l-129 -487h57q277 0 401 127z" />
    <glyph glyph-name="uni0441" unicode="&#x441;" horiz-adv-x="1362" 
d="M86 0zM304.5 21q-106.5 50 -163 146.5t-56.5 233.5q0 207 105 410t296.5 333t438.5 130q112 0 180.5 -35.5t122.5 -97.5q15 -18 29 -18q38 0 83 122h45q-64 -189 -133 -471h-45q13 101 13 158q0 78 -33 145q-37 78 -111.5 119t-169.5 41q-162 0 -304 -135.5t-227 -341
t-85 -400.5q0 -169 77 -260.5t212 -91.5q94 0 194 42t174 118q54 56 93 126t92 198h45q-97 -355 -121 -492h-45q6 44 6 70q0 52 -26 52q-16 0 -42 -18q-93 -65 -182.5 -99t-206.5 -34q-149 0 -255.5 50z" />
    <glyph glyph-name="uni0442" unicode="&#x442;" horiz-adv-x="1251" 
d="M158 0zM1472.5 1440.5q23.5 -27.5 23.5 -68.5q0 -82 -94 -151q-60 -34 -125 -50t-158 -16q-68 0 -173 11l-269 -928q-19 -66 -19 -102t17 -56t54 -29t101 -10l-8 -41q-106 6 -305 6q-200 0 -299 -6l8 41q89 3 135.5 19.5t74 56.5t50.5 121l277 954q-173 25 -258 25
q-130 0 -193 -35q16 -22 26.5 -55.5t10.5 -63.5q0 -47 -26.5 -83t-75.5 -36q-43 0 -66.5 28t-23.5 75q0 103 106 159q88 47 232 47q75 0 144 -7t181 -22q204 -28 307 -28q76 0 127 10.5t101 34.5q-51 51 -51 115q0 46 25.5 79t74.5 33q45 0 68.5 -27.5z" />
    <glyph glyph-name="uni0443" unicode="&#x443;" horiz-adv-x="1276" 
d="M1443 1245l-10 -41q-37 -2 -85.5 -34t-91.5 -97l-591 -820q-78 -113 -123 -165.5t-108.5 -84.5t-158.5 -32t-151.5 30t-56.5 87q0 29 14.5 56t40 44t57.5 17q37 0 61.5 -25t24.5 -61q0 -33 -23.5 -61t-58.5 -44q32 -10 80 -10q91 0 155 34t124 110l-234 925
q-11 46 -37.5 75t-56 42t-53.5 14l10 41q80 -6 221 -6q158 0 246 6l-10 -41q-50 -2 -78 -9.5t-41 -25t-13 -49.5q0 -29 13 -88l160 -706l516 706q52 80 52 114q0 28 -29.5 42.5t-96.5 15.5l10 41q59 -6 189 -6q78 0 133 6z" />
    <glyph glyph-name="uni045E" unicode="&#x45e;" horiz-adv-x="1276" 
d="M68 0zM1443 1245l-10 -41q-37 -2 -85.5 -34t-91.5 -97l-591 -820q-78 -113 -123 -165.5t-108.5 -84.5t-158.5 -32t-151.5 30t-56.5 87q0 29 14.5 56t40 44t57.5 17q37 0 61.5 -25t24.5 -61q0 -33 -23.5 -61t-58.5 -44q32 -10 80 -10q91 0 155 34t124 110l-234 925
q-11 46 -37.5 75t-56 42t-53.5 14l10 41q80 -6 221 -6q158 0 246 6l-10 -41q-50 -2 -78 -9.5t-41 -25t-13 -49.5q0 -29 13 -88l160 -706l516 706q52 80 52 114q0 28 -29.5 42.5t-96.5 15.5l10 41q59 -6 189 -6q78 0 133 6zM691 1401.5q51 -10.5 108 -10.5q273 0 479 231
l29 -25q-106 -124 -241.5 -186.5t-280.5 -62.5q-113 0 -204 36t-91 121q0 37 18.5 67t50 47t68.5 17q41 0 64.5 -22t23.5 -64q0 -43 -26 -75.5t-70 -47.5q21 -15 72 -25.5z" />
    <glyph glyph-name="uni0444" unicode="&#x444;" horiz-adv-x="1898" 
d="M1724.5 418.5q-105.5 -123.5 -312 -206t-493.5 -95.5q-61 -223 -180 -362.5t-308 -139.5q-83 0 -140 28t-61 85q-1 29 14 57t41.5 45.5t57.5 17.5q37 0 61.5 -24.5t24.5 -60.5q0 -34 -23 -61.5t-59 -43.5q32 -10 70 -10q88 0 146.5 61t94 157.5t74.5 250.5
q-209 8 -359.5 54t-231.5 129.5t-81 199.5q0 141 120 272t351.5 214t547.5 83q69 75 165 139.5t236 134.5q-115 -57 -230.5 -89.5t-212.5 -32.5q-66 0 -120.5 15.5t-94 36.5t-91.5 55q-54 36 -88.5 52.5t-74.5 16.5q-41 0 -64.5 -20.5t-23.5 -55.5q0 -67 90 -113l-22 -32
q-127 55 -127 161q0 76 57.5 119t151.5 43q53 0 102 -14t89.5 -33.5t100.5 -53.5q87 -49 148 -73.5t131 -24.5q102 0 295 72q77 120 129 120q14 0 27 -11t13 -25q0 -50 -150 -106q-193 -120 -299 -285q195 -13 332.5 -62t209.5 -131.5t72 -193.5q0 -136 -105.5 -259.5z
M398.5 245q118.5 -80 342.5 -91q45 176 36 143l90 346q64 246 180 389q-249 -3 -421.5 -74t-259 -190t-86.5 -266q0 -177 118.5 -257zM1323.5 244q152.5 76 220 189t67.5 245q0 168 -107.5 250t-310.5 99q-68 -120 -113 -292l-151 -580q242 13 394.5 89z" />
    <glyph glyph-name="uni0445" unicode="&#x445;" horiz-adv-x="1384" 
d="M0 0zM1405.5 1245q29.5 -29 29.5 -76q0 -31 -13 -65t-40.5 -58t-68.5 -24q-40 0 -59 22.5t-19 55.5q0 30 18 67t47 64h-6q-68 -3 -131 -43q-81 -59 -180.5 -191t-193.5 -318l40 -362q13 -108 50 -170.5t112 -62.5q60 0 97 37.5t67 122.5l35 104h41l-53 -158
q-39 -112 -100.5 -165.5t-149.5 -53.5q-135 0 -194 90.5t-75 229.5l-25 221q-82 -144 -189 -271.5t-201 -197.5q-99 -72 -189 -72q-63 0 -92.5 29.5t-29.5 76.5q0 30 13 64t40.5 58t68.5 24q40 0 59 -22.5t19 -55.5q0 -30 -18 -67t-47 -64h6q73 3 131 43q93 60 205 194
t217 328l-39 349q-13 108 -49.5 170.5t-112.5 62.5q-60 0 -97 -37.5t-67 -122.5l-35 -104h-41l54 158q38 112 99.5 165.5t149.5 53.5q135 0 194 -90.5t75 -229.5l24 -215q77 148 169 273t173 190q91 72 189 72q63 0 92.5 -29z" />
    <glyph glyph-name="uni0447" unicode="&#x447;" horiz-adv-x="1348" 
d="M1426 1245l-10 -41q-75 -3 -112 -16t-59 -48t-42 -112l-219 -811q-17 -66 -17 -99q0 -30 13.5 -46t41.5 -22.5t81 -8.5l-10 -41q-84 6 -260 6q-193 0 -304 -6l11 41q93 3 138 16t70.5 48t45.5 112l101 373q-68 -38 -173 -67t-197 -29q-165 0 -243 100q-50 63 -50 158
q0 66 23 149l41 154q11 42 11 68q0 44 -30 61.5t-96 17.5l11 43l29 -1q128 -7 220 -7q88 0 205 7l27 1l-10 -43q-54 0 -87 -14t-53.5 -45.5t-36.5 -87.5l-45 -160q-26 -94 -26 -158q0 -86 49 -132t162 -46q72 0 150 18.5t128 48.5l109 402q17 66 17 100q0 30 -13.5 45.5
t-42 22t-80.5 8.5l10 41q84 -6 260 -6q165 0 262 6z" />
    <glyph glyph-name="uni0446" unicode="&#x446;" horiz-adv-x="1565" 
d="M889 3q-61 -3 -109 -3h-325q-44 0 -103 3q-147 3 -155 3q-172 0 -260 -6l10 41q74 3 110 16t56.5 47.5t40.5 112.5l215 811q17 66 17 99q0 30 -13.5 46t-42.5 22.5t-82 8.5l8 41q86 -6 262 -6q165 0 260 6l-8 -41q-74 -3 -110.5 -16t-58.5 -48t-42 -112l-215 -811
q-18 -63 -18 -99q0 -46 31 -61.5t108 -15.5h326q73 0 110.5 13t58.5 49t41 114l216 811q17 66 17 99q0 30 -13.5 46t-42.5 22.5t-82 8.5l8 41q94 -6 260 -6q175 0 264 6l-10 -41q-72 -3 -109 -16t-59.5 -48.5t-42.5 -111.5l-215 -811q-17 -65 -17 -99q0 -46 30.5 -61.5
t107.5 -15.5h63q-41 -105 -90 -303q-11 -46 -26 -127h-46q15 88 15 155q0 240 -187 240q-9 0 -153 -3z" />
    <glyph glyph-name="uni0448" unicode="&#x448;" horiz-adv-x="1970" 
d="M706 4q-120 -4 -204 -4q-74 0 -152 3q-159 3 -157 3q-173 0 -263 -6l11 41q74 3 110.5 16t58.5 48t42 112l219 811q17 66 17 100q0 30 -13.5 45.5t-42 22t-80.5 8.5l10 41q82 -6 260 -6q149 0 242 6l-10 -41q-67 -3 -99.5 -16t-53 -48t-40.5 -112l-219 -811
q-18 -70 -18 -101q0 -30 13.5 -46.5t42.5 -22.5t81 -6h110q73 0 110.5 13t60 49.5t42.5 113.5l220 811q19 74 19 106q0 27 -11.5 41.5t-36 20.5t-70.5 8l10 41q87 -6 238 -6q160 0 244 6l-11 -41q-67 -3 -99.5 -16t-52.5 -47.5t-40 -112.5l-219 -811q-18 -72 -18 -102
t13.5 -46t42.5 -22t81 -6h110q73 0 110.5 13t60 49.5t42.5 113.5l219 811q19 74 19 107q0 39 -25.5 52.5t-91.5 16.5l10 41q87 -6 238 -6q176 0 264 6l-10 -41q-76 -3 -112.5 -16t-58.5 -48t-42 -112l-219 -811q-18 -70 -18 -100t13.5 -45.5t42 -22t80.5 -8.5l-10 -41
q-82 6 -260 6l-165 -3q-79 -3 -150 -3q-83 0 -197 4q-90 2 -117 2t-121 -2z" />
    <glyph glyph-name="uni0449" unicode="&#x449;" horiz-adv-x="1976" 
d="M1305 2q-114 -2 -164 -2q-83 0 -197 4q-90 2 -117 2t-121 -2q-120 -4 -204 -4q-74 0 -152 3q-159 3 -157 3q-176 0 -263 -6l13 41q74 3 110 16t58 48t43 112l217 811q18 65 18 100q0 30 -13.5 45.5t-42 22t-81.5 8.5l10 41q86 -6 262 -6q151 0 240 6l-10 -41
q-66 -3 -98.5 -16t-53 -47.5t-41.5 -112.5l-217 -811q-19 -70 -19 -102q0 -44 31 -59t107 -15h110q73 0 110 13t59.5 49t43.5 114l218 811q20 72 20 106q0 27 -12 41.5t-36.5 20.5t-70.5 8l10 41q90 -6 240 -6q161 0 242 6l-11 -41q-67 -3 -99 -16t-52 -47.5t-41 -112.5
l-217 -811q-19 -70 -19 -102q0 -30 13.5 -46t43 -22t81.5 -6h110q73 0 110 13t59.5 49t43.5 114l217 811q20 72 20 107q0 39 -25.5 52.5t-92.5 16.5l10 41q90 -6 240 -6q177 0 262 6l-10 -41q-75 -3 -112 -16t-58.5 -47.5t-42.5 -112.5l-217 -811q-18 -64 -18 -100
q0 -30 13.5 -45.5t42 -22t81.5 -8.5h22q-60 -160 -84 -262q-32 -117 -39 -168h-47q24 124 24 205q0 101 -37.5 144.5t-115.5 43.5q-39 0 -147 -2z" />
    <glyph glyph-name="uni045F" unicode="&#x45f;" horiz-adv-x="1552" 
d="M1628 1245l-10 -41q-72 -3 -109 -16t-59.5 -48.5t-42.5 -111.5l-215 -811q-17 -66 -17 -99q0 -30 13.5 -46t42.5 -22.5t82 -8.5l-8 -41q-87 6 -263 6q-9 0 -153 -3q-48 -2 -67 -2q-68 -9 -113 -45t-78.5 -100t-79.5 -184h-47q26 130 26 193t-25 95t-84 40l-69 3
q-147 3 -155 3q-172 0 -260 -6l10 41q74 3 110 16t56.5 47.5t40.5 112.5l215 811q17 66 17 99q0 30 -13.5 46t-42.5 22.5t-82 8.5l8 41q86 -6 262 -6q165 0 260 6l-8 -41q-74 -3 -110.5 -16t-58.5 -48t-42 -112l-215 -811q-18 -63 -18 -99q0 -46 31 -61.5t108 -15.5h326
q73 0 110.5 13t58.5 49t41 114l216 811q17 66 17 99q0 30 -13.5 46t-42.5 22.5t-82 8.5l8 41q94 -6 260 -6q176 0 264 6z" />
    <glyph glyph-name="uni044C" unicode="&#x44c;" horiz-adv-x="1208" 
d="M846.5 700.5q117.5 -28.5 178 -98t60.5 -190.5q0 -133 -79 -226t-205 -139.5t-264 -46.5q-70 0 -150 3q-183 3 -203 3q-163 0 -250 -6l9 41q74 3 110.5 16t58.5 48t42 112l215 811q17 65 17 98q0 31 -14 47t-42.5 22.5t-81.5 8.5l10 41q82 -6 260 -6q165 0 262 6l-10 -41
q-75 -3 -111.5 -16t-58 -48t-41.5 -112l-79 -299h63q186 0 303.5 -28.5zM779.5 146.5q101.5 99.5 101.5 295.5q0 87 -33 141.5t-112.5 82.5t-219.5 28h-46l-126 -477q-19 -73 -19 -100q0 -38 27.5 -54t96.5 -16q229 0 330.5 99.5z" />
    <glyph glyph-name="uni044A" unicode="&#x44a;" horiz-adv-x="1483" 
d="M1120 700.5q118 -28.5 178.5 -98t60.5 -190.5q0 -133 -79.5 -226t-205.5 -139.5t-264 -46.5q-71 0 -149 3q-183 3 -203 3q-164 0 -250 -6l8 41q74 3 110.5 16t58.5 48t42 112l215 811q19 73 19 107q0 43 -27 58t-94 15q-164 0 -236 -55q16 -22 26.5 -55.5t10.5 -63.5
q0 -47 -26.5 -83t-75.5 -36q-44 0 -67 27.5t-23 75.5q0 100 106 162q112 65 276 65q19 0 85 -2q98 -4 188 -4q151 0 250 6l-11 -41q-75 -3 -111.5 -16t-57.5 -48t-41 -112l-80 -299h63q186 0 304 -28.5zM1052.5 146.5q101.5 99.5 101.5 295.5q0 87 -33 141.5t-112.5 82.5
t-218.5 28h-46l-127 -477q-18 -67 -18 -99q0 -39 27 -55t96 -16q229 0 330.5 99.5z" />
    <glyph glyph-name="uni044B" unicode="&#x44b;" horiz-adv-x="1913" 
d="M0 0zM846.5 700.5q117.5 -28.5 178 -98t60.5 -190.5q0 -133 -79 -226t-205 -139.5t-264 -46.5q-70 0 -150 3q-183 3 -203 3q-163 0 -250 -6l9 41q74 3 110.5 16t58.5 48t42 112l215 811q17 65 17 98q0 31 -14 47t-42.5 22.5t-81.5 8.5l10 41q82 -6 260 -6q165 0 262 6
l-10 -41q-75 -3 -111.5 -16t-58 -48t-41.5 -112l-79 -299h63q186 0 303.5 -28.5zM779.5 146.5q101.5 99.5 101.5 295.5q0 87 -33 141.5t-112.5 82.5t-219.5 28h-46l-126 -477q-19 -73 -19 -100q0 -38 27.5 -54t96.5 -16q229 0 330.5 99.5zM1535 118q0 -30 13.5 -46
t42.5 -22.5t82 -8.5l-8 -41q-96 6 -260 6q-172 0 -260 -6l10 41q72 3 108 16t57.5 48.5t41.5 111.5l215 811q17 65 17 98q0 31 -14 47t-42.5 22.5t-81.5 8.5l10 41q82 -6 260 -6q165 0 262 6l-10 -41q-75 -3 -111.5 -16t-58 -48t-41.5 -112l-215 -811q-17 -66 -17 -99z" />
    <glyph glyph-name="uni0459" unicode="&#x459;" horiz-adv-x="1796" 
d="M1423 616q118 -25 179 -85t61 -164q0 -121 -75 -203.5t-199.5 -123t-272.5 -40.5l-105 2q-130 4 -235 4q-155 0 -241 -6l8 41q74 3 110.5 16t58.5 48t42 112l215 811q18 65 18 101q0 31 -14 47t-43.5 22t-81.5 6h-29q-69 0 -104 -13.5t-56 -49t-41 -113.5
q-51 -198 -124 -399t-156.5 -359.5t-161.5 -226.5q-80 -72 -182 -72q-64 0 -92.5 30t-28.5 79q0 31 13 64t40.5 56t67.5 23t59 -23.5t19 -58.5q0 -29 -19 -64.5t-47 -62.5h4q75 0 137 54q61 50 135.5 181t151.5 331t144 448q17 66 17 99q0 31 -13.5 46.5t-42 22t-82.5 8.5
l10 41q64 -6 190 -6q12 0 52 2q62 4 131 4q109 0 201 -4q58 -2 75 -2q176 0 264 6l-10 -41q-75 -3 -111.5 -16t-58 -48t-41.5 -112l-103 -387h64q185 0 303 -25zM1360 132q98 85 98 245q0 81 -30 130t-109 74t-225 25h-47l-103 -389q-19 -73 -19 -100q0 -39 30 -54.5
t108 -15.5q199 0 297 85z" />
    <glyph glyph-name="uni045A" unicode="&#x45a;" horiz-adv-x="2044" 
d="M1671 616q118 -25 179 -85t61 -164q0 -121 -75 -203.5t-199.5 -123t-272.5 -40.5l-106 2q-130 4 -234 4q-155 0 -242 -6l9 41q74 3 110.5 16t58 48t41.5 112l104 389h-658l-103 -389q-17 -66 -17 -99q0 -30 13.5 -46t42.5 -22.5t82 -8.5l-8 -41q-96 6 -260 6
q-172 0 -260 -6l10 41q72 3 108 16t57.5 48.5t41.5 111.5l215 811q17 65 17 98q0 31 -14 47t-42.5 22.5t-81.5 8.5l10 41q82 -6 260 -6q165 0 262 6l-10 -41q-75 -3 -111.5 -16t-58 -48t-41.5 -112l-101 -381h658l101 381q17 65 17 98q0 31 -13.5 47t-42.5 22.5t-82 8.5
l10 41q83 -6 256 -6q169 0 266 6l-10 -41q-75 -3 -111.5 -16t-58 -48t-41.5 -112l-103 -387h64q185 0 303 -25zM1608 132q98 85 98 245q0 81 -30.5 130t-109.5 74t-225 25h-46l-103 -389q-19 -73 -19 -100q0 -39 30 -54.5t108 -15.5q199 0 297 85z" />
    <glyph glyph-name="uni0454" unicode="&#x454;" horiz-adv-x="1356" 
d="M1331 1076.5q-22 -74.5 -60 -234.5h-45q3 150 -39 235q-39 79 -113 119.5t-168 40.5q-129 0 -247.5 -89t-206 -234t-129.5 -310q48 73 125.5 112.5t160.5 39.5q59 0 105 -17t106 -50q57 -30 96 -45t87 -15t100 22t94 62l21 -25q-54 -60 -96 -97t-92.5 -59t-112.5 -22
q-57 0 -100.5 16t-102.5 48q-61 32 -104 47.5t-99 15.5q-59 0 -115 -20.5t-86 -67.5q-20 -98 -20 -189q0 -169 77 -260.5t212 -91.5q94 0 194 42t174 118q86 88 158 240h45q-50 -153 -94 -408h-45q6 44 6 70q0 52 -26 52q-16 0 -42 -18q-93 -65 -182.5 -99t-206.5 -34
q-149 0 -255.5 50t-163 146.5t-56.5 233.5q0 207 105 410t296.5 333t438.5 130q112 0 180.5 -35.5t122.5 -97.5q15 -18 29 -18q38 0 83 122h45q-32 -94 -54 -168.5z" />
    <glyph glyph-name="uni044D" unicode="&#x44d;" horiz-adv-x="1368" 
d="M1059.5 1217q107.5 -57 164 -165t56.5 -259q0 -214 -108 -403t-297 -304t-422 -115q-88 0 -145.5 17t-92.5 43.5t-78 72.5q-16 18 -31 18q-36 0 -81 -122h-45q66 193 124 424h46q-6 -42 -6 -87q0 -101 32 -169q34 -73 111 -116.5t178 -43.5q144 0 271 87.5t214 239
t114 335.5q-47 -77 -127 -118.5t-167 -41.5q-59 0 -105 17t-106 50q-57 31 -95.5 45.5t-86.5 14.5t-100 -22t-95 -62l-20 25q53 60 95 97t93 59t113 22q57 0 100.5 -16t101.5 -48q61 -32 104 -47.5t99 -15.5q60 0 116 20.5t86 68.5q5 57 5 105q0 206 -77 310t-216 104
q-90 0 -190 -42t-174 -118q-54 -53 -88 -101t-64 -112h-45q61 223 88 381h45q-6 -42 -6 -69q0 -53 25 -53q14 0 43 18q69 45 118.5 71.5t116 44t150.5 17.5q151 0 258.5 -57z" />
    <glyph glyph-name="uni044E" unicode="&#x44e;" horiz-adv-x="1968" 
d="M1680.5 1221.5q94.5 -52.5 148 -158.5t53.5 -262q0 -190 -94 -383.5t-262 -320t-377 -126.5q-126 0 -220.5 52.5t-148 158.5t-53.5 262q0 77 17 162h-297l-103 -389q-17 -66 -17 -99q0 -30 13.5 -46t42.5 -22.5t82 -8.5l-8 -41q-96 6 -260 6q-172 0 -260 -6l10 41
q72 3 108 16t57.5 48.5t41.5 111.5l215 811q17 65 17 98q0 31 -14 47t-42.5 22.5t-81.5 8.5l10 41q82 -6 260 -6q164 0 262 6l-10 -41q-75 -3 -111.5 -16t-58 -48t-41.5 -112l-101 -381h296q42 164 141.5 307.5t245.5 231.5t319 88q126 0 220.5 -52.5zM1420 127.5
q114 119.5 178.5 309.5t64.5 392q0 211 -59 309.5t-162 98.5q-139 0 -253 -119.5t-178.5 -309.5t-64.5 -392q0 -211 59 -309.5t162 -98.5q139 0 253 119.5z" />
    <glyph glyph-name="uni044F" unicode="&#x44f;" horiz-adv-x="1257" 
d="M1331 1245l-10 -41q-72 -3 -108 -16t-57.5 -48t-41.5 -112l-215 -811q-17 -65 -17 -98q0 -31 14 -47t42.5 -22.5t81.5 -8.5l-10 -41q-84 6 -256 6q-168 0 -267 -6l11 41q75 3 111.5 16t58 48t41.5 112l110 416q-47 -13 -88 -20q-86 -17 -142.5 -41t-96 -65t-68.5 -108
l-82 -190q-38 -87 -70.5 -137.5t-75 -75.5t-102.5 -25q-164 0 -219 189l31 14q44 -90 123 -90q40 0 64.5 25.5t49.5 78.5l80 170q50 109 126 165.5t209 85.5q-125 16 -210.5 86t-85.5 196q0 128 91.5 207.5t230.5 113t290 33.5q31 0 83 -2q68 -4 141 -4q144 0 233 6z
M942 1131q0 43 -23.5 57t-78.5 14q-110 0 -193.5 -39t-130.5 -115.5t-47 -185.5q0 -110 51.5 -164.5t163.5 -54.5q70 0 145 26l95 359q18 67 18 103z" />
    <glyph glyph-name="uni0452" unicode="&#x452;" horiz-adv-x="1579" 
d="M1297 716q77 -36 118.5 -104t41.5 -163q0 -123 -68 -233.5t-188 -177.5t-268 -67q-104 0 -170 35.5t-66 108.5q0 38 18 70.5t50.5 52.5t73.5 20q39 0 61.5 -20t22.5 -56q0 -46 -33.5 -87t-83.5 -58q22 -35 104 -35q113 0 193.5 65.5t121 166.5t40.5 206q0 246 -236 246
q-86 0 -176.5 -29.5t-147.5 -77.5l-161 -602q-94 29 -256 29q-64 0 -131 -6l10 41q92 3 137 17.5t70.5 54t48.5 125.5l258 964q-103 15 -178 15q-126 0 -189 -35q16 -22 26.5 -55.5t10.5 -63.5q0 -47 -26 -83t-76 -36q-42 0 -66 28t-24 75q0 103 106 159q88 47 230 47
q113 0 311 -30q179 -27 274 -27q69 0 112 10.5t83 34.5q-51 51 -51 115q0 46 25.5 79t74.5 33q45 0 68.5 -27.5t23.5 -68.5q0 -82 -94 -151q-49 -35 -108.5 -50.5t-139.5 -15.5q-87 0 -210 19l-148 -552q77 57 184.5 93.5t216.5 36.5q103 0 180 -36z" />
    <glyph glyph-name="uni0455" unicode="&#x455;" horiz-adv-x="1153" 
d="M0 0zM1018 842h-41q12 59 12 114q0 124 -72 201.5t-223 77.5q-124 0 -203 -55.5t-79 -161.5q0 -69 34 -124t88 -98.5t144 -101.5q103 -67 160 -112.5t96 -108.5t39 -145q0 -117 -76.5 -197.5t-195.5 -120t-244 -39.5q-77 0 -132.5 14t-90 33.5t-70.5 47.5q-40 30 -72 30
q-26 0 -42 -23t-44 -87h-41q69 163 139 491h41q-18 -104 -18 -151q0 -150 82.5 -232t255.5 -82q138 0 217.5 54t79.5 165q0 71 -31.5 127t-80 98t-126.5 95q-99 68 -151.5 110.5t-89.5 105.5t-37 148q0 113 64 194.5t168.5 123t223.5 41.5q85 0 142 -21t119 -65
q48 -37 67 -37q17 0 32 25t36 84h41q-74 -184 -121 -418z" />
    <glyph glyph-name="uni0456" unicode="&#x456;" horiz-adv-x="705" 
d="M0 0zM327 118q0 -30 13.5 -46t42.5 -22.5t82 -8.5l-8 -41q-96 6 -260 6q-172 0 -260 -6l10 41q72 3 108 16t57.5 48.5t41.5 111.5l215 811q17 65 17 98q0 31 -14 47t-42.5 22.5t-81.5 8.5l10 41q82 -6 260 -6q165 0 262 6l-10 -41q-75 -3 -111.5 -16t-58 -48t-41.5 -112
l-215 -811q-17 -66 -17 -99z" />
    <glyph glyph-name="uni0457" unicode="&#x457;" horiz-adv-x="705" 
d="M0 0zM327 118q0 -30 13.5 -46t42.5 -22.5t82 -8.5l-8 -41q-96 6 -260 6q-172 0 -260 -6l10 41q72 3 108 16t57.5 48.5t41.5 111.5l215 811q17 65 17 98q0 31 -14 47t-42.5 22.5t-81.5 8.5l10 41q82 -6 260 -6q165 0 262 6l-10 -41q-75 -3 -111.5 -16t-58 -48t-41.5 -112
l-215 -811q-17 -66 -17 -99zM233 1543q19 31 51 51t68 20q43 0 72.5 -30t29.5 -73q0 -33 -19 -64.5t-50.5 -51t-67.5 -19.5q-46 0 -74.5 29.5t-28.5 75.5q0 31 19 62zM668 1543q19 31 50.5 51t67.5 20q43 0 72.5 -30t29.5 -73q0 -33 -19 -64.5t-50.5 -51t-67.5 -19.5
q-45 0 -73.5 30t-28.5 75q0 31 19 62z" />
    <glyph glyph-name="uni0458" unicode="&#x458;" horiz-adv-x="1260" 
d="M43 0zM1390 1245q0 -49 -150 -106q-88 -71 -148.5 -158.5t-105 -194t-92.5 -262.5h205l-6 -41h-211l-4 -12l-144 -481q-32 -106 -97 -191t-163.5 -134.5t-222.5 -49.5q-96 0 -152.5 30t-56.5 87q0 29 14.5 55.5t40.5 43.5t58 17q37 0 61.5 -24.5t24.5 -60.5
q0 -34 -23 -61.5t-59 -43.5q30 -10 71 -10q101 0 160.5 49.5t95 134.5t87.5 260q-2 -8 18 62l67 225q13 42 35 104h-258l6 41h267q56 140 128 242t150 176t219 191q-95 -58 -179.5 -90.5t-164.5 -32.5q-64 0 -116 14.5t-124 42.5q-75 29 -127 43t-116 14q-68 0 -102 -35.5
t-31 -99.5q3 -121 151 -149l-6 -41q-93 16 -157.5 72.5t-67.5 164.5q-3 73 25 130t82.5 89.5t129.5 32.5q51 0 96 -15t80.5 -37t87.5 -59q50 -36 85 -57.5t78 -36t92 -14.5q78 0 140.5 21.5t160.5 70.5q77 120 128 120q14 0 27 -11t13 -25z" />
    <glyph glyph-name="uni045B" unicode="&#x45b;" horiz-adv-x="1587" 
d="M1311 122q0 -44 29 -61.5t97 -17.5l-11 -43l-29 1q-128 7 -220 7q-88 0 -205 -7l-27 -1l10 43q54 0 87 14t53.5 45.5t36.5 87.5l45 160q25 87 25 153q0 88 -52.5 135.5t-171.5 47.5q-73 0 -147 -18t-122 -48l-110 -382q-18 -62 -18 -101q0 -53 38.5 -74t133.5 -22l-9 -41
q-107 6 -305 6q-200 0 -299 -6l9 41q89 3 135.5 19.5t74 56.5t50.5 121l278 963q-110 16 -182 16q-126 0 -189 -35q16 -22 26.5 -55.5t10.5 -63.5q0 -47 -26 -83t-76 -36q-42 0 -66 28t-24 75q0 103 106 159q88 47 230 47q113 0 311 -30q179 -27 274 -27q69 0 112 10.5
t83 34.5q-51 51 -51 115q0 46 25.5 79t74.5 33q45 0 68.5 -27.5t23.5 -68.5q0 -82 -94 -151q-50 -34 -106 -50t-140 -16q-90 0 -233 22l24 -6l-149 -515q68 38 167 67t191 29q86 0 151.5 -26.5t104.5 -74.5q51 -63 51 -153q0 -61 -24 -154l-39 -154q-11 -42 -11 -68z" />
    <glyph glyph-name="zero" unicode="0" horiz-adv-x="1157" 
d="M967.5 988q82.5 -95 82.5 -267q0 -183 -89 -357.5t-239.5 -283.5t-323.5 -109q-103 0 -179 42t-116.5 124t-40.5 199q0 182 93 356t247 282.5t326 108.5q157 0 239.5 -95zM477.5 943.5q-101.5 -103.5 -164 -272.5t-62.5 -354q0 -309 186 -309q115 0 212.5 108.5
t154.5 281.5t57 354q0 158 -45 226.5t-127 68.5q-110 0 -211.5 -103.5z" />
    <glyph glyph-name="one" unicode="1" horiz-adv-x="700" 
d="M146 0l263 887q-121 -68 -308 -125l7 43q119 36 208.5 80.5t149.5 87t135 104.5h41l-317 -1077h-179z" />
    <glyph glyph-name="two" unicode="2" horiz-adv-x="1030" 
d="M824 1028q75 -53 75 -149q0 -100 -81.5 -204.5t-189.5 -191t-264 -194.5q-119 -83 -153 -111q56 0 212 -28q166 -29 222 -29q141 0 141 98q0 75 -90 117l27 26q113 -52 113 -161q0 -57 -27 -105t-84.5 -78t-144.5 -30q-67 0 -185 29q-68 16 -115.5 24.5t-103.5 8.5
q-61 0 -108.5 -11.5t-110.5 -38.5l10 43q10 8 133 97q177 125 300.5 226.5t218 230t94.5 259.5q0 84 -40.5 132t-117.5 48q-74 0 -156.5 -49t-138 -125.5t-55.5 -154.5q0 -51 28 -75t91 -24q53 0 95 20t93 64l25 -28q-54 -51 -113.5 -75t-114.5 -24q-63 0 -108 31t-45 109
q0 90 64 177.5t172 143t231 55.5q126 0 201 -53z" />
    <glyph glyph-name="three" unicode="3" horiz-adv-x="993" 
d="M822 1034q75 -53 75 -149q0 -88 -65 -164t-162.5 -129.5t-196.5 -79.5q93 -2 167.5 -29t117.5 -79t43 -125q0 -176 -155 -309t-381 -204.5t-429 -74.5l10 37q176 11 352.5 79.5t294 192.5t117.5 293q0 82 -46 132t-128 54q-48 -19 -72 -27t-47 -8q-36 0 -36 21q0 2 2 10
q8 38 97 38q26 0 40 -1q82 31 150.5 84t109.5 120.5t41 141.5q0 86 -45 135t-123 49q-70 0 -148 -39.5t-130 -102t-52 -126.5q0 -50 28 -74t91 -24q69 0 127 31l23 -31q-80 -43 -164 -43q-64 0 -109 30.5t-45 108.5q0 75 61 148.5t164 120t222 46.5q126 0 201 -53z" />
    <glyph glyph-name="four" unicode="4" horiz-adv-x="1055" 
d="M583 70l-96 -359h-178l96 359h-509l12 43l893 970h53l-240 -897h275l-33 -116h-273zM603 813l-574 -627h407z" />
    <glyph glyph-name="five" unicode="5" horiz-adv-x="940" 
d="M618 862q-38 0 -114 38q-35 18 -57.5 26.5t-43.5 8.5q-8 0 -12 -1l-229 -469q66 35 134 52.5t153 17.5q157 0 235 -64t78 -170q0 -188 -150 -322.5t-366.5 -204.5t-411.5 -77l10 37q166 1 333.5 68t278.5 194.5t111 300.5q0 82 -52.5 129t-162.5 47q-108 0 -227 -55
l-21 10l308 633q36 2 64 -3.5t67 -18.5q44 -14 78.5 -21.5t83.5 -7.5q116 0 169 92l25 -15q-103 -225 -281 -225z" />
    <glyph glyph-name="six" unicode="6" horiz-adv-x="1079" 
d="M695.5 1223q-191.5 -168 -314 -416.5t-122.5 -525.5q0 -150 37.5 -209.5t110.5 -59.5q108 0 192 100t130 246t46 273q0 207 -133 207q-67 0 -131 -58.5t-111 -191.5l-32 12q50 159 143.5 228t198.5 69q77 0 135 -36t90.5 -105t32.5 -166q0 -159 -82 -302t-219 -230
t-293 -87q-154 0 -227.5 92t-73.5 275q0 290 164.5 538t400 406.5t434.5 196.5l12 -41q-197 -47 -388.5 -215z" />
    <glyph glyph-name="seven" unicode="7" horiz-adv-x="997" 
d="M915 821q-138 -159 -228 -275.5t-172 -265.5t-127 -317q-9 -32 -23 -103q-10 -50 -12 -59q-13 -44 -46.5 -74t-80.5 -30q-64 0 -64 69q0 18 5 46q23 131 119.5 289.5t215.5 303.5t294 341q139 156 186 214q-129 -88 -301 -88q-57 0 -101.5 8.5t-103.5 24.5
q-95 27 -151 27q-80 0 -128 -35t-48 -102q0 -86 69 -143.5t215 -92.5l-12 -31q-322 62 -322 289q0 62 31.5 119t96.5 93t161 36q63 0 117 -13t127 -39q71 -25 122.5 -38t109.5 -13q61 0 107 20.5t83 70.5h53q-64 -86 -192 -232z" />
    <glyph glyph-name="eight" unicode="8" horiz-adv-x="1114" 
d="M693 811q81 -78 128.5 -132t81.5 -126t34 -158q0 -127 -74 -223t-201 -148.5t-280 -52.5q-166 0 -264.5 65.5t-98.5 199.5q0 167 144 300.5t347 221.5q-60 59 -99.5 107t-64.5 107.5t-25 129.5q0 110 70 196t183 133.5t236 47.5q130 0 209.5 -55t79.5 -162
q0 -234 -406 -451zM801 950.5q60 69.5 96 151.5t36 166q0 174 -160 174q-76 0 -141 -37.5t-103 -105t-38 -152.5q0 -60 23.5 -113.5t61 -99t94.5 -101.5q71 48 131 117.5zM725 497q-30 66 -74 116.5t-117 121.5q-98 -54 -173.5 -135.5t-118 -180.5t-42.5 -202
q0 -99 46.5 -154t153.5 -55q93 0 174.5 41t131 119.5t49.5 183.5q0 79 -30 145z" />
    <glyph glyph-name="nine" unicode="9" horiz-adv-x="1051" 
d="M880.5 989.5q73.5 -91.5 73.5 -274.5q0 -281 -161 -520t-392 -391.5t-426 -188.5l-12 41q192 45 379 206.5t306.5 402t119.5 507.5q0 150 -37 209t-110 59q-109 0 -193 -100t-130 -245.5t-46 -272.5q0 -207 133 -207q67 0 131 58.5t111 191.5l32 -12
q-50 -160 -143 -228.5t-199 -68.5q-77 0 -135 35.5t-90.5 104.5t-32.5 167q0 158 82 301t219 230t293 87q154 0 227.5 -91.5z" />
    <glyph glyph-name="braceleft" unicode="{" horiz-adv-x="627" 
d="M52 0zM113.5 -328q-61.5 57 -61.5 164q0 83 42 253q68 269 68 376q-1 62 -24.5 90t-71.5 31h-10l6 37h10q66 5 109.5 49.5t82.5 147t89 301.5q48 190 106.5 293t142 145.5t215.5 42.5l-10 -39q-72 -1 -111 -29t-74 -118t-85 -295q-43 -173 -108 -279.5t-141.5 -158.5
t-170.5 -78q198 -60 198 -282q0 -92 -36 -234q-63 -253 -60 -332q0 -59 27.5 -80t89.5 -23l-10 -39q-151 0 -212.5 57z" />
    <glyph glyph-name="braceright" unicode="}" horiz-adv-x="627" 
d="M515.5 1545q61.5 -57 61.5 -164q0 -83 -42 -253q-68 -269 -68 -376q1 -62 24.5 -90t71.5 -31h10l-6 -37h-10q-66 -5 -109.5 -49.5t-82.5 -147t-89 -301.5q-48 -190 -106.5 -293t-142 -145.5t-215.5 -42.5l10 39q72 1 111 29t74 118t85 295q43 173 108 279.5t141.5 158.5
t170.5 78q-198 60 -198 282q0 92 36 234q63 253 60 332q0 59 -27.5 80t-89.5 23l10 39q151 0 212.5 -57z" />
    <glyph glyph-name="bracketleft" unicode="[" horiz-adv-x="614" 
d="M0 0zM784 1581l-8 -39h-166l-469 -1874h166l-8 -39h-349l486 1952h348z" />
    <glyph glyph-name="bracketright" unicode="]" horiz-adv-x="614" 
d="M-170 -371l8 39h166l469 1874h-166l8 39h349l-486 -1952h-348z" />
    <glyph glyph-name="parenleft" unicode="(" horiz-adv-x="739" 
d="M78 0zM236 -124q-75 121 -116.5 264t-41.5 317q0 222 115 443.5t315.5 414t456.5 336.5l20 -27q-360 -243 -554.5 -532.5t-194.5 -657.5q0 -464 225 -780l-37 -27q-113 128 -188 249z" />
    <glyph glyph-name="parenright" unicode=")" horiz-adv-x="739" 
d="M522 1402q75 -121 116.5 -264t41.5 -317q0 -222 -115 -443.5t-315.5 -414t-456.5 -336.5l-20 27q360 243 554.5 532.5t194.5 657.5q0 464 -225 780l37 27q113 -128 188 -249z" />
    <glyph glyph-name="endash" horiz-adv-x="1491" 
d="M1330 500h-1229l21 82h1231z" />
    <glyph glyph-name="hyphen" unicode="-" horiz-adv-x="1032" 
d="M847 461h-739l30 119h740z" />
    <glyph glyph-name="asterisk" unicode="*" horiz-adv-x="1014" 
d="M1047 1257q0 -54 -87 -100q-36 -18 -78 -30t-118 -31q-52 -12 -130 -33q-53 17 120 -36q68 -19 104.5 -31.5t60.5 -28.5q49 -31 49 -73q0 -28 -19 -50q-23 -32 -63 -32q-33 0 -68 24q-26 16 -48 40t-65 77q-37 48 -74 91q1 -49 5 -114q4 -92 4 -121q0 -42 -4 -70
q-15 -57 -43.5 -83.5t-61.5 -26.5q-23 0 -37.5 16t-14.5 50q0 23 5 44q7 40 26 85t64 136q14 27 47 95h-1q-32 -25 -57 -46t-44 -37q-68 -58 -107.5 -89t-74.5 -49q-47 -23 -80 -23q-43 0 -55 35q-4 12 -4 19q0 51 88 100q36 18 78 30.5t117 30.5q57 14 129 33
q-46 15 -118 35q-71 21 -106 33t-59 28q-50 31 -50 74q0 27 19 49q23 32 64 32q33 0 67 -24q27 -17 51 -43.5t62 -75.5q51 -64 81 -99q-1 25 -5 66q-10 136 -10 173q0 46 5 75q13 57 41.5 84t59.5 27q24 0 39 -16t15 -51q0 -23 -5 -44q-5 -36 -22 -77t-53 -117
q-35 -75 -53 -116l102 84q69 58 105 86.5t68 45.5q47 23 80 23q43 0 55 -35q4 -12 4 -19z" />
    <glyph glyph-name="backslash" unicode="\" horiz-adv-x="1008" 
d="M732 -29l-463 1508h64l467 -1508h-68z" />
    <glyph glyph-name="colon" unicode=":" horiz-adv-x="569" 
d="M32 0zM54 152.5q22 36.5 57.5 58.5t73.5 22q46 0 75 -30.5t29 -76.5q0 -40 -21.5 -75.5t-57.5 -57.5t-75 -22q-45 0 -74 30t-29 75q0 40 22 76.5zM259 1000.5q22 36.5 57.5 58.5t73.5 22q46 0 75 -30.5t29 -76.5q0 -40 -21.5 -75.5t-57.5 -57.5t-75 -22q-45 0 -74 30
t-29 75q0 40 22 76.5z" />
    <glyph glyph-name="comma" unicode="," horiz-adv-x="516" 
d="M228 -30q-36 -72 -104 -135.5t-161 -108.5l-10 28q97 59 154 129t63 140q-59 -52 -107 -52q-36 0 -56.5 19.5t-20.5 52.5q0 43 27.5 87.5t71.5 73.5t89 29t67.5 -35t22.5 -85q0 -71 -36 -143z" />
    <glyph glyph-name="exclam" unicode="!" horiz-adv-x="539" 
d="M265.5 730q30.5 161 66.5 377q53 316 80 415q10 38 34.5 59t57.5 21q47 0 70.5 -23t23.5 -60q0 -20 -8 -44q-24 -82 -115 -328q-82 -221 -141 -394t-105 -352l-36 7q42 161 72.5 322zM35 152.5q22 36.5 57.5 58.5t73.5 22q46 0 75 -30.5t29 -76.5q0 -40 -21.5 -75.5
t-57.5 -57.5t-75 -22q-45 0 -74 30t-29 75q0 40 22 76.5z" />
    <glyph glyph-name="numbersign" unicode="#" horiz-adv-x="1309" 
d="M826 547h293l-20 -41h-292l-138 -299h-49l138 299h-334l-138 -299h-49l138 299h-300l18 41h301l159 342h-300l16 41h303l140 303h49l-140 -303h334l140 303h49l-140 -303h291l-16 -41h-294zM602 889l-159 -342h334l159 342h-334z" />
    <glyph glyph-name="period" unicode="." horiz-adv-x="500" 
d="M19 152.5q22 36.5 57.5 58.5t73.5 22q46 0 75 -30.5t29 -76.5q0 -40 -21.5 -75.5t-57.5 -57.5t-75 -22q-45 0 -74 30t-29 75q0 40 22 76.5z" />
    <glyph glyph-name="question" unicode="?" horiz-adv-x="897" 
d="M503 1540.5q-65 -26.5 -80 -74.5q19 -5 35 -28.5t16 -53.5q0 -44 -31 -72t-77 -28q-41 0 -61.5 23t-20.5 63q0 66 55.5 119t145 83t184.5 30q137 0 220 -63t83 -179q0 -65 -31.5 -130t-105.5 -141.5t-201 -175.5q-52 -40 -107 -80q-90 -66 -132.5 -103t-66.5 -77.5
t-24 -91.5q0 -62 35.5 -101.5t110.5 -39.5q60 0 117.5 24.5t78.5 65.5q-19 2 -36.5 24t-16.5 48q0 32 26 58t66 26q31 0 50.5 -17.5t19.5 -54.5q0 -61 -53 -109t-133.5 -74t-157.5 -26q-108 0 -172 51.5t-64 147.5q0 74 39.5 137t101 116.5t175.5 138.5q38 27 65 48
q102 78 157.5 130.5t82 104t26.5 115.5q0 88 -46.5 140.5t-139.5 52.5q-68 0 -133 -26.5zM239 152.5q22 36.5 57.5 58.5t73.5 22q46 0 75 -30.5t29 -76.5q0 -40 -21.5 -75.5t-57.5 -57.5t-75 -22q-45 0 -74 30t-29 75q0 40 22 76.5z" />
    <glyph glyph-name="quotedbl" unicode="&#x22;" horiz-adv-x="606" 
d="M287 1061zM683.5 1352.5q-15.5 -37.5 -52.5 -103.5q-59 -106 -94 -188h-28q12 89 21 201q8 102 20 147q10 43 33.5 64.5t52.5 21.5q63 0 63 -68q0 -37 -15.5 -74.5zM460.5 1352.5q-15.5 -37.5 -52.5 -103.5q-59 -106 -94 -188h-28q12 89 21 201q8 102 20 147
q10 43 33.5 64.5t52.5 21.5q63 0 63 -68q0 -37 -15.5 -74.5z" />
    <glyph glyph-name="quotesingle" unicode="'" horiz-adv-x="383" 
d="M460.5 1352.5q-15.5 -37.5 -52.5 -103.5q-59 -106 -94 -188h-28q12 89 21 201q8 102 20 147q10 43 33.5 64.5t52.5 21.5q63 0 63 -68q0 -37 -15.5 -74.5z" />
    <glyph glyph-name="semicolon" unicode=";" horiz-adv-x="588" 
d="M0 0zM261 1000.5q22 36.5 57.5 58.5t73.5 22q46 0 75 -30.5t29 -76.5q0 -40 -21.5 -75.5t-57.5 -57.5t-75 -22q-45 0 -74 30t-29 75q0 40 22 76.5zM269 -30q-36 -72 -104 -135.5t-161 -108.5l-10 28q97 59 154 129t63 140q-59 -52 -107 -52q-36 0 -56.5 19.5t-20.5 52.5
q0 43 27.5 87.5t71.5 73.5t89 29t67.5 -35t22.5 -85q0 -71 -36 -143z" />
    <glyph glyph-name="slash" unicode="/" horiz-adv-x="958" 
d="M1108 1479l-1122 -1508h-68l1122 1508h68z" />
    <glyph glyph-name="underscore" unicode="_" horiz-adv-x="1524" 
d="M0 -245zM1125 -327h-1229l21 82h1231z" />
    <glyph glyph-name="CR" unicode="&#xd;" horiz-adv-x="0" 
 />
    <glyph glyph-name="dollar" unicode="$" horiz-adv-x="1128" 
d="M1134 1269.5q33 -59.5 33 -124.5q0 -66 -33.5 -114t-89.5 -48q-51 0 -77.5 39t-26.5 94q0 60 21.5 110t58.5 107q-45 47 -118 75l-178 -641q74 -69 123.5 -126.5t81.5 -125t32 -142.5q0 -123 -65.5 -209.5t-169 -133t-222.5 -56.5l-68 -244h-45l67 241h-16q-80 0 -147 18
l-72 -259h-45l76 272q-44 16 -75.5 36.5t-69.5 51.5q-46 35 -76.5 92t-30.5 123t33.5 114t89.5 48q52 0 78 -38.5t26 -94.5q0 -60 -21 -109t-58 -108q44 -46 115 -73l188 675q-84 84 -130.5 168t-46.5 192q0 115 53.5 200t141.5 134.5t192 61.5l68 245h45l-67 -241h18
q77 0 145 -17l72 258h45l-75 -271q45 -16 76.5 -37t70.5 -52q40 -31 73 -90.5zM729 1440q-21 0 -31 -1l-141 -509q39 -44 131 -130l173 622q-65 18 -132 18zM523 971l128 462q-97 -18 -153 -81.5t-56 -171.5q0 -103 81 -209zM469 12l151 543q-39 41 -98 97l-34 32l-182 -654
q70 -18 143 -18h20zM654 515l-139 -499q111 14 173 76.5t62 175.5q0 127 -96 247z" />
    <glyph glyph-name="asciitilde" unicode="~" horiz-adv-x="1329" 
d="M733 506q-55 21 -127 62q-70 39 -119.5 58t-112.5 19q-133 0 -207 -119l-29 11q47 102 136.5 160.5t201.5 58.5q71 0 125 -20.5t128 -61.5q68 -39 118.5 -58.5t114.5 -19.5q132 0 206 119l29 -10q-46 -103 -135.5 -161.5t-202.5 -58.5q-71 0 -126 21z" />
    <glyph glyph-name="equal" unicode="=" horiz-adv-x="1358" 
d="M1269 901l-19 -61h-1026l19 61h1026zM1187 614l-19 -61h-1026l19 61h1026z" />
    <glyph glyph-name="greater" unicode="&#x3e;" horiz-adv-x="1233" 
d="M1048 770l-758 406l33 59l878 -473l-1075 -445l-21 60z" />
    <glyph glyph-name="less" unicode="&#x3c;" horiz-adv-x="1233" 
d="M257 719l678 -357l-33 -65l-799 430l1131 465l20 -59z" />
    <glyph glyph-name="percent" unicode="%" horiz-adv-x="1569" 
d="M12 -113l-31 27l1706 1774l31 -27zM285.5 1311q56.5 108 154 178t213.5 70q108 0 168 -56t60 -157q0 -109 -56 -217.5t-153 -178t-213 -69.5q-109 0 -169.5 55t-60.5 158q0 109 56.5 217zM494.5 1440.5q-61.5 -81.5 -94.5 -193t-33 -192.5q0 -137 106 -137
q81 0 142.5 81.5t94.5 193t33 193.5q0 136 -106 136q-81 0 -142.5 -81.5zM826 401q56 108 153.5 178t214.5 70q107 0 167 -56t60 -157q0 -109 -55.5 -217t-152.5 -178t-214 -70q-108 0 -168.5 55.5t-60.5 157.5q0 109 56 217zM1034.5 530.5q-61.5 -81.5 -94.5 -193
t-33 -192.5q0 -137 107 -137q81 0 142.5 81.5t94.5 193.5t33 194q0 67 -27.5 101t-78.5 34q-82 0 -143.5 -81.5z" />
    <glyph glyph-name="plus" unicode="+" horiz-adv-x="1198" 
d="M742 1241h74l-137 -483h475l-18 -62h-475l-138 -481h-73l137 481h-477l18 62h477z" />
    <glyph glyph-name="arrowboth" horiz-adv-x="1382" 
d="M1079.5 677q103.5 -93 250.5 -136q-147 -44 -250.5 -136.5t-173.5 -246.5h-35q85 179 89 366h-539q4 -185 88 -366h-35q-70 154 -173.5 246.5t-250.5 136.5q147 43 250.5 136t173.5 247h35q-85 -182 -88 -367h539q-3 186 -89 367h35q70 -154 173.5 -247z" />
    <glyph glyph-name="arrowdown" horiz-adv-x="1012" 
d="M642 1040q91 88 246 160v-35q-154 -70 -247 -173.5t-136 -250.5q-43 147 -136 250.5t-247 173.5v35q155 -72 245.5 -160t137.5 -211q46 123 137 211zM642 856q91 88 246 160v-35q-141 -64 -230.5 -156t-136.5 -219v-256q185 3 367 88v-35q-154 -70 -247 -173t-136 -250
q-43 147 -136 250t-247 173v35q181 -84 366 -88v258q-47 126 -136 217.5t-230 155.5v35q155 -72 245.5 -160t137.5 -211q46 123 137 211z" />
    <glyph glyph-name="arrowdownleft" horiz-adv-x="1401" 
d="M969 633q133 0 298 -62l-25 -24q-140 53 -267 53q-154 0 -304 -82q82 149 82 303q0 127 -54 269l25 24q62 -165 62 -297q0 -122 -52 -235q116 51 235 51zM840 502q131 0 296 -60l-25 -24q-140 52 -264 52q-132 0 -258 -57l-183 -182q134 -128 322 -198l-24 -25
q-142 54 -269 54q-154 0 -303 -82q82 150 82 304q0 127 -53 267l24 24q71 -186 198 -322l183 185q57 125 57 254q0 124 -53 266l25 25q60 -165 60 -295q0 -123 -52 -237q116 51 237 51z" />
    <glyph glyph-name="arrowdownright" horiz-adv-x="1401" 
d="M133 0zM560 503q124 0 238 -52q-52 114 -52 238q0 129 60 294l25 -24q-53 -142 -53 -266q0 -131 57 -255l183 -185q127 135 198 323l24 -25q-53 -140 -53 -267q0 -154 82 -304q-150 82 -304 82q-124 0 -268 -53l-24 24q188 70 322 198l-184 182q-127 58 -256 58
q-123 0 -265 -53l-25 25q165 60 295 60zM431 634q122 0 236 -52q-52 114 -52 235q0 132 62 297l25 -24q-54 -142 -54 -268q0 -154 82 -303q-149 82 -303 82q-126 0 -268 -54l-25 25q165 62 297 62z" />
    <glyph glyph-name="arrowleft" horiz-adv-x="1395" 
d="M926.5 404q87.5 -91 159.5 -246h-34q-65 141 -156 229.5t-217 136.5h-258q4 -185 88 -366h-35q-70 154 -173.5 246.5t-250.5 136.5q147 43 250.5 136t173.5 247h35q-85 -182 -88 -367h255q127 47 219 136.5t157 230.5h34q-72 -156 -159.5 -246.5t-210.5 -136.5
q123 -46 210.5 -137zM1111 403.5q88 -90.5 160 -245.5h-35q-70 154 -173.5 246.5t-250.5 136.5q147 43 250.5 136t173.5 247h35q-72 -155 -160 -246t-211 -137q123 -47 211 -137.5z" />
    <glyph glyph-name="arrowright" horiz-adv-x="1395" 
d="M123 158zM468.5 404q-87.5 -91 -159.5 -246h34q65 141 156 229.5t217 136.5h258q-4 -185 -88 -366h35q70 154 173.5 246.5t250.5 136.5q-147 43 -250.5 136t-173.5 247h-35q85 -182 88 -367h-255q-127 47 -219 136.5t-157 230.5h-34q72 -156 159.5 -246.5t210.5 -136.5
q-123 -46 -210.5 -137zM284 403.5q-88 -90.5 -160 -245.5h35q70 154 173.5 246.5t250.5 136.5q-147 43 -250.5 136t-173.5 247h-35q72 -155 160 -246t211 -137q-123 -47 -211 -137.5z" />
    <glyph glyph-name="arrowup" horiz-adv-x="1012" 
d="M521 829v-255q47 -127 136.5 -219t230.5 -156v-35q-155 72 -246 160t-137 211q-47 -123 -137.5 -211t-245.5 -160v35q141 64 230 155.5t136 217.5v257q-185 -3 -366 -88v35q154 70 247 173.5t136 250.5q43 -147 136 -250.5t247 -173.5v-35q-179 85 -367 88zM641 188.5
q93 -103.5 247 -174.5v-34q-156 72 -246.5 159.5t-136.5 210.5q-46 -123 -137 -210.5t-246 -159.5v34q154 71 247 174.5t136 249.5q43 -146 136 -249.5z" />
    <glyph glyph-name="arrowupleft" horiz-adv-x="1401" 
d="M841 591q-124 0 -238 52q52 -114 52 -238q0 -129 -60 -294l-25 24q53 142 53 266q0 131 -57 255l-183 185q-127 -135 -198 -323l-24 25q53 140 53 267q0 154 -82 304q150 -82 304 -82q124 0 268 53l24 -24q-188 -70 -322 -198l184 -182q127 -58 256 -58q123 0 265 53
l25 -25q-165 -60 -295 -60zM970 460q-122 0 -236 52q52 -114 52 -235q0 -132 -62 -297l-25 24q54 142 54 268q0 154 -82 303q149 -82 303 -82q126 0 268 54l25 -25q-165 -62 -297 -62z" />
    <glyph glyph-name="arrowupright" horiz-adv-x="1401" 
d="M133 0zM560 591q124 0 238 52q-52 -114 -52 -238q0 -129 60 -294l25 24q-53 142 -53 266q0 131 57 255l183 185q127 -135 198 -323l24 25q-53 140 -53 267q0 154 82 304q-150 -82 -304 -82q-124 0 -268 53l-24 -24q188 -70 322 -198l-184 -182q-127 -58 -256 -58
q-123 0 -265 53l-25 -25q165 -60 295 -60zM431 460q122 0 236 52q-52 -114 -52 -235q0 -132 62 -297l25 24q-54 142 -54 268q0 154 82 303q-149 -82 -303 -82q-126 0 -268 54l-25 -25q165 -62 297 -62z" />
    <glyph glyph-name="ampersand" unicode="&#x26;" horiz-adv-x="1673" 
d="M1708 1421q69 -58 69 -176q0 -104 -59.5 -184t-190.5 -146q-93 -46 -327 -131q149 -127 149 -307q0 -136 -81.5 -252t-236 -185t-364.5 -69q-180 0 -313 52t-205 149t-72 231q0 120 57 225t157 180t226 110q-69 37 -106 98.5t-37 130.5q0 89 60.5 155t154.5 101t190 35
q76 0 133 -22.5t88 -62.5t31 -93q0 -50 -25.5 -84.5t-65.5 -52t-83 -17.5l4 37q57 0 92 30t35 82q0 68 -56 109t-142 41q-83 0 -149 -39.5t-103 -109t-37 -156.5q0 -95 45 -170q73 12 129 12q74 0 74 -43q0 -22 -19 -32.5t-45 -10.5q-51 0 -141 45q-93 -27 -164 -87
t-110.5 -142t-39.5 -174q0 -120 66 -204.5t182 -127.5t266 -43q159 0 287.5 47t202.5 134t74 200q0 75 -34.5 147t-103.5 122l-52 -19q-187 -70 -208 -78q-92 -36 -153.5 -82.5t-61.5 -120.5q0 -63 50.5 -100t123.5 -37q81 0 132 40t77 81l27 -19q-82 -135 -244 -135
q-95 0 -158 47t-63 154q0 119 85 197t255 141q21 8 108 39q313 111 422 163q101 49 156 102.5t55 125.5q0 49 -26.5 89.5t-73 63.5t-102.5 23q-54 0 -66 -18q21 -12 32 -33t11 -45q0 -31 -19 -58t-50 -43t-66 -16q-41 0 -66.5 23t-25.5 63q0 42 28.5 75.5t73.5 53.5
q68 29 150 29q118 0 187 -58z" />
    <glyph glyph-name="asciicircum" unicode="^" horiz-adv-x="1096" 
d="M402 770.5q-111 -66.5 -221 -111.5l-8 29q147 63 277 169t211 224h36q18 -118 91.5 -224t187.5 -169l-25 -29q-111 45 -209.5 112t-150.5 134q-78 -68 -189 -134.5z" />
    <glyph glyph-name="at" unicode="@" horiz-adv-x="1737" 
d="M945 186q0 46 19 114q-61 -127 -132.5 -187t-170.5 -60q-110 0 -160.5 67.5t-50.5 180.5q0 152 80 311t204.5 263t247.5 104q62 0 96 -31.5t39 -101.5l29 104q117 0 184 29l-217 -752q-13 -42 -13 -70q0 -29 14.5 -41t45.5 -12q78 0 195 87.5t204 247.5t87 368
q0 182 -79.5 299t-213.5 171t-303 54q-247 0 -466.5 -142.5t-352 -381t-132.5 -510.5q0 -204 78 -336t216 -193t321 -61q237 0 422 111l14 -27q-79 -56 -192.5 -88.5t-245.5 -32.5q-196 0 -342.5 66.5t-229 206t-82.5 350.5q0 273 133.5 522t361 401t495.5 152
q185 0 328.5 -59.5t227 -185.5t83.5 -318q0 -217 -95 -389t-234.5 -267.5t-264.5 -95.5q-148 0 -148 133zM879.5 221q72.5 106 153.5 325l68 242q-1 144 -111 144q-95 0 -179.5 -93.5t-135.5 -238t-51 -287.5q0 -198 106 -198q77 0 149.5 106z" />
    <glyph glyph-name="bar" unicode="|" horiz-adv-x="651" 
d="M304 -399v2156h82v-2156h-82z" />
    <glyph glyph-name="grave" unicode="`" horiz-adv-x="457" 
d="M237 1469q-76 90 -105 137q-21 34 -21 65q0 41 33 58q15 6 32 6q53 0 89 -64q23 -40 67 -153q68 -172 120 -279l-27 -12q-76 108 -188 242z" />
    <glyph glyph-name="acute.case" horiz-adv-x="563" 
d="M294 1789q101 78 147 105q39 24 78 24q43 0 58 -34q4 -9 4 -20q0 -25 -21.5 -49.5t-50.5 -40.5q-50 -29 -163 -70q-170 -63 -292 -123l-14 23q119 80 254 185z" />
    <glyph glyph-name="brevecy.case" horiz-adv-x="926" 
d="M540.5 1603.5q50.5 -10.5 107.5 -10.5q296 0 520 211l29 -24q-116 -115 -261 -172.5t-302 -57.5q-113 0 -204 36.5t-91 121.5q0 37 18.5 67t50 47t68.5 17q41 0 64.5 -22t23.5 -64q0 -43 -26 -75.5t-70 -47.5q22 -16 72.5 -26.5z" />
    <glyph glyph-name="dieresis.case" horiz-adv-x="774" 
d="M79 1748q19 31 51 51t68 20q43 0 72.5 -30t29.5 -73q0 -33 -19 -64.5t-50.5 -51t-67.5 -19.5q-46 0 -74.5 29.5t-28.5 75.5q0 31 19 62zM514 1748q19 31 50.5 51t67.5 20q43 0 72.5 -30t29.5 -73q0 -33 -19 -64.5t-50.5 -51t-67.5 -19.5q-45 0 -73.5 30t-28.5 75
q0 31 19 62z" />
    <glyph glyph-name="grave.case" horiz-adv-x="563" 
d="M245 1725q-94 67 -123 96q-16 16 -27.5 37.5t-11.5 42.5q0 23 14 41q17 20 46 20q23 0 47.5 -12t41.5 -31q26 -28 88 -119q72 -111 146 -205l-21 -20q-91 74 -200 150z" />
    <glyph glyph-name="acute.smcp" horiz-adv-x="563" 
d="M297 1586q105 81 144 104q40 23 78 23q43 0 58 -34q4 -9 4 -20q0 -25 -21.5 -49.5t-50.5 -40.5q-50 -29 -163 -70q-170 -63 -292 -123l-14 23q119 80 257 187z" />
    <glyph glyph-name="brevecy.smcp" horiz-adv-x="881" 
d="M489 1401.5q51 -10.5 108 -10.5q273 0 479 231l29 -25q-106 -124 -241.5 -186.5t-280.5 -62.5q-113 0 -204 36t-91 121q0 37 18.5 67t50 47t68.5 17q41 0 64.5 -22t23.5 -64q0 -43 -26 -75.5t-70 -47.5q21 -15 72 -25.5z" />
    <glyph glyph-name="dieresis.smcp" horiz-adv-x="774" 
d="M79 1543q19 31 51 51t68 20q43 0 72.5 -30t29.5 -73q0 -33 -19 -64.5t-50.5 -51t-67.5 -19.5q-46 0 -74.5 29.5t-28.5 75.5q0 31 19 62zM514 1543q19 31 50.5 51t67.5 20q43 0 72.5 -30t29.5 -73q0 -33 -19 -64.5t-50.5 -51t-67.5 -19.5q-45 0 -73.5 30t-28.5 75
q0 31 19 62z" />
    <glyph glyph-name="dotaccent.smcp" horiz-adv-x="406" 
d="M119.5 1556.5q20.5 35.5 55.5 58.5t76 23q47 0 75.5 -30.5t28.5 -77.5q0 -37 -20.5 -73t-56 -58.5t-76.5 -22.5q-46 0 -74.5 31t-28.5 78q0 36 20.5 71.5z" />
    <glyph glyph-name="grave.smcp" horiz-adv-x="563" 
d="M245 1520q-94 67 -123 96q-39 39 -39 80q0 23 14 41q17 21 46 21q23 0 47.5 -12.5t41.5 -31.5q17 -17 36 -43.5t32 -46t20 -29.5q80 -122 146 -204l-21 -21q-91 74 -200 150z" />
    <glyph glyph-name=".ttfautohint" horiz-adv-x="182" 
d="M0 0z" />
    </font>
</defs>
</svg>
