<?xml version="1.0" standalone="no"?>
<!DOCTYPE svg PUBLIC "-//W3C//DTD SVG 1.1//EN" "http://www.w3.org/Graphics/SVG/1.1/DTD/svg11.dtd" >
<svg xmlns="http://www.w3.org/2000/svg" xmlns:xlink="http://www.w3.org/1999/xlink" version="1.1">
<metadata>
Created by FontForge 20161116 at Fri Sep 27 14:13:20 2013
 By Jimmy Wärting
Copyright (c) 2010-2012 by Claus Eggers Srensen (es@forthehearts.net), with Reserved Font Name 'Playfair'.
</metadata>
<defs>
<font id="PlayfairDisplaySC-Bold" horiz-adv-x="1639" >
  <font-face 
    font-family="Playfair Display SC"
    font-weight="700"
    font-stretch="normal"
    units-per-em="2048"
    panose-1="0 0 8 0 0 0 0 0 0 0"
    ascent="1638"
    descent="-410"
    x-height="1245"
    cap-height="1450"
    bbox="-323 -399 2272 1936"
    underline-thickness="0"
    underline-position="0"
    unicode-range="U+000D-0491"
  />
<missing-glyph horiz-adv-x="1151" 
d="M122 0v1581h905v-1581h-905zM196 61h757v1459h-757v-1459z" />
    <glyph glyph-name=".notdef" horiz-adv-x="1151" 
d="M122 0v1581h905v-1581h-905zM196 61h757v1459h-757v-1459z" />
    <glyph glyph-name="space" unicode=" " horiz-adv-x="478" 
 />
    <glyph glyph-name="A" unicode="A" horiz-adv-x="1366" 
d="M1311.5 73.5q34.5 -30.5 68.5 -32.5v-41q-122 6 -311 6q-210 0 -312 -6v41q77 3 110.5 19t33.5 56q0 36 -24 97l-123 336h-445l-55 -142q-56 -144 -56 -227q0 -76 45.5 -106.5t136.5 -32.5v-41q-140 6 -255 6q-96 0 -157 -6v41q103 19 178 215l466 1198q33 -3 71 -3t71 3
l497 -1282q26 -68 60.5 -98.5zM536 1141l-212 -551h415z" />
    <glyph glyph-name="Aacute" horiz-adv-x="1366" 
d="M0 0zM1311.5 73.5q34.5 -30.5 68.5 -32.5v-41q-122 6 -311 6q-210 0 -312 -6v41q77 3 110.5 19t33.5 56q0 36 -24 97l-123 336h-445l-55 -142q-56 -144 -56 -227q0 -76 45.5 -106.5t136.5 -32.5v-41q-140 6 -255 6q-96 0 -157 -6v41q103 19 178 215l466 1198q33 -3 71 -3
t71 3l497 -1282q26 -68 60.5 -98.5zM536 1141l-212 -551h415zM925 1928q32 0 59.5 -15.5t42.5 -43.5q11 -21 11 -47q0 -31 -18 -59t-50 -46q-30 -17 -62 -27t-97 -27q-153 -39 -267 -82l-15 25q101 82 204 194q45 48 70.5 71.5t57.5 40.5q29 16 64 16z" />
    <glyph glyph-name="B" unicode="B" horiz-adv-x="1375" 
d="M1095 694.5q115 -53.5 166.5 -131t51.5 -166.5q0 -127 -67.5 -216.5t-194.5 -135t-303 -45.5l-99 2q-136 4 -266 4q-211 0 -315 -6v41q69 3 99.5 16t42 48t11.5 112v1016q0 77 -11.5 112t-42.5 48t-99 16v41q104 -6 311 -6q38 0 230 3l92 1q165 0 278.5 -40.5t170.5 -113
t57 -168.5q0 -76 -44 -149t-136.5 -129.5t-228.5 -81.5v-4q182 -14 297 -67.5zM593.5 1394.5q-26.5 -14.5 -36.5 -51.5t-10 -110v-463h88q134 0 187 91t53 243q0 154 -47.5 229.5t-153.5 75.5q-54 0 -80.5 -14.5zM904 138q69 91 69 268q0 161 -81.5 245t-258.5 84h-86v-518
q0 -74 11 -109t40 -48t90 -13q147 0 216 91z" />
    <glyph glyph-name="C" unicode="C" horiz-adv-x="1445" 
d="M1020 1444q86 -35 168 -98q22 -18 40 -18q41 0 53 122h47q-8 -140 -8 -496h-48q-12 103 -27.5 167t-45 113.5t-81.5 90.5q-50 49 -117.5 75t-141.5 26q-140 0 -231.5 -97t-134 -256.5t-42.5 -351.5t44.5 -350.5t138 -254t233.5 -95.5q70 0 138.5 25.5t116.5 73.5
q52 40 81 93t44 123t25 180h48q0 -371 8 -516h-47q-6 64 -17.5 92.5t-32.5 28.5q-17 0 -43 -17q-60 -43 -111.5 -70.5t-117.5 -45t-149 -17.5q-217 0 -380.5 88t-253 255.5t-89.5 398.5q0 226 92 400t257 270t376 96q122 0 208 -35z" />
    <glyph glyph-name="D" unicode="D" horiz-adv-x="1589" 
d="M1298.5 1269q198.5 -181 198.5 -528q0 -223 -97 -390.5t-280.5 -259t-437.5 -91.5q-50 0 -124 3q-180 3 -175 3q-211 0 -315 -6v41q69 3 99.5 16t42 48t11.5 112v1016q0 77 -11.5 112t-42.5 48t-99 16v41q131 -7 247 -7l64 1l88 2q166 4 234 4q399 0 597.5 -181z
M603 1398.5q-32 -14.5 -44 -51.5t-12 -110v-1024q0 -74 12 -110.5t44.5 -51t97.5 -14.5q169 0 269.5 79.5t143.5 232t43 384.5q0 234 -46 383t-147 223t-265 74q-64 0 -96 -14.5z" />
    <glyph glyph-name="E" unicode="E" horiz-adv-x="1298" 
d="M1204 0q-139 6 -469 6q-444 0 -667 -6v41q69 3 99.5 16t42 48t11.5 112v1016q0 77 -11.5 112t-42.5 48t-99 16v41q223 -6 667 -6q302 0 428 6q-14 -169 -14 -303q0 -89 6 -139h-47q-20 148 -63 234.5t-109.5 123.5t-163.5 37h-84q-63 0 -91.5 -10t-39 -40t-10.5 -96v-507
h66q110 0 166 80t78 190h47q-7 -101 -7 -193l1 -98q0 -104 12 -291h-47q-40 271 -250 271h-66v-516q0 -66 10.5 -96t39 -40t91.5 -10h101q96 0 166.5 41.5t119.5 137.5t74 257h47q-6 -66 -6 -172q0 -167 14 -311z" />
    <glyph glyph-name="F" unicode="F" horiz-adv-x="1213" 
d="M1149 1139q0 -99 6 -156h-47q-27 158 -72.5 249.5t-113 131t-166.5 39.5h-68q-63 0 -91.5 -10t-39 -40t-10.5 -96v-516h72q110 0 166 80.5t77 190.5h48q-8 -120 -8 -199l1 -92q0 -107 13 -291h-47q-42 270 -250 270h-72v-471q0 -82 17 -119.5t61 -50.5t141 -14v-45
q-168 6 -373 6q-147 0 -325 -6v41q69 3 99.5 16t42 48t11.5 112v1016q0 77 -11.5 112t-42.5 48t-99 16v41q223 -6 667 -6q302 0 428 6q-14 -174 -14 -311z" />
    <glyph glyph-name="G" unicode="G" horiz-adv-x="1505" 
d="M1043 1444.5q88 -34.5 171 -98.5q23 -20 41 -20q21 0 33 30t18 94h47q-8 -140 -8 -496h-47q-16 139 -48 225t-106 146q-50 47 -122 74t-146 27q-143 0 -238 -97.5t-140.5 -257.5t-45.5 -349q0 -710 393 -710q86 0 145 40q28 20 39 44.5t11 62.5v201q0 96 -16 140.5
t-58 61t-133 20.5v41q118 -7 350 -7q188 0 275 7v-41q-42 -4 -60.5 -16.5t-25.5 -47t-7 -112.5v-406h-41q-2 43 -17.5 80t-42.5 37q-33 0 -110 -42q-179 -104 -336 -104q-237 0 -400.5 87.5t-247 252.5t-83.5 397q0 229 94.5 404t263 271t383.5 96q127 0 215 -34.5z" />
    <glyph glyph-name="H" unicode="H" 
d="M1469 1393q-31 -13 -42.5 -48t-11.5 -112v-1016q0 -77 11.5 -112t43 -48t99.5 -16v-41q-100 6 -311 6q-208 0 -322 -6v41q69 3 100 16t42.5 48t11.5 112v492h-543v-492q0 -77 11.5 -112t42.5 -48t100 -16v-41q-111 6 -310 6q-219 0 -323 -6v41q69 3 99.5 16t42 48
t11.5 112v1016q0 77 -11.5 112t-42.5 48t-99 16v41q104 -6 323 -6q199 0 310 6v-41q-69 -3 -100 -16t-42.5 -48t-11.5 -112v-483h543v483q0 77 -11.5 112t-42.5 48t-100 16v41q114 -6 322 -6q211 0 311 6v-41q-69 -3 -100 -16z" />
    <glyph glyph-name="I" unicode="I" horiz-adv-x="770" 
d="M601 1393q-31 -13 -42.5 -48t-11.5 -112v-1016q0 -77 11.5 -112t42.5 -48t100 -16v-41q-111 6 -310 6q-219 0 -323 -6v41q69 3 99.5 16t42 48t11.5 112v1016q0 77 -11.5 112t-42.5 48t-99 16v41q104 -6 323 -6q199 0 310 6v-41q-69 -3 -100 -16z" />
    <glyph glyph-name="J" unicode="J" horiz-adv-x="746" 
d="M591 1393q-31 -13 -42.5 -48t-11.5 -112v-750v-107q0 -142 -6.5 -247t-28.5 -180q-28 -96 -98 -171.5t-177.5 -119t-242.5 -43.5q-130 0 -206 38q-101 50 -101 149q0 62 45 100t119 38q71 0 113 -35t42 -100q0 -46 -27 -82t-78 -52q22 -15 74 -15q75 0 129 40.5t78 106.5
q18 52 26.5 111t10.5 140.5t2 242.5v936q0 77 -11.5 112t-42.5 48t-99 16v41q100 -6 311 -6q208 0 322 6v-41q-69 -3 -100 -16z" />
    <glyph glyph-name="K" unicode="K" horiz-adv-x="1463" 
d="M1396.5 89.5q32.5 -28.5 84.5 -48.5v-41q-142 6 -320 6q-135 0 -260 -6v41q58 2 83.5 11.5t25.5 29.5q0 15 -21 51l-298 481q-29 46 -49.5 69t-41.5 32.5t-53 12.5v-511q0 -77 11.5 -112t42.5 -48t100 -16v-41q-111 6 -310 6q-219 0 -323 -6v41q69 3 99.5 16t42 48
t11.5 112v1016q0 77 -11.5 112t-42.5 48t-99 16v41q104 -6 323 -6q199 0 310 6v-41q-69 -3 -100 -16t-42.5 -48t-11.5 -112v-461q81 5 150.5 50t153.5 142l120 146q94 111 94 190q0 51 -39.5 79.5t-110.5 30.5v40q150 -6 302 -6q119 0 194 6v-40q-163 -35 -298 -195
l-256 -305l477 -744q30 -48 62.5 -76.5z" />
    <glyph glyph-name="L" unicode="L" horiz-adv-x="1251" 
d="M605.5 1393q-33.5 -13 -46 -48t-12.5 -112v-1040q0 -66 10 -96t36 -40t83 -10h100q93 0 170.5 57t130 160.5t72.5 239.5h47q-6 -70 -6 -180q0 -175 14 -324q-139 6 -469 6q-444 0 -667 -6v41q69 3 99.5 16t42 48t11.5 112v1016q0 77 -11.5 112t-42.5 48t-99 16v41
q104 -6 323 -6q208 0 322 6v-41q-74 -3 -107.5 -16z" />
    <glyph glyph-name="M" unicode="M" horiz-adv-x="1899" 
d="M1730 1393q-31 -13 -42.5 -48t-11.5 -112v-1016q0 -77 11.5 -112t42.5 -48t100 -16v-41q-114 6 -322 6q-219 0 -324 -6v41q74 3 107.5 16t46 48t12.5 112v1066l-493 -1286h-33l-553 1321v-982q0 -122 12.5 -178t53.5 -82t133 -35v-41q-79 6 -222 6q-113 0 -178 -6v41
q67 9 99 34.5t43.5 78.5t11.5 157v922q0 77 -11.5 112t-42.5 48t-100 16v41q65 -6 178 -6q190 0 324 6l413 -996l378 990h145q208 0 322 6v-41q-69 -3 -100 -16z" />
    <glyph glyph-name="N" unicode="N" horiz-adv-x="1478" 
d="M1319 1374.5q-32 -25.5 -43.5 -78.5t-11.5 -157v-1143q-15 1 -49 1q-36 0 -56 -1l-888 1126v-786q0 -122 12.5 -178t53.5 -82t133 -35v-41q-79 6 -222 6q-113 0 -178 -6v41q67 9 99 34.5t43.5 78.5t11.5 157v922q0 77 -11.5 112t-42.5 48t-100 16v41q65 -6 178 -6
q105 0 177 6l792 -977v641q0 122 -12.5 178t-53.5 82t-133 35v41q80 -6 222 -6q114 0 178 6v-41q-67 -9 -99 -34.5z" />
    <glyph glyph-name="O" unicode="O" horiz-adv-x="1623" 
d="M1192 1391q163 -88 253 -255.5t90 -398.5q0 -226 -92.5 -400t-257 -270t-375.5 -96q-217 0 -380.5 88t-253 255.5t-89.5 398.5q0 226 92 400t257 270t376 96q217 0 380 -88zM605 1350.5q-85 -91.5 -131.5 -255t-46.5 -374.5q0 -212 52 -374.5t141.5 -250.5t197.5 -88
q113 0 198.5 91.5t132 255t46.5 374.5q0 213 -52 375t-141.5 250t-198.5 88q-113 0 -198 -91.5z" />
    <glyph glyph-name="P" unicode="P" horiz-adv-x="1312" 
d="M547 229q0 -82 17 -119.5t61 -50.5t141 -14v-45q-168 6 -373 6q-147 0 -325 -6v41q69 3 99.5 16t42 48t11.5 112v1016q0 77 -11.5 112t-42.5 48t-99 16v41q104 -6 311 -6q38 0 230 3l92 1q186 0 313 -50.5t190.5 -141.5t63.5 -212q0 -113 -56.5 -216.5t-193 -172.5
t-362.5 -69h-109v-357zM593.5 1394.5q-26.5 -14.5 -36.5 -51.5t-10 -110v-606h88q167 0 230 106.5t63 288.5q0 199 -59 293t-195 94q-54 0 -80.5 -14.5z" />
    <glyph glyph-name="Q" unicode="Q" horiz-adv-x="1623" 
d="M1458 -305q-45 -37 -113 -58.5t-151 -21.5q-77 0 -154 18t-147 45t-180 75q-146 62 -191 79q-36 13 -49 14q-91 -43 -171 -43q-44 0 -69.5 13.5t-25.5 40.5q0 55 111 55q73 0 155 -29q60 16 155 57q42 19 87 36q-191 19 -332.5 111.5t-218.5 252t-77 373.5q0 226 92 400
t257 270t376 96q217 0 380 -88t253 -255.5t90 -398.5q0 -218 -86.5 -388.5t-242 -269t-355.5 -107.5q-47 -6 -85 -18t-93 -35q-72 -30 -128 -46l144 -12q281 -24 398 -24q83 0 154 9q127 15 200.5 55.5t122.5 123.5l36 -11q-34 -232 -142 -319zM479 346.5
q52 -162.5 141.5 -250.5t197.5 -88q113 0 198.5 91.5t132 255t46.5 374.5q0 213 -52 375t-141.5 250t-198.5 88q-113 0 -198 -91.5t-131.5 -255t-46.5 -374.5q0 -212 52 -374.5z" />
    <glyph glyph-name="R" unicode="R" horiz-adv-x="1417" 
d="M1337.5 -1q-63.5 -28 -153.5 -28q-117 0 -186 50t-91 172l-36 204q-17 100 -37 160t-56.5 95.5t-97.5 35.5h-133v-471q0 -77 11.5 -112t42.5 -48t100 -16v-41q-111 6 -310 6q-219 0 -323 -6v41q69 3 99.5 16t42 48t11.5 112v1016q0 77 -11.5 112t-42.5 48t-99 16v41
q104 -6 311 -6q38 0 230 3l92 1q282 0 424.5 -92.5t142.5 -263.5q0 -92 -43 -174t-145.5 -142.5t-271.5 -79.5h1q124 -11 204 -42t125.5 -86.5t63.5 -141.5l46 -211q17 -83 38 -115t59 -32q25 0 43.5 11t39.5 36l28 -25q-55 -63 -118.5 -91zM593.5 1394.5
q-26.5 -14.5 -36.5 -51.5t-10 -110v-504h88q115 0 179.5 44t89 118t24.5 178q0 168 -59.5 254t-194.5 86q-54 0 -80.5 -14.5z" />
    <glyph glyph-name="S" unicode="S" horiz-adv-x="1196" 
d="M751 1455.5q64 -20.5 128 -58.5q48 -29 69 -29q19 0 29 21t17 69h47q-11 -127 -11 -467h-47q-7 112 -49 211.5t-118.5 162t-180.5 62.5q-66 0 -117 -25.5t-79.5 -72.5t-28.5 -111q0 -72 32 -125t88.5 -98t174.5 -124q34 -21 59 -39q119 -79 189 -139t113.5 -139
t43.5 -184q0 -130 -68 -220t-183 -134.5t-257 -44.5q-114 0 -189 20.5t-140 55.5q-46 29 -70 29q-19 0 -29 -21.5t-16 -68.5h-47q8 128 8 553h47q14 -229 102 -371.5t271 -142.5q73 0 130.5 26t90.5 77.5t33 125.5q0 80 -37.5 144t-101 116.5t-168.5 120.5
q-123 78 -196.5 137.5t-121 141t-47.5 188.5q0 124 63 208t167 125t229 41q107 0 171 -20.5z" />
    <glyph glyph-name="T" unicode="T" horiz-adv-x="1368" 
d="M1300 1102q0 -99 6 -156h-47q-34 172 -83 271.5t-118 142.5t-167 43h-45v-1169q0 -86 17 -125t61.5 -53t140.5 -15v-41q-174 6 -390 6q-212 0 -374 -6v41q96 1 140.5 15t61.5 53t17 125v1169h-45q-99 0 -167.5 -43t-117.5 -142.5t-84 -271.5h-47q6 57 6 156
q0 153 -14 348q185 -6 633 -6q446 0 631 6q-15 -190 -15 -348z" />
    <glyph glyph-name="U" unicode="U" horiz-adv-x="1410" 
d="M1274 1374.5q-32 -25.5 -43.5 -78.5t-11.5 -157v-543q0 -143 -19 -250.5t-65 -183.5q-54 -91 -158 -141t-256 -50q-239 0 -369 104q-65 52 -100 120.5t-48 161.5t-13 233v643q0 77 -11.5 112t-42.5 48t-100 16v41q105 -6 321 -6q210 0 324 6v-41q-74 -3 -107.5 -16
t-46 -48t-12.5 -112v-773q0 -143 26 -233.5t88 -137t169 -46.5q204 0 288.5 138t84.5 392v541q0 119 -14.5 176.5t-55.5 83.5t-129 35v41q80 -6 221 -6q115 0 178 6v-41q-66 -9 -98 -34.5z" />
    <glyph glyph-name="V" unicode="V" horiz-adv-x="1368" 
d="M1388 1450v-41q-50 -20 -99.5 -78.5t-87.5 -164.5l-433 -1170q-44 2 -71 2t-71 -2l-522 1282q-51 127 -129 131v41q123 -6 312 -6q211 0 311 6v-41q-77 -3 -110.5 -18.5t-33.5 -57.5q0 -34 24 -96l362 -917l252 680q57 155 57 248q0 83 -43.5 121t-128.5 40v41
q138 -6 255 -6q95 0 156 6z" />
    <glyph glyph-name="W" unicode="W" horiz-adv-x="1982" 
d="M1994 1450v-41q-52 -20 -99.5 -78t-79.5 -165l-361 -1170q-44 2 -72 2q-26 0 -70 -2l-302 911l-304 -911q-44 2 -72 2q-26 0 -70 -2l-459 1282q-25 68 -59.5 98.5t-69.5 32.5v41q121 -6 305 -6q171 0 252 6v-41q-72 -10 -72 -80q0 -38 19 -92l297 -866l209 609l-106 319
q-20 59 -47.5 83t-63.5 27v41q112 -6 292 -6q198 0 295 6v-41q-76 -3 -108 -17.5t-32 -58.5q0 -34 21 -96l281 -857l195 620q46 148 46 238q0 89 -44 129t-132 42v41q138 -6 255 -6q94 0 156 6z" />
    <glyph glyph-name="X" unicode="X" horiz-adv-x="1415" 
d="M1356 83q18 -20 37 -29t47 -11v-43q-8 0 -38 2q-183 6 -242 6q-118 0 -288 -7l-42 -1v43q72 0 103.5 7t31.5 27q0 14 -15 36l-344 505l-164 -224q-94 -126 -94 -214q0 -63 46.5 -98.5t128.5 -40.5v-41q-117 6 -324 6q-123 0 -188 -6v41q140 46 296 250l272 367l-441 648
q-29 42 -47 62t-37 29t-47 11v43q9 0 39 -2q189 -6 253 -6q130 0 314 8v-43q-69 0 -100 -9t-31 -30q0 -16 16 -39l305 -445l151 204q97 123 97 207q0 51 -38.5 79.5t-110.5 33.5v41q116 -6 257 -6q124 0 189 6v-41q-64 -19 -131 -76t-127 -138l-262 -348l481 -702
q29 -42 47 -62z" />
    <glyph glyph-name="Y" unicode="Y" horiz-adv-x="1275" 
d="M1263 1451v-41q-95 -37 -196 -236l-242 -480v-477q0 -77 11.5 -112t42.5 -48t99 -16v-41q-109 6 -315 6q-217 0 -318 -6v41q69 3 100 16t42.5 48t11.5 112v348l-394 729q-63 114 -119 114v43q120 -10 242 -10q190 0 385 10v-43q-73 0 -114 -12.5t-41 -48.5q0 -19 13 -45
l312 -598l159 318q81 161 81 252q0 131 -171 136v41q140 -6 255 -6q95 0 156 6z" />
    <glyph glyph-name="Z" unicode="Z" horiz-adv-x="1232" 
d="M427 47h225q101 0 192.5 43.5t157 143t82.5 258.5h47q-6 -70 -6 -181q0 -179 14 -311q-152 6 -510 6q-380 0 -550 -6v41l714 1362h-234q-167 0 -274.5 -96.5t-134.5 -323.5h-47q6 57 6 156q0 142 -15 311q137 -6 461 -6q405 0 584 6v-41z" />
    <glyph glyph-name="a" unicode="a" horiz-adv-x="1284" 
d="M1300 41v-41q-96 6 -269 6q-219 0 -323 -6v41q68 3 100.5 20.5t32.5 57.5q0 36 -27 94l-102 233h-430l-24 -55q-58 -132 -58 -211q0 -71 45 -102.5t133 -36.5v-41q-117 6 -235 6q-109 0 -166 -6v41q51 10 92 61.5t88 158.5l433 988q32 -2 47 -2q17 0 47 2l487 -1077
q59 -128 129 -131zM498 936l-198 -449h394z" />
    <glyph glyph-name="b" unicode="b" horiz-adv-x="1330" 
d="M1154 551q107 -86 107 -215q0 -105 -63 -180.5t-185 -115.5t-297 -40l-100 2q-136 4 -268 4q-186 0 -279 -6v41q69 3 100 16t42.5 48t11.5 112v811q0 78 -11.5 113t-42.5 47.5t-100 15.5v41q93 -6 274 -6q39 0 234 3l92 1q246 0 365.5 -72.5t119.5 -207.5
q0 -106 -85.5 -180t-278.5 -115v-4q257 -27 364 -113zM575 1189.5q-22 -14.5 -30.5 -51.5t-8.5 -110v-360h68q130 0 180.5 71.5t50.5 200.5q0 133 -45.5 198.5t-147.5 65.5q-45 0 -67 -14.5zM863.5 122q69.5 75 69.5 222q0 143 -70 216t-225 73h-102v-416q0 -74 8.5 -109
t31 -48t69.5 -13q149 0 218.5 75z" />
    <glyph glyph-name="c" unicode="c" horiz-adv-x="1346" 
d="M886.5 1256.5q61.5 -17.5 105 -45t94.5 -70.5q23 -20 40 -20q42 0 52 124h47q-8 -123 -8 -430h-47q-22 112 -42 162.5t-61 99.5q-57 68 -129 106t-151 38q-113 0 -197 -72.5t-130 -208.5t-46 -322q0 -187 51 -321t138.5 -203t197.5 -69q81 0 158 37.5t131 105.5
q40 51 59 110t35 173h47q0 -323 8 -451h-47q-10 124 -51 124q-16 0 -41 -20q-76 -63 -158 -98t-196 -35q-194 0 -343.5 75.5t-233 220t-83.5 343.5q0 195 86 346t235.5 234.5t335.5 83.5q82 0 143.5 -17.5z" />
    <glyph glyph-name="d" unicode="d" horiz-adv-x="1496" 
d="M1225.5 1091q178.5 -154 178.5 -452q0 -193 -86.5 -337t-252 -223t-394.5 -79q-54 0 -134 3q-192 3 -189 3q-186 0 -279 -6v41q69 3 100 16t42.5 48t11.5 112v811q0 78 -11.5 113t-42.5 47.5t-100 15.5v41q119 -7 218 -7l56 1l96 2q178 4 251 4q357 0 535.5 -154z
M582.5 1193.5q-26.5 -14.5 -36.5 -51t-10 -110.5v-819q0 -74 10 -110.5t37 -51t82 -14.5q158 0 248 67t127 196t37 331q0 199 -40 325t-130.5 189t-243.5 63q-54 0 -80.5 -14.5z" />
    <glyph glyph-name="e" unicode="e" horiz-adv-x="1248" 
d="M1152 0q-133 6 -448 6q-422 0 -635 -6v41q69 3 100 16t42.5 48t11.5 112v811q0 77 -11.5 112t-42.5 48t-100 16v41q213 -6 635 -6q287 0 407 6q-14 -137 -14 -246q0 -80 6 -127h-47q-21 120 -62 191.5t-103 103t-150 31.5h-76q-53 0 -79.5 -9.5t-38 -37.5t-11.5 -86v-418
h96q96 0 143.5 66.5t63.5 154.5h47q-7 -80 -7 -159l1 -82q0 -92 12 -242h-47q-14 97 -64.5 159t-148.5 62h-96v-426q0 -58 11.5 -86t38 -37.5t79.5 -9.5h88q97 0 165 35.5t112.5 116t66.5 215.5h47q-6 -57 -6 -148q0 -118 14 -266z" />
    <glyph glyph-name="f" unicode="f" horiz-adv-x="1159" 
d="M1097 999q0 -80 6 -127h-47q-21 120 -62 191.5t-103 103t-150 31.5h-76q-53 0 -79.5 -9.5t-38 -37.5t-11.5 -86v-418h96q96 0 143.5 66.5t63.5 154.5h47q-7 -80 -7 -159l1 -82q0 -92 12 -242h-47q-14 97 -64.5 159t-148.5 62h-96v-377q0 -77 19.5 -115.5t65 -54
t134.5 -18.5v-41q-126 6 -362 6q-219 0 -324 -6v41q69 3 100 16t42.5 48t11.5 112v811q0 77 -11.5 112t-42.5 48t-100 16v41q213 -6 635 -6q287 0 407 6q-14 -137 -14 -246z" />
    <glyph glyph-name="g" unicode="g" horiz-adv-x="1436" 
d="M943.5 1256.5q63.5 -17.5 108 -44t103.5 -71.5q25 -20 42 -20q20 0 32 29.5t18 94.5h48q-9 -113 -9 -409h-47q-32 160 -102 241q-62 68 -128 105.5t-157 37.5q-134 0 -233 -73.5t-152 -209t-53 -316.5q0 -314 102 -461.5t305 -147.5q70 0 118 29q42 25 42 88v190
q0 86 -15 125t-54 54t-125 18v41q132 -6 338 -6q174 0 262 6v-41q-42 -3 -60.5 -15.5t-25 -47t-6.5 -113.5v-340h-41q-8 76 -43 76q-28 0 -102 -36q-56 -26 -138.5 -47.5t-176.5 -21.5q-222 0 -381 74.5t-243 215.5t-84 337q0 204 90 357.5t251 236t368 82.5
q85 0 148.5 -17.5z" />
    <glyph glyph-name="h" unicode="h" horiz-adv-x="1600" 
d="M1429.5 1188q-30.5 -13 -42 -47.5t-11.5 -112.5v-811q0 -77 11.5 -112t42.5 -48t99 -16v-41q-96 6 -299 6q-208 0 -321 -6v41q69 3 99.5 16t42 48t11.5 112v397h-526v-397q0 -77 11.5 -112t42.5 -48t100 -16v-41q-114 6 -322 6q-201 0 -299 -6v41q69 3 100 16t42.5 48
t11.5 112v811q0 77 -11.5 112t-42.5 48t-100 16v41q98 -6 299 -6q208 0 322 6v-41q-70 -3 -100.5 -16t-42 -47.5t-11.5 -112.5v-373h526v373q0 77 -11.5 112t-42 48t-99.5 16v41q112 -6 321 -6q203 0 299 6v-41q-69 -3 -99.5 -16z" />
    <glyph glyph-name="i" unicode="i" horiz-adv-x="761" 
d="M589.5 1188q-30.5 -13 -42 -47.5t-11.5 -112.5v-811q0 -77 11.5 -112t42.5 -48t100 -16v-41q-106 6 -304 6q-216 0 -317 -6v41q69 3 100 16t42.5 48t11.5 112v811q0 77 -11.5 112t-42.5 48t-100 16v41q100 -6 317 -6q198 0 304 6v-41q-70 -3 -100.5 -16z" />
    <glyph glyph-name="i.loclTRK" horiz-adv-x="761" 
d="M70 0zM589.5 1188q-30.5 -13 -42 -47.5t-11.5 -112.5v-811q0 -77 11.5 -112t42.5 -48t100 -16v-41q-106 6 -304 6q-216 0 -317 -6v41q69 3 100 16t42.5 48t11.5 112v811q0 77 -11.5 112t-42.5 48t-100 16v41q100 -6 317 -6q198 0 304 6v-41q-70 -3 -100.5 -16zM504 1702
q47 -42 47 -116t-47 -116t-127 -42q-81 0 -127.5 42t-46.5 116t46.5 116t127.5 42q80 0 127 -42z" />
    <glyph glyph-name="j" unicode="j" horiz-adv-x="733" 
d="M577.5 1188q-30.5 -13 -42 -47.5t-11.5 -112.5v-545v-107q0 -142 -6.5 -247t-28.5 -180q-26 -96 -92 -171t-167.5 -118t-229.5 -43q-124 0 -193 36q-83 44 -83 132q0 59 44.5 96t115.5 37q68 0 109 -34.5t41 -95.5q0 -39 -23.5 -74t-68.5 -54q30 -4 55 -4q106 0 159 107
q29 49 42 132t13 239v894q0 77 -11.5 112t-42.5 48t-100 16v41q97 -6 299 -6q208 0 322 6v-41q-70 -3 -100.5 -16z" />
    <glyph glyph-name="k" unicode="k" horiz-adv-x="1457" 
d="M1388.5 89q29.5 -28 73.5 -48v-41q-143 6 -313 6q-147 0 -280 -6v41q65 2 92 11t27 28q0 17 -23 53l-268 385q-35 50 -70 75t-91 28v-404q0 -77 11.5 -112t42.5 -48t100 -16v-41q-107 6 -304 6q-212 0 -317 -6v41q69 3 100 16t42.5 48t11.5 112v811q0 77 -11.5 112
t-42.5 48t-100 16v41q105 -6 317 -6q197 0 304 6v-41q-70 -3 -100.5 -16t-42 -47.5t-11.5 -112.5v-366q89 8 162 44.5t157 116.5l125 127q79 75 79 143q0 49 -41.5 80t-110.5 33v39q147 -6 315 -6q110 0 182 6v-39q-72 -17 -137.5 -56.5t-140.5 -111.5l-252 -249l449 -623
q36 -49 65.5 -77z" />
    <glyph glyph-name="l" unicode="l" horiz-adv-x="1205" 
d="M589.5 1188q-30.5 -13 -42 -47.5t-11.5 -112.5v-835q0 -64 11.5 -95t38 -41t79.5 -10h80q135 0 227.5 97.5t124.5 314.5h47q-6 -66 -6 -168q0 -129 14 -291q-133 6 -448 6q-422 0 -635 -6v41q69 3 100 16t42.5 48t11.5 112v811q0 77 -11.5 112t-42.5 48t-100 16v41
q105 -6 324 -6q191 0 297 6v-41q-70 -3 -100.5 -16z" />
    <glyph glyph-name="m" unicode="m" horiz-adv-x="1807" 
d="M1634.5 1188q-33.5 -13 -46 -48t-12.5 -112v-811q0 -77 12.5 -112t46 -48t107.5 -16v-41q-109 6 -309 6q-236 0 -349 -6v41q74 3 107.5 16t46 48t12.5 112v899l-469 -1126h-32l-476 1124v-840q0 -91 16 -136t60 -66.5t135 -30.5v-41q-90 6 -233 6q-115 0 -178 -6v41
q67 9 98.5 30.5t43 66.5t11.5 136v754q0 77 -12.5 112t-46 48t-107.5 16v41q110 -6 326 -6q107 0 183 6l339 -816l342 810h183q199 0 309 6v-41q-74 -3 -107.5 -16z" />
    <glyph glyph-name="n" unicode="n" horiz-adv-x="1413" 
d="M1253.5 1173.5q-31.5 -21.5 -43 -66.5t-11.5 -136v-975q-18 1 -54 1q-37 0 -55 -1l-819 1018v-740q0 -91 16 -136t60 -66.5t135 -30.5v-41q-90 6 -234 6q-113 0 -178 -6v41q67 9 99 30.5t43.5 66.5t11.5 136v754q0 77 -11.5 112t-42.5 48t-100 16v41q65 -6 178 -6
q146 0 250 6l654 -811v537q0 91 -16 136t-60 66.5t-135 30.5v41q90 -6 233 -6q115 0 178 6v-41q-67 -9 -98.5 -30.5z" />
    <glyph glyph-name="o" unicode="o" horiz-adv-x="1555" 
d="M1141 1198.5q156 -75.5 241.5 -219.5t85.5 -344q0 -196 -88 -346.5t-245.5 -234t-358.5 -83.5q-207 0 -363 75.5t-242 219.5t-86 344q0 196 88 347t246 234t359 83q207 0 363 -75.5zM581.5 1158.5q-80.5 -78.5 -124.5 -219t-44 -321.5q0 -182 49.5 -321t134 -214
t187.5 -75q107 0 187.5 78.5t124.5 219t44 321.5q0 182 -49 321t-134 214t-188 75q-107 0 -187.5 -78.5z" />
    <glyph glyph-name="p" unicode="p" horiz-adv-x="1261" 
d="M536 217q0 -77 12.5 -112t46 -48t107.5 -16v-41q-121 6 -346 6q-194 0 -287 -6v41q69 3 100 16t42.5 48t11.5 112v811q0 77 -11.5 112t-42.5 48t-100 16v41q93 -6 274 -6q42 0 246 3l101 1q267 0 396.5 -89t129.5 -253q0 -104 -54 -193t-186.5 -146.5t-351.5 -57.5h-88
v-287zM582.5 1189.5q-26.5 -14.5 -36.5 -51.5t-10 -110v-483h68q162 0 223 89.5t61 244.5q0 166 -52 245.5t-173 79.5q-54 0 -80.5 -14.5z" />
    <glyph glyph-name="q" unicode="q" horiz-adv-x="1557" 
d="M1565.5 -306.5q-110.5 -78.5 -283.5 -78.5q-101 0 -205 21.5t-196 52.5t-229 83q-110 44 -201 74q-91 -43 -171 -43q-96 0 -96 54q0 55 112 55q73 0 155 -29q63 17 153 56q46 21 86 36q-183 16 -319 95t-210 216.5t-74 323.5q0 196 88 347t246 234t359 83
q207 0 363 -75.5t241.5 -219.5t85.5 -344q0 -186 -80 -331.5t-223.5 -232t-328.5 -98.5q-51 -5 -92.5 -18.5t-96.5 -37.5q-93 -38 -139 -49q26 -2 44 -2h8q15 0 140 5q106 6 155 6q34 0 49 -1q101 -4 259 -32q86 -14 134.5 -20t98.5 -6q84 0 138.5 12t89.5 38t60 69l32 -15
q-42 -150 -152.5 -228.5zM464.5 297q49.5 -139 134 -214t187.5 -75q107 0 187.5 78.5t124.5 219t44 321.5q0 182 -49 321t-134 214t-188 75q-107 0 -187.5 -78.5t-124.5 -219t-44 -321.5q0 -182 49.5 -321z" />
    <glyph glyph-name="r" unicode="r" horiz-adv-x="1364" 
d="M1283 0q-62 -29 -153 -29q-117 0 -180.5 45.5t-82.5 121.5l-59 241q-16 78 -42 119t-64 56t-98 15h-68v-352q0 -77 11.5 -112t42.5 -48t100 -16v-41q-119 6 -334 6q-194 0 -287 -6v41q69 3 100 16t42.5 48t11.5 112v811q0 78 -11.5 113t-42.5 47.5t-100 15.5v41
q93 -6 274 -6q39 0 234 3l92 1q276 0 411.5 -83t135.5 -230q0 -80 -43.5 -151t-149 -124t-279.5 -70q37 -4 60 -7q147 -17 232.5 -66t111.5 -155l43 -183q14 -59 34 -82.5t52 -23.5q43 0 88 45l29 -27q-49 -57 -111 -86zM575 1189.5q-22 -14.5 -30.5 -51.5t-8.5 -110v-418
h88q104 0 162.5 38t80 103t21.5 157q0 148 -57 222t-189 74q-45 0 -67 -14.5z" />
    <glyph glyph-name="s" unicode="s" horiz-adv-x="1183" 
d="M752 1253q67 -21 126 -55q49 -29 69 -29q19 0 28.5 22t16.5 69h47q-10 -123 -10 -426h-47q-22 184 -118.5 289.5t-251.5 105.5q-67 0 -119 -20.5t-80.5 -57t-28.5 -83.5q0 -56 33.5 -101.5t88.5 -84t158 -100.5l50 -30q123 -70 201 -127t129 -133t51 -173
q0 -112 -65 -190.5t-179.5 -118t-261.5 -39.5q-98 0 -169 21.5t-147 58.5q-50 25 -71 25q-19 0 -29 -21.5t-16 -68.5h-47q8 113 8 499h47q15 -218 118 -342.5t291 -124.5q59 0 111 19.5t84.5 62t32.5 106.5q0 57 -31 102t-89 86t-162 101q-126 72 -210.5 134.5t-137 140.5
t-52.5 172q0 108 61.5 182.5t168 112t241.5 37.5q94 0 161 -21z" />
    <glyph glyph-name="t" unicode="t" horiz-adv-x="1329" 
d="M1256 967q0 -106 7 -181h-47q-29 155 -69 244t-102.5 128.5t-160.5 39.5h-64v-960q0 -85 16 -124.5t58 -54.5t133 -18v-41q-111 6 -369 6q-259 0 -358 -6v41q91 3 133 18t58 54.5t16 124.5v960h-64q-98 0 -160.5 -39.5t-102.5 -128.5t-68 -244h-47q6 65 6 181
q0 127 -15 278q178 -6 602 -6q432 0 613 6q-15 -166 -15 -278z" />
    <glyph glyph-name="u" unicode="u" horiz-adv-x="1364" 
d="M1231.5 1169.5q-34.5 -25.5 -46.5 -78t-12 -157.5v-379q0 -140 -19.5 -240t-64.5 -174q-50 -78 -147.5 -124t-219.5 -46q-230 0 -361 90q-71 54 -108.5 116t-52.5 148t-15 224v479q0 77 -11.5 112t-42 48t-99.5 16v41q100 -6 311 -6q200 0 309 6v-41q-69 -3 -99.5 -16
t-42 -47.5t-11.5 -112.5v-514q0 -148 20 -244.5t83.5 -155.5t187.5 -59q185 0 260 125.5t75 351.5v377q0 119 -14 176.5t-55 83.5t-129 35v41q80 -6 221 -6q122 0 190 6v-41q-72 -9 -106.5 -34.5z" />
    <glyph glyph-name="v" unicode="v" horiz-adv-x="1284" 
d="M1298 1245v-41q-53 -20 -98.5 -79t-92.5 -173l-403 -956q-22 3 -47 3q-24 0 -48 -3l-505 1077q-59 127 -129 131v41q96 -6 269 -6q219 0 323 6v-41q-68 -3 -100.5 -20.5t-32.5 -57.5q0 -35 27 -94l330 -716l206 481q66 158 66 253q0 148 -166 154v41q117 -6 252 -6
q92 0 149 6z" />
    <glyph glyph-name="w" unicode="w" horiz-adv-x="1880" 
d="M1892 1245v-41q-114 -42 -190 -253l-343 -955q-23 3 -47 3t-48 -3l-307 753l-302 -753q-24 3 -48 3q-23 0 -47 -3l-456 1077q-56 127 -129 131v41q96 -6 269 -6q202 0 299 6v-41q-103 -6 -103 -84q0 -34 21 -88l278 -698l194 475l-108 264q-26 66 -61 97.5t-68 33.5v41
q96 -6 268 -6q211 0 311 6v-41q-67 -3 -97 -21t-30 -59q0 -35 21 -92l261 -698l162 454q58 160 58 256q0 81 -41 119t-119 41v41q117 -6 236 -6q109 0 166 6z" />
    <glyph glyph-name="x" unicode="x" horiz-adv-x="1319" 
d="M1264.5 67.5q24.5 -20.5 62.5 -24.5v-43q-178 7 -265 7q-98 0 -305 -6q-7 -1 -20 -1v43q67 0 97.5 7.5t30.5 26.5q0 14 -16 36l-289 404l-164 -204q-69 -85 -69 -150q0 -54 46 -85.5t126 -36.5v-41q-117 6 -305 6q-77 0 -175 -6v41q63 26 135.5 84t122.5 118l255 313
l-389 545q-29 42 -46.5 62t-35.5 29t-45 11v43q175 -7 264 -7q91 0 295 6l31 1v-43q-66 0 -97 -7.5t-31 -26.5q0 -14 15 -35l262 -366l128 159q77 92 77 167q0 48 -34.5 77t-98.5 33v41q117 -6 256 -6q114 0 174 6v-41q-54 -16 -113.5 -61.5t-110.5 -107.5l-251 -306
l418 -584q40 -57 64.5 -77.5z" />
    <glyph glyph-name="y" unicode="y" horiz-adv-x="1228" 
d="M1213 1245v-42q-43 -17 -84.5 -67.5t-97.5 -151.5l-235 -432v-323q0 -82 14.5 -119.5t53.5 -51.5t123 -17v-41q-106 6 -353 6t-342 -6v41q84 3 123 17t53.5 51.5t14.5 119.5v221l-367 637q-35 61 -61.5 85.5t-57.5 29.5v43q128 -10 242 -10q163 0 360 10v-43
q-60 0 -94.5 -11t-34.5 -45q0 -25 22 -63l276 -484l132 239q80 150 80 236q0 122 -155 129v42q118 -7 231 -7q105 0 157 7z" />
    <glyph glyph-name="z" unicode="z" horiz-adv-x="1185" 
d="M436 47h217q108 0 183 40.5t123.5 131.5t74.5 244h47q-6 -78 -6 -193q0 -119 14 -270q-141 6 -483 6q-353 0 -514 -6v41l643 1157h-215q-104 0 -176.5 -38t-120 -124t-72.5 -229h-47q6 65 6 180q0 114 -14 258q153 -6 514 -6q322 0 469 6v-41z" />
    <glyph glyph-name="uni0410" unicode="&#x410;" horiz-adv-x="1366" 
d="M0 0zM1311.5 73.5q34.5 -30.5 68.5 -32.5v-41q-122 6 -311 6q-210 0 -312 -6v41q77 3 110.5 19t33.5 56q0 36 -24 97l-123 336h-445l-55 -142q-56 -144 -56 -227q0 -76 45.5 -106.5t136.5 -32.5v-41q-140 6 -255 6q-96 0 -157 -6v41q103 19 178 215l466 1198q33 -3 71 -3
t71 3l497 -1282q26 -68 60.5 -98.5zM536 1141l-212 -551h415z" />
    <glyph glyph-name="uni0411" unicode="&#x411;" horiz-adv-x="1328" 
d="M1012.5 804q132.5 -59 191 -156.5t58.5 -217.5q0 -123 -61 -219.5t-191.5 -153t-331.5 -56.5q-21 0 -95 2q-165 3 -215 3q-196 0 -300 -6v41q68 3 99 16t42.5 48t11.5 112v1016q0 77 -11.5 112t-42 48t-99.5 16v41q223 -6 667 -6q284 0 404 6q-14 -169 -14 -303
q0 -89 6 -139h-47q-27 148 -71.5 234.5t-109 123.5t-155.5 37h-60q-63 0 -91.5 -10t-39 -40t-10.5 -96v-395l121 1q212 0 344.5 -59zM819.5 86q56.5 45 79.5 128t23 207q0 129 -26 217t-91 136.5t-177 48.5h-81v-606q0 -73 9 -109.5t33.5 -51.5t75.5 -15q98 0 154.5 45z" />
    <glyph glyph-name="uni0412" unicode="&#x412;" horiz-adv-x="1375" 
d="M69 0zM1095 694.5q115 -53.5 166.5 -131t51.5 -166.5q0 -127 -67.5 -216.5t-194.5 -135t-303 -45.5l-99 2q-136 4 -266 4q-211 0 -315 -6v41q69 3 99.5 16t42 48t11.5 112v1016q0 77 -11.5 112t-42.5 48t-99 16v41q104 -6 311 -6q38 0 230 3l92 1q165 0 278.5 -40.5
t170.5 -113t57 -168.5q0 -76 -44 -149t-136.5 -129.5t-228.5 -81.5v-4q182 -14 297 -67.5zM593.5 1394.5q-26.5 -14.5 -36.5 -51.5t-10 -110v-463h88q134 0 187 91t53 243q0 154 -47.5 229.5t-153.5 75.5q-54 0 -80.5 -14.5zM904 138q69 91 69 268q0 161 -81.5 245
t-258.5 84h-86v-518q0 -74 11 -109t40 -48t90 -13q147 0 216 91z" />
    <glyph glyph-name="uni0413" unicode="&#x413;" horiz-adv-x="1172" 
d="M1116 1139q0 -103 7 -156h-48q-27 158 -72.5 249.5t-113 131t-166.5 39.5h-35q-63 0 -91.5 -10t-39 -40t-10.5 -96v-1040q0 -77 14 -112t50.5 -48t117.5 -16v-41q-118 6 -338 6q-219 0 -323 -6v41q68 3 99 16t42.5 48t11.5 112v1016q0 77 -11.5 112t-42 48t-99.5 16v41
q223 -6 667 -6q279 0 396 6q-15 -169 -15 -311z" />
    <glyph glyph-name="uni0403" unicode="&#x403;" horiz-adv-x="1172" 
d="M69 0zM1116 1139q0 -103 7 -156h-48q-27 158 -72.5 249.5t-113 131t-166.5 39.5h-35q-63 0 -91.5 -10t-39 -40t-10.5 -96v-1040q0 -77 14 -112t50.5 -48t117.5 -16v-41q-118 6 -338 6q-219 0 -323 -6v41q68 3 99 16t42.5 48t11.5 112v1016q0 77 -11.5 112t-42 48
t-99.5 16v41q223 -6 667 -6q279 0 396 6q-15 -169 -15 -311zM805 1928q32 0 59.5 -15.5t42.5 -43.5q11 -21 11 -47q0 -31 -18 -59t-50 -46q-30 -17 -62 -27t-97 -27q-153 -39 -267 -82l-15 25q101 82 204 194q45 48 70.5 71.5t57.5 40.5q29 16 64 16z" />
    <glyph glyph-name="uni0490" unicode="&#x490;" horiz-adv-x="1130" 
d="M1089 1633q0 -130 15 -234q-117 4 -391 4q-74 0 -107.5 -12t-46 -46.5t-12.5 -111.5v-1016q0 -77 14 -112t50.5 -48t117.5 -16v-41q-118 6 -338 6q-219 0 -323 -6v41q68 3 99 16t42.5 48t11.5 112v1016q0 77 -11.5 112t-42 48t-99.5 16v41q210 -7 370 -7q53 0 145 4
q117 3 105 3q143 0 236 82.5t124 240.5h47q-6 -52 -6 -140z" />
    <glyph glyph-name="uni0414" unicode="&#x414;" horiz-adv-x="1336" 
d="M1293 -225q0 -84 6 -133h-47q-21 133 -66 211.5t-114 112.5t-168 34h-497q-99 0 -168 -34t-114 -112.5t-66 -211.5h-47q6 49 6 133q0 118 -14 266h37q142 0 219 162.5t106.5 390.5t51.5 593l3 46q2 34 2 46q0 52 -14.5 78.5t-49.5 37.5t-103 14v41q86 -6 211 -6q1 0 91 3
q44 3 89 3q71 0 138 -3q138 -3 155 -3q209 0 317 6v-41q-74 -3 -107.5 -16t-46 -48t-12.5 -112v-1016q0 -77 11.5 -113.5t43 -49.5t99.5 -13h62q-14 -148 -14 -266zM752.5 1344.5q-13.5 37.5 -43 51t-85.5 13.5h-26q-46 0 -71.5 -14t-39 -51.5t-18.5 -110.5q-7 -75 -16 -206
q-19 -265 -41.5 -441.5t-78 -329t-154.5 -215.5h421q72 0 106.5 13t47 49.5t12.5 113.5v1016q0 74 -13.5 111.5z" />
    <glyph glyph-name="uni0415" unicode="&#x415;" horiz-adv-x="1298" 
d="M69 0zM1204 0q-139 6 -469 6q-444 0 -667 -6v41q69 3 99.5 16t42 48t11.5 112v1016q0 77 -11.5 112t-42.5 48t-99 16v41q223 -6 667 -6q302 0 428 6q-14 -169 -14 -303q0 -89 6 -139h-47q-20 148 -63 234.5t-109.5 123.5t-163.5 37h-84q-63 0 -91.5 -10t-39 -40
t-10.5 -96v-507h66q110 0 166 80t78 190h47q-7 -101 -7 -193l1 -98q0 -104 12 -291h-47q-40 271 -250 271h-66v-516q0 -66 10.5 -96t39 -40t91.5 -10h101q96 0 166.5 41.5t119.5 137.5t74 257h47q-6 -66 -6 -172q0 -167 14 -311z" />
    <glyph glyph-name="uni0401" unicode="&#x401;" horiz-adv-x="1298" 
d="M69 0zM1204 0q-139 6 -469 6q-444 0 -667 -6v41q69 3 99.5 16t42 48t11.5 112v1016q0 77 -11.5 112t-42.5 48t-99 16v41q223 -6 667 -6q302 0 428 6q-14 -169 -14 -303q0 -89 6 -139h-47q-20 148 -63 234.5t-109.5 123.5t-163.5 37h-84q-63 0 -91.5 -10t-39 -40
t-10.5 -96v-507h66q110 0 166 80t78 190h47q-7 -101 -7 -193l1 -98q0 -104 12 -291h-47q-40 271 -250 271h-66v-516q0 -66 10.5 -96t39 -40t91.5 -10h101q96 0 166.5 41.5t119.5 137.5t74 257h47q-6 -66 -6 -172q0 -167 14 -311zM474.5 1856.5q35.5 -21.5 57 -57.5t21.5 -76
q0 -42 -21.5 -77t-57 -56t-75.5 -21q-42 0 -77.5 20.5t-56.5 56t-21 77.5q0 40 21 76t56.5 57.5t77.5 21.5q40 0 75.5 -21.5zM965 1856.5q36 -21.5 57.5 -57.5t21.5 -76q0 -42 -21.5 -77t-57.5 -56t-76 -21q-42 0 -77.5 20.5t-56 56t-20.5 77.5q0 40 21 76t56 57.5t77 21.5
q40 0 76 -21.5z" />
    <glyph glyph-name="uni0416" unicode="&#x416;" horiz-adv-x="2107" 
d="M2006.5 -0.5q-64.5 -28.5 -153.5 -28.5q-118 0 -186 49.5t-90 172.5l-55 312q-17 87 -44.5 136.5t-82 73.5t-151.5 24h-28v-522q0 -77 11.5 -112t42.5 -48t100 -16v-41q-105 6 -324 6q-199 0 -309 -6v41q68 3 99 16t42.5 48t11.5 112v522h-28q-96 0 -150.5 -24t-82 -73.5
t-44.5 -136.5l-55 -312q-22 -123 -90 -172.5t-187 -49.5q-89 0 -153 28.5t-119 90.5l28 25q22 -25 40 -36t43 -11q26 0 43 14t29 45t24 88l59 274q32 143 143 206.5t311 75.5l-372 444q-138 161 -298 195v40q73 -6 193 -6q152 0 302 6v-40q-71 -2 -110.5 -30.5t-39.5 -79.5
q0 -77 95 -190l120 -146q85 -98 151 -142t148 -48v459q0 77 -11 112t-42 48t-100 16v41q109 -6 309 -6q219 0 324 6v-41q-69 -3 -100 -16t-42.5 -48t-11.5 -112v-459q81 4 147 47.5t153 142.5l120 146q94 111 94 190q0 51 -39.5 79.5t-110.5 30.5v40q150 -6 302 -6
q119 0 194 6v-40q-161 -34 -298 -195l-373 -444q200 -12 311 -75.5t143 -206.5l60 -274q11 -57 23.5 -88t29.5 -45t43 -14q24 0 42 11t40 36l28 -25q-54 -62 -118.5 -90.5z" />
    <glyph glyph-name="uni0417" unicode="&#x417;" horiz-adv-x="1232" 
d="M871 1441.5q106 -37.5 164.5 -108t58.5 -164.5q0 -107 -72.5 -189t-181 -134.5t-223.5 -77.5q138 -2 265.5 -45t208.5 -127.5t81 -205.5q0 -130 -90.5 -225t-238 -144.5t-312.5 -49.5q-235 0 -369 97q-49 34 -80.5 82.5t-31.5 105.5q0 51 23.5 89t63 58t86.5 20
q75 0 118.5 -42t43.5 -121q0 -62 -41.5 -108.5t-114.5 -63.5q39 -32 110 -52t159 -20q172 0 266.5 95.5t94.5 273.5q0 98 -30 179.5t-92 131.5t-153 54q-47 -27 -87 -27q-19 0 -31.5 8.5t-12.5 26.5q0 33 47 33q25 0 86 -13q107 43 150 135t43 219q0 149 -57 218.5
t-170 69.5q-111 0 -188.5 -58.5t-118.5 -157.5t-49 -223h-47q0 334 -9 475h47q7 -59 17.5 -84.5t33.5 -25.5q17 0 51 22q56 39 94.5 60t99 36t145.5 15q137 0 243 -37.5z" />
    <glyph glyph-name="uni0418" unicode="&#x418;" horiz-adv-x="1680" 
d="M1510.5 1393q-31.5 -13 -43 -48t-11.5 -112v-1016q0 -77 11.5 -112t43 -48t99.5 -16v-41q-105 6 -324 6q-200 0 -309 -6v41q69 3 100 16t42.5 48t11.5 112v959l-584 -988q2 -63 15 -92.5t43.5 -40.5t95.5 -14v-41q-111 6 -310 6q-220 0 -323 -6v41q68 3 99 16t42.5 48
t11.5 112v1016q0 77 -11.5 112t-42.5 48t-99 16v41q103 -6 323 -6q199 0 310 6v-41q-69 -3 -100 -16t-42.5 -48t-11.5 -112v-958l584 990q-2 61 -15.5 90t-44 40t-94.5 14v41q110 -6 309 -6q219 0 324 6v-41q-68 -3 -99.5 -16z" />
    <glyph glyph-name="uni0419" unicode="&#x419;" horiz-adv-x="1680" 
d="M69 0zM1510.5 1393q-31.5 -13 -43 -48t-11.5 -112v-1016q0 -77 11.5 -112t43 -48t99.5 -16v-41q-105 6 -324 6q-200 0 -309 -6v41q69 3 100 16t42.5 48t11.5 112v959l-584 -988q2 -63 15 -92.5t43.5 -40.5t95.5 -14v-41q-111 6 -310 6q-220 0 -323 -6v41q68 3 99 16
t42.5 48t11.5 112v1016q0 77 -11.5 112t-42.5 48t-99 16v41q103 -6 323 -6q199 0 310 6v-41q-69 -3 -100 -16t-42.5 -48t-11.5 -112v-958l584 990q-2 61 -15.5 90t-44 40t-94.5 14v41q110 -6 309 -6q219 0 324 6v-41q-68 -3 -99.5 -16zM1243.5 1918.5q37.5 -17.5 58.5 -48.5
t21 -70q0 -89 -123 -151q-63 -32 -155.5 -52t-204.5 -20q-114 0 -206.5 20t-155.5 52q-120 61 -120 151q0 38 20.5 69t57 49t83.5 18q72 0 119 -38.5t47 -98.5q0 -52 -35 -86t-91 -47q55 -25 131.5 -36.5t149.5 -11.5q71 0 148 12t131 37q-57 14 -90 48t-33 84
q0 60 46.5 98.5t117.5 38.5q46 0 83.5 -17.5z" />
    <glyph glyph-name="uni040D" unicode="&#x40d;" horiz-adv-x="1680" 
d="M69 0zM1510.5 1393q-31.5 -13 -43 -48t-11.5 -112v-1016q0 -77 11.5 -112t43 -48t99.5 -16v-41q-105 6 -324 6q-200 0 -309 -6v41q69 3 100 16t42.5 48t11.5 112v959l-584 -988q2 -63 15 -92.5t43.5 -40.5t95.5 -14v-41q-111 6 -310 6q-220 0 -323 -6v41q68 3 99 16
t42.5 48t11.5 112v1016q0 77 -11.5 112t-42.5 48t-99 16v41q103 -6 323 -6q199 0 310 6v-41q-69 -3 -100 -16t-42.5 -48t-11.5 -112v-958l584 990q-2 61 -15.5 90t-44 40t-94.5 14v41q110 -6 309 -6q219 0 324 6v-41q-68 -3 -99.5 -16zM704.5 1871q26.5 -24 72.5 -73
q105 -114 201 -192l-14 -25q-114 43 -267 82q-65 17 -97 27t-62 27q-33 18 -51 45.5t-18 58.5q0 26 12 48q15 28 42.5 43.5t59.5 15.5q34 0 63 -16q32 -17 58.5 -41z" />
    <glyph glyph-name="uni041A" unicode="&#x41a;" horiz-adv-x="1477" 
d="M1337.5 -0.5q-64.5 -28.5 -153.5 -28.5q-118 0 -186 49.5t-91 172.5l-54 312q-17 87 -44.5 136.5t-82 73.5t-151.5 24h-28v-522q0 -77 11.5 -112t42.5 -48t100 -16v-41q-111 6 -310 6q-220 0 -323 -6v41q69 3 99.5 16t42 48t11.5 112v1016q0 77 -11.5 112t-42.5 48
t-99 16v41q103 -6 323 -6q199 0 310 6v-41q-69 -3 -100 -16t-42.5 -48t-11.5 -112v-459q82 4 151.5 48.5t155.5 141.5l120 146q95 113 95 190q0 51 -39.5 79.5t-110.5 30.5v40q149 -6 301 -6q121 0 194 6v-40q-157 -34 -298 -195l-379 -444q200 -12 310.5 -75.5
t142.5 -206.5l60 -274q11 -57 23.5 -88t29.5 -45t43 -14q24 0 42 11t40 36l28 -25q-54 -62 -118.5 -90.5z" />
    <glyph glyph-name="uni040C" unicode="&#x40c;" horiz-adv-x="1477" 
d="M69 0zM1062 1928q32 0 59.5 -15.5t42.5 -43.5q11 -21 11 -47q0 -31 -18 -59t-50 -46q-30 -17 -62 -27t-97 -27q-153 -39 -267 -82l-15 25q101 82 204 194q45 48 70.5 71.5t57.5 40.5q29 16 64 16zM1337.5 -0.5q-64.5 -28.5 -153.5 -28.5q-118 0 -186 49.5t-91 172.5
l-54 312q-17 87 -44.5 136.5t-82 73.5t-151.5 24h-28v-522q0 -77 11.5 -112t42.5 -48t100 -16v-41q-111 6 -310 6q-220 0 -323 -6v41q69 3 99.5 16t42 48t11.5 112v1016q0 77 -11.5 112t-42.5 48t-99 16v41q103 -6 323 -6q199 0 310 6v-41q-69 -3 -100 -16t-42.5 -48
t-11.5 -112v-459q82 4 151.5 48.5t155.5 141.5l120 146q95 113 95 190q0 51 -39.5 79.5t-110.5 30.5v40q149 -6 301 -6q121 0 194 6v-40q-157 -34 -298 -195l-379 -444q200 -12 310.5 -75.5t142.5 -206.5l60 -274q11 -57 23.5 -88t29.5 -45t43 -14q24 0 42 11t40 36l28 -25
q-54 -62 -118.5 -90.5z" />
    <glyph glyph-name="uni041B" unicode="&#x41b;" horiz-adv-x="1474" 
d="M1305.5 1393q-33.5 -13 -46 -48t-12.5 -112v-1016q0 -77 12.5 -112t46 -48t107.5 -16v-41q-108 6 -334 6q-221 0 -340 -6v41q81 3 117.5 16t50.5 48t14 112v1016q0 74 -13 111.5t-42.5 51t-85.5 13.5h-14q-52 0 -80 -14t-42 -51.5t-20 -110.5q-3 -31 -15 -205
q-22 -326 -53.5 -537.5t-116.5 -365.5t-243 -154q-62 0 -113 23.5t-81 67t-30 99.5q0 52 24.5 92t67 62t94.5 22q68 0 109.5 -34t41.5 -93q0 -72 -44.5 -120.5t-118.5 -68.5q20 -11 50 -11q144 0 221.5 168.5t106.5 405.5t51 616l2 33q2 34 2 46q0 52 -14.5 78.5t-49.5 37.5
t-104 14v41q87 -6 211 -6q2 0 92 3q45 3 88 3q73 0 139 -3q141 -3 154 -3q210 0 318 6v-41q-74 -3 -107.5 -16z" />
    <glyph glyph-name="uni041C" unicode="&#x41c;" horiz-adv-x="1899" 
d="M71 0zM1730 1393q-31 -13 -42.5 -48t-11.5 -112v-1016q0 -77 11.5 -112t42.5 -48t100 -16v-41q-114 6 -322 6q-219 0 -324 -6v41q74 3 107.5 16t46 48t12.5 112v1066l-493 -1286h-33l-553 1321v-982q0 -122 12.5 -178t53.5 -82t133 -35v-41q-79 6 -222 6q-113 0 -178 -6
v41q67 9 99 34.5t43.5 78.5t11.5 157v922q0 77 -11.5 112t-42.5 48t-100 16v41q65 -6 178 -6q190 0 324 6l413 -996l378 990h145q208 0 322 6v-41q-69 -3 -100 -16z" />
    <glyph glyph-name="uni041D" unicode="&#x41d;" 
d="M69 0zM1469 1393q-31 -13 -42.5 -48t-11.5 -112v-1016q0 -77 11.5 -112t43 -48t99.5 -16v-41q-100 6 -311 6q-208 0 -322 -6v41q69 3 100 16t42.5 48t11.5 112v492h-543v-492q0 -77 11.5 -112t42.5 -48t100 -16v-41q-111 6 -310 6q-219 0 -323 -6v41q69 3 99.5 16t42 48
t11.5 112v1016q0 77 -11.5 112t-42.5 48t-99 16v41q104 -6 323 -6q199 0 310 6v-41q-69 -3 -100 -16t-42.5 -48t-11.5 -112v-483h543v483q0 77 -11.5 112t-42.5 48t-100 16v41q114 -6 322 -6q211 0 311 6v-41q-69 -3 -100 -16z" />
    <glyph glyph-name="uni041E" unicode="&#x41e;" horiz-adv-x="1623" 
d="M88 0zM1192 1391q163 -88 253 -255.5t90 -398.5q0 -226 -92.5 -400t-257 -270t-375.5 -96q-217 0 -380.5 88t-253 255.5t-89.5 398.5q0 226 92 400t257 270t376 96q217 0 380 -88zM605 1350.5q-85 -91.5 -131.5 -255t-46.5 -374.5q0 -212 52 -374.5t141.5 -250.5
t197.5 -88q113 0 198.5 91.5t132 255t46.5 374.5q0 213 -52 375t-141.5 250t-198.5 88q-113 0 -198 -91.5z" />
    <glyph glyph-name="uni041F" unicode="&#x41f;" 
d="M1469.5 1393q-31.5 -13 -43 -48t-11.5 -112v-1016q0 -77 11.5 -112t43 -48t99.5 -16v-41q-105 6 -324 6q-199 0 -309 -6v41q69 3 100 16t42.5 48t11.5 112v1016q0 77 -12.5 113.5t-47 49.5t-106.5 13h-211q-72 0 -106.5 -13t-47 -49.5t-12.5 -113.5v-1016
q0 -77 11.5 -112t42.5 -48t100 -16v-41q-111 6 -310 6q-219 0 -323 -6v41q68 3 99 16t42.5 48t11.5 112v1016q0 77 -11.5 112t-42.5 48t-99 16v41q104 -6 323 -6q103 0 267 4q128 2 163 2q36 0 162 -2q162 -4 262 -4q219 0 324 6v-41q-68 -3 -99.5 -16z" />
    <glyph glyph-name="uni0420" unicode="&#x420;" horiz-adv-x="1312" 
d="M69 0zM547 229q0 -82 17 -119.5t61 -50.5t141 -14v-45q-168 6 -373 6q-147 0 -325 -6v41q69 3 99.5 16t42 48t11.5 112v1016q0 77 -11.5 112t-42.5 48t-99 16v41q104 -6 311 -6q38 0 230 3l92 1q186 0 313 -50.5t190.5 -141.5t63.5 -212q0 -113 -56.5 -216.5t-193 -172.5
t-362.5 -69h-109v-357zM593.5 1394.5q-26.5 -14.5 -36.5 -51.5t-10 -110v-606h88q167 0 230 106.5t63 288.5q0 199 -59 293t-195 94q-54 0 -80.5 -14.5z" />
    <glyph glyph-name="uni0421" unicode="&#x421;" horiz-adv-x="1445" 
d="M88 0zM1020 1444q86 -35 168 -98q22 -18 40 -18q41 0 53 122h47q-8 -140 -8 -496h-48q-12 103 -27.5 167t-45 113.5t-81.5 90.5q-50 49 -117.5 75t-141.5 26q-140 0 -231.5 -97t-134 -256.5t-42.5 -351.5t44.5 -350.5t138 -254t233.5 -95.5q70 0 138.5 25.5t116.5 73.5
q52 40 81 93t44 123t25 180h48q0 -371 8 -516h-47q-6 64 -17.5 92.5t-32.5 28.5q-17 0 -43 -17q-60 -43 -111.5 -70.5t-117.5 -45t-149 -17.5q-217 0 -380.5 88t-253 255.5t-89.5 398.5q0 226 92 400t257 270t376 96q122 0 208 -35z" />
    <glyph glyph-name="uni0422" unicode="&#x422;" horiz-adv-x="1368" 
d="M52 0zM1300 1102q0 -99 6 -156h-47q-34 172 -83 271.5t-118 142.5t-167 43h-45v-1169q0 -86 17 -125t61.5 -53t140.5 -15v-41q-174 6 -390 6q-212 0 -374 -6v41q96 1 140.5 15t61.5 53t17 125v1169h-45q-99 0 -167.5 -43t-117.5 -142.5t-84 -271.5h-47q6 57 6 156
q0 153 -14 348q185 -6 633 -6q446 0 631 6q-15 -190 -15 -348z" />
    <glyph glyph-name="uni0423" unicode="&#x423;" horiz-adv-x="1351" 
d="M1382 1450v-41q-45 -17 -90.5 -72t-104.5 -164l-403 -811l-97 -194q-46 -94 -90 -137q-60 -60 -171 -60q-69 0 -120.5 22t-79 61t-27.5 88q0 48 24.5 84t66 56t91.5 20q80 0 127.5 -34t47.5 -95q0 -56 -37.5 -95.5t-98.5 -58.5q11 -7 40 -7q58 0 102.5 40t82.5 119l48 99
l-578 1014q-68 116 -135 124v42q81 -6 271 -6q241 0 327 6v-42q-105 -4 -105 -79q0 -35 23 -84l362 -642l208 418q78 157 78 249q0 134 -174 139v41q140 -6 256 -6q94 0 156 6z" />
    <glyph glyph-name="uni040E" unicode="&#x40e;" horiz-adv-x="1351" 
d="M0 0zM1382 1450v-41q-45 -17 -90.5 -72t-104.5 -164l-403 -811l-97 -194q-46 -94 -90 -137q-60 -60 -171 -60q-69 0 -120.5 22t-79 61t-27.5 88q0 48 24.5 84t66 56t91.5 20q80 0 127.5 -34t47.5 -95q0 -56 -37.5 -95.5t-98.5 -58.5q11 -7 40 -7q58 0 102.5 40t82.5 119
l48 99l-578 1014q-68 116 -135 124v42q81 -6 271 -6q241 0 327 6v-42q-105 -4 -105 -79q0 -35 23 -84l362 -642l208 418q78 157 78 249q0 134 -174 139v41q140 -6 256 -6q94 0 156 6zM1098.5 1918.5q37.5 -17.5 58.5 -48.5t21 -70q0 -89 -123 -151q-63 -32 -155.5 -52
t-204.5 -20q-114 0 -206.5 20t-155.5 52q-120 61 -120 151q0 38 20.5 69t57 49t83.5 18q72 0 119 -38.5t47 -98.5q0 -52 -35 -86t-91 -47q55 -25 131.5 -36.5t149.5 -11.5q71 0 148 12t131 37q-57 14 -90 48t-33 84q0 60 46.5 98.5t117.5 38.5q46 0 83.5 -17.5z" />
    <glyph glyph-name="uni0424" unicode="&#x424;" horiz-adv-x="1891" 
d="M1768.5 443q-88.5 -127 -256.5 -204t-404 -97v-76q0 -78 11.5 -113t42.5 -47.5t100 -16.5v-41q-104 7 -309 7q-226 0 -324 -7v41q70 4 100.5 17t42 47.5t11.5 112.5v75q-365 26 -558 176t-193 416q0 162 88.5 284.5t257 197.5t405.5 94v75q0 78 -11.5 113t-42.5 47.5
t-100 16.5v41q98 -7 324 -7q205 0 309 7v-41q-70 -4 -100.5 -17t-42 -47.5t-11.5 -112.5v-74q364 -26 556.5 -171t192.5 -402q0 -167 -88.5 -294zM473 348.5q101 -135.5 310 -170.5v1096q-216 -30 -313.5 -159t-97.5 -374q0 -257 101 -392.5zM1417 1108.5
q-100 130.5 -309 163.5v-1095q215 32 312 165.5t97 386.5q0 249 -100 379.5z" />
    <glyph glyph-name="uni0425" unicode="&#x425;" horiz-adv-x="1415" 
d="M7 0zM1356 83q18 -20 37 -29t47 -11v-43q-8 0 -38 2q-183 6 -242 6q-118 0 -288 -7l-42 -1v43q72 0 103.5 7t31.5 27q0 14 -15 36l-344 505l-164 -224q-94 -126 -94 -214q0 -63 46.5 -98.5t128.5 -40.5v-41q-117 6 -324 6q-123 0 -188 -6v41q140 46 296 250l272 367
l-441 648q-29 42 -47 62t-37 29t-47 11v43q9 0 39 -2q189 -6 253 -6q130 0 314 8v-43q-69 0 -100 -9t-31 -30q0 -16 16 -39l305 -445l151 204q97 123 97 207q0 51 -38.5 79.5t-110.5 33.5v41q116 -6 257 -6q124 0 189 6v-41q-64 -19 -131 -76t-127 -138l-262 -348l481 -702
q29 -42 47 -62z" />
    <glyph glyph-name="uni0427" unicode="&#x427;" horiz-adv-x="1537" 
d="M1367 1393q-31 -13 -42.5 -48t-11.5 -112v-1016q0 -77 11.5 -112t42.5 -48t100 -16v-41q-178 6 -325 6q-205 0 -373 -6v45q97 1 141 14t61 50.5t17 119.5v399q-66 -29 -174 -52t-220 -23q-189 0 -303 72q-69 43 -95.5 108.5t-26.5 177.5v333q0 69 -12.5 102.5t-43.5 46.5
t-94 15v42q154 -7 315 -7q148 0 302 7v-42q-60 -2 -89 -15t-41 -46.5t-12 -102.5v-390q0 -88 14.5 -137t58.5 -74t130 -25q81 0 158.5 13t132.5 35v567q0 77 -11.5 112t-42.5 48t-100 16v41q105 -6 324 -6q199 0 309 6v-41q-69 -3 -100 -16z" />
    <glyph glyph-name="uni0426" unicode="&#x426;" horiz-adv-x="1658" 
d="M1469.5 1393q-31.5 -13 -43 -48t-11.5 -112v-1016q0 -77 12 -113.5t43.5 -49.5t98.5 -13h62q-14 -148 -14 -266q0 -84 6 -133h-47q-21 133 -66 211.5t-114 112.5t-168 34h-410q-35 0 -161 2q-164 4 -266 4q-219 0 -323 -6v41q68 3 99 16t42.5 48t11.5 112v1016
q0 77 -11.5 112t-42.5 48t-99 16v41q104 -6 323 -6q199 0 310 6v-41q-69 -3 -100 -16t-42.5 -48t-11.5 -112v-1016q0 -77 12.5 -113.5t47 -49.5t106.5 -13h211q72 0 106.5 13t47 49.5t12.5 113.5v1016q0 77 -11.5 112t-42.5 48t-100 16v41q110 -6 309 -6q219 0 324 6v-41
q-68 -3 -99.5 -16z" />
    <glyph glyph-name="uni0428" unicode="&#x428;" horiz-adv-x="2296" 
d="M2126 1393q-31 -13 -42.5 -48t-11.5 -112v-1016q0 -77 11.5 -112t42.5 -48t100 -16v-41q-100 6 -311 6q-3 0 -210 -3q-94 -3 -178 -3q-75 0 -170 3q-207 3 -203 3q1 0 -206 -3q-94 -3 -178 -3q-86 0 -182 3q-207 3 -209 3q-210 0 -311 -6v41q68 3 99 16t42.5 48t11.5 112
v1016q0 77 -11.5 112t-42.5 48t-99 16v41q104 -6 323 -6q186 0 289 6v-41q-60 -3 -86.5 -16t-36.5 -48t-10 -112v-1016q0 -77 12.5 -113.5t47 -49.5t106.5 -13h105q72 0 106.5 13t47 49.5t12.5 113.5v1016q0 77 -9.5 112t-36.5 48t-87 16v41q103 -6 289 -6q204 0 303 6v-41
q-60 -3 -87 -16t-36.5 -48t-9.5 -112v-1016q0 -75 14 -111.5t48 -49.5t104 -15h105q72 0 106.5 13t47 49.5t12.5 113.5v1016q0 77 -9.5 112t-36.5 48t-87 16v41q103 -6 288 -6q219 0 324 6v-41q-69 -3 -100 -16z" />
    <glyph glyph-name="uni0429" unicode="&#x429;" horiz-adv-x="2298" 
d="M2110 1393q-31 -13 -42.5 -48t-11.5 -112v-1016q0 -77 11.5 -113.5t43 -49.5t99.5 -13h62q-14 -148 -14 -266q0 -84 6 -133h-47q-21 133 -66 211.5t-114 112.5t-169 34h-349q-75 0 -170 3q-207 3 -204 3q-1 0 -205 -3q-96 -3 -178 -3q-79 0 -172 3q-207 3 -211 3
q-210 0 -311 -6v41q68 3 99 16t42.5 48t11.5 112v1016q0 77 -11.5 112t-42.5 48t-99 16v41q104 -6 323 -6q186 0 289 6v-41q-60 -3 -86.5 -16t-36.5 -48t-10 -112v-1016q0 -77 12.5 -113.5t47 -49.5t106.5 -13h97q72 0 106.5 13t47 49.5t12.5 113.5v1016q0 77 -9.5 112
t-36.5 48t-87 16v41q103 -6 289 -6q204 0 303 6v-41q-60 -3 -87 -16t-36.5 -48t-9.5 -112v-1016q0 -76 14 -112.5t48.5 -50t102.5 -13.5h97q73 0 107 13t46.5 49.5t12.5 113.5v1016q0 77 -9.5 112t-36.5 48t-87 16v41q103 -6 289 -6q219 0 324 6v-41q-69 -3 -100 -16z" />
    <glyph glyph-name="uni040F" unicode="&#x40f;" 
d="M1469.5 1393q-31.5 -13 -43 -48t-11.5 -112v-1016q0 -77 11.5 -112t43 -48t99.5 -16v-41q-105 6 -324 6h-75l7 -1q-142 0 -226.5 -84.5t-105.5 -278.5h-47q-21 195 -105 279t-227 84l6 1h-81q-219 0 -323 -6v41q68 3 99 16t42.5 48t11.5 112v1016q0 77 -11.5 112
t-42.5 48t-99 16v41q104 -6 323 -6q199 0 310 6v-41q-69 -3 -100 -16t-42.5 -48t-11.5 -112v-1016q0 -77 12.5 -113.5t47 -49.5t106.5 -13h211q72 0 106.5 13t47 49.5t12.5 113.5v1016q0 77 -11.5 112t-42.5 48t-100 16v41q110 -6 309 -6q219 0 324 6v-41q-68 -3 -99.5 -16z
" />
    <glyph glyph-name="uni042F" unicode="&#x42f;" horiz-adv-x="1428" 
d="M1260 1393q-31 -13 -42.5 -48t-11.5 -112v-1016q0 -77 11.5 -112t42 -48t99.5 -16v-41q-103 6 -323 6q-199 0 -309 -6v41q68 3 99 16t42.5 48t11.5 112v471h-149q-61 0 -97.5 -35.5t-56.5 -95.5t-37 -160l-37 -204q-21 -122 -89.5 -172t-184.5 -50q-88 0 -151.5 28
t-115.5 91l28 25q21 -25 39.5 -36t44.5 -11q38 0 58 32t37 115l42 211q17 86 64 139.5t126 83t201 45.5l11 2q-245 26 -349.5 130t-104.5 253q0 178 142.5 273.5t425.5 95.5l91 -1q189 -3 230 -3q208 0 311 6v-41q-68 -3 -99 -16zM523.5 892.5q24.5 -75.5 89 -119.5
t179.5 -44h88v504q0 74 -10 110.5t-36.5 51t-80.5 14.5q-135 0 -194.5 -85t-59.5 -249q0 -107 24.5 -182.5z" />
    <glyph glyph-name="uni042C" unicode="&#x42c;" horiz-adv-x="1311" 
d="M1121.5 749.5q140.5 -113.5 140.5 -299.5q0 -125 -61 -226t-192 -162t-331 -61q-20 0 -96 2q-171 3 -205 3q-205 0 -309 -6v41q68 3 99 16t42.5 48t11.5 112v1016q0 77 -11.5 112t-42.5 48t-99 16v41q104 -6 323 -6q210 0 326 6v-41q-76 -3 -110.5 -16t-47 -48
t-12.5 -112v-371l121 1q313 0 453.5 -113.5zM866 137q56 96 56 284q0 194 -64 298t-223 104h-88v-606q0 -74 9 -110.5t34 -51t77 -14.5q143 0 199 96z" />
    <glyph glyph-name="uni042A" unicode="&#x42a;" horiz-adv-x="1620" 
d="M1322.5 804.5q132.5 -58.5 191 -153.5t58.5 -213q0 -121 -61 -219.5t-192 -158t-331 -59.5q-21 0 -97 2q-168 3 -205 3q-204 0 -309 -6v41q69 3 100 16t42.5 48t11.5 112v1186h-70q-150 0 -244 -97.5t-120 -322.5h-47q6 71 6 180q0 155 -14 287q146 -6 496 -6
q305 0 489 6v-41q-76 -3 -110.5 -16t-47 -48t-12.5 -112v-371l121 1q212 0 344.5 -58.5zM1175.5 137q56.5 96 56.5 284q0 193 -64 297.5t-223 104.5h-88v-606q0 -74 9 -110.5t34 -51t77 -14.5q142 0 198.5 96z" />
    <glyph glyph-name="uni042B" unicode="&#x42b;" horiz-adv-x="2057" 
d="M1121.5 749.5q140.5 -113.5 140.5 -299.5q0 -125 -61 -226t-192 -162t-331 -61q-20 0 -96 2q-171 3 -205 3q-205 0 -309 -6v41q68 3 99 16t42.5 48t11.5 112v1016q0 77 -11.5 112t-42.5 48t-99 16v41q104 -6 323 -6q210 0 326 6v-41q-76 -3 -110.5 -16t-47 -48
t-12.5 -112v-371l121 1q313 0 453.5 -113.5zM1887 1393q-31 -13 -42.5 -48t-11.5 -112v-1016q0 -77 11.5 -112t42.5 -48t100 -16v-41q-111 6 -309 6q-219 0 -324 -6v41q69 3 100 16t42.5 48t11.5 112v1016q0 77 -11.5 112t-43 48t-99.5 16v41q105 -6 324 -6q198 0 309 6v-41
q-69 -3 -100 -16zM866 137q56 96 56 284q0 194 -64 298t-223 104h-88v-606q0 -74 9 -110.5t34 -51t77 -14.5q143 0 199 96z" />
    <glyph glyph-name="uni0409" unicode="&#x409;" horiz-adv-x="2014" 
d="M1904.5 214q-57.5 -94 -180 -151.5t-311.5 -62.5h-6h-29q-67 0 -185 5l-114 1q-221 0 -340 -6v41q81 3 117.5 16t50.5 48t14 112v1016q0 74 -13 111.5t-42.5 51t-85.5 13.5h-14q-52 0 -80 -14t-42 -51.5t-20 -110.5q-3 -31 -15 -205q-22 -326 -53.5 -537.5t-116.5 -365.5
t-243 -154q-62 0 -113 23.5t-81 67t-30 99.5q0 52 24.5 92t67 62t94.5 22q68 0 109.5 -34t41.5 -93q0 -72 -44.5 -120.5t-118.5 -68.5q20 -11 50 -11q144 0 221.5 168.5t106.5 405.5t51 616l2 33q2 34 2 46q0 52 -14.5 78.5t-49.5 37.5t-104 14v41q87 -6 211 -6q2 0 92 3
q45 3 88 3q73 0 139 -3q141 -3 154 -3q210 0 318 6v-41q-74 -3 -107.5 -16t-46 -48t-12.5 -112v-410h121q313 0 453.5 -109.5t140.5 -287.5q0 -118 -57.5 -212zM1573 139.5q49 90.5 49 265.5q0 183 -65 280.5t-229 97.5h-81v-566q0 -75 11.5 -109.5t42.5 -48t98 -17.5
q125 7 174 97.5z" />
    <glyph glyph-name="uni040A" unicode="&#x40a;" horiz-adv-x="2176" 
d="M2072 195.5q-59 -86.5 -184.5 -139.5t-318.5 -56h-2h-21q-80 0 -185 6h-103q-208 0 -322 -6v41q69 3 100 16t42.5 48t11.5 112v492h-543v-492q0 -77 11.5 -112t42.5 -48t100 -16v-41q-111 6 -310 6q-219 0 -323 -6v41q69 3 99.5 16t42 48t11.5 112v1016q0 77 -11.5 112
t-42.5 48t-99 16v41q104 -6 323 -6q199 0 310 6v-41q-69 -3 -100 -16t-42.5 -48t-11.5 -112v-483h543v483q0 77 -11.5 112t-42.5 48t-100 16v41q114 -6 322 -6q211 0 311 6v-41q-69 -3 -100 -16t-42.5 -48t-11.5 -112v-479h121q313 0 454 -100.5t141 -263.5
q0 -108 -59 -194.5zM1740.5 131q50.5 84 50.5 242q0 109 -27.5 183.5t-95 116t-184.5 41.5h-69v-497q0 -75 11 -110t41 -48.5t95 -17.5q128 6 178.5 90z" />
    <glyph glyph-name="uni0405" unicode="&#x405;" horiz-adv-x="1196" 
d="M112 0zM751 1455.5q64 -20.5 128 -58.5q48 -29 69 -29q19 0 29 21t17 69h47q-11 -127 -11 -467h-47q-7 112 -49 211.5t-118.5 162t-180.5 62.5q-66 0 -117 -25.5t-79.5 -72.5t-28.5 -111q0 -72 32 -125t88.5 -98t174.5 -124q34 -21 59 -39q119 -79 189 -139t113.5 -139
t43.5 -184q0 -130 -68 -220t-183 -134.5t-257 -44.5q-114 0 -189 20.5t-140 55.5q-46 29 -70 29q-19 0 -29 -21.5t-16 -68.5h-47q8 128 8 553h47q14 -229 102 -371.5t271 -142.5q73 0 130.5 26t90.5 77.5t33 125.5q0 80 -37.5 144t-101 116.5t-168.5 120.5
q-123 78 -196.5 137.5t-121 141t-47.5 188.5q0 124 63 208t167 125t229 41q107 0 171 -20.5z" />
    <glyph glyph-name="uni0404" unicode="&#x404;" horiz-adv-x="1450" 
d="M1328 0h-47q-6 64 -17.5 92.5t-32.5 28.5q-17 0 -43 -17q-60 -43 -111.5 -70.5t-117.5 -45t-149 -17.5q-217 0 -380.5 88t-253 255.5t-89.5 398.5q0 226 92 400t257 270t376 96q122 0 208 -35t168 -98q22 -18 40 -18q41 0 53 122h47q-8 -121 -8 -422h-48
q-18 83 -34.5 131.5t-44 87t-75.5 78.5q-49 50 -116.5 75.5t-142.5 25.5q-140 0 -231.5 -97t-134 -256.5t-42.5 -351.5q0 -42 1 -63q34 119 98.5 181.5t139.5 62.5q50 0 92 -19t100 -57q54 -34 89.5 -51t76.5 -17q44 0 84.5 29.5t56.5 95.5l33 -10q-17 -106 -53.5 -179.5
t-87 -110t-108.5 -36.5q-51 0 -92.5 19t-95.5 55q-54 35 -91.5 52t-82.5 17q-46 0 -87.5 -24t-67.5 -73q14 -163 62.5 -292t136.5 -204.5t212 -75.5q70 0 138.5 25.5t116.5 73.5q52 40 81 93t44 123t25 180h48q0 -371 8 -516z" />
    <glyph glyph-name="uni042D" unicode="&#x42d;" horiz-adv-x="1445" 
d="M1034.5 1388q155.5 -91 238.5 -260.5t83 -400.5q0 -229 -89 -400t-253 -263.5t-383 -92.5q-121 0 -206 34.5t-171 98.5q-24 18 -41 18q-22 0 -34 -29t-17 -93h-47q8 123 8 442h47q23 -121 55.5 -193t95.5 -124q47 -48 115.5 -73.5t138.5 -25.5q141 0 234.5 95.5
t137.5 254t44 350.5q0 49 -1 73q-34 -115 -97.5 -175.5t-136.5 -60.5q-51 0 -92.5 19t-101.5 57q-52 34 -88 51t-78 17q-44 0 -84 -30t-57 -95l-34 8q18 107 55 180.5t87 110.5t108 37q51 0 92.5 -18.5t96.5 -55.5q53 -35 91 -52t83 -17t86 22.5t67 68.5q-17 256 -104 410.5
t-266 154.5q-78 0 -156.5 -26t-126.5 -75q-49 -41 -78.5 -86.5t-47 -107.5t-28.5 -157h-47q0 321 -9 471h47q6 -64 18 -92.5t34 -28.5q16 0 41 17q182 133 402 133q213 0 368.5 -91z" />
    <glyph glyph-name="uni0406" unicode="&#x406;" horiz-adv-x="770" 
d="M69 0zM601 1393q-31 -13 -42.5 -48t-11.5 -112v-1016q0 -77 11.5 -112t42.5 -48t100 -16v-41q-111 6 -310 6q-219 0 -323 -6v41q69 3 99.5 16t42 48t11.5 112v1016q0 77 -11.5 112t-42.5 48t-99 16v41q104 -6 323 -6q199 0 310 6v-41q-69 -3 -100 -16z" />
    <glyph glyph-name="uni0407" unicode="&#x407;" horiz-adv-x="770" 
d="M0 0zM601 1393q-31 -13 -42.5 -48t-11.5 -112v-1016q0 -77 11.5 -112t42.5 -48t100 -16v-41q-111 6 -310 6q-219 0 -323 -6v41q69 3 99.5 16t42 48t11.5 112v1016q0 77 -11.5 112t-42.5 48t-99 16v41q104 -6 323 -6q199 0 310 6v-41q-69 -3 -100 -16zM222.5 1856.5
q35.5 -21.5 57 -57.5t21.5 -76q0 -42 -21.5 -77t-57 -56t-75.5 -21q-42 0 -77.5 20.5t-56.5 56t-21 77.5q0 40 21 76t56.5 57.5t77.5 21.5q40 0 75.5 -21.5zM713 1856.5q36 -21.5 57.5 -57.5t21.5 -76q0 -42 -21.5 -77t-57.5 -56t-76 -21q-42 0 -77.5 20.5t-56 56
t-20.5 77.5q0 40 21 76t56 57.5t77 21.5q40 0 76 -21.5z" />
    <glyph glyph-name="uni0408" unicode="&#x408;" horiz-adv-x="746" 
d="M0 0zM591 1393q-31 -13 -42.5 -48t-11.5 -112v-750v-107q0 -142 -6.5 -247t-28.5 -180q-28 -96 -98 -171.5t-177.5 -119t-242.5 -43.5q-130 0 -206 38q-101 50 -101 149q0 62 45 100t119 38q71 0 113 -35t42 -100q0 -46 -27 -82t-78 -52q22 -15 74 -15q75 0 129 40.5
t78 106.5q18 52 26.5 111t10.5 140.5t2 242.5v936q0 77 -11.5 112t-42.5 48t-99 16v41q100 -6 311 -6q208 0 322 6v-41q-69 -3 -100 -16z" />
    <glyph glyph-name="uni040B" unicode="&#x40b;" horiz-adv-x="1835" 
d="M1677.5 103.5q12.5 -33.5 43 -46.5t93.5 -15v-42q-152 7 -314 7q-150 0 -302 -7v42q59 2 88.5 15t41 46.5t11.5 102.5v304q0 88 -14.5 137t-58 73.5t-129.5 24.5q-82 0 -159.5 -13t-131.5 -34v-464q0 -86 17 -125t61.5 -53t140.5 -15v-41q-174 6 -390 6q-212 0 -374 -6
v41q96 1 140.5 15t61.5 53t17 125v1169h-45q-99 0 -167.5 -43t-117.5 -142.5t-84 -271.5h-47q6 57 6 156q0 153 -14 348q185 -6 633 -6q446 0 631 6q-15 -190 -15 -348q0 -99 6 -156h-47q-34 172 -83 271.5t-118 142.5t-167 43h-45v-667q67 29 174 52t219 23q190 0 303 -72
q69 -43 96 -109t27 -177v-247q0 -69 12.5 -102.5z" />
    <glyph glyph-name="uni042E" unicode="&#x42e;" horiz-adv-x="2211" 
d="M1800 1391q153 -88 237.5 -255.5t84.5 -398.5q0 -226 -86.5 -400t-241.5 -270t-352 -96q-202 0 -354.5 87t-237.5 253t-86 394h-217v-488q0 -77 11.5 -112t42.5 -48t100 -16v-41q-111 6 -310 6q-220 0 -323 -6v41q69 3 99.5 16t42 48t11.5 112v1016q0 77 -11.5 112
t-42.5 48t-99 16v41q103 -6 323 -6q199 0 310 6v-41q-69 -3 -100 -16t-42.5 -48t-11.5 -112v-487h217q7 217 95.5 383.5t240.5 258t344 91.5q203 0 356 -88zM1625 99.5q75 91.5 116 255t41 374.5q0 213 -46 375t-125 250t-175 88q-99 0 -174.5 -91.5t-116.5 -255t-41 -374.5
q0 -212 46 -374.5t125 -250.5t175 -88q100 0 175 91.5z" />
    <glyph glyph-name="uni0402" unicode="&#x402;" horiz-adv-x="1846" 
d="M1553.5 802.5q115.5 -49.5 182 -149.5t66.5 -245q0 -144 -69 -242.5t-184.5 -146.5t-257.5 -48q-88 0 -167 27t-128.5 82.5t-49.5 135.5q0 76 49.5 121t125.5 45q72 0 115 -41t43 -112q0 -68 -41.5 -113t-115.5 -66q20 -15 54 -25.5t69 -10.5q116 0 181 96.5t65 288.5
q0 184 -70 285.5t-242 101.5q-99 0 -192.5 -33t-140.5 -82v-694q-115 29 -298 29q-127 0 -247 -6v41q96 1 140.5 15t61.5 53t17 125v1169h-45q-99 0 -167.5 -43t-117.5 -142.5t-84 -271.5h-47q6 57 6 156q0 153 -14 348q185 -6 633 -6q446 0 631 6q-15 -176 -15 -324
q0 -98 6 -155h-47q-53 221 -140 326.5t-228 105.5h-45v-689q76 61 190 99.5t254 38.5q148 0 263.5 -49.5z" />
    <glyph glyph-name="uni0430" unicode="&#x430;" horiz-adv-x="1284" 
d="M0 0zM1300 41v-41q-96 6 -269 6q-219 0 -323 -6v41q68 3 100.5 20.5t32.5 57.5q0 36 -27 94l-102 233h-430l-24 -55q-58 -132 -58 -211q0 -71 45 -102.5t133 -36.5v-41q-117 6 -235 6q-109 0 -166 -6v41q51 10 92 61.5t88 158.5l433 988q32 -2 47 -2q17 0 47 2l487 -1077
q59 -128 129 -131zM498 936l-198 -449h394z" />
    <glyph glyph-name="uni0431" unicode="&#x431;" horiz-adv-x="1301" 
d="M1086 625.5q148 -86.5 148 -257.5q0 -177 -133.5 -272t-400.5 -95l-101 2q-207 3 -254 3q-183 0 -276 -6v41q68 3 99.5 16t43 48t11.5 112v811q0 78 -11.5 112.5t-42 47.5t-100.5 16v41q93 -6 282 -6q70 0 301 3q37 1 75 1q265 0 387 2q-14 -137 -14 -246q0 -80 6 -127
h-47q-21 120 -62 191.5t-103 103t-151 31.5h-92q-46 0 -70 -10t-34.5 -38t-10.5 -85v-353h80q322 0 470 -86.5zM847 121q59 78 59 237q0 148 -65.5 231.5t-223.5 83.5h-81v-456q0 -74 9.5 -110t34.5 -50t76 -14q132 0 191 78z" />
    <glyph glyph-name="uni0432" unicode="&#x432;" horiz-adv-x="1330" 
d="M70 0zM1154 551q107 -86 107 -215q0 -105 -63 -180.5t-185 -115.5t-297 -40l-100 2q-136 4 -268 4q-186 0 -279 -6v41q69 3 100 16t42.5 48t11.5 112v811q0 78 -11.5 113t-42.5 47.5t-100 15.5v41q93 -6 274 -6q39 0 234 3l92 1q246 0 365.5 -72.5t119.5 -207.5
q0 -106 -85.5 -180t-278.5 -115v-4q257 -27 364 -113zM575 1189.5q-22 -14.5 -30.5 -51.5t-8.5 -110v-360h68q130 0 180.5 71.5t50.5 200.5q0 133 -45.5 198.5t-147.5 65.5q-45 0 -67 -14.5zM863.5 122q69.5 75 69.5 222q0 143 -70 216t-225 73h-102v-416q0 -74 8.5 -109
t31 -48t69.5 -13q149 0 218.5 75z" />
    <glyph glyph-name="uni0433" unicode="&#x433;" horiz-adv-x="1129" 
d="M1056 946q0 -102 6 -168h-47q-22 155 -64.5 247t-109.5 132.5t-166 40.5h-21q-47 0 -71.5 -10t-35.5 -38t-11 -86v-835q0 -77 19.5 -115.5t65 -54t134.5 -18.5v-41q-126 6 -362 6q-219 0 -324 -6v41q69 3 100 16t42.5 48t11.5 112v811q0 78 -11.5 112.5t-42 47.5
t-100.5 16v41l87 -2q144 -4 222 -4h37q77 0 189 2q84 2 108 2q244 0 359 2q-15 -162 -15 -299z" />
    <glyph glyph-name="uni0453" unicode="&#x453;" horiz-adv-x="1129" 
d="M70 0zM1056 946q0 -102 6 -168h-47q-22 155 -64.5 247t-109.5 132.5t-166 40.5h-21q-47 0 -71.5 -10t-35.5 -38t-11 -86v-835q0 -77 19.5 -115.5t65 -54t134.5 -18.5v-41q-126 6 -362 6q-219 0 -324 -6v41q69 3 100 16t42.5 48t11.5 112v811q0 78 -11.5 112.5t-42 47.5
t-100.5 16v41l87 -2q144 -4 222 -4h37q77 0 189 2q84 2 108 2q244 0 359 2q-15 -162 -15 -299zM779 1760q33 0 60 -15.5t42 -43.5q12 -24 12 -48q0 -31 -18 -58.5t-50 -45.5q-30 -17 -62 -27t-97 -27q-157 -40 -268 -82l-14 26q101 82 203 193q45 48 71 71.5t58 40.5
q29 16 63 16z" />
    <glyph glyph-name="uni0491" unicode="&#x491;" horiz-adv-x="1071" 
d="M1022 1429q0 -137 14 -235q-110 4 -371 4q-53 0 -79.5 -11t-38 -44t-11.5 -103v-811q0 -77 19.5 -115.5t65 -54t134.5 -18.5v-41q-126 6 -362 6q-219 0 -324 -6v41q69 3 100 16t42.5 48t11.5 112v811q0 78 -11.5 112.5t-42 47.5t-100.5 16v41q151 -6 314 -6q182 0 293 14
q129 17 203 94.5t102 220.5h47q-6 -51 -6 -139z" />
    <glyph glyph-name="uni0434" unicode="&#x434;" horiz-adv-x="1323" 
d="M1278 -225q0 -84 6 -133h-47q-21 133 -66 211.5t-114 112.5t-169 34h-476q-100 0 -169 -34t-113.5 -112.5t-65.5 -211.5h-47q6 49 6 133q0 118 -14 266h57q144 0 221.5 138t107 330.5t50.5 493.5l2 25q2 36 2 48q0 51 -15 77.5t-50 37t-103 13.5v41q67 -5 199 -5
q19 0 59 2q33 3 80 3q39 0 186 -3q60 -3 119 -3q200 0 306 6v-41q-70 -3 -100.5 -16t-42 -47.5t-11.5 -112.5v-811q0 -77 11.5 -113.5t43 -49.5t99.5 -13h62q-14 -148 -14 -266zM754 1143q-9 36 -33.5 48.5t-78.5 12.5h-27q-53 0 -75.5 -13.5t-30.5 -46t-15 -116.5l-12 -141
q-17 -220 -38.5 -371.5t-75.5 -284t-152 -190.5h387q69 0 101.5 13t45.5 49.5t13 113.5v811q0 79 -9 115z" />
    <glyph glyph-name="uni0435" unicode="&#x435;" horiz-adv-x="1248" 
d="M70 0zM1152 0q-133 6 -448 6q-422 0 -635 -6v41q69 3 100 16t42.5 48t11.5 112v811q0 77 -11.5 112t-42.5 48t-100 16v41q213 -6 635 -6q287 0 407 6q-14 -137 -14 -246q0 -80 6 -127h-47q-21 120 -62 191.5t-103 103t-150 31.5h-76q-53 0 -79.5 -9.5t-38 -37.5
t-11.5 -86v-418h96q96 0 143.5 66.5t63.5 154.5h47q-7 -80 -7 -159l1 -82q0 -92 12 -242h-47q-14 97 -64.5 159t-148.5 62h-96v-426q0 -58 11.5 -86t38 -37.5t79.5 -9.5h88q97 0 165 35.5t112.5 116t66.5 215.5h47q-6 -57 -6 -148q0 -118 14 -266z" />
    <glyph glyph-name="uni0451" unicode="&#x451;" horiz-adv-x="1248" 
d="M70 0zM1152 0q-133 6 -448 6q-422 0 -635 -6v41q69 3 100 16t42.5 48t11.5 112v811q0 77 -11.5 112t-42.5 48t-100 16v41q213 -6 635 -6q287 0 407 6q-14 -137 -14 -246q0 -80 6 -127h-47q-21 120 -62 191.5t-103 103t-150 31.5h-76q-53 0 -79.5 -9.5t-38 -37.5
t-11.5 -86v-418h96q96 0 143.5 66.5t63.5 154.5h47q-7 -80 -7 -159l1 -82q0 -92 12 -242h-47q-14 97 -64.5 159t-148.5 62h-96v-426q0 -58 11.5 -86t38 -37.5t79.5 -9.5h88q97 0 165 35.5t112.5 116t66.5 215.5h47q-6 -57 -6 -148q0 -118 14 -266zM451.5 1718.5
q35.5 -21.5 57 -57t21.5 -75.5q0 -42 -21.5 -77t-57 -56t-75.5 -21q-42 0 -77.5 20.5t-56.5 56t-21 77.5q0 40 21 75.5t56.5 57t77.5 21.5q40 0 75.5 -21.5zM942 1718.5q36 -21.5 57.5 -57t21.5 -75.5q0 -42 -21.5 -77t-57.5 -56t-76 -21q-42 0 -77.5 20.5t-56 56
t-20.5 77.5q0 40 21 75.5t56 57t77 21.5q40 0 76 -21.5z" />
    <glyph glyph-name="uni0436" unicode="&#x436;" horiz-adv-x="2064" 
d="M1920 0q-64 -29 -152 -29q-75 0 -128 18.5t-90.5 67.5t-56.5 136l-60 276q-15 59 -36.5 94.5t-62 54.5t-107.5 19h-43v-415q0 -77 11.5 -112t42.5 -48t100 -16v-41q-106 6 -304 6q-216 0 -317 -6v41q69 3 100 16t42.5 48t11.5 112v415h-49q-68 0 -108.5 -18.5
t-62.5 -54.5t-35 -95l-60 -276q-19 -87 -56.5 -136t-91 -67.5t-128.5 -18.5q-85 0 -148 29t-113 90l28 25q22 -25 40 -36t44 -11q22 0 38 12.5t30 44t29 90.5l50 188q33 132 145 190t276 73l-379 372q-75 72 -140.5 111.5t-137.5 56.5v39q72 -6 182 -6q168 0 315 6v-39
q-65 -2 -105 -32.5t-40 -79.5q0 -66 75 -144l109 -119q70 -75 139 -109.5t154 -44.5v356q0 77 -11.5 112t-42.5 48t-100 16v41q101 -6 317 -6q198 0 304 6v-41q-70 -3 -100.5 -16t-42 -47.5t-11.5 -112.5v-356q85 10 153.5 44.5t138.5 109.5l110 119q75 78 75 144
q0 49 -40 79.5t-106 32.5v39q149 -6 316 -6q109 0 182 6v-39q-72 -17 -138 -56.5t-140 -111.5l-376 -369q36 -3 74 -9q139 -22 227 -82.5t119 -174.5l48 -188q15 -58 28.5 -89.5t29.5 -44.5t39 -13q26 0 44 11t39 36l29 -25q-52 -61 -116 -90z" />
    <glyph glyph-name="uni0437" unicode="&#x437;" horiz-adv-x="1133" 
d="M787 1242.5q94 -31.5 147.5 -92.5t53.5 -146q0 -95 -64.5 -165.5t-171 -113.5t-233.5 -59q145 0 269.5 -35t201 -108.5t76.5 -184.5q0 -113 -72.5 -196t-206.5 -127t-316 -44q-205 0 -318 68q-48 28 -74.5 68.5t-26.5 89.5q0 63 42 103.5t114 40.5t117.5 -39.5
t45.5 -104.5q0 -55 -34 -93t-89 -52q20 -18 71.5 -30t107.5 -12q158 0 235.5 86t77.5 232q0 117 -47.5 200.5t-136.5 109.5q-32 9 -70 9q-50 -26 -87 -26q-44 0 -44 34q0 33 45 33q30 0 88 -12q95 34 133.5 106.5t38.5 190.5q0 126 -42.5 186t-137.5 60q-87 0 -151 -46.5
t-100.5 -129.5t-43.5 -193h-47q0 290 -10 410h47q7 -49 16.5 -70t31.5 -21q21 0 66 28q44 25 76 39.5t84 26t122 11.5q122 0 216 -31.5z" />
    <glyph glyph-name="uni0438" unicode="&#x438;" horiz-adv-x="1641" 
d="M1470.5 1188q-30.5 -13 -42 -47.5t-11.5 -112.5v-811q0 -77 11.5 -112t42.5 -48t99 -16v-41q-96 6 -299 6q-209 0 -321 -6v41q69 3 99.5 16t42 48t11.5 112v758l-566 -802q3 -55 16.5 -82t44 -37t92.5 -13v-41q-114 6 -322 6q-201 0 -299 -6v41q69 3 100 16t42.5 48
t11.5 112v811q0 77 -11.5 112t-42.5 48t-100 16v41q98 -6 299 -6q208 0 322 6v-41q-70 -3 -100.5 -16t-42 -47.5t-11.5 -112.5v-778l567 803q-2 65 -14.5 95t-43 41.5t-95.5 14.5v41q113 -6 321 -6q85 0 197 4l102 2v-41q-69 -3 -99.5 -16z" />
    <glyph glyph-name="uni0439" unicode="&#x439;" horiz-adv-x="1641" 
d="M70 0zM1470.5 1188q-30.5 -13 -42 -47.5t-11.5 -112.5v-811q0 -77 11.5 -112t42.5 -48t99 -16v-41q-96 6 -299 6q-209 0 -321 -6v41q69 3 99.5 16t42 48t11.5 112v758l-566 -802q3 -55 16.5 -82t44 -37t92.5 -13v-41q-114 6 -322 6q-201 0 -299 -6v41q69 3 100 16
t42.5 48t11.5 112v811q0 77 -11.5 112t-42.5 48t-100 16v41q98 -6 299 -6q208 0 322 6v-41q-70 -3 -100.5 -16t-42 -47.5t-11.5 -112.5v-778l567 803q-2 65 -14.5 95t-43 41.5t-95.5 14.5v41q113 -6 321 -6q85 0 197 4l102 2v-41q-69 -3 -99.5 -16zM1226.5 1748.5
q37.5 -17.5 58.5 -48.5t21 -70q0 -88 -123 -152q-63 -32 -155.5 -51.5t-204.5 -19.5q-113 0 -206 19.5t-156 51.5q-120 61 -120 152q0 38 20.5 69t57 49t83.5 18q72 0 119 -38.5t47 -99.5q0 -51 -35 -85t-91 -48q54 -25 130.5 -36t150.5 -11q73 0 149 11.5t130 37.5
q-57 13 -90 47t-33 84q0 61 46.5 99.5t117.5 38.5q46 0 83.5 -17.5z" />
    <glyph glyph-name="uni045D" unicode="&#x45d;" horiz-adv-x="1641" 
d="M70 0zM1470.5 1188q-30.5 -13 -42 -47.5t-11.5 -112.5v-811q0 -77 11.5 -112t42.5 -48t99 -16v-41q-96 6 -299 6q-209 0 -321 -6v41q69 3 99.5 16t42 48t11.5 112v758l-566 -802q3 -55 16.5 -82t44 -37t92.5 -13v-41q-114 6 -322 6q-201 0 -299 -6v41q69 3 100 16
t42.5 48t11.5 112v811q0 77 -11.5 112t-42.5 48t-100 16v41q98 -6 299 -6q208 0 322 6v-41q-70 -3 -100.5 -16t-42 -47.5t-11.5 -112.5v-778l567 803q-2 65 -14.5 95t-43 41.5t-95.5 14.5v41q113 -6 321 -6q85 0 197 4l102 2v-41q-69 -3 -99.5 -16zM683 1702q27 -25 70 -71
q111 -118 202 -192l-14 -26q-114 43 -267 82q-65 17 -97 27t-62 27q-33 18 -51 45.5t-18 58.5q0 26 12 48q15 28 42.5 43.5t59.5 15.5q34 0 63 -16q33 -17 60 -42z" />
    <glyph glyph-name="uni043A" unicode="&#x43a;" horiz-adv-x="1450" 
d="M1304.5 -0.5q-63.5 -28.5 -153.5 -28.5q-73 0 -126 18.5t-90.5 67t-56.5 136.5l-53 237q-16 68 -37.5 111t-70 69.5t-132.5 26.5h-49v-420q0 -77 11.5 -112t42.5 -48t100 -16v-41q-106 6 -304 6q-216 0 -317 -6v41q69 3 100 16t42.5 48t11.5 112v811q0 77 -11.5 112
t-42.5 48t-100 16v41q101 -6 317 -6q198 0 304 6v-41q-70 -3 -100.5 -16t-42 -47.5t-11.5 -112.5v-352q86 9 153.5 42.5t138.5 108.5l115 123q72 78 72 144q0 49 -38.5 79.5t-102.5 32.5v39q147 -6 298 -6q127 0 200 6v-39q-73 -17 -139.5 -56t-139.5 -112l-377 -371
q175 -13 293.5 -70t153.5 -194l49 -188q15 -59 29 -90.5t30 -44t38 -12.5q25 0 43 11t40 36l28 -25q-52 -62 -115.5 -90.5z" />
    <glyph glyph-name="uni045C" unicode="&#x45c;" horiz-adv-x="1450" 
d="M70 0zM1304.5 -0.5q-63.5 -28.5 -153.5 -28.5q-73 0 -126 18.5t-90.5 67t-56.5 136.5l-53 237q-16 68 -37.5 111t-70 69.5t-132.5 26.5h-49v-420q0 -77 11.5 -112t42.5 -48t100 -16v-41q-106 6 -304 6q-216 0 -317 -6v41q69 3 100 16t42.5 48t11.5 112v811
q0 77 -11.5 112t-42.5 48t-100 16v41q101 -6 317 -6q198 0 304 6v-41q-70 -3 -100.5 -16t-42 -47.5t-11.5 -112.5v-352q86 9 153.5 42.5t138.5 108.5l115 123q72 78 72 144q0 49 -38.5 79.5t-102.5 32.5v39q147 -6 298 -6q127 0 200 6v-39q-73 -17 -139.5 -56t-139.5 -112
l-377 -371q175 -13 293.5 -70t153.5 -194l49 -188q15 -59 29 -90.5t30 -44t38 -12.5q25 0 43 11t40 36l28 -25q-52 -62 -115.5 -90.5zM940 1760q33 0 60 -15.5t42 -43.5q12 -24 12 -48q0 -31 -18 -58.5t-50 -45.5q-30 -17 -62 -27t-97 -27q-157 -40 -268 -82l-14 26
q101 82 203 193q45 48 71 71.5t58 40.5q29 16 63 16z" />
    <glyph glyph-name="uni043B" unicode="&#x43b;" horiz-adv-x="1426" 
d="M1256.5 1188q-30.5 -13 -42 -47.5t-11.5 -112.5v-811q0 -77 11.5 -112t42 -48t99.5 -16v-41q-102 6 -307 6q-209 0 -313 -6v41q69 3 99.5 16t42 48t11.5 112v811q0 79 -9 115t-33.5 48.5t-78.5 12.5h-26q-53 0 -75.5 -13t-31 -46t-15.5 -117l-12 -153q-21 -283 -51 -463
t-110 -310.5t-230 -130.5q-61 0 -112 23.5t-81.5 67t-30.5 101.5q0 51 24.5 91t67.5 61.5t96 21.5q68 0 108.5 -35t40.5 -98q0 -66 -45.5 -115.5t-117.5 -67.5q22 -11 55 -11q134 0 206 147.5t99 349t47 521.5q2 32 2 45q0 53 -14.5 79.5t-49 37.5t-104.5 14v41
q67 -5 194 -5q27 0 63 2q69 3 107 3q77 0 143 -3q135 -3 159 -3q175 0 282 6v-41q-69 -3 -99.5 -16z" />
    <glyph glyph-name="uni043C" unicode="&#x43c;" horiz-adv-x="1807" 
d="M61 0zM1634.5 1188q-33.5 -13 -46 -48t-12.5 -112v-811q0 -77 12.5 -112t46 -48t107.5 -16v-41q-109 6 -309 6q-236 0 -349 -6v41q74 3 107.5 16t46 48t12.5 112v899l-469 -1126h-32l-476 1124v-840q0 -91 16 -136t60 -66.5t135 -30.5v-41q-90 6 -233 6q-115 0 -178 -6
v41q67 9 98.5 30.5t43 66.5t11.5 136v754q0 77 -12.5 112t-46 48t-107.5 16v41q110 -6 326 -6q107 0 183 6l339 -816l342 810h183q199 0 309 6v-41q-74 -3 -107.5 -16z" />
    <glyph glyph-name="uni043D" unicode="&#x43d;" horiz-adv-x="1600" 
d="M70 0zM1429.5 1188q-30.5 -13 -42 -47.5t-11.5 -112.5v-811q0 -77 11.5 -112t42.5 -48t99 -16v-41q-96 6 -299 6q-208 0 -321 -6v41q69 3 99.5 16t42 48t11.5 112v397h-526v-397q0 -77 11.5 -112t42.5 -48t100 -16v-41q-114 6 -322 6q-201 0 -299 -6v41q69 3 100 16
t42.5 48t11.5 112v811q0 77 -11.5 112t-42.5 48t-100 16v41q98 -6 299 -6q208 0 322 6v-41q-70 -3 -100.5 -16t-42 -47.5t-11.5 -112.5v-373h526v373q0 77 -11.5 112t-42 48t-99.5 16v41q112 -6 321 -6q203 0 299 6v-41q-69 -3 -99.5 -16z" />
    <glyph glyph-name="uni043E" unicode="&#x43e;" horiz-adv-x="1555" 
d="M86 0zM1141 1198.5q156 -75.5 241.5 -219.5t85.5 -344q0 -196 -88 -346.5t-245.5 -234t-358.5 -83.5q-207 0 -363 75.5t-242 219.5t-86 344q0 196 88 347t246 234t359 83q207 0 363 -75.5zM581.5 1158.5q-80.5 -78.5 -124.5 -219t-44 -321.5q0 -182 49.5 -321t134 -214
t187.5 -75q107 0 187.5 78.5t124.5 219t44 321.5q0 182 -49 321t-134 214t-188 75q-107 0 -187.5 -78.5z" />
    <glyph glyph-name="uni043F" unicode="&#x43f;" horiz-adv-x="1600" 
d="M1429.5 1188q-30.5 -13 -42 -47.5t-11.5 -112.5v-811q0 -77 11.5 -112t42.5 -48t99 -16v-41q-96 6 -299 6q-208 0 -321 -6v41q69 3 99.5 16t42 48t11.5 112v811q0 78 -11.5 114t-43 49t-98.5 13h-219q-68 0 -99.5 -13t-43 -49t-11.5 -114v-811q0 -77 11.5 -112t42.5 -48
t100 -16v-41q-114 6 -322 6q-201 0 -299 -6v41q69 3 100 16t42.5 48t11.5 112v811q0 77 -11.5 112t-42.5 48t-100 16v41q98 -6 299 -6q82 0 177 3q228 3 255 3q28 0 253 -3q94 -3 177 -3q203 0 299 6v-41q-69 -3 -99.5 -16z" />
    <glyph glyph-name="uni0440" unicode="&#x440;" horiz-adv-x="1261" 
d="M70 0zM536 217q0 -77 12.5 -112t46 -48t107.5 -16v-41q-121 6 -346 6q-194 0 -287 -6v41q69 3 100 16t42.5 48t11.5 112v811q0 77 -11.5 112t-42.5 48t-100 16v41q93 -6 274 -6q42 0 246 3l101 1q267 0 396.5 -89t129.5 -253q0 -104 -54 -193t-186.5 -146.5t-351.5 -57.5
h-88v-287zM582.5 1189.5q-26.5 -14.5 -36.5 -51.5t-10 -110v-483h68q162 0 223 89.5t61 244.5q0 166 -52 245.5t-173 79.5q-54 0 -80.5 -14.5z" />
    <glyph glyph-name="uni0441" unicode="&#x441;" horiz-adv-x="1346" 
d="M87 0zM886.5 1256.5q61.5 -17.5 105 -45t94.5 -70.5q23 -20 40 -20q42 0 52 124h47q-8 -123 -8 -430h-47q-22 112 -42 162.5t-61 99.5q-57 68 -129 106t-151 38q-113 0 -197 -72.5t-130 -208.5t-46 -322q0 -187 51 -321t138.5 -203t197.5 -69q81 0 158 37.5t131 105.5
q40 51 59 110t35 173h47q0 -323 8 -451h-47q-10 124 -51 124q-16 0 -41 -20q-76 -63 -158 -98t-196 -35q-194 0 -343.5 75.5t-233 220t-83.5 343.5q0 195 86 346t235.5 234.5t335.5 83.5q82 0 143.5 -17.5z" />
    <glyph glyph-name="uni0442" unicode="&#x442;" horiz-adv-x="1329" 
d="M57 0zM1256 967q0 -106 7 -181h-47q-29 155 -69 244t-102.5 128.5t-160.5 39.5h-64v-960q0 -85 16 -124.5t58 -54.5t133 -18v-41q-111 6 -369 6q-259 0 -358 -6v41q91 3 133 18t58 54.5t16 124.5v960h-64q-98 0 -160.5 -39.5t-102.5 -128.5t-68 -244h-47q6 65 6 181
q0 127 -15 278q178 -6 602 -6q432 0 613 6q-15 -166 -15 -278z" />
    <glyph glyph-name="uni0443" unicode="&#x443;" horiz-adv-x="1282" 
d="M1306 1245v-42q-42 -17 -84.5 -68.5t-98.5 -150.5l-357 -618l-114 -198q-56 -96 -102 -139q-64 -58 -170 -58q-69 0 -120 22.5t-78.5 62t-27.5 89.5q0 44 23 80t65.5 56.5t98.5 20.5q75 0 122.5 -34.5t47.5 -97.5q0 -53 -38 -92t-99 -58q9 -7 37 -7q60 0 104.5 37.5
t90.5 119.5l56 99l-524 811q-38 60 -74 90.5t-62 32.5v42q93 -6 274 -6q218 0 324 6v-42q-112 -6 -112 -74q0 -37 35 -92l303 -481l162 282q84 148 84 238q0 120 -154 127v42q138 -6 230 -6q91 0 158 6z" />
    <glyph glyph-name="uni045E" unicode="&#x45e;" horiz-adv-x="1282" 
d="M1306 1245v-42q-42 -17 -84.5 -68.5t-98.5 -150.5l-357 -618l-114 -198q-56 -96 -102 -139q-64 -58 -170 -58q-69 0 -120 22.5t-78.5 62t-27.5 89.5q0 44 23 80t65.5 56.5t98.5 20.5q75 0 122.5 -34.5t47.5 -97.5q0 -53 -38 -92t-99 -58q9 -7 37 -7q60 0 104.5 37.5
t90.5 119.5l56 99l-524 811q-38 60 -74 90.5t-62 32.5v42q93 -6 274 -6q110 0 171 1q-75 19 -131 46q-120 61 -120 152q0 38 20.5 69t57 49t83.5 18q72 0 119 -38.5t47 -99.5q0 -51 -35 -85t-91 -48q54 -25 130.5 -36t150.5 -11q73 0 149 11.5t130 37.5q-57 13 -90 47
t-33 84q0 61 46.5 99.5t117.5 38.5q46 0 83.5 -17.5t58.5 -48.5t21 -70q0 -88 -123 -152q-55 -26 -113 -41q132 -6 223 -6t158 6zM1072 1076q0 120 -154 127v40q-110 -28 -240 -28q-41 0 -78 3v-15q-112 -6 -112 -74q0 -37 35 -92l303 -481l162 282q84 148 84 238z" />
    <glyph glyph-name="uni0444" unicode="&#x444;" horiz-adv-x="1785" 
d="M1663 379q-83 -110 -241.5 -176t-380.5 -83v-46q0 -78 11.5 -112.5t42 -47.5t100.5 -16v-41q-106 6 -303 6q-213 0 -318 -6v41q70 3 100.5 16t42 47.5t11.5 112.5v47q-336 24 -514 154t-178 358q0 139 81.5 243t237 167.5t373.5 80.5v47q0 77 -11.5 112t-42.5 48t-100 17
v41q98 -7 318 -7q204 0 303 7v-41q-70 -4 -100.5 -17t-42 -47.5t-11.5 -112.5v-45q343 -22 524 -146.5t181 -345.5q0 -145 -83 -255zM1326.5 950.5q-92.5 111.5 -285.5 139.5v-936q200 27 289 142t89 331q0 212 -92.5 323.5zM453 306q89 -116 275 -148v932
q-192 -28 -278 -137.5t-86 -313.5q0 -217 89 -333z" />
    <glyph glyph-name="uni0445" unicode="&#x445;" horiz-adv-x="1319" 
d="M17 0zM1264.5 67.5q24.5 -20.5 62.5 -24.5v-43q-178 7 -265 7q-98 0 -305 -6q-7 -1 -20 -1v43q67 0 97.5 7.5t30.5 26.5q0 14 -16 36l-289 404l-164 -204q-69 -85 -69 -150q0 -54 46 -85.5t126 -36.5v-41q-117 6 -305 6q-77 0 -175 -6v41q63 26 135.5 84t122.5 118
l255 313l-389 545q-29 42 -46.5 62t-35.5 29t-45 11v43q175 -7 264 -7q91 0 295 6l31 1v-43q-66 0 -97 -7.5t-31 -26.5q0 -14 15 -35l262 -366l128 159q77 92 77 167q0 48 -34.5 77t-98.5 33v41q117 -6 256 -6q114 0 174 6v-41q-54 -16 -113.5 -61.5t-110.5 -107.5
l-251 -306l418 -584q40 -57 64.5 -77.5z" />
    <glyph glyph-name="uni0447" unicode="&#x447;" horiz-adv-x="1498" 
d="M1327.5 1188q-30.5 -13 -42 -47.5t-11.5 -112.5v-811q0 -77 11.5 -112t42 -48t99.5 -16v-41q-170 6 -324 6q-194 0 -362 -6v45q97 1 141 14t61 50.5t17 119.5v315q-63 -28 -160.5 -48.5t-201.5 -20.5q-192 0 -305 72q-69 44 -96 109.5t-27 177.5v205q0 69 -12.5 102.5
t-43.5 46.5t-94 15v42q154 -7 314 -7q145 0 290 7v-42q-60 -2 -89 -14.5t-40.5 -46.5t-11.5 -103v-263q0 -90 16 -138.5t63.5 -72.5t141.5 -24q70 0 139 11t117 30v446q0 77 -11.5 112t-42 48t-99.5 16v41q104 -6 316 -6q198 0 304 6v-41q-69 -3 -99.5 -16z" />
    <glyph glyph-name="uni0446" unicode="&#x446;" horiz-adv-x="1611" 
d="M1416.5 1188q-30.5 -13 -42 -47.5t-11.5 -112.5v-811q0 -77 12 -113.5t43.5 -49.5t98.5 -13h62q-14 -148 -14 -266q0 -84 6 -133h-47q-21 133 -66 211.5t-114 112.5t-168 34h-375q-27 0 -255 3q-96 3 -178 3q-201 0 -299 -6v41q69 3 100 16t42.5 48t11.5 112v811
q0 77 -11.5 112t-42.5 48t-100 16v41q98 -6 299 -6q208 0 322 6v-41q-70 -3 -100.5 -16t-42 -47.5t-11.5 -112.5v-811q0 -77 11.5 -113.5t43 -49.5t99.5 -13h206q68 0 99.5 13t43 49t11.5 114v811q0 77 -11.5 112t-42.5 48t-100 16v41q114 -6 322 -6q202 0 299 6v-41
q-70 -3 -100.5 -16z" />
    <glyph glyph-name="uni0448" unicode="&#x448;" horiz-adv-x="2212" 
d="M2041.5 1188q-30.5 -13 -42 -47.5t-11.5 -112.5v-811q0 -77 11.5 -112t42 -48t99.5 -16v-41q-97 6 -299 6q-6 0 -213 -3q-88 -3 -162 -3q-73 0 -162 3q-192 3 -187 3q1 0 -197 -3q-93 -3 -174 -3q-74 0 -163 3q-198 3 -204 3q-210 0 -311 -6v41q68 3 99.5 16t43 48
t11.5 112v811q0 77 -11.5 112t-42.5 48t-100 16v41q105 -6 324 -6q176 0 276 6v-41q-60 -3 -86.5 -16t-36.5 -47.5t-10 -112.5v-811q0 -77 12.5 -113.5t47 -49.5t106.5 -13h81q72 0 106 13t46.5 49.5t12.5 113.5v811q0 78 -9.5 112.5t-36.5 47.5t-87 16v41q105 -6 289 -6
q197 0 291 6v-41q-60 -3 -87 -16t-36.5 -47.5t-9.5 -112.5v-811q0 -76 14.5 -112.5t49 -50t102.5 -13.5h80q73 0 107 13t46.5 49.5t12.5 113.5v811q0 78 -9.5 112.5t-36.5 47.5t-87 16v41q103 -6 289 -6q210 0 311 6v-41q-69 -3 -99.5 -16z" />
    <glyph glyph-name="uni0449" unicode="&#x449;" horiz-adv-x="2235" 
d="M2041.5 1188q-30.5 -13 -42 -47.5t-11.5 -112.5v-811q0 -77 11.5 -113.5t43 -49.5t98.5 -13h62q-14 -148 -14 -266q0 -84 6 -133h-47q-21 133 -65.5 211.5t-113.5 112.5t-169 34h-333q-73 0 -162 3q-192 3 -187 3q1 0 -197 -3q-93 -3 -174 -3q-74 0 -163 3q-198 3 -204 3
q-210 0 -311 -6v41q68 3 99.5 16t43 48t11.5 112v811q0 77 -11.5 112t-42.5 48t-100 16v41q105 -6 324 -6q176 0 276 6v-41q-60 -3 -86.5 -16t-36.5 -47.5t-10 -112.5v-811q0 -77 12.5 -113.5t47 -49.5t106.5 -13h81q72 0 106 13t46.5 49.5t12.5 113.5v811q0 78 -9.5 112.5
t-36.5 47.5t-87 16v41q105 -6 289 -6q197 0 291 6v-41q-60 -3 -87 -16t-36.5 -47.5t-9.5 -112.5v-811q0 -76 14.5 -112.5t49 -50t102.5 -13.5h80q73 0 107 13t46.5 49.5t12.5 113.5v811q0 78 -9.5 112.5t-36.5 47.5t-87 16v41q103 -6 289 -6q210 0 311 6v-41
q-69 -3 -99.5 -16z" />
    <glyph glyph-name="uni045F" unicode="&#x45f;" horiz-adv-x="1589" 
d="M1417.5 1188q-30.5 -13 -42 -47.5t-11.5 -112.5v-811q0 -77 11.5 -112t42.5 -48t100 -16v-41q-97 6 -299 6q-64 0 -97 -1q-129 -9 -205.5 -94t-95.5 -269h-47q-19 183 -94.5 268.5t-203.5 94.5q-37 1 -108 1q-201 0 -299 -6v41q69 3 100 16t42.5 48t11.5 112v811
q0 77 -11.5 112t-42.5 48t-100 16v41q98 -6 299 -6q208 0 322 6v-41q-70 -3 -100.5 -16t-42 -47.5t-11.5 -112.5v-811q0 -77 11.5 -113.5t41.5 -49.5t95 -13h213q68 0 99.5 13t43 49t11.5 114v811q0 77 -11.5 112t-42.5 48t-100 16v41q114 -6 322 -6q202 0 299 6v-41
q-70 -3 -100.5 -16z" />
    <glyph glyph-name="uni044C" unicode="&#x44c;" horiz-adv-x="1266" 
d="M1085.5 622.5q130.5 -92.5 130.5 -250.5q0 -181 -132 -275.5t-403 -94.5l-96 1q-201 3 -242 3q-181 0 -274 -6v41q69 3 100 16t42.5 48t11.5 112v811q0 78 -11.5 112.5t-42 47.5t-100.5 16v41q93 -6 287 -6q224 0 346 6v-41q-74 -3 -107.5 -16t-46 -48t-12.5 -112v-311
l96 -1q323 -1 453.5 -93.5zM834 119q54 78 54 237q0 149 -59 234.5t-217 85.5h-76v-459q0 -73 9.5 -110t34 -51.5t75.5 -14.5q125 0 179 78z" />
    <glyph glyph-name="uni044A" unicode="&#x44a;" horiz-adv-x="1564" 
d="M1383.5 622.5q130.5 -92.5 130.5 -250.5q0 -181 -132 -275.5t-403 -94.5l-97 1q-201 3 -241 3q-181 0 -274 -6v41q69 3 99.5 16t42 48t11.5 112v981h-63q-141 0 -228.5 -96.5t-117.5 -315.5h-47q6 68 6 168q0 129 -14 291q205 -6 598 -6q225 0 346 6v-41
q-74 -3 -107.5 -16t-46 -48t-12.5 -112v-311l96 -1q323 -1 453.5 -93.5zM1132 119q54 78 54 237q0 149 -59 234.5t-217 85.5h-76v-459q0 -73 9.5 -110t34 -51.5t75.5 -14.5q125 0 179 78z" />
    <glyph glyph-name="uni044B" unicode="&#x44b;" horiz-adv-x="1941" 
d="M1085.5 622.5q130.5 -92.5 130.5 -250.5q0 -181 -132 -275.5t-403 -94.5l-96 1q-201 3 -242 3q-181 0 -274 -6v41q69 3 100 16t42.5 48t11.5 112v811q0 78 -11.5 112.5t-42 47.5t-100.5 16v41q93 -6 287 -6q224 0 346 6v-41q-74 -3 -107.5 -16t-46 -48t-12.5 -112v-311
l96 -1q323 -1 453.5 -93.5zM1769.5 1188q-30.5 -13 -42 -47.5t-11.5 -112.5v-811q0 -77 11.5 -112t42.5 -48t100 -16v-41q-106 6 -303 6q-217 0 -318 -6v41q69 3 100 16t42.5 48t11.5 112v811q0 77 -11.5 112t-42.5 48t-100 16v41q100 -6 318 -6q196 0 303 6v-41
q-70 -3 -100.5 -16zM834 119q54 78 54 237q0 149 -59 234.5t-217 85.5h-76v-459q0 -73 9.5 -110t34 -51.5t75.5 -14.5q125 0 179 78z" />
    <glyph glyph-name="uni0459" unicode="&#x459;" horiz-adv-x="1953" 
d="M1767 622.5q130 -92.5 130 -250.5q0 -372 -541 -372q-54 0 -94 4q-124 2 -213 2q-209 0 -313 -6v41q69 3 99.5 16t42 48t11.5 112v811q0 79 -9 115t-33.5 48.5t-78.5 12.5h-26q-53 0 -75.5 -13t-31 -46t-15.5 -117l-12 -153q-21 -283 -51 -463t-110 -310.5t-230 -130.5
q-61 0 -112 23.5t-81.5 67t-30.5 101.5q0 51 24.5 91t67.5 61.5t96 21.5q68 0 108.5 -35t40.5 -98q0 -66 -45.5 -115.5t-117.5 -67.5q22 -11 55 -11q134 0 206 147.5t99 349t47 521.5q2 32 2 45q0 53 -14.5 79.5t-49 37.5t-104.5 14v41q67 -5 194 -5q27 0 63 2q69 3 107 3
q77 0 143 -3q135 -3 159 -3q175 0 282 6v-41q-69 -3 -99.5 -16t-42 -47.5t-11.5 -112.5v-312h111q323 -1 453 -93.5zM1516.5 120q53.5 78 53.5 236q0 149 -59.5 234.5t-217.5 85.5h-90v-459q0 -74 10 -108.5t37.5 -48.5t87.5 -18h7q118 0 171.5 78z" />
    <glyph glyph-name="uni045A" unicode="&#x45a;" horiz-adv-x="2086" 
d="M1801.5 636q128.5 -42 180 -114t51.5 -173q0 -347 -530 -347l-107 1q-100 3 -234 3q-183 0 -276 -6v41q69 3 100 16t42.5 48t11.5 112v422h-504v-422q0 -77 11.5 -112t42.5 -48t100 -16v-41q-106 6 -304 6q-216 0 -317 -6v41q69 3 100 16t42.5 48t11.5 112v811
q0 77 -11.5 112t-42.5 48t-100 16v41q100 -6 317 -6q198 0 304 6v-41q-70 -3 -100.5 -16t-42 -47.5t-11.5 -112.5v-348h504v348q0 78 -11.5 112.5t-42 47.5t-100.5 16v41q93 -6 293 -6q218 0 340 6v-41q-74 -3 -107.5 -16t-46 -48t-12.5 -112v-348l96 -1q224 -1 352.5 -43z
M1650.5 115q54.5 74 54.5 223q0 95 -22.5 160.5t-83 103t-170.5 37.5h-76v-422q0 -72 9 -108.5t33.5 -52t72.5 -15.5q128 0 182.5 74z" />
    <glyph glyph-name="uni0454" unicode="&#x454;" horiz-adv-x="1356" 
d="M1239 0h-47q-5 63 -17 93.5t-34 30.5q-16 0 -41 -20q-59 -46 -103.5 -72.5t-108 -43.5t-152.5 -17q-185 0 -333 75.5t-232.5 219t-84.5 339.5q0 198 86 350t235 235.5t334 83.5q85 0 146 -17.5t102.5 -44t96.5 -71.5q22 -19 40 -19q42 0 52 123h47q-8 -109 -8 -381h-47
q-16 72 -39 121t-61 93q-58 68 -131 105.5t-153 37.5q-112 0 -196 -72.5t-130 -207.5t-46 -316l1 -45q33 96 95 147t132 51q43 0 78.5 -16t82.5 -48q46 -30 76 -44t65 -14q42 0 80.5 21t54.5 68l31 -8q-16 -85 -53 -144.5t-86.5 -89.5t-105.5 -30q-44 0 -78.5 16t-79.5 47
q-43 30 -74.5 45t-70.5 15q-41 0 -79.5 -19.5t-63.5 -59.5q14 -158 66.5 -268.5t134 -167t179.5 -56.5q80 0 159 37.5t132 103.5q38 49 59 114t35 171h47q0 -323 8 -451z" />
    <glyph glyph-name="uni044D" unicode="&#x44d;" horiz-adv-x="1356" 
d="M956.5 1194.5q145.5 -79.5 229 -227t83.5 -344.5q0 -198 -84 -345.5t-233 -227t-337 -79.5q-87 0 -149.5 17t-106.5 43.5t-104 72.5q-26 20 -42 20q-21 0 -32.5 -29.5t-17.5 -94.5h-47q8 115 8 401h47q24 -148 94 -235q53 -66 132 -103.5t161 -37.5q108 0 195 69
t137.5 205.5t50.5 331.5q0 35 -1 53q-34 -91 -97 -140t-133 -49q-43 0 -78.5 16t-83.5 47q-48 29 -77.5 42.5t-63.5 13.5q-39 0 -73.5 -21t-48.5 -66l-31 6q16 83 52.5 141t84.5 87.5t101 29.5q43 0 76 -15.5t77 -46.5q44 -30 73.5 -44t68.5 -14q41 0 82 18.5t67 57.5
q-13 146 -59.5 252.5t-120 164t-168.5 57.5q-82 0 -163.5 -39.5t-137.5 -104.5q-37 -43 -62 -104.5t-40 -157.5h-47q0 307 -8 430h47q12 -123 51 -123q18 0 41 19q59 45 102.5 71.5t107 44t150.5 17.5q182 0 327.5 -79.5z" />
    <glyph glyph-name="uni044E" unicode="&#x44e;" horiz-adv-x="2111" 
d="M1724 1198.5q142 -75.5 220 -219.5t78 -344q0 -196 -80.5 -346.5t-224 -234t-326.5 -83.5q-189 0 -331 75.5t-220 219.5t-78 344v4h-226v-397q0 -77 11.5 -112t42.5 -48t100 -16v-41q-106 6 -304 6q-216 0 -317 -6v41q69 3 100 16t42.5 48t11.5 112v811q0 77 -11.5 112
t-42.5 48t-100 16v41q101 -6 317 -6q198 0 304 6v-41q-70 -3 -100.5 -16t-42 -47.5t-11.5 -112.5v-373h227q9 184 92 324.5t222.5 217.5t315.5 77q189 0 331 -75.5zM1555 86.5q67 78.5 103 219t36 321.5q0 182 -41.5 320.5t-112 214t-155.5 75.5q-89 0 -155.5 -78.5
t-103 -219t-36.5 -321.5q0 -182 41.5 -320.5t112 -214t155.5 -75.5q89 0 156 78.5z" />
    <glyph glyph-name="uni044F" unicode="&#x44f;" horiz-adv-x="1372" 
d="M1202 1188q-31 -13 -42.5 -48t-11.5 -112v-811q0 -77 11.5 -112t42.5 -48t100 -16v-41q-94 6 -287 6q-224 0 -346 -6v41q74 3 107.5 16t46 48t12.5 112v358h-108q-86 0 -131.5 -60.5t-68.5 -189.5l-34 -159q-34 -195 -271 -195q-161 0 -251 113l27 26q42 -44 84 -44
q33 0 53 26t33 83l35 160q16 81 62 132t120 78.5t184 41.5l8 1q-221 18 -321.5 106t-100.5 218q0 162 125.5 246.5t408.5 84.5l98 -1q201 -3 240 -3q181 0 275 6v-41q-69 -3 -100 -16zM542 696.5q59 -78.5 217 -78.5h76v410q0 73 -9.5 110t-34 51.5t-75.5 14.5
q-125 0 -179 -72t-54 -218q0 -139 59 -217.5z" />
    <glyph glyph-name="uni0452" unicode="&#x452;" horiz-adv-x="1794" 
d="M1507 652q113 -42 180 -125t67 -202q0 -114 -67.5 -194t-179 -120t-243.5 -40q-87 0 -165.5 27t-128 82.5t-49.5 135.5q0 76 50 121t126 45q71 0 114 -41t43 -112q0 -68 -41 -113t-115 -66q19 -14 53.5 -25t67.5 -11q62 0 113 37t80.5 105.5t29.5 159.5
q0 144 -71.5 228.5t-225.5 84.5q-93 0 -185.5 -32.5t-138.5 -80.5v-535q-109 29 -285 29q-127 0 -247 -6v41q97 1 141 14.5t61 53t17 125.5v960h-63q-98 0 -160.5 -39.5t-102.5 -128.5t-69 -244h-47q6 65 6 181q0 123 -14 278q177 -6 602 -6q431 0 612 6q-14 -155 -14 -278
q0 -116 6 -181h-47q-29 155 -69 244t-102.5 128.5t-160.5 39.5h-64v-640q73 60 186 98t249 38q138 0 251 -42z" />
    <glyph glyph-name="uni0455" unicode="&#x455;" horiz-adv-x="1183" 
d="M111 0zM752 1253q67 -21 126 -55q49 -29 69 -29q19 0 28.5 22t16.5 69h47q-10 -123 -10 -426h-47q-22 184 -118.5 289.5t-251.5 105.5q-67 0 -119 -20.5t-80.5 -57t-28.5 -83.5q0 -56 33.5 -101.5t88.5 -84t158 -100.5l50 -30q123 -70 201 -127t129 -133t51 -173
q0 -112 -65 -190.5t-179.5 -118t-261.5 -39.5q-98 0 -169 21.5t-147 58.5q-50 25 -71 25q-19 0 -29 -21.5t-16 -68.5h-47q8 113 8 499h47q15 -218 118 -342.5t291 -124.5q59 0 111 19.5t84.5 62t32.5 106.5q0 57 -31 102t-89 86t-162 101q-126 72 -210.5 134.5t-137 140.5
t-52.5 172q0 108 61.5 182.5t168 112t241.5 37.5q94 0 161 -21z" />
    <glyph glyph-name="uni0456" unicode="&#x456;" horiz-adv-x="761" 
d="M70 0zM589.5 1188q-30.5 -13 -42 -47.5t-11.5 -112.5v-811q0 -77 11.5 -112t42.5 -48t100 -16v-41q-106 6 -304 6q-216 0 -317 -6v41q69 3 100 16t42.5 48t11.5 112v811q0 77 -11.5 112t-42.5 48t-100 16v41q100 -6 317 -6q198 0 304 6v-41q-70 -3 -100.5 -16z" />
    <glyph glyph-name="uni0457" unicode="&#x457;" horiz-adv-x="761" 
d="M0 0zM589.5 1188q-30.5 -13 -42 -47.5t-11.5 -112.5v-811q0 -77 11.5 -112t42.5 -48t100 -16v-41q-106 6 -304 6q-216 0 -317 -6v41q69 3 100 16t42.5 48t11.5 112v811q0 77 -11.5 112t-42.5 48t-100 16v41q100 -6 317 -6q198 0 304 6v-41q-70 -3 -100.5 -16z
M211.5 1718.5q35.5 -21.5 57 -57t21.5 -75.5q0 -42 -21.5 -77t-57 -56t-75.5 -21q-42 0 -77.5 20.5t-56.5 56t-21 77.5q0 40 21 75.5t56.5 57t77.5 21.5q40 0 75.5 -21.5zM702 1718.5q36 -21.5 57.5 -57t21.5 -75.5q0 -42 -21.5 -77t-57.5 -56t-76 -21q-42 0 -77.5 20.5
t-56 56t-20.5 77.5q0 40 21 75.5t56 57t77 21.5q40 0 76 -21.5z" />
    <glyph glyph-name="uni0458" unicode="&#x458;" horiz-adv-x="733" 
d="M0 0zM577.5 1188q-30.5 -13 -42 -47.5t-11.5 -112.5v-545v-107q0 -142 -6.5 -247t-28.5 -180q-26 -96 -92 -171t-167.5 -118t-229.5 -43q-124 0 -193 36q-83 44 -83 132q0 59 44.5 96t115.5 37q68 0 109 -34.5t41 -95.5q0 -39 -23.5 -74t-68.5 -54q30 -4 55 -4
q106 0 159 107q29 49 42 132t13 239v894q0 77 -11.5 112t-42.5 48t-100 16v41q97 -6 299 -6q208 0 322 6v-41q-70 -3 -100.5 -16z" />
    <glyph glyph-name="uni045B" unicode="&#x45b;" horiz-adv-x="1703" 
d="M1573.5 104.5q12.5 -33.5 43 -46.5t93.5 -15v-42q-147 7 -303 7q-149 0 -301 -7v42q60 2 89 14.5t40.5 46.5t11.5 103v185q0 89 -15 138t-59.5 73t-133.5 24q-121 0 -224 -35v-354q0 -86 11.5 -125.5t42.5 -54t100 -17.5v-41q-96 6 -324 6q-251 0 -350 -6v41q91 3 133 18
t58 54.5t16 124.5v960h-88q-89 0 -149 -36t-98 -118t-60 -221h-47q6 54 6 137q0 134 -15 285q178 -6 603 -6q431 0 612 6q-14 -155 -14 -285q0 -85 6 -137h-47q-22 139 -60.5 221t-98.5 118t-149 36h-88v-566q158 61 324 61q182 0 299 -72q69 -44 96 -109.5t27 -177.5v-127
q0 -69 12.5 -102.5z" />
    <glyph glyph-name="zero" unicode="0" horiz-adv-x="1321" 
d="M958.5 1020.5q126.5 -67.5 197.5 -190t71 -283.5q0 -163 -73 -294t-204.5 -206.5t-301.5 -75.5q-160 0 -287 67.5t-198.5 190.5t-71.5 285t72 292.5t204 206t303 75.5q162 0 288.5 -67.5zM521 987.5q-57 -63.5 -89 -183.5t-32 -283q0 -177 35.5 -292t95.5 -168t135 -53
q74 0 131 64t89 184.5t32 284.5q0 176 -35.5 290t-95.5 167t-135 53q-74 0 -131 -63.5z" />
    <glyph glyph-name="one" unicode="1" horiz-adv-x="785" 
d="M591.5 104.5q14.5 -33.5 46.5 -47.5t87 -14v-43q-8 0 -40 2q-183 6 -243 6q-68 0 -296 -6q-42 -2 -56 -2v43q97 0 144.5 36.5t47.5 131.5v500q0 99 -17.5 145.5t-58 61.5t-124.5 15v45q179 3 293.5 26.5t201.5 77.5v-883q0 -61 14.5 -94.5z" />
    <glyph glyph-name="two" unicode="2" horiz-adv-x="1072" 
d="M812.5 1019.5q91.5 -68.5 91.5 -191.5q0 -84 -48 -156.5t-115.5 -129t-180.5 -136.5q-150 -104 -205 -162h444q56 0 83 8.5t38 27t16 56.5h42q0 -242 8 -346q-46 10 -305 10h-596v40q26 26 102 96q118 107 198 193t139 198t59 234q0 209 -192 209q-85 0 -151.5 -40.5
t-122.5 -119.5l-34 22q152 256 478 256q160 0 251.5 -68.5z" />
    <glyph glyph-name="three" unicode="3" horiz-adv-x="999" 
d="M683.5 1059.5q79.5 -28.5 124.5 -82t45 -125.5q0 -77 -50.5 -145t-144.5 -118t-220 -75l37 1q131 0 233.5 -36.5t160.5 -107t58 -169.5q0 -150 -129 -266.5t-330.5 -180.5t-408.5 -64v40q135 5 265 61t214 161t84 248q0 79 -26 142t-74.5 100t-114.5 42
q-40 -18 -62.5 -25.5t-43.5 -7.5q-37 0 -37 30q0 22 18.5 33t46.5 11q14 0 40 -4l32 -3q158 110 158 274q0 91 -48 136t-134 45q-82 0 -151 -41t-117 -120l-36 19q64 116 165 186t265 70q101 0 180.5 -28.5z" />
    <glyph glyph-name="four" unicode="4" horiz-adv-x="1081" 
d="M812 73v-362h-238v363h-559v43l764 971h33v-803h17q56 0 83 8.5t37.5 27t16.5 56.5h43q0 -218 8 -314q-33 8 -205 10zM574 761l-371 -476h371v476z" />
    <glyph glyph-name="five" unicode="5" horiz-adv-x="941" 
d="M796 793q-44 10 -285 10h-315l-34 -350q122 82 310 82q132 0 222 -42t133.5 -115t43.5 -166q0 -152 -118.5 -269.5t-306.5 -181.5t-386 -64v37q130 1 246 56t188 160t72 249q0 128 -60 197.5t-174 69.5q-56 0 -98 -14.5t-88 -45.5l-27 19l64 641q41 -8 111 -8h337
q60 0 83.5 17t29.5 62h43q0 -228 9 -344z" />
    <glyph glyph-name="six" unicode="6" horiz-adv-x="1150" 
d="M887 848q92 -54 146 -154.5t54 -235.5q0 -151 -69 -261.5t-185.5 -168t-256.5 -57.5q-149 0 -257 68.5t-165.5 200t-57.5 314.5q0 286 128.5 485t315 305t373.5 137l8 -41q-132 -42 -230.5 -107.5t-174 -202t-100.5 -363.5q42 69 114.5 102t154.5 33q110 0 202 -54z
M687.5 56.5q40.5 44.5 65.5 141t25 243.5q0 208 -48.5 305t-126.5 97q-53 0 -108.5 -38t-84.5 -116q-5 -77 -5 -145q0 -192 28 -311t71.5 -170t93.5 -51q49 0 89.5 44.5z" />
    <glyph glyph-name="seven" unicode="7" horiz-adv-x="932" 
d="M829 820q-82 -150 -133.5 -260.5t-89 -252t-37.5 -295.5q0 -8 4 -68q6 -72 6 -97q0 -63 -39 -106.5t-112 -43.5t-110.5 49t-37.5 131q0 127 54.5 258.5t131 245t198.5 274.5q88 117 114 153h-543q-56 0 -83.5 -8.5t-38 -26.5t-16.5 -57h-42q0 248 -8 352q46 -10 305 -10
h578v-43q-30 -67 -101 -195z" />
    <glyph glyph-name="eight" unicode="8" horiz-adv-x="1149" 
d="M732 840q109 -93 175 -158.5t111.5 -148t45.5 -175.5q0 -112 -65 -200t-179.5 -137.5t-258.5 -49.5q-129 0 -237 40.5t-172.5 119.5t-64.5 191q0 250 333 397q-83 71 -139 133t-91 135.5t-35 158.5q0 106 59 181.5t157.5 113.5t216.5 38q117 0 208 -35.5t142.5 -101
t51.5 -150.5q0 -101 -71 -179.5t-211 -152.5q16 -14 24 -20zM464.5 1395.5q-39.5 -46.5 -39.5 -123.5q0 -71 33 -136.5t86.5 -123t132.5 -125.5q39 55 57.5 134.5t18.5 153.5q0 125 -48 196t-133 71q-68 0 -107.5 -46.5zM723.5 68.5q55.5 60.5 55.5 160.5q0 87 -41.5 163
t-102.5 136.5t-162 145.5l-21 18q-111 -116 -111 -334q0 -156 55 -253t176 -97q96 0 151.5 60.5z" />
    <glyph glyph-name="nine" unicode="9" horiz-adv-x="1132" 
d="M826 1021.5q108 -66.5 165.5 -194t57.5 -305.5q0 -256 -126.5 -435.5t-311.5 -276t-367 -120.5l-8 40q122 35 215.5 90.5t167 167t103.5 295.5q-43 -64 -113 -94.5t-150 -30.5q-110 0 -201.5 54t-145.5 154.5t-54 235.5q0 151 69 261t185 167.5t256 57.5q150 0 258 -66.5
zM646.5 253.5q54.5 36.5 85.5 110.5q8 83 8 168q0 186 -28 301t-71.5 164.5t-93.5 49.5q-49 0 -90 -44.5t-65.5 -141t-24.5 -243.5q0 -207 48 -304t126 -97q51 0 105.5 36.5z" />
    <glyph glyph-name="braceleft" unicode="{" horiz-adv-x="683" 
d="M550.5 1532q-30.5 -29 -43 -118t-12.5 -286q0 -174 -54 -280t-141.5 -158t-207.5 -78q120 -26 207 -78t141.5 -158.5t54.5 -279.5q0 -204 12.5 -294.5t42.5 -118.5t97 -29v-39q-170 0 -265 42.5t-138 145.5t-43 293q0 197 -13 300.5t-46 148t-97 49.5h-10v37h10
q64 4 97 48t46 147.5t13 301.5q0 182 43 284.5t139 146t264 43.5v-39q-66 -2 -96.5 -31z" />
    <glyph glyph-name="braceright" unicode="}" horiz-adv-x="683" 
d="M35 0zM132.5 1532q30.5 -29 43 -118t12.5 -286q0 -174 54 -280t141.5 -158t207.5 -78q-120 -26 -207 -78t-141.5 -158.5t-54.5 -279.5q0 -204 -12.5 -294.5t-42.5 -118.5t-97 -29v-39q170 0 265 42.5t138 145.5t43 293q0 197 13 300.5t46 148t97 49.5h10v37h-10
q-64 4 -97 48t-46 147.5t-13 301.5q0 182 -43 284.5t-139 146t-264 43.5v-39q66 -2 96.5 -31z" />
    <glyph glyph-name="bracketleft" unicode="[" horiz-adv-x="660" 
d="M465 1542v-1874h117v-39h-412v1952h412v-39h-117z" />
    <glyph glyph-name="bracketright" unicode="]" horiz-adv-x="660" 
d="M77 0zM195 1542v-1874h-117v-39h412v1952h-412v-39h117z" />
    <glyph glyph-name="parenleft" unicode="(" horiz-adv-x="651" 
d="M71 0zM202.5 1216.5q-130.5 -249.5 -130.5 -577.5t130.5 -577.5t381.5 -434.5l30 26q-136 217 -197.5 452t-61.5 534t62 536.5t197 449.5l-30 26q-251 -185 -381.5 -434.5z" />
    <glyph glyph-name="parenright" unicode=")" horiz-adv-x="651" 
d="M448.5 1216.5q130.5 -249.5 130.5 -577.5t-130.5 -577.5t-381.5 -434.5l-30 26q136 217 197.5 452t61.5 534t-62 536.5t-197 449.5l30 26q251 -185 381.5 -434.5z" />
    <glyph glyph-name="endash" horiz-adv-x="1233" 
d="M114 452v204h1004v-204h-1004z" />
    <glyph glyph-name="hyphen" unicode="-" horiz-adv-x="985" 
d="M122 469v170h739v-170h-739z" />
    <glyph glyph-name="asterisk" unicode="*" horiz-adv-x="984" 
d="M881 898q0 -26 -15 -53q-29 -50 -79 -50q-30 0 -66 20q-32 18 -62 49.5t-83 94.5q-39 48 -76 90q18 -55 41 -116q27 -74 39 -116.5t13 -77.5q-1 -57 -30 -83.5t-71 -26.5t-70.5 26.5t-28.5 83.5q0 37 12.5 79t40.5 118q32 88 40 112q-6 -7 -79 -92q-50 -59 -81 -92
t-62 -51q-33 -19 -64 -19q-54 0 -82 51q-16 26 -16 52q0 52 62 88q31 18 71 27.5t123 24.5q72 12 120 23l-119 22q-82 14 -123.5 24.5t-72.5 27.5q-61 36 -61 89q0 28 16 54q29 50 79 50q31 0 65 -20q32 -18 62 -49.5t82 -93.5q41 -50 79 -93q-10 32 -42 117q-28 77 -40 118
t-12 76q0 57 29.5 84t71.5 27q41 0 69.5 -27t28.5 -84q0 -35 -11.5 -76t-38.5 -112q-19 -52 -42 -120q2 3 79 92q49 59 80.5 92t61.5 51q33 19 65 19q55 0 81 -51q16 -26 16 -53q0 -52 -62 -88q-31 -18 -72 -28t-115 -23q-72 -12 -124 -23q53 -11 117 -22
q82 -14 123.5 -24.5t71.5 -27.5q61 -35 61 -90z" />
    <glyph glyph-name="backslash" unicode="\" horiz-adv-x="754" 
d="M63 0zM689 -29l-557 1508h-68l557 -1508h68z" />
    <glyph glyph-name="colon" unicode=":" horiz-adv-x="594" 
d="M122 0zM423 245.5q47 -42.5 47 -116.5q0 -73 -47 -115.5t-128 -42.5q-80 0 -127 42.5t-47 115.5q0 74 47 116.5t127 42.5q81 0 128 -42.5zM423 1045.5q47 -42.5 47 -116.5q0 -73 -47 -115.5t-128 -42.5q-80 0 -127 42.5t-47 115.5q0 74 47 116.5t127 42.5q81 0 128 -42.5
z" />
    <glyph glyph-name="comma" unicode="," horiz-adv-x="555" 
d="M414 216q21 -31 32.5 -76.5t11.5 -94.5q0 -106 -54 -192.5t-160 -135.5l-19 37q58 26 101.5 76.5t53.5 104.5q5 20 5 46q0 22 -4 39q-46 -49 -120 -49q-72 0 -116.5 42t-44.5 116q0 71 47.5 115t120.5 44q98 0 146 -72z" />
    <glyph glyph-name="exclam" unicode="!" horiz-adv-x="591" 
d="M377.5 1578q38.5 -24 61.5 -70t23 -107q0 -72 -14.5 -158t-45.5 -231q-40 -192 -62 -328.5t-27 -282.5h-37q-5 147 -27.5 286t-62.5 325q-31 145 -45.5 231t-14.5 158q0 93 47 147t121 54q45 0 83.5 -24zM422 245.5q47 -42.5 47 -116.5q0 -73 -47 -115.5t-128 -42.5
q-80 0 -127 42.5t-47 115.5q0 74 47 116.5t127 42.5q81 0 128 -42.5z" />
    <glyph glyph-name="numbersign" unicode="#" horiz-adv-x="1270" 
d="M814 547h300l-8 -41h-300l-58 -299h-41l58 299h-342l-58 -299h-41l58 299h-302l8 41h302l66 342h-300l6 41h302l58 303h41l-58 -303h342l58 303h41l-58 -303h300l-6 -41h-302zM497 889l-66 -342h342l66 342h-342z" />
    <glyph glyph-name="period" unicode="." horiz-adv-x="553" 
d="M403 245.5q47 -42.5 47 -116.5q0 -73 -47 -115.5t-128 -42.5q-80 0 -127 42.5t-47 115.5q0 74 47 116.5t127 42.5q81 0 128 -42.5z" />
    <glyph glyph-name="question" unicode="?" horiz-adv-x="1040" 
d="M741 1557.5q111 -44.5 172.5 -128t61.5 -196.5q0 -168 -140 -284t-382 -171v-299h-41v318q110 48 169 108.5t80 130t21 158.5q0 186 -67.5 276.5t-183.5 90.5q-59 0 -106 -13t-71 -40q114 -37 114 -150q0 -65 -45.5 -106.5t-117.5 -41.5q-42 0 -75 19t-51 51.5t-18 71.5
q0 107 117 177q122 73 306 73q146 0 257 -44.5zM563 245.5q47 -42.5 47 -116.5q0 -73 -47 -115.5t-128 -42.5q-80 0 -127 42.5t-47 115.5q0 74 47 116.5t127 42.5q81 0 128 -42.5z" />
    <glyph glyph-name="quotedbl" unicode="&#x22;" horiz-adv-x="757" 
d="M85 958zM634.5 1458q36.5 -37 36.5 -99q0 -50 -11 -91.5t-38 -112.5q-41 -107 -65 -197h-29q-21 76 -62 184q-28 73 -40.5 118t-12.5 97q0 62 36.5 99.5t92.5 38.5q56 0 92.5 -37zM305.5 1458q36.5 -37 36.5 -99q0 -50 -11 -91.5t-38 -112.5q-41 -107 -65 -197h-29
q-21 76 -62 184q-28 73 -40.5 118t-12.5 97q0 62 36.5 99.5t92.5 38.5q56 0 92.5 -37z" />
    <glyph glyph-name="quotesingle" unicode="'" horiz-adv-x="428" 
d="M305.5 1458q36.5 -37 36.5 -99q0 -50 -11 -91.5t-38 -112.5q-41 -107 -65 -197h-29q-21 76 -62 184q-28 73 -40.5 118t-12.5 97q0 62 36.5 99.5t92.5 38.5q56 0 92.5 -37z" />
    <glyph glyph-name="semicolon" unicode=";" horiz-adv-x="607" 
d="M125 0zM438 216q21 -31 32.5 -76.5t11.5 -94.5q0 -106 -54 -192.5t-160 -135.5l-19 37q58 26 101.5 76.5t53.5 104.5q5 20 5 46q0 22 -4 39q-46 -49 -120 -49q-72 0 -116.5 42t-44.5 116q0 71 47.5 115t120.5 44q98 0 146 -72zM431 1045.5q47 -42.5 47 -116.5
q0 -73 -47 -115.5t-128 -42.5q-80 0 -127 42.5t-47 115.5q0 74 47 116.5t127 42.5q81 0 128 -42.5z" />
    <glyph glyph-name="slash" unicode="/" horiz-adv-x="754" 
d="M65 -29l557 1508h68l-557 -1508h-68z" />
    <glyph glyph-name="underscore" unicode="_" horiz-adv-x="1245" 
d="M121 -175zM120 -264.002v179.521h1004v-179.521h-1004z" />
    <glyph glyph-name="CR" unicode="&#xd;" horiz-adv-x="0" 
 />
    <glyph glyph-name="dollar" unicode="$" horiz-adv-x="1176" 
d="M1051 179.5q-49 -81.5 -134 -131t-195 -67.5v-251h-41v246q-48 -5 -88 -5q-37 0 -70 3v-244h-41v249q-65 9 -106.5 24.5t-95.5 42.5q-60 30 -87 30q-19 0 -29 -21.5t-16 -68.5h-47q8 128 8 553h47q13 -165 50 -271.5t104 -166t172 -76.5v601l-6 4q-120 76 -195 138
t-122.5 144.5t-47.5 189.5q0 109 49 187.5t132.5 123t189.5 58.5v249h41v-246q32 2 47 2q60 0 111 -8v252h41v-260q67 -16 147 -63q48 -29 70 -29q18 0 28 21t17 69h47q-10 -135 -10 -467h-48q-20 171 -78.5 279t-172.5 144v-561l32 -21q116 -73 188 -134.5t115 -142
t43 -185.5q0 -109 -49 -190.5zM523 1424v-434q60 -46 158 -110v544q-34 7 -78 7q-38 0 -80 -7zM384 1130.5q26 -47.5 98 -107.5v389q-61 -22 -92.5 -67t-31.5 -106t26 -108.5zM681 25v460q-59 45 -158 113v-578q30 -3 63 -3q50 0 95 8zM862 228q0 41 -11.5 74t-41.5 69
t-87 82v-417q140 44 140 192z" />
    <glyph glyph-name="asciitilde" unicode="~" horiz-adv-x="1368" 
d="M574.5 774q63.5 -23 154.5 -70q84 -45 145.5 -67.5t130.5 -22.5q152 0 209 144l36 -8q-9 -95 -54 -167t-113.5 -111.5t-147.5 -39.5q-75 0 -138.5 23t-154.5 70q-86 44 -146.5 66.5t-129.5 22.5q-152 0 -209 -143l-36 8q9 95 54 167t113.5 111.5t147.5 39.5
q75 0 138.5 -23z" />
    <glyph glyph-name="equal" unicode="=" horiz-adv-x="1300" 
d="M136 840v61h1026v-61h-1026zM136 553v61h1026v-61h-1026z" />
    <glyph glyph-name="greater" unicode="&#x3e;" horiz-adv-x="1233" 
d="M143 262zM982 727l-838 -391l35 -74l997 465l-997 465l-35 -74z" />
    <glyph glyph-name="less" unicode="&#x3c;" horiz-adv-x="1233" 
d="M251 727l838 -391l-35 -74l-997 465l997 465l35 -74z" />
    <glyph glyph-name="percent" unicode="%" horiz-adv-x="1491" 
d="M174 -113l-39 27l1198 1774l39 -27zM574 1519q75 -40 117 -115t42 -179q0 -102 -43 -180t-119 -121t-171 -43q-99 0 -174 39.5t-117 115t-42 178.5q0 101 43.5 179.5t119.5 122t170 43.5q99 0 174 -40zM263 1217q0 -147 37.5 -223t104.5 -76q131 0 131 303
q0 148 -36.5 224.5t-103.5 76.5q-133 0 -133 -305zM1263 609q75 -40 116.5 -115t41.5 -179q0 -101 -43 -179.5t-119 -121.5t-170 -43q-99 0 -174.5 40t-117.5 115t-42 179q0 101 43.5 179t119.5 121.5t171 43.5q99 0 174 -40zM951 307q0 -146 37.5 -222.5t104.5 -76.5
q131 0 131 303q0 149 -36.5 225t-103.5 76q-133 0 -133 -305z" />
    <glyph glyph-name="plus" unicode="+" horiz-adv-x="1175" 
d="M1100 758v-62h-476v-481h-73v481h-477v62h477v483h73v-483h476z" />
    <glyph glyph-name="arrowboth" horiz-adv-x="1382" 
d="M1079.5 677q103.5 -93 250.5 -136q-147 -44 -250.5 -136.5t-173.5 -246.5h-35q85 179 89 366h-539q4 -185 88 -366h-35q-70 154 -173.5 246.5t-250.5 136.5q147 43 250.5 136t173.5 247h35q-85 -182 -88 -367h539q-3 186 -89 367h35q70 -154 173.5 -247z" />
    <glyph glyph-name="arrowdown" horiz-adv-x="1012" 
d="M642 1040q91 88 246 160v-35q-154 -70 -247 -173.5t-136 -250.5q-43 147 -136 250.5t-247 173.5v35q155 -72 245.5 -160t137.5 -211q46 123 137 211zM642 856q91 88 246 160v-35q-141 -64 -230.5 -156t-136.5 -219v-256q185 3 367 88v-35q-154 -70 -247 -173t-136 -250
q-43 147 -136 250t-247 173v35q181 -84 366 -88v258q-47 126 -136 217.5t-230 155.5v35q155 -72 245.5 -160t137.5 -211q46 123 137 211z" />
    <glyph glyph-name="arrowdownleft" horiz-adv-x="1401" 
d="M969 633q133 0 298 -62l-25 -24q-140 53 -267 53q-154 0 -304 -82q82 149 82 303q0 127 -54 269l25 24q62 -165 62 -297q0 -122 -52 -235q116 51 235 51zM840 502q131 0 296 -60l-25 -24q-140 52 -264 52q-132 0 -258 -57l-183 -182q134 -128 322 -198l-24 -25
q-142 54 -269 54q-154 0 -303 -82q82 150 82 304q0 127 -53 267l24 24q71 -186 198 -322l183 185q57 125 57 254q0 124 -53 266l25 25q60 -165 60 -295q0 -123 -52 -237q116 51 237 51z" />
    <glyph glyph-name="arrowdownright" horiz-adv-x="1401" 
d="M264 195zM560 503q124 0 238 -52q-52 114 -52 238q0 129 60 294l25 -24q-53 -142 -53 -266q0 -84 25 -171q9 158 89 377l25 -25q-53 -140 -53 -268q0 -86 23 -162q35 137 113 347l25 -24q-54 -142 -54 -269q0 -130 59 -257v-2l23 -44q-33 18 -44 22l-1 1q-124 59 -258 59
q-128 0 -268 -53l-25 25q210 78 348 113q-81 23 -164 23q-127 0 -267 -53l-24 24q216 81 375 90q-86 25 -170 25q-123 0 -265 -53l-25 25q165 60 295 60z" />
    <glyph glyph-name="arrowleft" horiz-adv-x="1395" 
d="M926.5 404q87.5 -91 159.5 -246h-34q-65 141 -156 229.5t-217 136.5h-258q4 -185 88 -366h-35q-70 154 -173.5 246.5t-250.5 136.5q147 43 250.5 136t173.5 247h35q-85 -182 -88 -367h255q127 47 219 136.5t157 230.5h34q-72 -156 -159.5 -246.5t-210.5 -136.5
q123 -46 210.5 -137zM1111 403.5q88 -90.5 160 -245.5h-35q-70 154 -173.5 246.5t-250.5 136.5q147 43 250.5 136t173.5 247h35q-72 -155 -160 -246t-211 -137q123 -47 211 -137.5z" />
    <glyph glyph-name="arrowright" horiz-adv-x="1395" 
d="M123 158zM468.5 404q-87.5 -91 -159.5 -246h34q65 141 156 229.5t217 136.5h258q-4 -185 -88 -366h35q70 154 173.5 246.5t250.5 136.5q-147 43 -250.5 136t-173.5 247h-35q85 -182 88 -367h-255q-127 47 -219 136.5t-157 230.5h-34q72 -156 159.5 -246.5t210.5 -136.5
q-123 -46 -210.5 -137zM284 403.5q-88 -90.5 -160 -245.5h35q70 154 173.5 246.5t250.5 136.5q-147 43 -250.5 136t-173.5 247h-35q72 -155 160 -246t211 -137q-123 -47 -211 -137.5z" />
    <glyph glyph-name="arrowup" horiz-adv-x="1012" 
d="M521 829v-255q47 -127 136.5 -219t230.5 -156v-35q-155 72 -246 160t-137 211q-47 -123 -137.5 -211t-245.5 -160v35q141 64 230 155.5t136 217.5v257q-185 -3 -366 -88v35q154 70 247 173.5t136 250.5q43 -147 136 -250.5t247 -173.5v-35q-179 85 -367 88zM641 188.5
q93 -103.5 247 -174.5v-34q-156 72 -246.5 159.5t-136.5 210.5q-46 -123 -137 -210.5t-246 -159.5v34q154 71 247 174.5t136 249.5q43 -146 136 -249.5z" />
    <glyph glyph-name="arrowupleft" horiz-adv-x="1401" 
d="M841 591q-124 0 -238 52q52 -114 52 -238q0 -129 -60 -294l-25 24q53 142 53 266q0 84 -25 171q-9 -158 -89 -377l-25 25q53 140 53 268q0 86 -23 162q-35 -137 -113 -347l-25 24q54 142 54 269q0 130 -59 257v2l-23 44q33 -18 44 -22l1 -1q124 -59 258 -59q128 0 268 53
l25 -25q-210 -78 -348 -113q81 -23 164 -23q127 0 267 53l24 -24q-216 -81 -375 -90q86 -25 170 -25q123 0 265 53l25 -25q-165 -60 -295 -60z" />
    <glyph glyph-name="arrowupright" horiz-adv-x="1401" 
d="M264 111zM560 591q124 0 238 52q-52 -114 -52 -238q0 -129 60 -294l25 24q-53 142 -53 266q0 84 25 171q9 -158 89 -377l25 25q-53 140 -53 268q0 86 23 162q35 -137 113 -347l25 24q-54 142 -54 269q0 130 59 257v2l23 44q-33 -18 -44 -22l-1 -1q-124 -59 -258 -59
q-128 0 -268 53l-25 -25q210 -78 348 -113q-81 -23 -164 -23q-127 0 -267 53l-24 -24q216 -81 375 -90q-86 -25 -170 -25q-123 0 -265 53l-25 -25q165 -60 295 -60z" />
    <glyph glyph-name="ampersand" unicode="&#x26;" horiz-adv-x="1838" 
d="M1699.5 953q-106.5 -86 -309.5 -128l-38 -13q92 -41 142 -131t50 -208q0 -142 -88.5 -256.5t-249.5 -180t-369 -65.5q-225 0 -395.5 62t-264 177t-93.5 271q0 139 73.5 234.5t167.5 145t175 69.5q-232 91 -232 258q0 84 57.5 144.5t151 91t199.5 30.5q129 0 213 -42
q53 -27 88 -68.5t35 -97.5q0 -41 -21.5 -72t-57.5 -48t-78 -17q-64 0 -106.5 33t-42.5 94q0 52 36.5 93.5t94.5 53.5q-17 15 -54 25.5t-81 10.5q-73 0 -131 -30t-91.5 -90.5t-33.5 -147.5q0 -118 80 -209q67 16 115 16q36 0 56 -14.5t20 -39.5q0 -20 -16.5 -31.5
t-41.5 -11.5q-52 0 -131 52q-104 -53 -160.5 -131.5t-56.5 -199.5q0 -198 158 -298t439 -100q142 0 271.5 41.5t211 122.5t81.5 193q0 187 -155 260q-73 -21 -121 -34q-128 -37 -127 -37q-113 -25 -184.5 -51t-109 -61.5t-37.5 -85.5q0 -49 33 -86.5t84.5 -58t104.5 -20.5
q23 0 48 5.5t34 15.5q-51 16 -77.5 51t-26.5 83q0 63 46 99t118 36q74 0 116 -37.5t42 -101.5q0 -92 -81 -139t-209 -47q-85 0 -154 29t-110 88.5t-41 145.5q0 153 117 242.5t341 133.5q57 13 55 13q163 40 251 69q159 39 233.5 84.5t74.5 118.5q0 53 -33 95.5t-86.5 66.5
t-111.5 24q-38 0 -58 -10q47 -19 73 -55t26 -75q0 -61 -46 -96t-117 -35q-72 0 -116 36.5t-44 99.5q0 81 69 126.5t187 45.5q96 0 169.5 -34.5t115 -99.5t41.5 -155q0 -151 -106.5 -237z" />
    <glyph glyph-name="asciicircum" unicode="^" horiz-adv-x="1083" 
d="M730 846.5q109 -112.5 236 -182.5l-16 -29q-130 31 -253 78t-197 94q-63 -47 -163.5 -94t-205.5 -78l-16 29q126 69 234.5 181.5t172.5 235.5h37q62 -122 171 -234.5z" />
    <glyph glyph-name="at" unicode="@" horiz-adv-x="1810" 
d="M976 194q0 40 12 90q-54 -121 -126.5 -176t-164.5 -55q-111 0 -174 68t-63 198q0 145 70 300t183.5 257.5t236.5 102.5q64 0 104.5 -33.5t53.5 -88.5l19 93q163 0 259 29l-162 -739q-10 -40 -11 -65v-10q0 -47 33 -47q9 0 26 5q93 27 193 117t169 236t69 331
q0 182 -81 299t-218 171t-310 54q-250 0 -472 -142.5t-356 -381t-134 -510.5q0 -204 79.5 -336t220 -193t326.5 -61q237 0 422 111l15 -27q-80 -56 -193 -88.5t-246 -32.5q-199 0 -348.5 66.5t-233 206t-83.5 350.5q0 273 134.5 522t365 401t501.5 152q189 0 335.5 -59.5
t231 -185.5t84.5 -318q0 -218 -93 -390t-234.5 -267t-278.5 -95q-161 0 -161 141zM925.5 232q56.5 80 102.5 230l64 316q0 53 -24 91t-68 38q-65 0 -130 -87t-106.5 -223.5t-41.5 -274.5q0 -92 21.5 -131t63.5 -39q62 0 118.5 80z" />
    <glyph glyph-name="bar" unicode="|" horiz-adv-x="519" 
d="M168 -399v2156h180v-2156h-180z" />
    <glyph glyph-name="grave" unicode="`" horiz-adv-x="457" 
d="M122 1700q59 0 99 -48q23 -27 38.5 -59t39.5 -94q58 -149 116 -254l-23 -18q-86 79 -218 176q-52 38 -79 59.5t-48 48.5q-32 39 -32 85q0 48 36 78q30 26 71 26z" />
    <glyph glyph-name="acute.case" horiz-adv-x="563" 
d="M411 1928q32 0 59.5 -15.5t42.5 -43.5q11 -21 11 -47q0 -31 -18 -59t-50 -46q-30 -17 -62 -27t-97 -27q-153 -39 -267 -82l-15 25q101 82 204 194q45 48 70.5 71.5t57.5 40.5q29 16 64 16z" />
    <glyph glyph-name="brevecy.case" horiz-adv-x="1047" 
d="M925.5 1918.5q37.5 -17.5 58.5 -48.5t21 -70q0 -89 -123 -151q-63 -32 -155.5 -52t-204.5 -20q-114 0 -206.5 20t-155.5 52q-120 61 -120 151q0 38 20.5 69t57 49t83.5 18q72 0 119 -38.5t47 -98.5q0 -52 -35 -86t-91 -47q55 -25 131.5 -36.5t149.5 -11.5q71 0 148 12
t131 37q-57 14 -90 48t-33 84q0 60 46.5 98.5t117.5 38.5q46 0 83.5 -17.5z" />
    <glyph glyph-name="dieresis.case" horiz-adv-x="774" 
d="M217.5 1856.5q35.5 -21.5 57 -57.5t21.5 -76q0 -42 -21.5 -77t-57 -56t-75.5 -21q-42 0 -77.5 20.5t-56.5 56t-21 77.5q0 40 21 76t56.5 57.5t77.5 21.5q40 0 75.5 -21.5zM708 1856.5q36 -21.5 57.5 -57.5t21.5 -76q0 -42 -21.5 -77t-57.5 -56t-76 -21q-42 0 -77.5 20.5
t-56 56t-20.5 77.5q0 40 21 76t56 57.5t77 21.5q40 0 76 -21.5z" />
    <glyph glyph-name="grave.case" horiz-adv-x="563" 
d="M248.5 1871q26.5 -24 72.5 -73q105 -114 201 -192l-14 -25q-114 43 -267 82q-65 17 -97 27t-62 27q-33 18 -51 45.5t-18 58.5q0 26 12 48q15 28 42.5 43.5t59.5 15.5q34 0 63 -16q32 -17 58.5 -41z" />
    <glyph glyph-name="acute.smcp" horiz-adv-x="563" 
d="M570 1760q33 0 60 -15.5t42 -43.5q12 -24 12 -48q0 -31 -18 -58.5t-50 -45.5q-30 -17 -62 -27t-97 -27q-157 -40 -268 -82l-14 26q101 82 203 193q45 48 71 71.5t58 40.5q29 16 63 16z" />
    <glyph glyph-name="brevecy.smcp" horiz-adv-x="1047" 
d="M925.5 1748.5q37.5 -17.5 58.5 -48.5t21 -70q0 -88 -123 -152q-63 -32 -155.5 -51.5t-204.5 -19.5q-113 0 -206 19.5t-156 51.5q-120 61 -120 152q0 38 20.5 69t57 49t83.5 18q72 0 119 -38.5t47 -99.5q0 -51 -35 -85t-91 -48q54 -25 130.5 -36t150.5 -11q73 0 149 11.5
t130 37.5q-57 13 -90 47t-33 84q0 61 46.5 99.5t117.5 38.5q46 0 83.5 -17.5z" />
    <glyph glyph-name="dieresis.smcp" horiz-adv-x="774" 
d="M217.5 1718.5q35.5 -21.5 57 -57t21.5 -75.5q0 -42 -21.5 -77t-57 -56t-75.5 -21q-42 0 -77.5 20.5t-56.5 56t-21 77.5q0 40 21 75.5t56.5 57t77.5 21.5q40 0 75.5 -21.5zM708 1718.5q36 -21.5 57.5 -57t21.5 -75.5q0 -42 -21.5 -77t-57.5 -56t-76 -21q-42 0 -77.5 20.5
t-56 56t-20.5 77.5q0 40 21 75.5t56 57t77 21.5q40 0 76 -21.5z" />
    <glyph glyph-name="dotaccent.smcp" horiz-adv-x="406" 
d="M326 1702q47 -42 47 -116t-47 -116t-127 -42q-81 0 -127.5 42t-46.5 116t46.5 116t127.5 42q80 0 127 -42z" />
    <glyph glyph-name="grave.smcp" horiz-adv-x="563" 
d="M250 1702q27 -25 70 -71q111 -118 202 -192l-14 -26q-114 43 -267 82q-65 17 -97 27t-62 27q-33 18 -51 45.5t-18 58.5q0 26 12 48q15 28 42.5 43.5t59.5 15.5q34 0 63 -16q33 -17 60 -42z" />
    <glyph glyph-name=".ttfautohint" horiz-adv-x="1229" 
d="M0 0z" />
    </font>
</defs>
</svg>
