<?xml version="1.0" standalone="no"?>
<!DOCTYPE svg PUBLIC "-//W3C//DTD SVG 1.1//EN" "http://www.w3.org/Graphics/SVG/1.1/DTD/svg11.dtd" >
<svg xmlns="http://www.w3.org/2000/svg" xmlns:xlink="http://www.w3.org/1999/xlink" version="1.1">
<metadata>
Created by FontForge 20161116 at Fri Sep 27 14:13:20 2013
 By Jimmy Wärting
Copyright (c) 2010-2012 by Claus Eggers Srensen (es@forthehearts.net), with Reserved Font Name 'Playfair'.
</metadata>
<defs>
<font id="PlayfairDisplaySC-Regular" horiz-adv-x="1550" >
  <font-face 
    font-family="Playfair Display SC"
    font-weight="400"
    font-stretch="normal"
    units-per-em="2048"
    panose-1="0 0 5 0 0 0 0 0 0 0"
    ascent="1638"
    descent="-410"
    x-height="1245"
    cap-height="1450"
    bbox="-307 -399 2011 1931"
    underline-thickness="0"
    underline-position="0"
    unicode-range="U+000D-0491"
  />
<missing-glyph horiz-adv-x="1151" 
d="M122 0v1581h905v-1581h-905zM196 61h757v1459h-757v-1459z" />
    <glyph glyph-name=".notdef" horiz-adv-x="1151" 
d="M122 0v1581h905v-1581h-905zM196 61h757v1459h-757v-1459z" />
    <glyph glyph-name="space" unicode=" " horiz-adv-x="510" 
 />
    <glyph glyph-name="A" unicode="A" horiz-adv-x="1290" 
d="M1303 41v-41q-84 6 -220 6q-175 0 -262 -6v41q78 3 111.5 19t33.5 57q0 35 -24 96l-126 336h-494l-84 -217q-41 -104 -41 -168q0 -65 43.5 -93t134.5 -30v-41q-117 6 -236 6q-92 0 -153 -6v41q102 23 161 178l482 1241h33l499 -1288q50 -127 142 -131zM572 1201
l-235 -611h464z" />
    <glyph glyph-name="Aacute" horiz-adv-x="1290" 
d="M0 0zM1303 41v-41q-84 6 -220 6q-175 0 -262 -6v41q78 3 111.5 19t33.5 57q0 35 -24 96l-126 336h-494l-84 -217q-41 -104 -41 -168q0 -65 43.5 -93t134.5 -30v-41q-117 6 -236 6q-92 0 -153 -6v41q102 23 161 178l482 1241h33l499 -1288q50 -127 142 -131zM572 1201
l-235 -611h464zM913 1916q40 0 63 -34q11 -19 11 -38q0 -45 -54 -81q-45 -27 -146 -65q-160 -64 -266 -117l-14 27q91 69 218 184q85 78 126 104q31 20 62 20z" />
    <glyph glyph-name="B" unicode="B" horiz-adv-x="1276" 
d="M1087 636.5q96 -99.5 96 -239.5q0 -116 -59.5 -206t-170.5 -140.5t-262 -50.5l-94 2q-132 4 -258 4q-168 0 -254 -6v41q74 3 107.5 16t46 48t12.5 112v1016q0 77 -12.5 112t-46 48t-107.5 16v41q85 -6 250 -6q36 0 222 3l87 1q140 0 237 -40.5t146 -113t49 -168.5
q0 -118 -74.5 -212t-236.5 -144v-4q226 -30 322 -129.5zM497 1394.5q-32 -14.5 -44 -51.5t-12 -110v-463h138q167 0 234 91t67 243q0 154 -68 229.5t-219 75.5q-64 0 -96 -14.5zM978 406q0 161 -87.5 245t-277.5 84h-172v-518q0 -74 12 -109t44 -48t98 -13q383 0 383 359z
" />
    <glyph glyph-name="C" unicode="C" horiz-adv-x="1409" 
d="M967.5 1444q86.5 -35 168.5 -98q22 -18 40 -18q42 0 52 122h47q-8 -133 -8 -471h-47q-15 92 -27.5 143t-29.5 86.5t-46 73.5q-62 80 -157 120t-205 40q-133 0 -233 -88t-155 -251t-55 -382q0 -223 60 -383t165 -243t238 -83q102 0 199 39t151 117q42 56 60 121.5
t35 202.5h47q0 -353 8 -492h-47q-5 64 -16.5 92.5t-33.5 28.5q-16 0 -42 -17q-61 -43 -112.5 -70.5t-117.5 -45t-149 -17.5q-195 0 -341.5 88t-227 255.5t-80.5 398.5q0 226 83 400t231 270t337 96q122 0 208.5 -35z" />
    <glyph glyph-name="D" unicode="D" horiz-adv-x="1481" 
d="M1186.5 1269q180.5 -181 180.5 -528q0 -223 -87.5 -390.5t-254.5 -259t-399 -91.5q-48 0 -120 3q-171 3 -167 3q-168 0 -254 -6v41q74 3 107.5 16t46 48t12.5 112v1016q0 77 -12.5 112t-46 48t-107.5 16v41q110 -7 200 -7l50 1l84 2q160 4 225 4q362 0 542.5 -181z
M497 1398.5q-32 -14.5 -44 -51.5t-12 -110v-1024q0 -74 12 -110.5t44.5 -51t97.5 -14.5q218 0 342 79t174.5 230.5t50.5 386.5q0 236 -55 384.5t-179.5 222t-334.5 73.5q-64 0 -96 -14.5z" />
    <glyph glyph-name="E" unicode="E" horiz-adv-x="1247" 
d="M1148 0q-139 6 -469 6q-393 0 -594 -6v41q74 3 107.5 16t46 48t12.5 112v1016q0 77 -12.5 112t-46 48t-107.5 16v41q201 -6 594 -6q301 0 428 6q-14 -134 -14 -242q0 -80 6 -127h-47q-15 133 -37.5 198t-76 94.5t-161.5 29.5h-170q-74 0 -107.5 -12t-46 -46.5
t-12.5 -111.5v-483h136q72 0 110.5 34t52 80t22.5 116q1 18 5 40h47q-7 -101 -7 -193l1 -98q0 -104 12 -291h-47l-3 29q-9 81 -23 129t-53.5 80.5t-116.5 32.5h-136v-492q0 -77 12.5 -111.5t46 -46.5t107.5 -12h150q128 0 194.5 34t96 109t45.5 220h47q-6 -55 -6 -148
q0 -116 14 -262z" />
    <glyph glyph-name="F" unicode="F" horiz-adv-x="1165" 
d="M1093 1188q0 -103 6 -168h-47q-16 159 -41 235.5t-86.5 112t-188.5 35.5h-129q-74 0 -107.5 -12t-46 -46.5t-12.5 -111.5v-504h150q72 0 110.5 34t52 80t22.5 116q1 18 5 40h47q-7 -100 -7 -193l1 -97q0 -108 13 -291h-48l-3 28q-9 81 -23 129t-53.5 80.5t-116.5 32.5
h-150v-471q0 -77 16 -112t58 -48t133 -16v-41q-106 6 -301 6q-176 0 -262 -6v41q74 3 107.5 16t46 48t12.5 112v1016q0 77 -12.5 112t-46 48t-107.5 16v41q201 -6 594 -6q301 0 428 6q-14 -146 -14 -262z" />
    <glyph glyph-name="G" unicode="G" horiz-adv-x="1440" 
d="M916.5 1461.5q64.5 -17.5 112 -44.5t109.5 -71q26 -21 41 -21q39 0 51 125h47q-8 -133 -8 -471h-47q-18 110 -39 180.5t-64 122.5q-60 74 -155 117t-199 43q-135 0 -237 -88t-158 -250.5t-56 -380.5q0 -246 52.5 -403t160 -232.5t275.5 -75.5q123 0 213 64q37 25 48 48
t11 64v197q0 85 -16 124.5t-58 54t-133 18.5v41q101 -7 289 -7q144 0 213 7v-41q-48 -4 -68.5 -16.5t-28 -46.5t-7.5 -113v-406h-41q-2 42 -17 79.5t-39 37.5q-13 0 -25 -6.5t-42 -28.5q-72 -55 -148.5 -83t-171.5 -28q-210 0 -361 87t-230.5 251t-79.5 391
q0 235 84.5 411.5t234.5 272t340 95.5q83 0 147.5 -17.5z" />
    <glyph glyph-name="H" unicode="H" 
d="M1355.5 1393q-33.5 -13 -46 -48t-12.5 -112v-1016q0 -77 12.5 -112t46 -48t107.5 -16v-41q-85 6 -262 6q-164 0 -260 -6v41q74 3 107.5 16t46 48t12.5 112v492h-666v-492q0 -77 12.5 -112t46 -48t107.5 -16v-41q-94 6 -260 6q-176 0 -262 -6v41q74 3 107.5 16t46 48
t12.5 112v1016q0 77 -12.5 112t-46 48t-107.5 16v41q85 -6 262 -6q166 0 260 6v-41q-74 -3 -107.5 -16t-46 -48t-12.5 -112v-483h666v483q0 77 -12.5 112t-46 48t-107.5 16v41q96 -6 260 -6q176 0 262 6v-41q-74 -3 -107.5 -16z" />
    <glyph glyph-name="I" unicode="I" horiz-adv-x="694" 
d="M499.5 1393q-33.5 -13 -46 -48t-12.5 -112v-1016q0 -77 12.5 -112t46 -48t107.5 -16v-41q-94 6 -260 6q-176 0 -262 -6v41q74 3 107.5 16t46 48t12.5 112v1016q0 77 -12.5 112t-46 48t-107.5 16v41q85 -6 262 -6q166 0 260 6v-41q-74 -3 -107.5 -16z" />
    <glyph glyph-name="J" unicode="J" horiz-adv-x="668" 
d="M488.5 1393q-33.5 -13 -46 -48t-12.5 -112v-750q0 -174 -6.5 -308.5t-28.5 -225.5q-23 -96 -81 -171.5t-147.5 -119t-203.5 -43.5q-100 0 -172 37q-98 51 -98 141q0 48 30.5 78.5t77.5 30.5q49 0 81 -30t32 -81q0 -43 -23 -69.5t-63 -34.5q18 -18 56.5 -25.5t74.5 -7.5
q89 0 153.5 46t92.5 128q21 64 28 159.5t7 309.5v936q0 77 -12.5 112t-46 48t-107.5 16v41q85 -6 262 -6q164 0 260 6v-41q-74 -3 -107.5 -16z" />
    <glyph glyph-name="K" unicode="K" horiz-adv-x="1341" 
d="M1234 85q42 -29 104 -44v-41q-97 6 -245 6q-111 0 -211 -6v41q48 2 71 12t23 31q0 19 -21 49l-299 451q-41 63 -71.5 93t-61.5 41.5t-82 14.5v-516q0 -77 12.5 -112t46 -48t107.5 -16v-41q-94 6 -260 6q-176 0 -262 -6v41q74 3 107.5 16t46 48t12.5 112v1016
q0 77 -12.5 112t-46 48t-107.5 16v41q85 -6 262 -6q166 0 260 6v-41q-74 -3 -107.5 -16t-46 -48t-12.5 -112v-459q148 5 234 115l196 250q105 133 105 196q0 71 -127 74v41q117 -6 235 -6q114 0 175 6v-41q-68 -10 -127.5 -44t-114.5 -105l-334 -428l475 -666q34 -52 76 -81
z" />
    <glyph glyph-name="L" unicode="L" horiz-adv-x="1204" 
d="M499.5 1393q-33.5 -13 -46 -48t-12.5 -112v-1016q0 -77 12.5 -111.5t46 -46.5t107.5 -12h150q128 0 194.5 36t96 115t45.5 232h47q-6 -64 -6 -168q0 -116 14 -262q-139 6 -469 6q-393 0 -594 -6v41q74 3 107.5 16t46 48t12.5 112v1016q0 77 -12.5 112t-46 48t-107.5 16
v41q85 -6 262 -6q166 0 260 6v-41q-74 -3 -107.5 -16z" />
    <glyph glyph-name="M" unicode="M" horiz-adv-x="1784" 
d="M1589.5 1393q-33.5 -13 -46 -48t-12.5 -112v-1016q0 -77 12.5 -112t46 -48t107.5 -16v-41q-96 6 -260 6q-176 0 -262 -6v41q74 3 107 16t45.5 48t12.5 112v1096l-493 -1323h-33l-516 1329v-1081q0 -79 14 -119t52.5 -57.5t119.5 -20.5v-41q-73 6 -209 6q-122 0 -190 -6
v41q71 3 105.5 20.5t47.5 57.5t13 119v995q0 77 -12.5 112t-46 48t-107.5 16v41q67 -6 190 -6q108 0 175 6l450 -1188l440 1182h97q164 0 260 6v-41q-74 -3 -107.5 -16z" />
    <glyph glyph-name="N" unicode="N" horiz-adv-x="1446" 
d="M1265.5 1388.5q-34.5 -17.5 -47.5 -57.5t-13 -119v-1222h-47l-860 1329v-1081q0 -79 14 -119t52.5 -57.5t119.5 -20.5v-41q-73 6 -209 6q-122 0 -190 -6v41q71 3 105.5 20.5t47.5 57.5t13 119v995q0 77 -12.5 112t-46 48t-107.5 16v41q67 -6 190 -6q92 0 160 6l723 -1114
v876q0 79 -13.5 119t-52.5 57.5t-120 20.5v41q73 -6 209 -6q122 0 190 6v-41q-71 -3 -105.5 -20.5z" />
    <glyph glyph-name="O" unicode="O" horiz-adv-x="1518" 
d="M1100.5 1391q146.5 -88 227 -255.5t80.5 -398.5q0 -226 -83 -400t-231 -270t-337 -96q-195 0 -341.5 88t-227 255.5t-80.5 398.5q0 226 83 400t231 270t337 96q195 0 341.5 -88zM520 1350.5q-100 -91.5 -154 -255t-54 -374.5q0 -213 60 -375t163.5 -250t229.5 -88
q131 0 230.5 91.5t153.5 255t54 374.5q0 213 -60 375t-163 250t-229 88q-131 0 -231 -91.5z" />
    <glyph glyph-name="P" unicode="P" horiz-adv-x="1198" 
d="M441 217q0 -77 16 -112t58 -48t133 -16v-41q-106 6 -301 6q-176 0 -262 -6v41q74 3 107.5 16t46 48t12.5 112v1016q0 77 -12.5 112t-46 48t-107.5 16v41q85 -6 250 -6q36 0 222 3l87 1q161 0 272 -50.5t166.5 -141.5t55.5 -212q0 -112 -50 -216t-170.5 -173t-318.5 -69
h-158v-369zM497 1394.5q-32 -14.5 -44 -51.5t-12 -110v-606h138q200 0 277 107t77 288q0 132 -34 217t-108.5 127.5t-197.5 42.5q-64 0 -96 -14.5z" />
    <glyph glyph-name="Q" unicode="Q" horiz-adv-x="1518" 
d="M1433 -293q-102 -92 -277 -92q-67 0 -132.5 15.5t-126 38.5t-152.5 64q-165 72 -248 99q-23 7 -28 8l-21 6q-90 -30 -170 -30q-95 0 -95 41q0 43 111 43q74 0 154 -17q63 17 148 56q44 21 83 36q-173 17 -301.5 109.5t-199 253t-70.5 375.5q0 226 83 400t231 270t337 96
q195 0 341.5 -88t227 -255.5t80.5 -398.5q0 -213 -74 -380t-207 -267t-305 -116v-1q-50 -5 -88.5 -18t-91.5 -36q-72 -31 -123 -46q225 -45 384.5 -71.5t264.5 -26.5q146 0 231 42.5t132 135.5l31 -12q-46 -157 -129 -234zM372 346q60 -162 163.5 -250t229.5 -88
q131 0 230.5 91.5t153.5 255t54 374.5q0 213 -60 375t-163 250t-229 88q-131 0 -231 -91.5t-154 -255t-54 -374.5q0 -213 60 -375z" />
    <glyph glyph-name="R" unicode="R" horiz-adv-x="1327" 
d="M1256 2q-47 -31 -124 -31q-84 0 -138 49t-82 173l-45 204q-24 107 -45.5 164.5t-65 92t-120.5 34.5h-195v-471q0 -77 12.5 -112t46 -48t107.5 -16v-41q-94 6 -260 6q-176 0 -262 -6v41q74 3 107.5 16t46 48t12.5 112v1016q0 77 -12.5 112t-46 48t-107.5 16v41
q86 -6 250 -6q36 0 222 3l87 1q160 0 271 -46.5t167 -127t56 -182.5q0 -80 -38 -161.5t-127 -146t-233 -86.5l25 -4q92 -15 147 -45.5t87.5 -83.5t52.5 -141l51 -209q13 -63 26.5 -98.5t32 -52.5t46.5 -17q34 0 56 17.5t56 60.5l31 -23q-48 -69 -95 -100zM497 1394.5
q-32 -14.5 -44 -51.5t-12 -110v-504h138q138 0 216 44t108 118t30 178q0 168 -80 254t-260 86q-64 0 -96 -14.5z" />
    <glyph glyph-name="S" unicode="S" horiz-adv-x="1106" 
d="M631.5 1462.5q45.5 -10.5 75.5 -26t66 -39.5q46 -29 70 -29q19 0 29 21.5t16 68.5h47q-10 -120 -10 -418h-47q-8 105 -45.5 194t-110 144.5t-180.5 55.5q-72 0 -129 -30t-89 -84t-32 -124q0 -78 35.5 -135t91 -99t156.5 -104l61 -37q129 -81 204 -140.5t120 -138
t45 -182.5q0 -126 -58 -213.5t-156.5 -131.5t-220.5 -44q-98 0 -161 20.5t-119 55.5q-46 29 -70 29q-19 0 -29 -21.5t-16 -68.5h-47q8 112 8 491h47q14 -208 102 -336.5t271 -128.5q70 0 130.5 29t98 90.5t37.5 153.5q0 79 -38.5 141.5t-104.5 114.5t-176 118
q-122 73 -196 131t-121.5 138.5t-47.5 189.5q0 116 52.5 196t140 119.5t192.5 39.5q63 0 108.5 -10.5z" />
    <glyph glyph-name="T" unicode="T" horiz-adv-x="1272" 
d="M1197 1188q0 -103 6 -168h-47q-16 159 -40.5 235.5t-86 112t-188.5 35.5h-111v-1165q0 -85 16 -124.5t58 -54.5t133 -18v-41q-108 6 -301 6q-205 0 -303 -6v41q91 3 133 18t58 54.5t16 124.5v1165h-111q-127 0 -188.5 -35.5t-86 -112t-40.5 -235.5h-47q6 65 6 168
q0 120 -15 262q170 -6 578 -6q405 0 575 6q-14 -146 -14 -262z" />
    <glyph glyph-name="U" unicode="U" horiz-adv-x="1397" 
d="M1234.5 1388.5q-34.5 -17.5 -47 -57.5t-12.5 -119v-616q0 -147 -19.5 -252.5t-64.5 -181.5q-52 -88 -151.5 -139.5t-223.5 -51.5q-225 0 -344 111q-61 57 -93.5 120.5t-45.5 153.5t-13 234v643q0 77 -12.5 112t-46 48t-107.5 16v41q87 -6 262 -6q165 0 261 6v-41
q-74 -3 -107.5 -16t-46 -48t-12.5 -112v-678q0 -164 22 -272t92.5 -174t208.5 -66q217 0 305 139t88 391v639q0 76 -17.5 117t-57 59t-111.5 21v41q74 -6 209 -6q123 0 190 6v-41q-71 -3 -105.5 -20.5z" />
    <glyph glyph-name="V" unicode="V" horiz-adv-x="1290" 
d="M1305 1450v-41q-103 -23 -162 -178l-481 -1241h-17h-16l-500 1288q-50 127 -141 131v41q83 -6 219 -6q176 0 262 6v-41q-78 -3 -111.5 -19t-33.5 -57q0 -34 24 -96l371 -984l334 865q41 106 41 167q0 65 -44 93.5t-135 30.5v41q117 -6 236 -6q92 0 154 6z" />
    <glyph glyph-name="W" unicode="W" horiz-adv-x="1853" 
d="M1858 1450v-41q-114 -25 -162 -178l-387 -1241h-17h-16l-356 1055l-326 -1055h-16h-17l-434 1288q-44 126 -141 131v41q82 -6 219 -6q147 0 221 6v-41q-54 -4 -77 -20t-23 -51q0 -33 22 -101l300 -913l248 793l-54 161q-42 127 -121 131v41q74 -6 199 -6q175 0 262 6v-41
q-53 -2 -81 -7.5t-43.5 -20.5t-15.5 -45q0 -34 21 -99l294 -911l253 792q33 104 33 165q0 68 -41.5 96t-133.5 30v41q117 -6 236 -6q92 0 154 6z" />
    <glyph glyph-name="X" unicode="X" horiz-adv-x="1298" 
d="M1191 83.5q19 -20.5 40 -29.5t52 -11v-43q-5 0 -27 2q-114 6 -149 6q-105 0 -252 -7l-37 -1v43q80 0 113 7t33 26q0 15 -15 37l-350 536l-221 -330q-78 -116 -78 -180q0 -52 46.5 -74t135.5 -24v-41q-116 6 -276 6q-113 0 -174 -6v41q61 9 116.5 55t114.5 133l309 461
l-401 615q-26 41 -45 61.5t-40 29.5t-52 11v43q5 0 27 -2q114 -6 149 -6q137 0 289 8v-43q-137 0 -137 -45q0 -16 18 -45l319 -488l201 301q89 133 89 197q0 43 -39.5 61.5t-119.5 20.5v41q117 -6 236 -6q112 0 174 6v-41q-62 -9 -117.5 -55.5t-113.5 -132.5l-287 -428
l424 -648q26 -41 45 -61.5z" />
    <glyph glyph-name="Y" unicode="Y" horiz-adv-x="1210" 
d="M1204 1450v-41q-41 -9 -80 -51.5t-84 -130.5l-321 -637v-373q0 -77 12.5 -112t46 -48t107.5 -16v-41q-96 6 -260 6q-176 0 -263 -6v41q74 3 107.5 16t46 48t12.5 112v309l-415 766q-38 69 -65.5 92t-53.5 23v43q80 -6 180 -6q199 0 287 6v-43q-144 0 -144 -79
q0 -30 21 -71l341 -653l261 520q56 113 56 176q0 58 -45 82.5t-136 26.5v41q117 -6 236 -6q92 0 153 6z" />
    <glyph glyph-name="Z" unicode="Z" horiz-adv-x="1217" 
d="M278 47h432q128 0 194.5 36t96 115t45.5 232h47q-7 -75 -7 -168q0 -106 15 -262q-152 6 -510 6q-350 0 -506 -6v41l854 1362h-430q-128 0 -194.5 -36t-96 -115t-45.5 -232h-47q6 65 6 168q0 116 -14 262q151 -6 510 -6q348 0 497 6v-41z" />
    <glyph glyph-name="a" unicode="a" horiz-adv-x="1262" 
d="M1268 41v-41q-84 6 -219 6q-176 0 -263 -6v41q77 3 112 19t35 56q0 37 -28 97l-103 233h-500l-69 -153q-34 -79 -34 -131q0 -108 159 -121v-41q-61 6 -186 6t-178 -6v41q54 14 94 62.5t74 127.5l452 1024h33l479 -1083q56 -127 142 -131zM553 1008l-233 -521h464z" />
    <glyph glyph-name="b" unicode="b" horiz-adv-x="1235" 
d="M1050 547.5q92 -89.5 92 -211.5q0 -99 -56.5 -175t-163 -118.5t-251.5 -42.5l-90 2q-124 4 -242 4q-168 0 -254 -6v41q74 3 107.5 16t46 48t12.5 112v811q0 78 -12.5 113t-45.5 47.5t-108 15.5v41q85 -6 250 -6q35 0 209 3l80 1q133 0 225.5 -35.5t139 -98.5t46.5 -146
q0 -99 -69 -177t-222 -118v-4q214 -27 306 -116.5zM489.5 1189.5q-27.5 -14.5 -38 -51.5t-10.5 -110v-360h117q157 0 219 71.5t62 200.5q0 132 -63.5 198t-203.5 66q-55 0 -82.5 -14.5zM849 122q88 75 88 222q0 142 -82 215.5t-262 73.5h-152v-416q0 -74 10.5 -109t38 -48
t84.5 -13q187 0 275 75z" />
    <glyph glyph-name="c" unicode="c" horiz-adv-x="1317" 
d="M844.5 1256.5q55.5 -17.5 98 -45.5t92.5 -70q25 -20 40 -20q42 0 52 124h48q-9 -118 -9 -430h-47q-20 107 -40.5 157.5t-61.5 104.5q-58 76 -137.5 116t-167.5 40q-120 0 -210 -74t-139 -213t-49 -328q0 -192 54.5 -328.5t148 -207t209.5 -70.5q91 0 174 40t139 116
q40 53 59.5 112.5t35.5 170.5h47q0 -323 8 -451h-47q-10 124 -51 124q-16 0 -41 -20q-78 -65 -152.5 -99t-179.5 -34q-183 0 -320 75.5t-212.5 219.5t-75.5 344q0 196 78 347t216.5 234t315.5 83q69 0 124.5 -17.5z" />
    <glyph glyph-name="d" unicode="d" horiz-adv-x="1399" 
d="M1124.5 1090.5q160.5 -154.5 160.5 -451.5q0 -193 -77.5 -337t-225.5 -223t-356 -79q-48 0 -120 3q-171 3 -167 3q-168 0 -254 -6v41q74 3 107.5 16t46 48t12.5 112v811q0 78 -12.5 113t-45.5 47.5t-108 15.5v41q110 -7 200 -7l50 1l84 2q160 4 225 4q320 0 480.5 -154.5
zM497 1193.5q-32 -14.5 -44 -51t-12 -110.5v-819q0 -74 12 -110.5t44.5 -51t97.5 -14.5q186 0 292.5 67t149.5 195.5t43 331.5q0 199 -46.5 325t-153.5 189t-287 63q-64 0 -96 -14.5z" />
    <glyph glyph-name="e" unicode="e" horiz-adv-x="1219" 
d="M1107 0q-133 6 -449 6q-378 0 -573 -6v41q74 3 107.5 16t46 48t12.5 112v811q0 77 -12.5 112t-46 48t-107.5 16v41q195 -6 573 -6q287 0 408 6q-14 -123 -14 -221q0 -80 6 -127h-47q-11 114 -38.5 179t-79 93.5t-136.5 28.5h-150q-74 0 -107.5 -11.5t-46 -46.5
t-12.5 -112v-381h170q65 0 100.5 33.5t47.5 74t22 101.5h47q-7 -80 -7 -152l1 -77q0 -82 13 -230h-48q-8 63 -22.5 107t-51 73t-102.5 29h-170v-389q0 -77 12.5 -111.5t46 -46.5t107.5 -12h150q101 0 161 32.5t91 106t43 203.5h47q-6 -55 -6 -147q0 -108 14 -242z" />
    <glyph glyph-name="f" unicode="f" horiz-adv-x="1128" 
d="M1052 1024q0 -80 6 -127h-47q-11 114 -38.5 179t-79 93.5t-136.5 28.5h-150q-74 0 -107.5 -11.5t-46 -46.5t-12.5 -112v-381h170q65 0 100.5 33.5t47.5 74t22 101.5h47q-7 -80 -7 -152l1 -77q0 -82 13 -230h-48q-8 63 -22.5 107t-51 73t-102.5 29h-170v-389
q0 -77 16 -112t58 -48t133 -16v-41q-106 6 -301 6q-176 0 -262 -6v41q74 3 107.5 16t46 48t12.5 112v811q0 77 -12.5 112t-46 48t-107.5 16v41q195 -6 573 -6q287 0 408 6q-14 -123 -14 -221z" />
    <glyph glyph-name="g" unicode="g" horiz-adv-x="1354" 
d="M859 1256.5q59 -17.5 101 -44.5t96 -71q25 -20 41 -20q40 0 51 124h47q-8 -117 -8 -409h-47q-17 78 -40 137t-63 104q-68 78 -142 119t-179 41q-123 0 -213.5 -75t-139.5 -214t-49 -327q0 -314 115 -461.5t342 -147.5q92 0 158 17q36 9 49.5 26.5t13.5 50.5v177
q0 85 -16 124.5t-58 54t-133 17.5v41q111 -6 289 -6q139 0 213 6v-41q-47 -3 -68 -15.5t-28.5 -47.5t-7.5 -113v-303h-41q-3 49 -31 49q-14 0 -48 -15t-42 -18q-132 -45 -268 -45q-204 0 -348.5 74t-219.5 215t-75 338q0 204 77.5 357.5t216 236t316.5 82.5q80 0 139 -17.5z
" />
    <glyph glyph-name="h" unicode="h" horiz-adv-x="1509" 
d="M1314.5 1188q-33.5 -13 -46 -48t-12.5 -112v-811q0 -77 12.5 -112t46 -48t107.5 -16v-41q-85 6 -262 6q-164 0 -260 -6v41q74 3 107.5 16t46 48t12.5 112v408h-625v-408q0 -77 12.5 -112t46 -48t107.5 -16v-41q-94 6 -260 6q-176 0 -262 -6v41q74 3 107.5 16t46 48
t12.5 112v811q0 77 -12.5 112t-46 48t-107.5 16v41q85 -6 262 -6q166 0 260 6v-41q-74 -3 -107.5 -16t-46 -48t-12.5 -112v-362h625v362q0 77 -12.5 112t-46 48t-107.5 16v41q96 -6 260 -6q177 0 262 6v-41q-74 -3 -107.5 -16z" />
    <glyph glyph-name="i" unicode="i" horiz-adv-x="694" 
d="M499.5 1188q-33.5 -13 -46 -48t-12.5 -112v-811q0 -77 12.5 -112t46 -48t107.5 -16v-41q-94 6 -260 6q-176 0 -262 -6v41q74 3 107.5 16t46 48t12.5 112v811q0 77 -12.5 112t-46 48t-107.5 16v41q85 -6 262 -6q166 0 260 6v-41q-74 -3 -107.5 -16z" />
    <glyph glyph-name="i.loclTRK" horiz-adv-x="694" 
d="M86 0zM499.5 1188q-33.5 -13 -46 -48t-12.5 -112v-811q0 -77 12.5 -112t46 -48t107.5 -16v-41q-94 6 -260 6q-176 0 -262 -6v41q74 3 107.5 16t46 48t12.5 112v811q0 77 -12.5 112t-46 48t-107.5 16v41q85 -6 262 -6q166 0 260 6v-41q-74 -3 -107.5 -16zM412 1694.5
q30 -17.5 48 -48t18 -65.5t-18 -65.5t-48 -48t-65 -17.5t-65.5 17.5t-48 48t-17.5 65.5t17.5 65.5t48 48t65.5 17.5t65 -17.5z" />
    <glyph glyph-name="j" unicode="j" horiz-adv-x="659" 
d="M484.5 1188q-33.5 -13 -46 -48t-12.5 -112v-545q0 -379 -35 -534q-34 -149 -134.5 -239.5t-256.5 -90.5q-86 0 -137 33q-56 34 -56 98q0 41 28.5 69.5t70.5 28.5q40 0 70 -28.5t30 -69.5q0 -26 -15 -51t-38 -39q24 -4 55 -4q140 0 193 172q20 66 27.5 163.5t7.5 305.5
v731q0 77 -12.5 112t-46 48t-107.5 16v41q85 -6 262 -6q164 0 260 6v-41q-74 -3 -107.5 -16z" />
    <glyph glyph-name="k" unicode="k" horiz-adv-x="1339" 
d="M1318 41v-41q-99 6 -229 6q-140 0 -261 -6v41q67 2 95 11.5t28 28.5q0 18 -26 52l-273 379q-43 59 -87 83.5t-124 27.5v-406q0 -77 12.5 -112t46 -48t107.5 -16v-41q-94 6 -260 6q-176 0 -262 -6v41q74 3 107.5 16t46 48t12.5 112v811q0 77 -12.5 112t-46 48t-107.5 16
v41q85 -6 262 -6q166 0 260 6v-41q-74 -3 -107.5 -16t-46 -48t-12.5 -112v-371q73 5 135 34t140 104l244 249q53 50 53 92q0 31 -30.5 50t-90.5 20v39q111 -6 242 -6q87 0 145 6v-39q-50 -9 -86 -24t-72.5 -43t-91.5 -80l-323 -323l452 -570q71 -90 160 -125z" />
    <glyph glyph-name="l" unicode="l" horiz-adv-x="1174" 
d="M499.5 1188q-33.5 -13 -46 -48t-12.5 -112v-811q0 -77 12.5 -111.5t46 -46.5t107.5 -12h129q142 0 220.5 83.5t95.5 279.5h47q-6 -64 -6 -168q0 -108 14 -242q-133 6 -449 6q-378 0 -573 -6v41q74 3 107.5 16t46 48t12.5 112v811q0 77 -12.5 112t-46 48t-107.5 16v41
q85 -6 262 -6q166 0 260 6v-41q-74 -3 -107.5 -16z" />
    <glyph glyph-name="m" unicode="m" horiz-adv-x="1743" 
d="M1548.5 1188q-33.5 -13 -46 -48t-12.5 -112v-811q0 -77 12.5 -112t46 -48t107.5 -16v-41q-96 6 -260 6q-176 0 -262 -6v41q74 3 107 16t45.5 48t12.5 112v899l-493 -1126h-33l-475 1124v-876q0 -79 14 -119t52.5 -57.5t119.5 -20.5v-41q-73 6 -209 6q-122 0 -190 -6v41
q71 3 105.5 20.5t47.5 57.5t13 119v790q0 77 -12.5 112t-46 48t-107.5 16v41q67 -6 190 -6q97 0 175 6l410 -998l439 992h97q164 0 260 6v-41q-74 -3 -107.5 -16z" />
    <glyph glyph-name="n" unicode="n" horiz-adv-x="1403" 
d="M1224.5 1183.5q-34.5 -17.5 -47.5 -57.5t-13 -118v-1018h-47l-819 1134v-886q0 -79 14 -119t52.5 -57.5t119.5 -20.5v-41q-73 6 -209 6q-122 0 -190 -6v41q71 3 105.5 20.5t47.5 57.5t13 119v790q0 77 -12.5 112t-46 48t-107.5 16v41q67 -6 190 -6q113 0 189 6l653 -909
v672q0 79 -13.5 118.5t-52.5 57t-120 20.5v41q73 -6 209 -6q123 0 190 6v-41q-71 -3 -105.5 -20.5z" />
    <glyph glyph-name="o" unicode="o" horiz-adv-x="1477" 
d="M1069 1198.5q142 -75.5 220 -219.5t78 -344q0 -196 -80.5 -346.5t-224 -234t-326.5 -83.5q-189 0 -330.5 75.5t-219.5 219.5t-78 344q0 196 80.5 347t223.5 234t326 83q189 0 331 -75.5zM510 1158.5q-95 -78.5 -146.5 -219t-51.5 -321.5q0 -182 57.5 -321t156 -214
t218.5 -75q125 0 220 78.5t146.5 219t51.5 321.5q0 182 -57.5 321t-156 214t-218.5 75q-125 0 -220 -78.5z" />
    <glyph glyph-name="p" unicode="p" horiz-adv-x="1159" 
d="M441 217q0 -77 12.5 -112t46 -48t107.5 -16v-41q-94 6 -260 6q-176 0 -262 -6v41q74 3 107.5 16t46 48t12.5 112v811q0 77 -12.5 112t-46 48t-107.5 16v41q85 -6 250 -6q36 0 222 3l87 1q147 0 249 -43t153 -120t51 -179q0 -98 -48 -188t-164 -149.5t-306 -59.5h-138
v-287zM497 1189.5q-32 -14.5 -44 -51.5t-12 -110v-483h117q190 0 262 89.5t72 244.5q0 166 -69.5 245.5t-229.5 79.5q-64 0 -96 -14.5z" />
    <glyph glyph-name="q" unicode="q" horiz-adv-x="1479" 
d="M1479.5 -303q-104.5 -82 -278.5 -82q-76 0 -157.5 18.5t-155.5 45t-184 70.5q-185 75 -273 97q-88 -30 -170 -30q-94 0 -94 41q0 43 111 43q74 0 153 -17q59 16 149 57q57 26 82 34q-168 15 -292.5 94t-192 217t-67.5 325q0 196 80.5 347t223.5 234t326 83
q189 0 331 -75.5t220 -219.5t78 -344q0 -183 -71 -327.5t-198.5 -231.5t-293.5 -102v-1q-50 -5 -88.5 -18t-91.5 -36q-72 -31 -123 -46q34 -6 52 -10q198 -37 308 -53q212 -35 330 -35q161 0 256 42.5t147 135.5l31 -12q-43 -162 -147.5 -244zM371.5 297q57.5 -139 156 -214
t218.5 -75q125 0 220 78.5t146.5 219t51.5 321.5q0 182 -57.5 321t-156 214t-218.5 75q-125 0 -220 -78.5t-146.5 -219t-51.5 -321.5q0 -182 57.5 -321z" />
    <glyph glyph-name="r" unicode="r" horiz-adv-x="1278" 
d="M1204.5 0.5q-49.5 -29.5 -120.5 -29.5q-170 0 -211 156l-63 256q-19 78 -51.5 119.5t-79.5 57t-121 15.5h-117v-358q0 -77 12.5 -112t46 -48t107.5 -16v-41q-95 6 -260 6q-177 0 -262 -6v41q74 3 107.5 16t46 48t12.5 112v811q0 78 -12.5 113t-45.5 47.5t-108 15.5v41
q85 -6 250 -6q35 0 209 3l80 1q153 0 259.5 -40t160 -109.5t53.5 -159.5q0 -75 -38 -145.5t-129.5 -125t-240.5 -72.5q35 -1 70 -7q109 -17 172.5 -66t89.5 -158l45 -186q17 -72 36 -101.5t50 -29.5q51 0 113 70l28 -27q-39 -56 -88.5 -85.5zM489.5 1189.5
q-27.5 -14.5 -38 -51.5t-10.5 -110v-412h138q123 0 192 37.5t95 102t26 155.5q0 148 -74.5 220.5t-245.5 72.5q-55 0 -82.5 -14.5z" />
    <glyph glyph-name="s" unicode="s" horiz-adv-x="1096" 
d="M631.5 1263.5q45.5 -10.5 75.5 -26t66 -39.5q48 -29 70 -29q19 0 29 22t16 69h47q-10 -107 -10 -377h-47q-8 94 -45.5 173.5t-110 129t-180.5 49.5q-72 0 -129 -26.5t-89 -72.5t-32 -104q0 -64 32 -110.5t82 -80t143 -84.5q45 -23 66 -36q127 -67 204.5 -121t124 -122.5
t46.5 -158.5q0 -112 -56 -190.5t-151.5 -118t-212.5 -39.5q-98 0 -161 20.5t-119 55.5q-46 29 -70 29q-19 0 -29 -21.5t-16 -68.5h-47q8 100 8 450h47q14 -190 102 -307t271 -117q65 0 122.5 25t93.5 77t36 130q0 68 -39.5 120t-104.5 93.5t-182 101.5q-109 56 -181.5 107.5
t-117.5 122.5t-45 165q0 102 53 174.5t140.5 109t191.5 36.5q63 0 108.5 -10.5z" />
    <glyph glyph-name="t" unicode="t" horiz-adv-x="1292" 
d="M1207 1004q0 -106 6 -168h-47q-12 143 -38.5 218.5t-86 109.5t-170.5 34h-131v-960q0 -85 16 -124.5t58 -54.5t133 -18v-41q-106 6 -301 6q-204 0 -303 -6v41q91 3 133 18t58 54.5t16 124.5v960h-131q-111 0 -170 -34t-86 -110t-39 -218h-47q6 65 6 168q0 107 -14 241
q170 -6 577 -6q406 0 576 6q-15 -131 -15 -241z" />
    <glyph glyph-name="u" unicode="u" horiz-adv-x="1348" 
d="M1189.5 1183.5q-34.5 -17.5 -47.5 -57.5t-13 -118v-453q0 -141 -19 -240.5t-64 -173.5q-49 -78 -143 -124t-212 -46q-210 0 -323 90q-61 55 -93.5 116.5t-45.5 148t-13 223.5v479q0 77 -12.5 112t-46 48t-107.5 16v41q87 -6 262 -6q165 0 260 6v-41q-74 -3 -107 -16
t-45.5 -48t-12.5 -112v-514q0 -152 20.5 -251t87 -159.5t195.5 -60.5q206 0 289 128.5t83 360.5v476q0 75 -17.5 116t-57 59t-111.5 21v41q73 -6 209 -6q123 0 190 6v-41q-71 -3 -105.5 -20.5z" />
    <glyph glyph-name="v" unicode="v" horiz-adv-x="1262" 
d="M1268 1245v-41q-40 -10 -67.5 -32t-51 -60.5t-53.5 -107.5l-449 -1014h-33l-479 1083q-55 127 -141 131v41q82 -6 219 -6q176 0 262 6v-41q-77 -3 -111.5 -19t-34.5 -56q0 -35 27 -97l352 -795l306 681q50 112 50 175q0 57 -40 82.5t-121 28.5v41q61 -6 227 -6
q85 0 138 6z" />
    <glyph glyph-name="w" unicode="w" horiz-adv-x="1786" 
d="M1780 1245v-41q-56 -12 -94.5 -58.5t-71.5 -144.5l-352 -1011h-33l-316 781l-333 -781h-33l-418 1083q-49 127 -141 131v41q83 -6 219 -6q176 0 262 6v-41q-78 -3 -110 -18t-32 -56q0 -34 23 -98l291 -793l249 589l-99 245q-52 127 -142 131v41q84 -6 219 -6q176 0 262 6
v-41q-77 -3 -110 -19t-33 -56q0 -31 25 -97l296 -779l220 642q39 111 39 181q0 68 -38 96.5t-114 31.5v41q61 -6 187 -6q129 0 178 6z" />
    <glyph glyph-name="x" unicode="x" horiz-adv-x="1257" 
d="M1171 70q26 -21 61 -27v-43q-93 6 -166 6q-121 0 -289 -6v43q67 0 98 7.5t31 27.5q0 15 -16 35l-319 439l-259 -339q-35 -47 -35 -89q0 -38 30.5 -60.5t92.5 -22.5v-41q-116 6 -231 6q-35 0 -77 -3l-60 -3v41q43 4 98.5 44.5t95.5 92.5l317 412l-372 510q-31 42 -48 61.5
t-35 29t-44 11.5v43q93 -6 166 -6q121 0 289 6v-43q-67 0 -98 -7.5t-31 -26.5q0 -15 16 -35l299 -410l240 311q34 45 34 85q0 38 -32.5 61.5t-96.5 23.5v41q117 -6 232 -6q88 0 137 6v-41q-45 -5 -97 -41.5t-99 -97.5l-292 -378l394 -542q40 -54 66 -75z" />
    <glyph glyph-name="y" unicode="y" horiz-adv-x="1174" 
d="M1153 1245v-43q-35 -9 -64 -39.5t-67 -99.5l-322 -575v-271q0 -77 12.5 -112t46 -48t107.5 -16v-41q-94 6 -260 6q-176 0 -262 -6v41q74 3 107.5 16t46 48t12.5 112v212l-395 658q-40 66 -65 88t-54 27v43q24 -2 35 -2q96 -6 145 -6q142 0 287 8v-43q-71 0 -108 -11
t-37 -51q0 -36 36 -96l310 -515l254 446q46 82 46 132q0 86 -143 95v43q77 -8 174 -8q117 0 158 8z" />
    <glyph glyph-name="z" unicode="z" horiz-adv-x="1178" 
d="M333 47h450q72 0 119 32.5t75.5 107.5t39.5 202h47q-6 -64 -6 -168q0 -98 14 -221q-145 6 -489 6q-328 0 -478 -6v41l723 1157h-430q-71 0 -118.5 -32.5t-75.5 -107.5t-39 -202h-47q6 65 6 168q0 98 -14 221q145 -6 489 -6q313 0 457 6v-41z" />
    <glyph glyph-name="uni0410" unicode="&#x410;" horiz-adv-x="1290" 
d="M0 0zM1303 41v-41q-84 6 -220 6q-175 0 -262 -6v41q78 3 111.5 19t33.5 57q0 35 -24 96l-126 336h-494l-84 -217q-41 -104 -41 -168q0 -65 43.5 -93t134.5 -30v-41q-117 6 -236 6q-92 0 -153 -6v41q102 23 161 178l482 1241h33l499 -1288q50 -127 142 -131zM572 1201
l-235 -611h464z" />
    <glyph glyph-name="uni0411" unicode="&#x411;" horiz-adv-x="1221" 
d="M901.5 807.5q110.5 -54.5 166 -151.5t55.5 -224q0 -117 -49 -213.5t-169 -157.5t-320 -61q-27 0 -89 2q-84 4 -169 4q-156 0 -242 -6v41q74 3 107.5 16t46 48t12.5 112v1016q0 77 -12.5 112t-46 48t-107.5 16v41q201 -6 594 -6q258 0 367 6q-15 -131 -15 -242
q0 -80 6 -127h-47q-14 133 -36.5 198t-76 94.5t-161.5 29.5h-109q-74 0 -107.5 -12t-46 -46.5t-12.5 -111.5v-374q42 0 102 2l87 1q161 0 271.5 -54.5zM787 91q75 50 103.5 135t28.5 204q0 137 -35 223t-113.5 128t-210.5 42l-119 -2v-604q0 -76 10 -112t38.5 -50t89.5 -14
q133 0 208 50z" />
    <glyph glyph-name="uni0412" unicode="&#x412;" horiz-adv-x="1276" 
d="M86 0zM1087 636.5q96 -99.5 96 -239.5q0 -116 -59.5 -206t-170.5 -140.5t-262 -50.5l-94 2q-132 4 -258 4q-168 0 -254 -6v41q74 3 107.5 16t46 48t12.5 112v1016q0 77 -12.5 112t-46 48t-107.5 16v41q85 -6 250 -6q36 0 222 3l87 1q140 0 237 -40.5t146 -113t49 -168.5
q0 -118 -74.5 -212t-236.5 -144v-4q226 -30 322 -129.5zM497 1394.5q-32 -14.5 -44 -51.5t-12 -110v-463h138q167 0 234 91t67 243q0 154 -68 229.5t-219 75.5q-64 0 -96 -14.5zM978 406q0 161 -87.5 245t-277.5 84h-172v-518q0 -74 12 -109t44 -48t98 -13q383 0 383 359z
" />
    <glyph glyph-name="uni0413" unicode="&#x413;" horiz-adv-x="1081" 
d="M1011 1188q0 -103 6 -168h-47q-16 159 -41 235.5t-86.5 112t-188.5 35.5h-47q-74 0 -107.5 -12t-46 -46.5t-12.5 -111.5v-1016q0 -77 16 -112t58 -48t133 -16v-41q-106 6 -301 6q-176 0 -262 -6v41q74 3 107.5 16t46 48t12.5 112v1016q0 77 -12.5 112t-46 48t-107.5 16
v41q201 -6 594 -6q244 0 346 6q-14 -146 -14 -262z" />
    <glyph glyph-name="uni0403" unicode="&#x403;" horiz-adv-x="1081" 
d="M86 0zM1011 1188q0 -103 6 -168h-47q-16 159 -41 235.5t-86.5 112t-188.5 35.5h-47q-74 0 -107.5 -12t-46 -46.5t-12.5 -111.5v-1016q0 -77 16 -112t58 -48t133 -16v-41q-106 6 -301 6q-176 0 -262 -6v41q74 3 107.5 16t46 48t12.5 112v1016q0 77 -12.5 112t-46 48
t-107.5 16v41q201 -6 594 -6q244 0 346 6q-14 -146 -14 -262zM796 1916q40 0 63 -34q11 -19 11 -38q0 -45 -54 -81q-45 -27 -146 -65q-160 -64 -266 -117l-14 27q91 69 218 184q85 78 126 104q31 20 62 20z" />
    <glyph glyph-name="uni0490" unicode="&#x490;" horiz-adv-x="1071" 
d="M1011 1645q0 -108 14 -242h-418q-74 0 -107.5 -12t-46 -46.5t-12.5 -111.5v-1016q0 -77 16 -112t58 -48t133 -16v-41q-106 6 -301 6q-176 0 -262 -6v41q74 3 107.5 16t46 48t12.5 112v1016q0 77 -12.5 112t-46 48t-107.5 16v41q107 -6 307 -6q68 0 150 3q165 3 153 3
q108 0 161.5 29.5t76 94.5t37.5 198h47q-6 -46 -6 -127z" />
    <glyph glyph-name="uni0414" unicode="&#x414;" horiz-adv-x="1288" 
d="M1235 -201q0 -81 6 -127h-47q-15 134 -37.5 200t-76 97t-160.5 31h-584q-107 0 -161 -31t-76.5 -97t-37.5 -200h-47q6 46 6 127q0 108 -14 242h37q143 0 220.5 165.5t107 397t51.5 598.5l2 31q1 15 1 41q0 55 -14 82.5t-49 38.5t-104 14v41q86 -6 211 -6q-1 0 92 3
q43 3 88 3q72 0 138 -3q141 -3 155 -3q157 0 244 6v-41q-74 -3 -107.5 -16t-46 -48t-12.5 -112v-1016q0 -77 12.5 -113.5t47 -49.5t106.5 -13h63q-14 -134 -14 -242zM816.5 1346.5q-12.5 36.5 -46.5 49.5t-106 13h-27q-73 0 -104.5 -13.5t-42.5 -47t-19 -115.5
q-7 -75 -16 -206q-19 -265 -41.5 -441.5t-78 -329t-154.5 -215.5h483q72 0 106 13t46.5 49.5t12.5 113.5v1016q0 77 -12.5 113.5z" />
    <glyph glyph-name="uni0415" unicode="&#x415;" horiz-adv-x="1247" 
d="M86 0zM1148 0q-139 6 -469 6q-393 0 -594 -6v41q74 3 107.5 16t46 48t12.5 112v1016q0 77 -12.5 112t-46 48t-107.5 16v41q201 -6 594 -6q301 0 428 6q-14 -134 -14 -242q0 -80 6 -127h-47q-15 133 -37.5 198t-76 94.5t-161.5 29.5h-170q-74 0 -107.5 -12t-46 -46.5
t-12.5 -111.5v-483h136q72 0 110.5 34t52 80t22.5 116q1 18 5 40h47q-7 -101 -7 -193l1 -98q0 -104 12 -291h-47l-3 29q-9 81 -23 129t-53.5 80.5t-116.5 32.5h-136v-492q0 -77 12.5 -111.5t46 -46.5t107.5 -12h150q128 0 194.5 34t96 109t45.5 220h47q-6 -55 -6 -148
q0 -116 14 -262z" />
    <glyph glyph-name="uni0401" unicode="&#x401;" horiz-adv-x="1247" 
d="M86 0zM1148 0q-139 6 -469 6q-393 0 -594 -6v41q74 3 107.5 16t46 48t12.5 112v1016q0 77 -12.5 112t-46 48t-107.5 16v41q201 -6 594 -6q301 0 428 6q-14 -134 -14 -242q0 -80 6 -127h-47q-15 133 -37.5 198t-76 94.5t-161.5 29.5h-170q-74 0 -107.5 -12t-46 -46.5
t-12.5 -111.5v-483h136q72 0 110.5 34t52 80t22.5 116q1 18 5 40h47q-7 -101 -7 -193l1 -98q0 -104 12 -291h-47l-3 29q-9 81 -23 129t-53.5 80.5t-116.5 32.5h-136v-492q0 -77 12.5 -111.5t46 -46.5t107.5 -12h150q128 0 194.5 34t96 109t45.5 220h47q-6 -55 -6 -148
q0 -116 14 -262zM467.5 1802.5q27.5 -16.5 44 -44t16.5 -58.5q0 -32 -16.5 -59.5t-44 -43.5t-58.5 -16q-49 0 -84 35t-35 84q0 31 16 58.5t43.5 44t59.5 16.5q31 0 58.5 -16.5zM901.5 1802.5q27.5 -16.5 44 -44t16.5 -58.5q0 -32 -16.5 -59.5t-43.5 -43.5t-59 -16
q-49 0 -84 35t-35 84q0 31 16 58.5t43.5 44t59.5 16.5q31 0 58.5 -16.5z" />
    <glyph glyph-name="uni0416" unicode="&#x416;" horiz-adv-x="2013" 
d="M1953 30.5q-28 -27.5 -67 -43.5t-94 -16q-81 0 -135.5 47.5t-83.5 174.5l-57 253q-24 105 -48 161t-78 90t-153 34h-135v-514q0 -77 12.5 -112t46 -48t107.5 -16v-41q-87 6 -262 6q-165 0 -261 -6v41q74 3 107.5 16t46 48t12.5 112v514h-135q-99 0 -152.5 -34t-77.5 -90
t-48 -161l-58 -253q-29 -127 -83.5 -174.5t-135.5 -47.5q-55 0 -94 16t-67 43.5t-58 71.5l31 23q34 -43 56 -60.5t56 -17.5q28 0 45 16t28.5 50t27.5 102l59 258q36 159 140.5 224t267.5 72l-385 491q-103 129 -242 149v41q62 -6 174 -6q119 0 236 6v-41q-127 -3 -127 -74
q0 -64 104 -196l197 -250q90 -116 241 -119v463q0 77 -12.5 112t-46 48t-107.5 16v41q96 -6 261 -6q175 0 262 6v-41q-74 -3 -107.5 -16t-46 -48t-12.5 -112v-463q151 3 241 119l197 250q104 132 104 196q0 71 -126 74v41q116 -6 235 -6q113 0 174 6v-41q-140 -20 -241 -149
l-386 -491q163 -7 267.5 -72t140.5 -224l59 -258q16 -68 27.5 -102t28.5 -50t45 -16q34 0 56.5 17.5t55.5 60.5l31 -23q-30 -44 -58 -71.5z" />
    <glyph glyph-name="uni0417" unicode="&#x417;" horiz-adv-x="1124" 
d="M761 1441.5q92 -37.5 143 -107t51 -162.5q0 -108 -62.5 -191t-157 -135.5t-195.5 -77.5q123 -2 236.5 -45.5t185 -128t71.5 -203.5q0 -131 -78 -226t-206.5 -144.5t-278.5 -49.5q-182 0 -303 74q-96 61 -96 145q0 48 30.5 78.5t77.5 30.5q49 0 81 -30t32 -81
q0 -42 -23.5 -69t-62.5 -35q14 -20 56 -38t99 -29t115 -11q118 0 197.5 46.5t118 129t38.5 189.5q0 108 -37.5 192.5t-110.5 134t-175 52.5q-49 -27 -88 -27q-43 0 -43 35q0 15 12 24t31 9q27 0 90 -13q92 31 144.5 80t75 120t22.5 171q0 145 -53.5 218t-174.5 73
q-99 0 -170.5 -56t-110 -145.5t-44.5 -191.5h-47q0 287 -11 417h47q8 -49 17.5 -69.5t30.5 -20.5t67 29q8 5 43.5 27.5t86.5 35.5t116 13q121 0 213 -37.5z" />
    <glyph glyph-name="uni0418" unicode="&#x418;" horiz-adv-x="1591" 
d="M1396.5 1393q-33.5 -13 -46 -48t-12.5 -112v-1016q0 -77 12.5 -112t46 -48t107.5 -16v-41q-86 6 -262 6q-164 0 -260 -6v41q74 3 107.5 16t46 48t12.5 112v969l-707 -1000q3 -62 17 -91t47 -40t102 -14v-41q-95 6 -260 6q-177 0 -262 -6v41q74 3 107.5 16t46 48t12.5 112
v1016q0 77 -12.5 112t-46 48t-107.5 16v41q85 -6 262 -6q165 0 260 6v-41q-74 -3 -107.5 -16t-46 -48t-12.5 -112v-970l706 1002q-2 61 -16.5 90t-47.5 40t-101 14v41q96 -6 260 -6q176 0 262 6v-41q-74 -3 -107.5 -16z" />
    <glyph glyph-name="uni0419" unicode="&#x419;" horiz-adv-x="1591" 
d="M86 0zM1396.5 1393q-33.5 -13 -46 -48t-12.5 -112v-1016q0 -77 12.5 -112t46 -48t107.5 -16v-41q-86 6 -262 6q-164 0 -260 -6v41q74 3 107.5 16t46 48t12.5 112v969l-707 -1000q3 -62 17 -91t47 -40t102 -14v-41q-95 6 -260 6q-177 0 -262 -6v41q74 3 107.5 16t46 48
t12.5 112v1016q0 77 -12.5 112t-46 48t-107.5 16v41q85 -6 262 -6q165 0 260 6v-41q-74 -3 -107.5 -16t-46 -48t-12.5 -112v-970l706 1002q-2 61 -16.5 90t-47.5 40t-101 14v41q96 -6 260 -6q176 0 262 6v-41q-74 -3 -107.5 -16zM1183.5 1900.5q30.5 -30.5 30.5 -81.5
q0 -43 -23.5 -76t-75.5 -64q-127 -77 -319 -77q-191 0 -320 77q-51 31 -74.5 64t-23.5 76q0 51 30 81.5t79 30.5t80.5 -29.5t31.5 -80.5q0 -42 -23.5 -69.5t-62.5 -35.5q43 -40 123 -57t160 -17t159.5 17t122.5 57q-39 8 -62.5 35.5t-23.5 69.5q0 50 32.5 80t80.5 30
t78.5 -30.5z" />
    <glyph glyph-name="uni040D" unicode="&#x40d;" horiz-adv-x="1591" 
d="M86 0zM1396.5 1393q-33.5 -13 -46 -48t-12.5 -112v-1016q0 -77 12.5 -112t46 -48t107.5 -16v-41q-86 6 -262 6q-164 0 -260 -6v41q74 3 107.5 16t46 48t12.5 112v969l-707 -1000q3 -62 17 -91t47 -40t102 -14v-41q-95 6 -260 6q-177 0 -262 -6v41q74 3 107.5 16t46 48
t12.5 112v1016q0 77 -12.5 112t-46 48t-107.5 16v41q85 -6 262 -6q165 0 260 6v-41q-74 -3 -107.5 -16t-46 -48t-12.5 -112v-970l706 1002q-2 61 -16.5 90t-47.5 40t-101 14v41q96 -6 260 -6q176 0 262 6v-41q-74 -3 -107.5 -16zM715 1792q127 -115 218 -184l-14 -27
q-106 53 -266 117q-101 38 -146 65q-54 36 -54 81q0 19 11 38q23 34 63 34q31 0 62 -20q41 -26 126 -104z" />
    <glyph glyph-name="uni041A" unicode="&#x41a;" horiz-adv-x="1389" 
d="M1292 30.5q-28 -27.5 -67 -43.5t-93 -16q-82 0 -136.5 47.5t-83.5 174.5l-57 253q-24 105 -48 161t-77.5 90t-152.5 34h-136v-514q0 -77 12.5 -112t46 -48t107.5 -16v-41q-95 6 -260 6q-177 0 -262 -6v41q74 3 107.5 16t46 48t12.5 112v1016q0 77 -12.5 112t-46 48
t-107.5 16v41q85 -6 262 -6q165 0 260 6v-41q-74 -3 -107.5 -16t-46 -48t-12.5 -112v-463q152 3 242 119l197 250q104 132 104 196q0 71 -127 74v41q117 -6 236 -6q112 0 174 6v-41q-139 -20 -242 -149l-386 -491q163 -7 267.5 -71.5t141.5 -224.5l59 -258q16 -68 27.5 -102
t28 -50t44.5 -16q35 0 57 17.5t56 60.5l31 -23q-31 -44 -59 -71.5z" />
    <glyph glyph-name="uni040C" unicode="&#x40c;" horiz-adv-x="1389" 
d="M86 0zM999 1916q40 0 63 -34q11 -19 11 -38q0 -45 -54 -81q-45 -27 -146 -65q-160 -64 -266 -117l-14 27q91 69 218 184q85 78 126 104q31 20 62 20zM1292 30.5q-28 -27.5 -67 -43.5t-93 -16q-82 0 -136.5 47.5t-83.5 174.5l-57 253q-24 105 -48 161t-77.5 90t-152.5 34
h-136v-514q0 -77 12.5 -112t46 -48t107.5 -16v-41q-95 6 -260 6q-177 0 -262 -6v41q74 3 107.5 16t46 48t12.5 112v1016q0 77 -12.5 112t-46 48t-107.5 16v41q85 -6 262 -6q165 0 260 6v-41q-74 -3 -107.5 -16t-46 -48t-12.5 -112v-463q152 3 242 119l197 250
q104 132 104 196q0 71 -127 74v41q117 -6 236 -6q112 0 174 6v-41q-139 -20 -242 -149l-386 -491q163 -7 267.5 -71.5t141.5 -224.5l59 -258q16 -68 27.5 -102t28 -50t44.5 -16q35 0 57 17.5t56 60.5l31 -23q-31 -44 -59 -71.5z" />
    <glyph glyph-name="uni041B" unicode="&#x41b;" horiz-adv-x="1409" 
d="M1215.5 1393q-33.5 -13 -46 -48t-12.5 -112v-1016q0 -77 12.5 -112t46 -48t107.5 -16v-41q-85 6 -262 6q-194 0 -301 -6v41q91 3 133 16t58 48t16 112v1016q0 77 -12.5 113.5t-47 49.5t-106.5 13h-27q-73 0 -105 -13.5t-43 -47t-18 -115.5l-15 -200q-21 -326 -52.5 -539
t-117 -368t-243.5 -155q-77 0 -131.5 34.5t-54.5 105.5q0 53 34 84.5t87 31.5q45 0 74.5 -24.5t29.5 -65.5q0 -43 -21 -70.5t-67 -54.5q19 -2 49 -2q144 0 221.5 168.5t106.5 405.5t51 616l2 33q2 34 2 46q0 52 -14.5 78.5t-49.5 37.5t-104 14v41q87 -6 211 -6q2 0 92 3
q45 3 88 3q73 0 139 -3q141 -3 154 -3q159 0 244 6v-41q-74 -3 -107.5 -16z" />
    <glyph glyph-name="uni041C" unicode="&#x41c;" horiz-adv-x="1784" 
d="M86 0zM1589.5 1393q-33.5 -13 -46 -48t-12.5 -112v-1016q0 -77 12.5 -112t46 -48t107.5 -16v-41q-96 6 -260 6q-176 0 -262 -6v41q74 3 107 16t45.5 48t12.5 112v1096l-493 -1323h-33l-516 1329v-1081q0 -79 14 -119t52.5 -57.5t119.5 -20.5v-41q-73 6 -209 6
q-122 0 -190 -6v41q71 3 105.5 20.5t47.5 57.5t13 119v995q0 77 -12.5 112t-46 48t-107.5 16v41q67 -6 190 -6q108 0 175 6l450 -1188l440 1182h97q164 0 260 6v-41q-74 -3 -107.5 -16z" />
    <glyph glyph-name="uni041D" unicode="&#x41d;" 
d="M86 0zM1355.5 1393q-33.5 -13 -46 -48t-12.5 -112v-1016q0 -77 12.5 -112t46 -48t107.5 -16v-41q-85 6 -262 6q-164 0 -260 -6v41q74 3 107.5 16t46 48t12.5 112v492h-666v-492q0 -77 12.5 -112t46 -48t107.5 -16v-41q-94 6 -260 6q-176 0 -262 -6v41q74 3 107.5 16
t46 48t12.5 112v1016q0 77 -12.5 112t-46 48t-107.5 16v41q85 -6 262 -6q166 0 260 6v-41q-74 -3 -107.5 -16t-46 -48t-12.5 -112v-483h666v483q0 77 -12.5 112t-46 48t-107.5 16v41q96 -6 260 -6q176 0 262 6v-41q-74 -3 -107.5 -16z" />
    <glyph glyph-name="uni041E" unicode="&#x41e;" horiz-adv-x="1518" 
d="M109 0zM1100.5 1391q146.5 -88 227 -255.5t80.5 -398.5q0 -226 -83 -400t-231 -270t-337 -96q-195 0 -341.5 88t-227 255.5t-80.5 398.5q0 226 83 400t231 270t337 96q195 0 341.5 -88zM520 1350.5q-100 -91.5 -154 -255t-54 -374.5q0 -213 60 -375t163.5 -250t229.5 -88
q131 0 230.5 91.5t153.5 255t54 374.5q0 213 -60 375t-163 250t-229 88q-131 0 -231 -91.5z" />
    <glyph glyph-name="uni041F" unicode="&#x41f;" 
d="M1355.5 1393q-33.5 -13 -46 -48t-12.5 -112v-1016q0 -77 12.5 -112t46 -48t107.5 -16v-41q-85 6 -262 6q-164 0 -260 -6v41q74 3 107.5 16t46 48t12.5 112v1016q0 77 -12.5 113.5t-47 49.5t-106.5 13h-334q-72 0 -106.5 -13t-47 -49.5t-12.5 -113.5v-1016
q0 -77 12.5 -112t46 -48t107.5 -16v-41q-94 6 -260 6q-176 0 -262 -6v41q74 3 107.5 16t46 48t12.5 112v1016q0 77 -12.5 112t-46 48t-107.5 16v41q85 -6 262 -6q103 0 267 4q128 2 163 2q36 0 160 -2q162 -4 264 -4q176 0 262 6v-41q-74 -3 -107.5 -16z" />
    <glyph glyph-name="uni0420" unicode="&#x420;" horiz-adv-x="1198" 
d="M86 0zM441 217q0 -77 16 -112t58 -48t133 -16v-41q-106 6 -301 6q-176 0 -262 -6v41q74 3 107.5 16t46 48t12.5 112v1016q0 77 -12.5 112t-46 48t-107.5 16v41q85 -6 250 -6q36 0 222 3l87 1q161 0 272 -50.5t166.5 -141.5t55.5 -212q0 -112 -50 -216t-170.5 -173
t-318.5 -69h-158v-369zM497 1394.5q-32 -14.5 -44 -51.5t-12 -110v-606h138q200 0 277 107t77 288q0 132 -34 217t-108.5 127.5t-197.5 42.5q-64 0 -96 -14.5z" />
    <glyph glyph-name="uni0421" unicode="&#x421;" horiz-adv-x="1409" 
d="M109 0zM967.5 1444q86.5 -35 168.5 -98q22 -18 40 -18q42 0 52 122h47q-8 -133 -8 -471h-47q-15 92 -27.5 143t-29.5 86.5t-46 73.5q-62 80 -157 120t-205 40q-133 0 -233 -88t-155 -251t-55 -382q0 -223 60 -383t165 -243t238 -83q102 0 199 39t151 117q42 56 60 121.5
t35 202.5h47q0 -353 8 -492h-47q-5 64 -16.5 92.5t-33.5 28.5q-16 0 -42 -17q-61 -43 -112.5 -70.5t-117.5 -45t-149 -17.5q-195 0 -341.5 88t-227 255.5t-80.5 398.5q0 226 83 400t231 270t337 96q122 0 208.5 -35z" />
    <glyph glyph-name="uni0422" unicode="&#x422;" horiz-adv-x="1272" 
d="M59 0zM1197 1188q0 -103 6 -168h-47q-16 159 -40.5 235.5t-86 112t-188.5 35.5h-111v-1165q0 -85 16 -124.5t58 -54.5t133 -18v-41q-108 6 -301 6q-205 0 -303 -6v41q91 3 133 18t58 54.5t16 124.5v1165h-111q-127 0 -188.5 -35.5t-86 -112t-40.5 -235.5h-47q6 65 6 168
q0 120 -15 262q170 -6 578 -6q405 0 575 6q-14 -146 -14 -262z" />
    <glyph glyph-name="uni0423" unicode="&#x423;" horiz-adv-x="1325" 
d="M1343 1450v-41q-41 -9 -79.5 -51.5t-83.5 -130.5l-449 -894l-82 -165q-46 -94 -90 -137q-30 -30 -71.5 -45t-81.5 -15q-64 0 -104 32.5t-40 90.5q0 49 31 79t78 30q45 0 74.5 -25.5t29.5 -71.5q0 -30 -15.5 -54t-39.5 -38q4 -2 12 -2q54 0 96 39.5t80 118.5l56 114
l-549 1008q-38 69 -65.5 92t-53.5 23v43q79 -6 180 -6q199 0 287 6v-43q-144 0 -144 -79q0 -32 21 -71l417 -778l322 645q56 113 56 176q0 58 -45 82.5t-136 26.5v41q117 -6 236 -6q93 0 153 6z" />
    <glyph glyph-name="uni040E" unicode="&#x40e;" horiz-adv-x="1325" 
d="M0 0zM1343 1450v-41q-41 -9 -79.5 -51.5t-83.5 -130.5l-449 -894l-82 -165q-46 -94 -90 -137q-30 -30 -71.5 -45t-81.5 -15q-64 0 -104 32.5t-40 90.5q0 49 31 79t78 30q45 0 74.5 -25.5t29.5 -71.5q0 -30 -15.5 -54t-39.5 -38q4 -2 12 -2q54 0 96 39.5t80 118.5l56 114
l-549 1008q-38 69 -65.5 92t-53.5 23v43q79 -6 180 -6q199 0 287 6v-43q-144 0 -144 -79q0 -32 21 -71l417 -778l322 645q56 113 56 176q0 58 -45 82.5t-136 26.5v41q117 -6 236 -6q93 0 153 6zM1068.5 1900.5q30.5 -30.5 30.5 -81.5q0 -43 -23.5 -76t-75.5 -64
q-127 -77 -319 -77q-191 0 -320 77q-51 31 -74.5 64t-23.5 76q0 51 30 81.5t79 30.5t80.5 -29.5t31.5 -80.5q0 -42 -23.5 -69.5t-62.5 -35.5q43 -40 123 -57t160 -17t159.5 17t122.5 57q-39 8 -62.5 35.5t-23.5 69.5q0 50 32.5 80t80.5 30t78.5 -30.5z" />
    <glyph glyph-name="uni0424" unicode="&#x424;" horiz-adv-x="1739" 
d="M1592 442q-90 -130 -252 -209t-374 -94v-73q0 -78 12.5 -113t45.5 -47.5t108 -16.5v-41q-90 7 -261 7q-181 0 -262 -7v41q75 4 108 17t45.5 48t12.5 112v72q-219 13 -381.5 86.5t-251 203t-88.5 305.5q0 160 90.5 286.5t254 202.5t376.5 90v72q0 78 -12.5 113t-45.5 47.5
t-108 16.5v41q81 -7 262 -7q171 0 261 7v-41q-75 -4 -108 -17t-45.5 -48t-12.5 -112v-72q218 -13 379 -84t249 -196t88 -295q0 -165 -90 -295zM324.5 465.5q65.5 -120.5 182.5 -194.5t268 -93v1096q-156 -16 -272.5 -87.5t-180 -187t-63.5 -258.5q0 -155 65.5 -275.5z
M1412.5 993q-65.5 116 -181.5 187.5t-265 90.5v-1094q155 17 270.5 91.5t178.5 193.5t63 267t-65.5 264z" />
    <glyph glyph-name="uni0425" unicode="&#x425;" horiz-adv-x="1298" 
d="M33 0zM1191 83.5q19 -20.5 40 -29.5t52 -11v-43q-5 0 -27 2q-114 6 -149 6q-105 0 -252 -7l-37 -1v43q80 0 113 7t33 26q0 15 -15 37l-350 536l-221 -330q-78 -116 -78 -180q0 -52 46.5 -74t135.5 -24v-41q-116 6 -276 6q-113 0 -174 -6v41q61 9 116.5 55t114.5 133
l309 461l-401 615q-26 41 -45 61.5t-40 29.5t-52 11v43q5 0 27 -2q114 -6 149 -6q137 0 289 8v-43q-137 0 -137 -45q0 -16 18 -45l319 -488l201 301q89 133 89 197q0 43 -39.5 61.5t-119.5 20.5v41q117 -6 236 -6q112 0 174 6v-41q-62 -9 -117.5 -55.5t-113.5 -132.5
l-287 -428l424 -648q26 -41 45 -61.5z" />
    <glyph glyph-name="uni0427" unicode="&#x427;" horiz-adv-x="1378" 
d="M1183.5 1393q-33.5 -13 -46 -48t-12.5 -112v-1016q0 -77 12.5 -112t46 -48t107.5 -16v-41q-85 6 -262 6q-193 0 -301 -6v41q91 3 133 16t58 48t16 112v436q-62 -30 -172.5 -52.5t-212.5 -22.5q-168 0 -262 71q-56 43 -77.5 104t-21.5 171v336q0 57 -15.5 89t-48.5 45
t-91 13v43l27 -1q128 -7 225 -7q84 0 201 7l28 1v-43q-51 0 -79.5 -13t-42 -45t-13.5 -89v-381q0 -75 16.5 -125t68 -80.5t150.5 -30.5q192 0 320 45v545q0 77 -12.5 112t-46 48t-107.5 16v41q85 -6 262 -6q166 0 260 6v-41q-74 -3 -107.5 -16z" />
    <glyph glyph-name="uni0426" unicode="&#x426;" horiz-adv-x="1567" 
d="M1355.5 1393q-33.5 -13 -46 -48t-12.5 -112v-1016q0 -77 12.5 -113.5t47 -49.5t106.5 -13h64q-15 -144 -15 -242q0 -73 7 -127h-47q-15 134 -37.5 200t-76.5 97t-161 31h-420q-35 0 -163 2q-164 4 -267 4q-176 0 -262 -6v41q74 3 107.5 16t46 48t12.5 112v1016
q0 77 -12.5 112t-46 48t-107.5 16v41q85 -6 262 -6q166 0 260 6v-41q-74 -3 -107.5 -16t-46 -48t-12.5 -112v-1016q0 -77 12.5 -113.5t47 -49.5t106.5 -13h334q72 0 106.5 13t47 49.5t12.5 113.5v1016q0 77 -12.5 112t-46 48t-107.5 16v41q96 -6 260 -6q176 0 262 6v-41
q-74 -3 -107.5 -16z" />
    <glyph glyph-name="uni0428" unicode="&#x428;" horiz-adv-x="2062" 
d="M1867.5 1393q-33.5 -13 -46 -48t-12.5 -112v-1016q0 -77 12.5 -112t46 -48t107.5 -16v-41q-85 6 -262 6q-71 0 -152 -3q-192 -3 -212 -3q-81 0 -199 4q-88 2 -117 2t-121 -2q-120 -4 -202 -4q-24 0 -216 3q-78 3 -147 3q-176 0 -262 -6v41q74 3 107.5 16t46 48t12.5 112
v1016q0 77 -12.5 112t-46 48t-107.5 16v41q85 -6 262 -6q150 0 240 6v-41q-65 -3 -94.5 -16t-40.5 -48t-11 -112v-1016q0 -77 12.5 -113.5t47 -49.5t106.5 -13h162q72 0 106.5 13t47 49.5t12.5 113.5v1016q0 77 -10.5 112t-39.5 48t-95 16v41q89 -6 239 -6q163 0 242 6v-41
q-66 -3 -95.5 -16t-40 -48t-10.5 -112v-1016q0 -77 12.5 -113.5t47 -49.5t106.5 -13h162q72 0 106.5 13t47 49.5t12.5 113.5v1016q0 77 -10.5 112t-39.5 48t-95 16v41q89 -6 239 -6q177 0 262 6v-41q-74 -3 -107.5 -16z" />
    <glyph glyph-name="uni0429" unicode="&#x429;" horiz-adv-x="2038" 
d="M1826.5 1393q-33.5 -13 -46 -48t-12.5 -112v-1016q0 -77 12.5 -113.5t47 -49.5t106.5 -13h64q-14 -134 -14 -242q0 -81 6 -127h-47q-15 134 -37.5 200t-76.5 97t-161 31h-340q-82 0 -198 4q-90 2 -117 2q-29 0 -121 -2q-120 -4 -203 -4q-13 0 -190 3q-80 3 -152 3
q-176 0 -262 -6v41q74 3 107.5 16t46 48t12.5 112v1016q0 77 -12.5 112t-46 48t-107.5 16v41q85 -6 262 -6q150 0 240 6v-41q-65 -3 -94.5 -16t-40.5 -48t-11 -112v-1016q0 -77 12.5 -113.5t47 -49.5t106.5 -13h142q72 0 106 13t46.5 49.5t12.5 113.5v1016q0 78 -10.5 112.5
t-39.5 47.5t-95 16v41q89 -6 240 -6q161 0 241 6v-41q-66 -3 -95 -16t-39.5 -47.5t-10.5 -112.5v-1016q0 -77 12.5 -113.5t47 -49.5t106.5 -13h141q72 0 106.5 13t47 49.5t12.5 113.5v1016q0 78 -10.5 112.5t-39.5 47.5t-95 16v41q89 -6 239 -6q176 0 262 6v-41
q-74 -3 -107.5 -16z" />
    <glyph glyph-name="uni040F" unicode="&#x40f;" 
d="M1355.5 1393q-33.5 -13 -46 -48t-12.5 -112v-1016q0 -77 12.5 -112t46 -48t107.5 -16v-41q-85 6 -262 6q-57 0 -165 -2h3q-91 0 -136.5 -32t-65 -99t-31.5 -201h-47q-13 134 -32 201t-65 99t-137 32h1q-116 2 -179 2q-176 0 -262 -6v41q74 3 107.5 16t46 48t12.5 112
v1016q0 77 -12.5 112t-46 48t-107.5 16v41q85 -6 262 -6q166 0 260 6v-41q-74 -3 -107.5 -16t-46 -48t-12.5 -112v-1016q0 -77 12.5 -113.5t47 -49.5t106.5 -13h334q72 0 106.5 13t47 49.5t12.5 113.5v1016q0 77 -12.5 112t-46 48t-107.5 16v41q96 -6 260 -6q176 0 262 6
v-41q-74 -3 -107.5 -16z" />
    <glyph glyph-name="uni042F" unicode="&#x42f;" horiz-adv-x="1337" 
d="M1143.5 1393q-33.5 -13 -46 -48t-12.5 -112v-1016q0 -77 12.5 -112t46 -48t107.5 -16v-41q-86 6 -262 6q-164 0 -260 -6v41q74 3 107.5 16t46 48t12.5 112v471h-205q-77 0 -120.5 -34.5t-65 -92t-45.5 -164.5l-45 -204q-28 -124 -82 -173t-137 -49q-78 0 -125 31t-95 100
l31 23q34 -43 56.5 -60.5t55.5 -17.5q28 0 45.5 17t29.5 52t26 99l47 209q20 87 54 140t91.5 84t149.5 46l27 4q-142 22 -229 83t-123.5 142t-36.5 169q0 102 55.5 182.5t166.5 127t271 46.5l87 -1q186 -3 222 -3q164 0 250 6v-41q-74 -3 -107.5 -16zM433 895
q30 -77 108 -121.5t217 -44.5h137v504q0 73 -12 110t-44 51.5t-96 14.5q-178 0 -259 -84t-81 -242q0 -111 30 -188z" />
    <glyph glyph-name="uni042C" unicode="&#x42c;" horiz-adv-x="1188" 
d="M901.5 810q110.5 -52 166 -144t55.5 -213q0 -113 -49.5 -215t-170 -170t-318.5 -68q-43 0 -96 3q-129 3 -142 3q-176 0 -262 -6v41q74 3 107.5 16t46 48t12.5 112v1016q0 77 -12.5 112t-46 48t-107.5 16v41q86 -6 262 -6q195 0 301 6v-41q-91 -3 -133 -16t-58 -48
t-16 -112v-374q42 0 102 2l87 1q161 0 271.5 -52zM846.5 145.5q72.5 104.5 72.5 284.5q0 199 -79.5 296t-260.5 97q-46 0 -138 -2v-604q0 -78 10 -114t39.5 -49t94.5 -13q189 0 261.5 104.5z" />
    <glyph glyph-name="uni042A" unicode="&#x42a;" horiz-adv-x="1495" 
d="M1209 810q111 -52 166.5 -144t55.5 -213q0 -113 -50 -215t-170.5 -170t-318.5 -68q-44 0 -96 3q-126 3 -142 3q-175 0 -262 -6v41q74 3 107.5 16t46 48t12.5 112v1186h-131q-127 0 -188.5 -35.5t-86 -112t-40.5 -235.5h-47q6 64 6 168q0 120 -15 262q176 -6 598 -6
q195 0 301 6v-41q-91 -3 -132.5 -16t-57.5 -48t-16 -112v-374q41 0 101 2l87 1q161 0 272 -52zM1153.5 145.5q72.5 104.5 72.5 284.5q0 199 -79.5 296t-260.5 97q-45 0 -137 -2v-604q0 -79 10 -114.5t39 -48.5t94 -13q189 0 261.5 104.5z" />
    <glyph glyph-name="uni042B" unicode="&#x42b;" horiz-adv-x="1821" 
d="M901.5 810q110.5 -52 166 -144t55.5 -213q0 -113 -49.5 -215t-170 -170t-318.5 -68q-43 0 -96 3q-129 3 -142 3q-176 0 -262 -6v41q74 3 107.5 16t46 48t12.5 112v1016q0 77 -12.5 112t-46 48t-107.5 16v41q86 -6 262 -6q195 0 301 6v-41q-91 -3 -133 -16t-58 -48
t-16 -112v-374q42 0 102 2l87 1q161 0 271.5 -52zM1626.5 1393q-33.5 -13 -46 -48t-12.5 -112v-1016q0 -77 12.5 -112t46 -48t107.5 -16v-41q-96 6 -260 6q-176 0 -263 -6v41q74 3 107.5 16t46 48t12.5 112v1016q0 77 -12.5 112t-46 48t-107.5 16v41q87 -6 263 -6
q164 0 260 6v-41q-74 -3 -107.5 -16zM846.5 145.5q72.5 104.5 72.5 284.5q0 199 -79.5 296t-260.5 97q-46 0 -138 -2v-604q0 -78 10 -114t39.5 -49t94.5 -13q189 0 261.5 104.5z" />
    <glyph glyph-name="uni0409" unicode="&#x409;" horiz-adv-x="1901" 
d="M1791.5 201.5q-47.5 -86.5 -162.5 -142.5t-306 -59h-2h-21q-41 0 -111 5q-40 1 -128 1q-194 0 -301 -6v41q91 3 133 16t58 48t16 112v1016q0 77 -12.5 113.5t-47 49.5t-106.5 13h-27q-73 0 -105 -13.5t-43 -47t-18 -115.5l-15 -200q-21 -326 -52.5 -539t-117 -368
t-243.5 -155q-77 0 -131.5 34.5t-54.5 105.5q0 53 34 84.5t87 31.5q45 0 74.5 -24.5t29.5 -65.5q0 -43 -21 -70.5t-67 -54.5q19 -2 49 -2q144 0 221.5 168.5t106.5 405.5t51 616l2 33q2 34 2 46q0 52 -14.5 78.5t-49.5 37.5t-104 14v41q87 -6 211 -6q2 0 92 3q45 3 88 3
q73 0 139 -3q141 -3 154 -3q159 0 244 6v-41q-74 -3 -107.5 -16t-46 -48t-12.5 -112v-473q120 2 189 2q160 0 271 -47.5t166.5 -131.5t55.5 -192q0 -103 -47.5 -189.5zM1511 90.5q70 45.5 96.5 120.5t26.5 178q0 116 -34.5 189t-113 109t-210.5 36l-119 -1v-505
q0 -75 12 -110t44.5 -48.5t102.5 -17.5q125 4 195 49.5z" />
    <glyph glyph-name="uni040A" unicode="&#x40a;" horiz-adv-x="2042" 
d="M1931.5 201.5q-47.5 -86.5 -162 -142.5t-306.5 -59h-2h-20q-42 0 -112 5q-39 1 -128 1q-164 0 -260 -6v41q74 3 107.5 16t46 48t12.5 112v492h-666v-492q0 -77 12.5 -112t46 -48t107.5 -16v-41q-94 6 -260 6q-176 0 -262 -6v41q74 3 107.5 16t46 48t12.5 112v1016
q0 77 -12.5 112t-46 48t-107.5 16v41q85 -6 262 -6q166 0 260 6v-41q-74 -3 -107.5 -16t-46 -48t-12.5 -112v-483h666v483q0 77 -12.5 112t-46 48t-107.5 16v41q96 -6 260 -6q176 0 262 6v-41q-74 -3 -107.5 -16t-46 -48t-12.5 -112v-474q8 1 23 1q106 2 166 2
q160 0 271 -47.5t166.5 -131t55.5 -192.5q0 -103 -47.5 -189.5zM1651.5 90.5q70.5 45.5 97 120.5t26.5 178q0 115 -35 188.5t-113.5 109.5t-210.5 36l-119 -1v-505q0 -76 12 -111t44.5 -48t102.5 -17q125 4 195.5 49.5z" />
    <glyph glyph-name="uni0405" unicode="&#x405;" horiz-adv-x="1106" 
d="M129 0zM631.5 1462.5q45.5 -10.5 75.5 -26t66 -39.5q46 -29 70 -29q19 0 29 21.5t16 68.5h47q-10 -120 -10 -418h-47q-8 105 -45.5 194t-110 144.5t-180.5 55.5q-72 0 -129 -30t-89 -84t-32 -124q0 -78 35.5 -135t91 -99t156.5 -104l61 -37q129 -81 204 -140.5t120 -138
t45 -182.5q0 -126 -58 -213.5t-156.5 -131.5t-220.5 -44q-98 0 -161 20.5t-119 55.5q-46 29 -70 29q-19 0 -29 -21.5t-16 -68.5h-47q8 112 8 491h47q14 -208 102 -336.5t271 -128.5q70 0 130.5 29t98 90.5t37.5 153.5q0 79 -38.5 141.5t-104.5 114.5t-176 118
q-122 73 -196 131t-121.5 138.5t-47.5 189.5q0 116 52.5 196t140 119.5t192.5 39.5q63 0 108.5 -10.5z" />
    <glyph glyph-name="uni0404" unicode="&#x404;" horiz-adv-x="1415" 
d="M1275 0h-47q-5 64 -16.5 92.5t-33.5 28.5q-16 0 -42 -17q-61 -43 -112.5 -70.5t-117.5 -45t-149 -17.5q-195 0 -341.5 88t-227 255.5t-80.5 398.5q0 226 83 400t231 270t337 96q122 0 208.5 -35t168.5 -98q23 -18 40 -18q42 0 52 122h47q-8 -133 -8 -471h-47
q-15 92 -27.5 143t-29.5 86.5t-46 73.5q-62 80 -157 120t-205 40q-133 0 -233 -88t-155 -251t-55 -382v-7q34 72 98.5 110t143.5 38q60 0 110 -20t117 -60q66 -38 111 -56.5t98 -18.5q57 0 103.5 28t64.5 86l31 -14q-27 -102 -103.5 -156.5t-175.5 -54.5q-63 0 -113 20.5
t-117 60.5q-65 38 -110 56.5t-100 18.5q-108 0 -157 -92q8 -204 69.5 -350.5t163.5 -222t229 -75.5q102 0 199 39t151 117q42 56 60 121.5t35 202.5h47q0 -353 8 -492z" />
    <glyph glyph-name="uni042D" unicode="&#x42d;" horiz-adv-x="1417" 
d="M993.5 1383q148.5 -96 231.5 -270t83 -400q0 -231 -80.5 -398.5t-227.5 -255.5t-342 -88q-83 0 -149 17.5t-117.5 45t-111.5 70.5q-26 17 -43 17q-21 0 -32.5 -28.5t-17.5 -92.5h-47q9 156 9 492h47q16 -136 34 -202t60 -122q55 -78 151.5 -117t198.5 -39q133 0 238 83
t165 243t60 383l-1 41q-34 -76 -98.5 -116t-144.5 -40q-61 0 -110.5 20.5t-119.5 60.5q-64 38 -109.5 56.5t-98.5 18.5q-57 0 -103 -28.5t-67 -86.5l-31 15q28 102 104.5 156t176.5 54q62 0 112 -20t120 -60q63 -37 109 -56t101 -19q108 0 158 92q-11 194 -68.5 337
t-153 219.5t-218.5 76.5q-111 0 -206 -40t-157 -120q-29 -38 -46 -74t-29 -87t-27 -142h-47q0 321 -9 471h47q12 -122 53 -122q17 0 40 18q82 63 168 98t208 35q189 0 337.5 -96z" />
    <glyph glyph-name="uni0406" unicode="&#x406;" horiz-adv-x="694" 
d="M86 0zM499.5 1393q-33.5 -13 -46 -48t-12.5 -112v-1016q0 -77 12.5 -112t46 -48t107.5 -16v-41q-94 6 -260 6q-176 0 -262 -6v41q74 3 107.5 16t46 48t12.5 112v1016q0 77 -12.5 112t-46 48t-107.5 16v41q85 -6 262 -6q166 0 260 6v-41q-74 -3 -107.5 -16z" />
    <glyph glyph-name="uni0407" unicode="&#x407;" horiz-adv-x="694" 
d="M12 0zM499.5 1393q-33.5 -13 -46 -48t-12.5 -112v-1016q0 -77 12.5 -112t46 -48t107.5 -16v-41q-94 6 -260 6q-176 0 -262 -6v41q74 3 107.5 16t46 48t12.5 112v1016q0 77 -12.5 112t-46 48t-107.5 16v41q85 -6 262 -6q166 0 260 6v-41q-74 -3 -107.5 -16zM188.5 1802.5
q27.5 -16.5 44 -44t16.5 -58.5q0 -32 -16.5 -59.5t-44 -43.5t-58.5 -16q-49 0 -84 35t-35 84q0 31 16 58.5t43.5 44t59.5 16.5q31 0 58.5 -16.5zM622.5 1802.5q27.5 -16.5 44 -44t16.5 -58.5q0 -32 -16.5 -59.5t-43.5 -43.5t-59 -16q-49 0 -84 35t-35 84q0 31 16 58.5
t43.5 44t59.5 16.5q31 0 58.5 -16.5z" />
    <glyph glyph-name="uni0408" unicode="&#x408;" horiz-adv-x="668" 
d="M0 0zM488.5 1393q-33.5 -13 -46 -48t-12.5 -112v-750q0 -174 -6.5 -308.5t-28.5 -225.5q-23 -96 -81 -171.5t-147.5 -119t-203.5 -43.5q-100 0 -172 37q-98 51 -98 141q0 48 30.5 78.5t77.5 30.5q49 0 81 -30t32 -81q0 -43 -23 -69.5t-63 -34.5q18 -18 56.5 -25.5
t74.5 -7.5q89 0 153.5 46t92.5 128q21 64 28 159.5t7 309.5v936q0 77 -12.5 112t-46 48t-107.5 16v41q85 -6 262 -6q164 0 260 6v-41q-74 -3 -107.5 -16z" />
    <glyph glyph-name="uni040B" unicode="&#x40b;" horiz-adv-x="1667" 
d="M1491.5 101q15.5 -32 48.5 -45t91 -13v-43l-27 1q-128 7 -225 7q-84 0 -201 -7l-28 -1v43q51 0 79.5 13t42 45t13.5 89v381q0 75 -16 125t-67.5 80.5t-151.5 30.5q-192 0 -320 -45v-524q0 -85 16 -124.5t58 -54.5t133 -18v-41q-108 6 -301 6q-205 0 -303 -6v41
q91 3 133 18t58 54.5t16 124.5v1165h-111q-127 0 -188.5 -35.5t-86 -112t-40.5 -235.5h-47q6 65 6 168q0 120 -15 262q170 -6 578 -6q405 0 575 6q-14 -146 -14 -262q0 -103 6 -168h-47q-16 159 -40.5 235.5t-86 112t-188.5 35.5h-111v-606q62 30 172.5 52.5t212.5 22.5
q168 0 262 -71q56 -43 77.5 -104t21.5 -171v-336q0 -57 15.5 -89z" />
    <glyph glyph-name="uni042E" unicode="&#x42e;" horiz-adv-x="2073" 
d="M1663 1391q142 -88 220 -255.5t78 -398.5q0 -226 -80.5 -400t-224 -270t-326.5 -96q-187 0 -328 86.5t-220 251t-81 391.5h-260v-483q0 -77 12.5 -112t46 -48t107.5 -16v-41q-94 6 -260 6q-176 0 -262 -6v41q74 3 107.5 16t46 48t12.5 112v1016q0 77 -12.5 112t-46 48
t-107.5 16v41q86 -6 262 -6q166 0 260 6v-41q-74 -3 -107.5 -16t-46 -48t-12.5 -112v-492h260q5 218 87 386t223.5 260t320.5 92q189 0 331 -88zM1558 99.5q95 91.5 146.5 255t51.5 374.5q0 213 -57.5 375t-156 250t-218.5 88q-125 0 -220 -91.5t-146.5 -255t-51.5 -374.5
q0 -213 57.5 -375t156 -250t218.5 -88q125 0 220 91.5z" />
    <glyph glyph-name="uni0402" unicode="&#x402;" horiz-adv-x="1599" 
d="M1326 804q96 -48 150.5 -144.5t54.5 -239.5q0 -151 -60.5 -252t-159 -149t-214.5 -48q-68 0 -128.5 19.5t-98 59t-37.5 97.5q0 50 28 80.5t78 30.5q47 0 78 -27t31 -73q0 -79 -88 -107q6 -19 37.5 -34t74.5 -15q133 0 196.5 100t63.5 299q0 123 -24 206t-90.5 131
t-186.5 48q-92 0 -174.5 -32t-126.5 -82v-695q-99 29 -270 29q-63 0 -127 -6v41q91 3 133 18t58 54.5t16 124.5v1165h-111q-127 0 -188.5 -35.5t-86 -112t-40.5 -235.5h-47q6 65 6 168q0 120 -15 262q170 -6 578 -6q405 0 575 6q-14 -146 -14 -262q0 -103 6 -168h-47
q-16 159 -40.5 235.5t-86 112t-188.5 35.5h-111v-688q62 58 161 97.5t212 39.5q127 0 223 -48z" />
    <glyph glyph-name="uni0430" unicode="&#x430;" horiz-adv-x="1262" 
d="M0 0zM1268 41v-41q-84 6 -219 6q-176 0 -263 -6v41q77 3 112 19t35 56q0 37 -28 97l-103 233h-500l-69 -153q-34 -79 -34 -131q0 -108 159 -121v-41q-61 6 -186 6t-178 -6v41q54 14 94 62.5t74 127.5l452 1024h33l479 -1083q56 -127 142 -131zM553 1008l-233 -521h464z
" />
    <glyph glyph-name="uni0431" unicode="&#x431;" horiz-adv-x="1241" 
d="M871.5 642q125.5 -26 198 -98.5t72.5 -207.5q0 -99 -56.5 -175t-163 -118.5t-251.5 -42.5l-90 2q-124 4 -242 4q-168 0 -254 -6v41q74 3 107.5 16t46 48t12.5 112v811q0 78 -12.5 113t-45.5 47.5t-108 15.5v41q85 -6 250 -6h289q315 0 448 6q-14 -123 -14 -221
q0 -80 6 -127h-47q-11 114 -38.5 179t-79 93.5t-136.5 28.5h-191q-56 0 -83 -13.5t-37.5 -48.5t-10.5 -108v-360h117q188 0 313.5 -26zM849 122q88 75 88 222q0 142 -82 215.5t-262 73.5h-152v-416q0 -74 10.5 -109t38 -48t84.5 -13q187 0 275 75z" />
    <glyph glyph-name="uni0432" unicode="&#x432;" horiz-adv-x="1235" 
d="M86 0zM1050 547.5q92 -89.5 92 -211.5q0 -99 -56.5 -175t-163 -118.5t-251.5 -42.5l-90 2q-124 4 -242 4q-168 0 -254 -6v41q74 3 107.5 16t46 48t12.5 112v811q0 78 -12.5 113t-45.5 47.5t-108 15.5v41q85 -6 250 -6q35 0 209 3l80 1q133 0 225.5 -35.5t139 -98.5
t46.5 -146q0 -99 -69 -177t-222 -118v-4q214 -27 306 -116.5zM489.5 1189.5q-27.5 -14.5 -38 -51.5t-10.5 -110v-360h117q157 0 219 71.5t62 200.5q0 132 -63.5 198t-203.5 66q-55 0 -82.5 -14.5zM849 122q88 75 88 222q0 142 -82 215.5t-262 73.5h-152v-416
q0 -74 10.5 -109t38 -48t84.5 -13q187 0 275 75z" />
    <glyph glyph-name="uni0433" unicode="&#x433;" horiz-adv-x="1096" 
d="M1011 983q0 -103 6 -168h-47q-16 159 -41 235.5t-86.5 112t-188.5 35.5h-47q-74 0 -107.5 -11.5t-46 -46.5t-12.5 -112v-811q0 -77 16 -112t58 -48t133 -16v-41q-106 6 -301 6q-176 0 -262 -6v41q74 3 107.5 16t46 48t12.5 112v811q0 77 -12.5 112t-46 48t-107.5 16v41
l74 -2q120 -4 186 -4q44 -1 129 -1l205 1q244 0 346 6q-14 -146 -14 -262z" />
    <glyph glyph-name="uni0453" unicode="&#x453;" horiz-adv-x="1096" 
d="M86 0zM1011 983q0 -103 6 -168h-47q-16 159 -41 235.5t-86.5 112t-188.5 35.5h-47q-74 0 -107.5 -11.5t-46 -46.5t-12.5 -112v-811q0 -77 16 -112t58 -48t133 -16v-41q-106 6 -301 6q-176 0 -262 -6v41q74 3 107.5 16t46 48t12.5 112v811q0 77 -12.5 112t-46 48
t-107.5 16v41l74 -2q120 -4 186 -4q44 -1 129 -1l205 1q244 0 346 6q-14 -146 -14 -262zM810 1785q42 0 63 -34q12 -18 12 -39q0 -44 -55 -80q-37 -23 -148 -67q-147 -57 -263 -115l-15 27q98 74 220 185q78 73 124 103q33 20 62 20z" />
    <glyph glyph-name="uni0491" unicode="&#x491;" horiz-adv-x="1071" 
d="M1011 1440q0 -108 14 -242h-418q-74 0 -107.5 -11.5t-46 -46.5t-12.5 -112v-811q0 -77 16 -112t58 -48t133 -16v-41q-106 6 -301 6q-176 0 -262 -6v41q74 3 107.5 16t46 48t12.5 112v811q0 77 -12.5 112t-46 48t-107.5 16v41q92 -6 266 -6q62 0 147 3q201 3 197 3
q108 0 161.5 29.5t76 94.5t37.5 198h47q-6 -46 -6 -127z" />
    <glyph glyph-name="uni0434" unicode="&#x434;" horiz-adv-x="1251" 
d="M1194 -201q0 -81 6 -127h-47q-15 134 -37.5 200t-76 97t-160.5 31h-543q-107 0 -161 -31t-76.5 -97t-37.5 -200h-47q6 46 6 127q0 108 -14 242h37q143 0 220 137t106.5 327t52.5 493l2 30q2 34 2 46q0 52 -14.5 78.5t-49.5 37.5t-104 14v41q86 -6 211 -6q2 0 71 3
q33 3 68 3q72 0 138 -3q141 -3 155 -3q157 0 244 6v-41q-74 -3 -107.5 -16t-46 -48t-12.5 -112v-811q0 -77 12.5 -113.5t47 -49.5t106.5 -13h63q-14 -134 -14 -242zM777 1143q-11 36 -40 48.5t-94 12.5h-27q-64 0 -91.5 -13.5t-37 -47t-16.5 -115.5q-7 -61 -16 -172
q-19 -216 -41 -360.5t-75 -271.5t-147 -183h431q72 0 106 13t46.5 49.5t12.5 113.5v811q0 79 -11 115z" />
    <glyph glyph-name="uni0435" unicode="&#x435;" horiz-adv-x="1219" 
d="M86 0zM1107 0q-133 6 -449 6q-378 0 -573 -6v41q74 3 107.5 16t46 48t12.5 112v811q0 77 -12.5 112t-46 48t-107.5 16v41q195 -6 573 -6q287 0 408 6q-14 -123 -14 -221q0 -80 6 -127h-47q-11 114 -38.5 179t-79 93.5t-136.5 28.5h-150q-74 0 -107.5 -11.5t-46 -46.5
t-12.5 -112v-381h170q65 0 100.5 33.5t47.5 74t22 101.5h47q-7 -80 -7 -152l1 -77q0 -82 13 -230h-48q-8 63 -22.5 107t-51 73t-102.5 29h-170v-389q0 -77 12.5 -111.5t46 -46.5t107.5 -12h150q101 0 161 32.5t91 106t43 203.5h47q-6 -55 -6 -147q0 -108 14 -242z" />
    <glyph glyph-name="uni0451" unicode="&#x451;" horiz-adv-x="1219" 
d="M86 0zM1107 0q-133 6 -449 6q-378 0 -573 -6v41q74 3 107.5 16t46 48t12.5 112v811q0 77 -12.5 112t-46 48t-107.5 16v41q195 -6 573 -6q287 0 408 6q-14 -123 -14 -221q0 -80 6 -127h-47q-11 114 -38.5 179t-79 93.5t-136.5 28.5h-150q-74 0 -107.5 -11.5t-46 -46.5
t-12.5 -112v-381h170q65 0 100.5 33.5t47.5 74t22 101.5h47q-7 -80 -7 -152l1 -77q0 -82 13 -230h-48q-8 63 -22.5 107t-51 73t-102.5 29h-170v-389q0 -77 12.5 -111.5t46 -46.5t107.5 -12h150q101 0 161 32.5t91 106t43 203.5h47q-6 -55 -6 -147q0 -108 14 -242z
M452.5 1683.5q27.5 -16.5 44 -44t16.5 -58.5q0 -32 -16.5 -59.5t-44 -43.5t-58.5 -16q-49 0 -84 35t-35 84q0 32 16 59t43.5 43.5t59.5 16.5q31 0 58.5 -16.5zM886.5 1683.5q27.5 -16.5 44 -44t16.5 -58.5q0 -32 -16.5 -59.5t-43.5 -43.5t-59 -16q-49 0 -84 35t-35 84
q0 32 16 59t43.5 43.5t59.5 16.5q31 0 58.5 -16.5z" />
    <glyph glyph-name="uni0436" unicode="&#x436;" horiz-adv-x="2015" 
d="M1911 30.5q-28 -27.5 -67 -43.5t-94 -16q-54 0 -92.5 16.5t-71 65t-55.5 140.5l-55 213q-24 81 -48.5 125.5t-79 71t-153.5 26.5h-92v-412q0 -77 12.5 -112t46 -48t107.5 -16v-41q-95 6 -260 6q-177 0 -262 -6v41q74 3 107.5 16t46 48t12.5 112v412h-107
q-100 0 -155 -26.5t-80 -72t-46 -124.5l-55 -213q-23 -92 -55.5 -140.5t-71 -65t-92.5 -16.5q-73 0 -118 32.5t-87 98.5l31 23q34 -43 56 -60.5t55 -17.5q28 0 45.5 17.5t29 50.5t29.5 100l59 217q25 97 98 151t203 74l33 4l-367 398q-50 52 -87 80.5t-73.5 42.5t-88.5 24
v39q58 -6 145 -6q131 0 242 6v-39q-114 -3 -114 -66q0 -40 48 -96l203 -229q68 -83 129.5 -112.5t137.5 -33.5h53v359q0 77 -12.5 112t-46 48t-107.5 16v41q85 -6 262 -6q165 0 260 6v-41q-74 -3 -107.5 -16t-46 -48t-12.5 -112v-359h52q76 4 137.5 33.5t129.5 112.5
l203 229q48 57 48 97q0 62 -113 65v39q109 -6 241 -6q87 0 146 6v-39q-52 -10 -88.5 -24t-74 -42.5t-87.5 -80.5l-368 -399l20 -3q138 -20 214.5 -73.5t104.5 -151.5l57 -217l8 -29q13 -53 22.5 -79.5t26.5 -43t45 -16.5q34 0 56 17.5t55 60.5l31 -23q-30 -44 -58 -71.5z
" />
    <glyph glyph-name="uni0437" unicode="&#x437;" horiz-adv-x="1085" 
d="M743 1242.5q83 -31.5 128.5 -92t45.5 -144.5q0 -96 -56 -166.5t-145.5 -113t-194.5 -60.5q119 -2 227.5 -39.5t177 -110.5t68.5 -176q0 -115 -61.5 -198t-179 -127t-281.5 -44q-182 0 -303 74q-96 61 -96 145q0 48 30.5 78.5t77.5 30.5q49 0 81 -30t32 -81
q0 -42 -23.5 -69t-62.5 -35q14 -20 56 -38t99 -29t115 -11q103 0 174 42t105.5 113t34.5 158q0 123 -61.5 210t-172.5 110q-40 8 -70 8q-48 -26 -88 -26q-18 0 -30.5 8.5t-12.5 25.5q0 33 43 33q33 0 91 -12q85 24 133 63.5t68 98t20 147.5q0 126 -43.5 188t-143.5 62
q-92 0 -163 -50t-113 -137.5t-49 -197.5h-47q0 297 -11 410h47q8 -49 17 -70t31 -21q23 0 67 29q56 34 112 55t134 21q110 0 193 -31.5z" />
    <glyph glyph-name="uni0438" unicode="&#x438;" 
d="M1355.5 1188q-33.5 -13 -46 -48t-12.5 -112v-811q0 -77 12.5 -112t46 -48t107.5 -16v-41q-85 6 -262 6q-164 0 -260 -6v41q74 3 107.5 16t46 48t12.5 112v763l-665 -803q3 -57 17.5 -84.5t47.5 -38t100 -13.5v-41q-95 6 -260 6q-177 0 -262 -6v41q74 3 107.5 16t46 48
t12.5 112v811q0 77 -12.5 112t-46 48t-107.5 16v41q85 -6 262 -6q165 0 260 6v-41q-74 -3 -107.5 -16t-46 -48t-12.5 -112v-780l666 805q-2 65 -16 95t-47 41.5t-103 14.5v41q96 -6 260 -6q176 0 262 6v-41q-74 -3 -107.5 -16z" />
    <glyph glyph-name="uni0439" unicode="&#x439;" 
d="M86 0zM1355.5 1188q-33.5 -13 -46 -48t-12.5 -112v-811q0 -77 12.5 -112t46 -48t107.5 -16v-41q-85 6 -262 6q-164 0 -260 -6v41q74 3 107.5 16t46 48t12.5 112v763l-665 -803q3 -57 17.5 -84.5t47.5 -38t100 -13.5v-41q-95 6 -260 6q-177 0 -262 -6v41q74 3 107.5 16
t46 48t12.5 112v811q0 77 -12.5 112t-46 48t-107.5 16v41q85 -6 262 -6q165 0 260 6v-41q-74 -3 -107.5 -16t-46 -48t-12.5 -112v-780l666 805q-2 65 -16 95t-47 41.5t-103 14.5v41q96 -6 260 -6q176 0 262 6v-41q-74 -3 -107.5 -16zM1162.5 1751.5q30.5 -30.5 30.5 -82.5
q0 -42 -23.5 -75t-75.5 -64q-129 -78 -319 -78q-189 0 -320 78q-51 31 -74.5 64t-23.5 75q0 52 30 82.5t79 30.5t80.5 -30t31.5 -81q0 -42 -23.5 -69t-62.5 -35q43 -40 122.5 -57t160.5 -17t160.5 17t121.5 57q-39 8 -62.5 35t-23.5 69q0 51 32.5 81t80.5 30t78.5 -30.5z
" />
    <glyph glyph-name="uni045D" unicode="&#x45d;" 
d="M86 0zM1355.5 1188q-33.5 -13 -46 -48t-12.5 -112v-811q0 -77 12.5 -112t46 -48t107.5 -16v-41q-85 6 -262 6q-164 0 -260 -6v41q74 3 107.5 16t46 48t12.5 112v763l-665 -803q3 -57 17.5 -84.5t47.5 -38t100 -13.5v-41q-95 6 -260 6q-177 0 -262 -6v41q74 3 107.5 16
t46 48t12.5 112v811q0 77 -12.5 112t-46 48t-107.5 16v41q85 -6 262 -6q165 0 260 6v-41q-74 -3 -107.5 -16t-46 -48t-12.5 -112v-780l666 805q-2 65 -16 95t-47 41.5t-103 14.5v41q96 -6 260 -6q176 0 262 6v-41q-74 -3 -107.5 -16zM678 1661q127 -115 218 -184l-14 -27
q-119 60 -264 115q-111 44 -148 67q-54 36 -54 81q0 19 11 38q23 34 63 34q31 0 62 -20q41 -26 126 -104z" />
    <glyph glyph-name="uni043A" unicode="&#x43a;" horiz-adv-x="1356" 
d="M1251 30q-28 -27 -68 -43t-99 -16q-49 0 -86.5 16t-70 65t-56.5 141l-55 213q-21 79 -46 124.5t-80 72t-154 26.5h-95v-412q0 -77 12.5 -112t46 -48t107.5 -16v-41q-95 6 -260 6q-177 0 -262 -6v41q74 3 107.5 16t46 48t12.5 112v811q0 77 -12.5 112t-46 48t-107.5 16v41
q85 -6 262 -6q165 0 260 6v-41q-74 -3 -107.5 -16t-46 -48t-12.5 -112v-359q70 5 126.5 33t119.5 103l215 239q49 58 49 97q0 62 -116 65v39q109 -6 235 -6q93 0 152 6v-39q-53 -10 -90 -24t-74.5 -42.5t-85.5 -80.5l-363 -393q36 -2 80 -9q139 -20 216.5 -73.5
t103.5 -151.5l57 -217q18 -70 29 -102t27.5 -49t44.5 -17q34 0 56 17.5t56 60.5l31 -23q-31 -45 -59 -72z" />
    <glyph glyph-name="uni045C" unicode="&#x45c;" horiz-adv-x="1356" 
d="M86 0zM1251 30q-28 -27 -68 -43t-99 -16q-49 0 -86.5 16t-70 65t-56.5 141l-55 213q-21 79 -46 124.5t-80 72t-154 26.5h-95v-412q0 -77 12.5 -112t46 -48t107.5 -16v-41q-95 6 -260 6q-177 0 -262 -6v41q74 3 107.5 16t46 48t12.5 112v811q0 77 -12.5 112t-46 48
t-107.5 16v41q85 -6 262 -6q165 0 260 6v-41q-74 -3 -107.5 -16t-46 -48t-12.5 -112v-359q70 5 126.5 33t119.5 103l215 239q49 58 49 97q0 62 -116 65v39q109 -6 235 -6q93 0 152 6v-39q-53 -10 -90 -24t-74.5 -42.5t-85.5 -80.5l-363 -393q36 -2 80 -9
q139 -20 216.5 -73.5t103.5 -151.5l57 -217q18 -70 29 -102t27.5 -49t44.5 -17q34 0 56 17.5t56 60.5l31 -23q-31 -45 -59 -72zM939 1785q42 0 63 -34q12 -18 12 -39q0 -44 -55 -80q-37 -23 -148 -67q-147 -57 -263 -115l-15 27q98 74 220 185q78 73 124 103q33 20 62 20z
" />
    <glyph glyph-name="uni043B" unicode="&#x43b;" horiz-adv-x="1335" 
d="M1140.5 1188q-33.5 -13 -46 -48t-12.5 -112v-811q0 -77 12.5 -112t46 -48t107.5 -16v-41q-85 6 -258 6q-168 0 -264 -6v41q74 3 107.5 16t46 48t12.5 112v811q0 79 -11 115t-40.5 48.5t-93.5 12.5h-27q-64 0 -91.5 -13.5t-37.5 -46.5t-17 -116l-12 -159
q-20 -290 -47.5 -468.5t-101 -304t-211.5 -125.5q-71 0 -125.5 34.5t-54.5 105.5q0 52 33.5 84t86.5 32q47 0 76 -24.5t29 -69.5q0 -70 -88 -121q18 -2 49 -2q122 0 187 142.5t89 340.5t42 514l1 21q2 34 2 47q0 52 -14 78t-49 37t-105 14v41q87 -6 199 -6q19 0 94 3
q38 3 88 3t107 -3q138 -3 164 -3q150 0 235 6v-41q-74 -3 -107.5 -16z" />
    <glyph glyph-name="uni043C" unicode="&#x43c;" horiz-adv-x="1743" 
d="M86 0zM1548.5 1188q-33.5 -13 -46 -48t-12.5 -112v-811q0 -77 12.5 -112t46 -48t107.5 -16v-41q-96 6 -260 6q-176 0 -262 -6v41q74 3 107 16t45.5 48t12.5 112v899l-493 -1126h-33l-475 1124v-876q0 -79 14 -119t52.5 -57.5t119.5 -20.5v-41q-73 6 -209 6
q-122 0 -190 -6v41q71 3 105.5 20.5t47.5 57.5t13 119v790q0 77 -12.5 112t-46 48t-107.5 16v41q67 -6 190 -6q97 0 175 6l410 -998l439 992h97q164 0 260 6v-41q-74 -3 -107.5 -16z" />
    <glyph glyph-name="uni043D" unicode="&#x43d;" horiz-adv-x="1509" 
d="M86 0zM1314.5 1188q-33.5 -13 -46 -48t-12.5 -112v-811q0 -77 12.5 -112t46 -48t107.5 -16v-41q-85 6 -262 6q-164 0 -260 -6v41q74 3 107.5 16t46 48t12.5 112v408h-625v-408q0 -77 12.5 -112t46 -48t107.5 -16v-41q-94 6 -260 6q-176 0 -262 -6v41q74 3 107.5 16t46 48
t12.5 112v811q0 77 -12.5 112t-46 48t-107.5 16v41q85 -6 262 -6q166 0 260 6v-41q-74 -3 -107.5 -16t-46 -48t-12.5 -112v-362h625v362q0 77 -12.5 112t-46 48t-107.5 16v41q96 -6 260 -6q177 0 262 6v-41q-74 -3 -107.5 -16z" />
    <glyph glyph-name="uni043E" unicode="&#x43e;" horiz-adv-x="1477" 
d="M109 0zM1069 1198.5q142 -75.5 220 -219.5t78 -344q0 -196 -80.5 -346.5t-224 -234t-326.5 -83.5q-189 0 -330.5 75.5t-219.5 219.5t-78 344q0 196 80.5 347t223.5 234t326 83q189 0 331 -75.5zM510 1158.5q-95 -78.5 -146.5 -219t-51.5 -321.5q0 -182 57.5 -321
t156 -214t218.5 -75q125 0 220 78.5t146.5 219t51.5 321.5q0 182 -57.5 321t-156 214t-218.5 75q-125 0 -220 -78.5z" />
    <glyph glyph-name="uni043F" unicode="&#x43f;" horiz-adv-x="1509" 
d="M1314.5 1188q-33.5 -13 -46 -48t-12.5 -112v-811q0 -77 12.5 -112t46 -48t107.5 -16v-41q-85 6 -262 6q-164 0 -260 -6v41q74 3 107.5 16t46 48t12.5 112v811q0 78 -12.5 114t-46.5 49t-107 13h-293q-73 0 -107 -13t-46.5 -49t-12.5 -114v-811q0 -77 12.5 -112t46 -48
t107.5 -16v-41q-94 6 -260 6q-176 0 -262 -6v41q74 3 107.5 16t46 48t12.5 112v811q0 77 -12.5 112t-46 48t-107.5 16v41q85 -6 262 -6q96 0 254 4q122 2 156 2t154 -2q154 -4 249 -4q177 0 262 6v-41q-74 -3 -107.5 -16z" />
    <glyph glyph-name="uni0440" unicode="&#x440;" horiz-adv-x="1159" 
d="M86 0zM441 217q0 -77 12.5 -112t46 -48t107.5 -16v-41q-94 6 -260 6q-176 0 -262 -6v41q74 3 107.5 16t46 48t12.5 112v811q0 77 -12.5 112t-46 48t-107.5 16v41q85 -6 250 -6q36 0 222 3l87 1q147 0 249 -43t153 -120t51 -179q0 -98 -48 -188t-164 -149.5t-306 -59.5
h-138v-287zM497 1189.5q-32 -14.5 -44 -51.5t-12 -110v-483h117q190 0 262 89.5t72 244.5q0 166 -69.5 245.5t-229.5 79.5q-64 0 -96 -14.5z" />
    <glyph glyph-name="uni0441" unicode="&#x441;" horiz-adv-x="1317" 
d="M111 0zM844.5 1256.5q55.5 -17.5 98 -45.5t92.5 -70q25 -20 40 -20q42 0 52 124h48q-9 -118 -9 -430h-47q-20 107 -40.5 157.5t-61.5 104.5q-58 76 -137.5 116t-167.5 40q-120 0 -210 -74t-139 -213t-49 -328q0 -192 54.5 -328.5t148 -207t209.5 -70.5q91 0 174 40
t139 116q40 53 59.5 112.5t35.5 170.5h47q0 -323 8 -451h-47q-10 124 -51 124q-16 0 -41 -20q-78 -65 -152.5 -99t-179.5 -34q-183 0 -320 75.5t-212.5 219.5t-75.5 344q0 196 78 347t216.5 234t315.5 83q69 0 124.5 -17.5z" />
    <glyph glyph-name="uni0442" unicode="&#x442;" horiz-adv-x="1292" 
d="M70 0zM1207 1004q0 -106 6 -168h-47q-12 143 -38.5 218.5t-86 109.5t-170.5 34h-131v-960q0 -85 16 -124.5t58 -54.5t133 -18v-41q-106 6 -301 6q-204 0 -303 -6v41q91 3 133 18t58 54.5t16 124.5v960h-131q-111 0 -170 -34t-86 -110t-39 -218h-47q6 65 6 168
q0 107 -14 241q170 -6 577 -6q406 0 576 6q-15 -131 -15 -241z" />
    <glyph glyph-name="uni0443" unicode="&#x443;" horiz-adv-x="1251" 
d="M1261 1245v-43q-33 -9 -63 -41.5t-69 -97.5l-436 -735l-94 -160q-60 -104 -113 -145q-66 -52 -155 -52q-64 0 -104 32.5t-40 90.5q0 49 31 79t78 30q45 0 74.5 -25.5t29.5 -71.5q0 -58 -55 -90q4 -2 12 -2q104 0 193 154l65 110l-481 809q-69 115 -119 115v43
q111 -6 183 -6q155 0 284 6v-43q-70 0 -107 -11t-37 -51q0 -34 36 -96l347 -588l304 519q47 81 47 132q0 86 -143 95v43q117 -6 174 -6q80 0 158 6z" />
    <glyph glyph-name="uni045E" unicode="&#x45e;" horiz-adv-x="1251" 
d="M16 0zM1261 1245v-43q-33 -9 -63 -41.5t-69 -97.5l-436 -735l-94 -160q-60 -104 -113 -145q-66 -52 -155 -52q-64 0 -104 32.5t-40 90.5q0 49 31 79t78 30q45 0 74.5 -25.5t29.5 -71.5q0 -58 -55 -90q4 -2 12 -2q104 0 193 154l65 110l-481 809q-69 115 -119 115v43
q111 -6 183 -6q155 0 284 6v-43q-70 0 -107 -11t-37 -51q0 -34 36 -96l347 -588l304 519q47 81 47 132q0 86 -143 95v43q117 -6 174 -6q80 0 158 6zM1056.5 1559.5q30.5 -30.5 30.5 -82.5q0 -42 -23.5 -75t-75.5 -64q-129 -78 -319 -78q-189 0 -320 78q-51 31 -74.5 64
t-23.5 75q0 52 30 82.5t79 30.5t80.5 -30t31.5 -81q0 -42 -23.5 -69t-62.5 -35q43 -40 122.5 -57t160.5 -17t160.5 17t121.5 57q-39 8 -62.5 35t-23.5 69q0 51 32.5 81t80.5 30t78.5 -30.5z" />
    <glyph glyph-name="uni0444" unicode="&#x444;" horiz-adv-x="1583" 
d="M1443 381q-80 -112 -225 -180.5t-334 -82.5v-44q0 -77 12.5 -112t46 -48t107.5 -16v-41q-96 6 -260 6q-176 0 -263 -6v41q74 3 107.5 16t46 48t12.5 112v44q-194 13 -336.5 76t-220.5 174t-78 263q0 136 79.5 243.5t223.5 172.5t332 79v45q0 77 -12.5 112t-45.5 48
t-108 17v41q81 -7 263 -7q170 0 260 7v-41q-75 -4 -108 -17t-45.5 -48t-12.5 -112v-44q195 -12 338.5 -72t222 -167t78.5 -253q0 -142 -80 -254zM318 407.5q55 -101.5 152.5 -165t222.5 -82.5v929q-130 -16 -227.5 -77.5t-150 -158t-52.5 -214.5q0 -130 55 -231.5z
M1262.5 849.5q-55.5 97.5 -154 158.5t-224.5 79v-930q131 16 229.5 80t151.5 164.5t53 225.5t-55.5 222.5z" />
    <glyph glyph-name="uni0445" unicode="&#x445;" horiz-adv-x="1257" 
d="M33 0zM1171 70q26 -21 61 -27v-43q-93 6 -166 6q-121 0 -289 -6v43q67 0 98 7.5t31 27.5q0 15 -16 35l-319 439l-259 -339q-35 -47 -35 -89q0 -38 30.5 -60.5t92.5 -22.5v-41q-116 6 -231 6q-35 0 -77 -3l-60 -3v41q43 4 98.5 44.5t95.5 92.5l317 412l-372 510
q-31 42 -48 61.5t-35 29t-44 11.5v43q93 -6 166 -6q121 0 289 6v-43q-67 0 -98 -7.5t-31 -26.5q0 -15 16 -35l299 -410l240 311q34 45 34 85q0 38 -32.5 61.5t-96.5 23.5v41q117 -6 232 -6q88 0 137 6v-41q-45 -5 -97 -41.5t-99 -97.5l-292 -378l394 -542q40 -54 66 -75z
" />
    <glyph glyph-name="uni0447" unicode="&#x447;" horiz-adv-x="1343" 
d="M1149 1188q-33 -13 -45.5 -48t-12.5 -112v-811q0 -77 12.5 -112t45.5 -48t107 -16v-41q-85 6 -264 6q-191 0 -299 -6v41q91 3 133 16t58 48t16 112v333q-64 -32 -155 -53.5t-185 -21.5q-171 0 -266 72q-56 42 -77 103t-21 171v234q0 57 -15.5 89t-49 45t-91.5 13v43
l27 -1q128 -7 225 -7q84 0 201 7l28 1v-43q-51 0 -79.5 -13t-42 -45t-13.5 -89v-279q0 -82 18 -131t73 -76.5t163 -27.5q152 0 260 45v442q0 77 -12.5 112t-46 48t-107.5 16v41q87 -6 258 -6q170 0 264 6v-41q-74 -3 -107 -16z" />
    <glyph glyph-name="uni0446" unicode="&#x446;" horiz-adv-x="1499" 
d="M1284.5 1188q-33.5 -13 -46 -48t-12.5 -112v-811q0 -77 12.5 -113.5t46.5 -49.5t107 -13h63q-14 -134 -14 -242q0 -81 6 -127h-47q-15 134 -37.5 200t-76.5 97t-161 31h-368q-34 0 -156 2q-158 4 -254 4q-176 0 -262 -6v41q74 3 107.5 16t46 48t12.5 112v811
q0 77 -12.5 112t-46 48t-107.5 16v41q85 -6 262 -6q166 0 260 6v-41q-74 -3 -107.5 -16t-46 -48t-12.5 -112v-811q0 -77 12.5 -113.5t47 -49.5t106.5 -13h262q73 0 107 13t46.5 49.5t12.5 113.5v811q0 77 -12.5 112t-46 48t-107.5 16v41q96 -6 260 -6q176 0 263 6v-41
q-74 -3 -107.5 -16z" />
    <glyph glyph-name="uni0448" unicode="&#x448;" horiz-adv-x="2001" 
d="M1806.5 1188q-33.5 -13 -46 -48t-12.5 -112v-811q0 -77 12.5 -112t46 -48t107.5 -16v-41q-86 6 -262 6q-78 0 -159 -3q-174 -3 -175 -3q-83 0 -199 4q-88 2 -116 2q-29 0 -121 -2q-120 -4 -203 -4q-7 0 -178 3q-79 3 -154 3q-176 0 -262 -6v41q74 3 107.5 16t46 48
t12.5 112v811q0 77 -12.5 112t-46 48t-107.5 16v41q85 -6 262 -6q150 0 240 6v-41q-65 -3 -94.5 -16t-40.5 -48t-11 -112v-811q0 -77 12.5 -113.5t47 -49.5t106.5 -13h131q73 0 107 13t46.5 49.5t12.5 113.5v811q0 78 -10.5 112.5t-39.5 47.5t-95 16v41q89 -6 239 -6
q163 0 242 6v-41q-66 -3 -95 -16t-39.5 -47.5t-10.5 -112.5v-811q0 -77 12.5 -113.5t46.5 -49.5t107 -13h131q72 0 106.5 13t47 49.5t12.5 113.5v811q0 78 -10.5 112.5t-40 47.5t-95.5 16v41q90 -6 240 -6q177 0 262 6v-41q-74 -3 -107.5 -16z" />
    <glyph glyph-name="uni0449" unicode="&#x449;" horiz-adv-x="2021" 
d="M1806.5 1188q-33.5 -13 -46 -48t-12.5 -112v-811q0 -77 12.5 -113.5t47 -49.5t106.5 -13h63q-14 -134 -14 -242q0 -81 6 -127h-47q-15 134 -37.5 200t-76 97t-160.5 31h-330q-83 0 -199 4q-88 2 -116 2q-29 0 -121 -2q-120 -4 -203 -4q-7 0 -178 3q-79 3 -154 3
q-176 0 -262 -6v41q74 3 107.5 16t46 48t12.5 112v811q0 77 -12.5 112t-46 48t-107.5 16v41q85 -6 262 -6q150 0 240 6v-41q-65 -3 -94.5 -16t-40.5 -48t-11 -112v-811q0 -77 12.5 -113.5t47 -49.5t106.5 -13h131q73 0 107 13t46.5 49.5t12.5 113.5v811q0 78 -10.5 112.5
t-39.5 47.5t-95 16v41q89 -6 239 -6q163 0 242 6v-41q-66 -3 -95 -16t-39.5 -47.5t-10.5 -112.5v-811q0 -77 12.5 -113.5t46.5 -49.5t107 -13h131q72 0 106.5 13t47 49.5t12.5 113.5v811q0 78 -10.5 112.5t-40 47.5t-95.5 16v41q90 -6 240 -6q177 0 262 6v-41
q-74 -3 -107.5 -16z" />
    <glyph glyph-name="uni045F" unicode="&#x45f;" horiz-adv-x="1481" 
d="M1286.5 1188q-33.5 -13 -46 -48t-12.5 -112v-811q0 -77 12.5 -112t46 -48t107.5 -16v-41q-87 6 -262 6q-66 0 -176 -2q-71 -7 -107.5 -42.5t-53 -101t-28.5 -188.5h-47q-12 123 -28 188t-53 100.5t-107 43.5q-118 2 -185 2q-176 0 -262 -6v41q74 3 107.5 16t46 48
t12.5 112v811q0 77 -12.5 112t-46 48t-107.5 16v41q85 -6 262 -6q166 0 260 6v-41q-74 -3 -107.5 -16t-46 -48t-12.5 -112v-811q0 -77 12 -113.5t43.5 -49.5t96.5 -13h278q73 0 107 13t46.5 49.5t12.5 113.5v811q0 77 -12.5 112t-46 48t-107.5 16v41q96 -6 261 -6
q175 0 262 6v-41q-74 -3 -107.5 -16z" />
    <glyph glyph-name="uni044C" unicode="&#x44c;" horiz-adv-x="1159" 
d="M985 581.5q112 -93.5 112 -235.5q0 -105 -54.5 -182.5t-161 -119.5t-257.5 -42l-80 1q-174 3 -209 3q-164 0 -250 -6v41q74 3 107.5 15.5t46 47.5t12.5 113v811q0 77 -12.5 112t-46 48t-107.5 16v41q85 -6 262 -6q166 0 260 6v-41q-74 -3 -107.5 -16t-46 -48t-12.5 -112
v-348l158 -2q274 -3 386 -96.5zM817 116.5q75 75.5 75 223.5q0 92 -26 157t-95 103.5t-192 38.5h-138v-422q0 -73 10.5 -110t38 -51.5t82.5 -14.5q170 0 245 75.5z" />
    <glyph glyph-name="uni044A" unicode="&#x44a;" horiz-adv-x="1477" 
d="M1302.5 581.5q111.5 -93.5 111.5 -235.5q0 -105 -54.5 -182.5t-161 -119.5t-257.5 -42l-80 1q-174 3 -209 3q-163 0 -250 -6v41q75 3 108 15.5t45.5 47.5t12.5 113v981h-151q-111 0 -170 -34t-86 -110t-39 -218h-47q6 65 6 168q0 107 -14 241q176 -6 598 -6q164 0 260 6
v-41q-74 -3 -107.5 -16t-46 -48t-12.5 -112v-348l158 -2q274 -3 385.5 -96.5zM1134 116.5q75 75.5 75 223.5q0 92 -26 157t-95 103.5t-192 38.5h-137v-422q0 -73 10 -110t37.5 -51.5t83.5 -14.5q169 0 244 75.5z" />
    <glyph glyph-name="uni044B" unicode="&#x44b;" horiz-adv-x="1731" 
d="M985 581.5q112 -93.5 112 -235.5q0 -105 -54.5 -182.5t-161 -119.5t-257.5 -42l-80 1q-174 3 -209 3q-164 0 -250 -6v41q74 3 107.5 15.5t46 47.5t12.5 113v811q0 77 -12.5 112t-46 48t-107.5 16v41q85 -6 262 -6q166 0 260 6v-41q-74 -3 -107.5 -16t-46 -48t-12.5 -112
v-348l158 -2q274 -3 386 -96.5zM1536.5 1188q-33.5 -13 -46 -48t-12.5 -112v-811q0 -77 12.5 -112t46 -48t107.5 -16v-41q-96 6 -261 6q-175 0 -262 -6v41q74 3 107.5 16t46 48t12.5 112v811q0 77 -12.5 112t-46 48t-107.5 16v41q87 -6 262 -6q165 0 261 6v-41
q-74 -3 -107.5 -16zM817 116.5q75 75.5 75 223.5q0 92 -26 157t-95 103.5t-192 38.5h-138v-422q0 -73 10.5 -110t38 -51.5t82.5 -14.5q170 0 245 75.5z" />
    <glyph glyph-name="uni0459" unicode="&#x459;" horiz-adv-x="1843" 
d="M1663 583q112 -94 112 -237q0 -164 -128 -255t-399 -91q-34 0 -94 4q-98 2 -164 2q-168 0 -264 -6v41q74 3 107.5 16t46 48t12.5 112v811q0 79 -11 115t-40.5 48.5t-93.5 12.5h-27q-64 0 -91.5 -13.5t-37.5 -46.5t-17 -116l-12 -159q-20 -290 -47.5 -468.5t-101 -304
t-211.5 -125.5q-71 0 -125.5 34.5t-54.5 105.5q0 52 33.5 84t86.5 32q47 0 76 -24.5t29 -69.5q0 -70 -88 -121q18 -2 49 -2q122 0 187 142.5t89 340.5t42 514l1 21q2 34 2 47q0 52 -14 78t-49 37t-105 14v41q87 -6 199 -6q19 0 94 3q38 3 88 3t107 -3q138 -3 164 -3
q150 0 235 6v-41q-74 -3 -107.5 -16t-46 -48t-12.5 -112v-349l195 -1q274 -1 386 -95zM1494.5 116.5q75.5 75.5 75.5 223.5q0 92 -26 157t-95.5 103.5t-192.5 38.5h-174v-422q0 -77 12.5 -112t46 -48t107.5 -16q171 0 246.5 75.5z" />
    <glyph glyph-name="uni045A" unicode="&#x45a;" horiz-adv-x="1982" 
d="M1802.5 582q111.5 -93 111.5 -236q0 -105 -54.5 -182.5t-161 -119.5t-257.5 -42l-80 1q-174 3 -209 3q-163 0 -250 -6v41q74 3 107.5 15.5t46 47.5t12.5 113v422h-627v-422q0 -77 12.5 -112t46 -48t107.5 -16v-41q-94 6 -260 6q-176 0 -262 -6v41q74 3 107.5 16t46 48
t12.5 112v811q0 77 -12.5 112t-46 48t-107.5 16v41q85 -6 262 -6q166 0 260 6v-41q-74 -3 -107.5 -16t-46 -48t-12.5 -112v-348h627v348q0 77 -12.5 112t-46 48t-107.5 16v41q87 -6 262 -6q165 0 260 6v-41q-74 -3 -107 -16t-45.5 -48t-12.5 -112v-348l157 -2
q275 -3 386.5 -96zM1634 116.5q75 75.5 75 223.5q0 92 -26 157t-95 103.5t-192 38.5h-137v-422q0 -73 10 -110t37.5 -51.5t83.5 -14.5q169 0 244 75.5z" />
    <glyph glyph-name="uni0454" unicode="&#x454;" horiz-adv-x="1329" 
d="M1189 0h-47q-10 124 -51 124q-16 0 -41 -20q-60 -48 -102 -74t-100.5 -42.5t-139.5 -16.5q-174 0 -309.5 75.5t-212 218.5t-76.5 339q0 198 78 350.5t215 236t309 83.5q75 0 130 -16.5t95 -42.5t98 -74q25 -20 40 -20q42 0 52 124h48q-9 -118 -9 -430h-47
q-18 99 -39.5 155t-62.5 107q-124 156 -301 156q-122 0 -213 -74t-140 -211.5t-49 -322.5v-17q35 58 95 89.5t129 31.5q48 0 87 -14t90 -42q49 -26 84 -39t77 -13q51 0 94 21.5t61 66.5l29 -13q-27 -86 -97.5 -133t-158.5 -47q-52 0 -91.5 14.5t-91.5 43.5q-49 27 -83.5 40
t-79.5 13q-97 0 -142 -69q9 -176 65 -299t145.5 -185t199.5 -62q88 0 172.5 39.5t140.5 114.5q37 48 59 114t36 171h47q0 -323 8 -451z" />
    <glyph glyph-name="uni044D" unicode="&#x44d;" horiz-adv-x="1329" 
d="M927 1190.5q137 -83.5 215 -236t78 -350.5q0 -196 -76.5 -339t-212 -218.5t-309.5 -75.5q-81 0 -139.5 16.5t-101 43t-101.5 73.5q-25 20 -41 20q-21 0 -33.5 -30t-18.5 -94h-47q9 144 9 451h47q13 -98 34 -165t60 -120q56 -75 140.5 -114.5t172.5 -39.5
q117 0 210.5 70.5t147.5 208.5t54 334l-1 38q-33 -58 -93.5 -90t-128.5 -32q-47 0 -84 13.5t-89 41.5q-48 25 -83 38t-76 13q-50 0 -92 -21.5t-60 -64.5l-28 10q26 85 95.5 131t155.5 46q51 0 89 -14.5t90 -42.5q48 -26 81 -39t76 -13q101 0 145 76q-12 159 -63.5 276
t-135.5 179.5t-193 62.5q-90 0 -172 -41.5t-138 -114.5q-68 -88 -100 -262h-47q0 307 -8 430h47q10 -124 52 -124q17 0 40 20q58 48 98 74t95 42.5t130 16.5q173 0 310 -83.5z" />
    <glyph glyph-name="uni044E" unicode="&#x44e;" horiz-adv-x="1946" 
d="M1565 1198.5q128 -75.5 198.5 -219.5t70.5 -344q0 -195 -73 -346t-202.5 -234.5t-293.5 -83.5q-170 0 -298.5 75.5t-199 219.5t-70.5 344v15h-256v-408q0 -77 12.5 -112t46 -48t107.5 -16v-41q-95 6 -260 6q-177 0 -262 -6v41q74 3 107.5 16t46 48t12.5 112v811
q0 77 -12.5 112t-46 48t-107.5 16v41q85 -6 262 -6q165 0 260 6v-41q-74 -3 -107.5 -16t-46 -48t-12.5 -112v-362h258q10 181 85.5 319t200.5 213.5t282 75.5q170 0 298 -75.5zM1460.5 86.5q80.5 78.5 124.5 219t44 321.5q0 182 -49.5 320.5t-134 214t-186.5 75.5
q-107 0 -188 -78.5t-125 -219t-44 -321.5q0 -182 49.5 -321t134 -214t187.5 -75q107 0 187.5 78.5z" />
    <glyph glyph-name="uni044F" unicode="&#x44f;" horiz-adv-x="1294" 
d="M1100 1188.5q-33 -12.5 -45.5 -47.5t-12.5 -113v-811q0 -77 12.5 -112t46 -48t107.5 -16v-41q-86 6 -262 6q-164 0 -260 -6v41q74 3 107.5 16t46 48t12.5 112v348h-137q-74 0 -122 -14.5t-80.5 -55t-51.5 -118.5l-62 -250q-39 -156 -211 -156q-70 0 -119.5 29.5
t-88.5 85.5l28 27q62 -70 113 -70q31 0 50 29.5t36 101.5l43 180q18 74 54 118.5t87 67t123 33.5q26 4 39 5q-132 19 -211.5 72.5t-112 121t-32.5 135.5q0 105 54.5 180.5t160.5 115.5t258 40l81 -1q171 -3 207 -3q164 0 250 6v-41q-75 -3 -108 -15.5zM427.5 748
q26.5 -65 95.5 -103.5t192 -38.5h137v422q0 73 -10.5 110t-38 51.5t-82.5 14.5q-170 0 -245 -75t-75 -224q0 -92 26.5 -157z" />
    <glyph glyph-name="uni0452" unicode="&#x452;" horiz-adv-x="1548" 
d="M1279.5 654q89.5 -40 145 -121.5t55.5 -198.5q0 -119 -56.5 -201t-143.5 -122t-179 -40q-64 0 -123 19.5t-97 59t-38 97.5q0 50 28 80.5t78 30.5q48 0 78.5 -27t30.5 -73q0 -79 -88 -107q6 -19 37 -34t69 -15q58 0 105 38.5t73.5 109t26.5 163.5q0 145 -67 230.5
t-197 85.5q-80 0 -157.5 -31t-119.5 -79v-542q-98 29 -270 29q-62 0 -127 -6v41q91 3 133 18t58 54.5t16 124.5v960h-131q-111 0 -170 -34t-86 -110t-39 -218h-47q6 64 6 168q0 107 -14 241q170 -6 577 -6q406 0 576 6q-15 -131 -15 -241q0 -107 6 -168h-47
q-12 143 -38.5 218.5t-86 109.5t-170.5 34h-131v-637q58 57 152.5 95t196.5 38q101 0 190.5 -40z" />
    <glyph glyph-name="uni0455" unicode="&#x455;" horiz-adv-x="1096" 
d="M129 0zM631.5 1263.5q45.5 -10.5 75.5 -26t66 -39.5q48 -29 70 -29q19 0 29 22t16 69h47q-10 -107 -10 -377h-47q-8 94 -45.5 173.5t-110 129t-180.5 49.5q-72 0 -129 -26.5t-89 -72.5t-32 -104q0 -64 32 -110.5t82 -80t143 -84.5q45 -23 66 -36q127 -67 204.5 -121
t124 -122.5t46.5 -158.5q0 -112 -56 -190.5t-151.5 -118t-212.5 -39.5q-98 0 -161 20.5t-119 55.5q-46 29 -70 29q-19 0 -29 -21.5t-16 -68.5h-47q8 100 8 450h47q14 -190 102 -307t271 -117q65 0 122.5 25t93.5 77t36 130q0 68 -39.5 120t-104.5 93.5t-182 101.5
q-109 56 -181.5 107.5t-117.5 122.5t-45 165q0 102 53 174.5t140.5 109t191.5 36.5q63 0 108.5 -10.5z" />
    <glyph glyph-name="uni0456" unicode="&#x456;" horiz-adv-x="694" 
d="M86 0zM499.5 1188q-33.5 -13 -46 -48t-12.5 -112v-811q0 -77 12.5 -112t46 -48t107.5 -16v-41q-94 6 -260 6q-176 0 -262 -6v41q74 3 107.5 16t46 48t12.5 112v811q0 77 -12.5 112t-46 48t-107.5 16v41q85 -6 262 -6q166 0 260 6v-41q-74 -3 -107.5 -16z" />
    <glyph glyph-name="uni0457" unicode="&#x457;" horiz-adv-x="694" 
d="M12 0zM499.5 1188q-33.5 -13 -46 -48t-12.5 -112v-811q0 -77 12.5 -112t46 -48t107.5 -16v-41q-94 6 -260 6q-176 0 -262 -6v41q74 3 107.5 16t46 48t12.5 112v811q0 77 -12.5 112t-46 48t-107.5 16v41q85 -6 262 -6q166 0 260 6v-41q-74 -3 -107.5 -16zM188.5 1683.5
q27.5 -16.5 44 -44t16.5 -58.5q0 -32 -16.5 -59.5t-44 -43.5t-58.5 -16q-49 0 -84 35t-35 84q0 32 16 59t43.5 43.5t59.5 16.5q31 0 58.5 -16.5zM622.5 1683.5q27.5 -16.5 44 -44t16.5 -58.5q0 -32 -16.5 -59.5t-43.5 -43.5t-59 -16q-49 0 -84 35t-35 84q0 32 16 59
t43.5 43.5t59.5 16.5q31 0 58.5 -16.5z" />
    <glyph glyph-name="uni0458" unicode="&#x458;" horiz-adv-x="659" 
d="M0 0zM484.5 1188q-33.5 -13 -46 -48t-12.5 -112v-545q0 -379 -35 -534q-34 -149 -134.5 -239.5t-256.5 -90.5q-86 0 -137 33q-56 34 -56 98q0 41 28.5 69.5t70.5 28.5q40 0 70 -28.5t30 -69.5q0 -26 -15 -51t-38 -39q24 -4 55 -4q140 0 193 172q20 66 27.5 163.5
t7.5 305.5v731q0 77 -12.5 112t-46 48t-107.5 16v41q85 -6 262 -6q164 0 260 6v-41q-74 -3 -107.5 -16z" />
    <glyph glyph-name="uni045B" unicode="&#x45b;" horiz-adv-x="1530" 
d="M1378.5 103.5q15.5 -31.5 49 -45t91.5 -13.5v-43l-27 1q-128 7 -225 7q-88 0 -202 -7l-28 -1v43q51 0 80 13t42.5 45t13.5 90v196q0 82 -18 131.5t-73 77t-163 27.5q-94 0 -179 -20v-367q0 -86 12.5 -125t46.5 -54t107 -18v-41q-94 6 -270 6q-194 0 -293 -6v41
q91 3 133 18t58 54.5t16 124.5v960h-193q-71 0 -118.5 -35t-75.5 -114t-39 -213h-47q6 64 6 153q0 122 -14 256q170 -6 577 -6q406 0 576 6q-15 -131 -15 -256q0 -92 6 -153h-47q-11 134 -39 213t-75.5 114t-118.5 35h-193v-551q129 43 258 43q172 0 267 -72
q55 -42 76.5 -103.5t21.5 -170.5v-151q0 -58 15.5 -89.5z" />
    <glyph glyph-name="zero" unicode="0" horiz-adv-x="1229" 
d="M879.5 1016q112.5 -67 176 -189t63.5 -282q0 -163 -65.5 -294t-183 -205.5t-269.5 -74.5q-142 0 -255 67t-177 189.5t-64 284.5t64.5 292t182.5 204.5t272 74.5q143 0 255.5 -67zM448.5 984q-68.5 -63 -106.5 -182.5t-38 -283.5q0 -176 42 -290.5t113.5 -167t160.5 -52.5
q88 0 156.5 63.5t106.5 183.5t38 284q0 175 -42 289t-113.5 166.5t-160.5 52.5q-88 0 -156.5 -63z" />
    <glyph glyph-name="one" unicode="1" horiz-adv-x="758" 
d="M536.5 109q19.5 -36 62 -51t115.5 -15v-43q-10 0 -42 2q-186 6 -241 6q-62 0 -266 -6q-38 -2 -49 -2v43q109 0 163 36.5t54 131.5v496q0 99 -20.5 145t-69 61t-148.5 15v45q150 3 247.5 26.5t174.5 77.5v-866q0 -66 19.5 -102z" />
    <glyph glyph-name="two" unicode="2" horiz-adv-x="981" 
d="M724 1015.5q82 -67.5 82 -190.5q0 -84 -43.5 -163t-106.5 -145t-165 -157q-145 -130 -199 -202h416q56 0 83 9.5t38 30.5t16 64h35q0 -188 8 -272q-46 10 -305 10h-480v35q32 35 120 117q119 111 195.5 196t132.5 196t56 236q0 221 -205 221q-167 0 -274 -192l-33 18
q54 112 153 184t251 72q143 0 225 -67.5z" />
    <glyph glyph-name="three" unicode="3" horiz-adv-x="924" 
d="M616 1055q67 -28 105 -81t38 -124q0 -76 -42.5 -143t-112 -116.5t-150.5 -78.5q100 -2 186 -37t139.5 -104t53.5 -170q0 -149 -113 -265.5t-289.5 -180.5t-355.5 -64v37q145 3 274 59.5t209 162.5t80 251q0 79 -26.5 142.5t-76 101t-114.5 42.5q-9 -4 -32 -13t-38 -13
t-26 -4q-33 0 -33 26q0 18 15 28.5t38 10.5q13 0 39 -4l33 -4q80 61 118.5 137t38.5 158q0 94 -46.5 139t-131.5 45q-86 0 -156 -45.5t-116 -136.5l-35 16q118 256 375 256q85 0 152 -28z" />
    <glyph glyph-name="four" unicode="4" horiz-adv-x="1012" 
d="M732 110v-399h-164v400h-534v43l665 929h33v-835h25q56 0 83 9.5t38 30.5t16 64h35q0 -172 8 -252q-31 8 -205 10zM568 832l-413 -584h413v584z" />
    <glyph glyph-name="five" unicode="5" horiz-adv-x="850" 
d="M691 858q-44 10 -284 10h-218l-24 -395q56 29 110 45.5t130 16.5q120 0 201 -40.5t121 -112t40 -163.5q0 -152 -99.5 -271t-256.5 -185t-320 -66v37q125 1 235 54t178 158t68 253q0 130 -67 202t-191 72q-50 0 -85 -8t-83 -27l-20 13l39 610q41 -8 110 -8h232
q56 0 83 9.5t37.5 30.5t16.5 64h39q0 -208 8 -299z" />
    <glyph glyph-name="six" unicode="6" horiz-adv-x="1059" 
d="M793.5 844q84.5 -53 135.5 -154t51 -239q0 -149 -60.5 -258t-163 -165.5t-227.5 -56.5q-130 0 -223.5 68.5t-143.5 199.5t-50 314q0 287 109 486t267.5 305t317.5 137l8 -41q-125 -40 -224.5 -110.5t-175.5 -216.5t-97 -384q47 87 129.5 127.5t164.5 40.5q98 0 182.5 -53
zM666 56q52 44 83.5 139t31.5 241q0 208 -61 305t-160 97q-72 0 -142.5 -42.5t-104.5 -134.5q-3 -49 -3 -104q0 -203 34.5 -324.5t88.5 -171t117 -49.5q64 0 116 44z" />
    <glyph glyph-name="seven" unicode="7" horiz-adv-x="831" 
d="M707 791q-79 -151 -129 -264t-84.5 -257t-33.5 -307q0 -48 5 -98q3 -69 3 -64q0 -46 -26.5 -75t-69.5 -29q-45 0 -68.5 33t-23.5 82q0 157 47.5 309.5t115.5 281.5t180 314q69 114 97 164h-485q-56 0 -83.5 -9.5t-38 -30.5t-16.5 -65h-35q0 202 -8 287q46 -10 305 -10
h455v-43q-34 -80 -107 -219z" />
    <glyph glyph-name="eight" unicode="8" horiz-adv-x="1065" 
d="M803.5 680.5q64.5 -56.5 110.5 -136.5t46 -182q0 -115 -57 -204t-158 -138t-228 -49q-112 0 -205.5 39t-150 116.5t-56.5 188.5q0 142 90 252.5t239 184.5q-82 66 -137 123t-89.5 128t-34.5 156q0 94 49.5 166.5t135 113t190.5 40.5q94 0 171 -32.5t122 -96t45 -152.5
q0 -110 -67.5 -202t-192.5 -176q113 -83 177.5 -139.5zM427 1415q-44 -27 -69 -76.5t-25 -115.5q0 -81 34.5 -147t89.5 -119t138 -114q127 121 127 328q0 124 -51.5 197.5t-145.5 73.5q-54 0 -98 -27zM657.5 39.5q58.5 31.5 93 92t34.5 144.5q0 95 -44 173t-104 134
t-172 145q-179 -131 -179 -382q0 -145 59 -241.5t184 -96.5q70 0 128.5 31.5z" />
    <glyph glyph-name="nine" unicode="9" horiz-adv-x="1042" 
d="M749 1019.5q94 -63.5 144 -185t50 -291.5q0 -261 -109.5 -443t-268.5 -279.5t-316 -123.5l-8 41q116 33 211 90.5t171 174t105 304.5q-49 -77 -128 -113t-157 -36q-97 0 -181.5 53t-135.5 154t-51 239q0 149 60.5 257.5t163 165t226.5 56.5q130 0 224 -63.5zM632 255.5
q68 38.5 104 122.5q8 80 8 161q0 187 -34.5 299.5t-88 158t-116.5 45.5q-64 0 -116.5 -44t-84 -139t-31.5 -241q0 -208 61.5 -304.5t160.5 -96.5q69 0 137 38.5z" />
    <glyph glyph-name="braceleft" unicode="{" horiz-adv-x="623" 
d="M463.5 1532q-32.5 -29 -45.5 -117.5t-13 -286.5q0 -174 -39.5 -280t-103 -158t-150.5 -78q87 -26 150.5 -78t103 -158.5t39.5 -279.5q0 -205 13 -295t45.5 -118t104.5 -29v-39q-134 0 -208 42.5t-107 145.5t-33 293q0 197 -13 300.5t-46 148t-96 49.5h-11v37h11
q63 4 96 48t46 147.5t13 301.5q0 183 33 285t107.5 145.5t207.5 43.5v-39q-72 -2 -104.5 -31z" />
    <glyph glyph-name="braceright" unicode="}" horiz-adv-x="623" 
d="M54 0zM159.5 1532q32.5 -29 45.5 -117.5t13 -286.5q0 -174 39.5 -280t103 -158t150.5 -78q-87 -26 -150.5 -78t-103 -158.5t-39.5 -279.5q0 -205 -13 -295t-45.5 -118t-104.5 -29v-39q134 0 208 42.5t107 145.5t33 293q0 197 13 300.5t46 148t96 49.5h11v37h-11
q-63 4 -96 48t-46 147.5t-13 301.5q0 183 -33 285t-107.5 145.5t-207.5 43.5v-39q72 -2 104.5 -31z" />
    <glyph glyph-name="bracketleft" unicode="[" horiz-adv-x="606" 
d="M372 1542v-1874h166v-39h-351v1952h351v-39h-166z" />
    <glyph glyph-name="bracketright" unicode="]" horiz-adv-x="606" 
d="M67 0zM234 1542v-1874h-166v-39h351v1952h-351v-39h166z" />
    <glyph glyph-name="parenleft" unicode="(" horiz-adv-x="602" 
d="M90 0zM208.5 1201q-117.5 -254 -117.5 -562t117.5 -562t333.5 -450l28 27q-167 195 -237 430.5t-70 554.5t70 554.5t237 430.5l-28 27q-216 -196 -333.5 -450z" />
    <glyph glyph-name="parenright" unicode=")" horiz-adv-x="602" 
d="M393.5 1201q117.5 -254 117.5 -562t-117.5 -562t-333.5 -450l-28 27q167 195 237 430.5t70 554.5t-70 554.5t-237 430.5l28 27q216 -196 333.5 -450z" />
    <glyph glyph-name="endash" horiz-adv-x="1169" 
d="M120 510v82h928v-82h-928z" />
    <glyph glyph-name="hyphen" unicode="-" horiz-adv-x="1022" 
d="M140 492v118h740v-118h-740z" />
    <glyph glyph-name="asterisk" unicode="*" horiz-adv-x="1008" 
d="M886 879q0 -18 -10 -35q-18 -32 -57 -32q-33 0 -75 24q-31 18 -63.5 47t-86.5 84l-85 84l33 -123q21 -77 29.5 -116.5t9.5 -72.5q-1 -57 -24 -83.5t-56 -26.5q-30 0 -51 26t-21 84q0 35 8.5 73.5t28.5 115.5l33 123q-46 -43 -90 -89q-52 -53 -84 -82t-62 -46
q-40 -23 -73 -23q-43 0 -62 35q-9 16 -9 31q0 47 68 88q30 17 67 29t111 31q92 25 126 35q-60 18 -121 33q-76 20 -115.5 32.5t-69.5 29.5q-65 39 -65 88q0 18 10 35q16 32 56 32q33 0 75 -24q31 -18 62 -46t86 -83q53 -55 88 -88q-9 39 -31 118q-20 74 -29.5 117t-9.5 78
q0 57 22 84t54 27q31 0 52.5 -27t21.5 -84q0 -35 -8.5 -75t-29.5 -115q10 40 -32 -121q34 32 91 89q99 101 144 128q42 23 73 23q44 0 63 -35q9 -16 9 -31q0 -49 -69 -88q-30 -18 -68.5 -30t-109.5 -31q-65 -16 -126 -34q41 -12 123 -34q134 -34 183 -61q66 -38 66 -88z" />
    <glyph glyph-name="backslash" unicode="\" horiz-adv-x="762" 
d="M68 0zM693 -29l-557 1508h-67l557 -1508h67z" />
    <glyph glyph-name="colon" unicode=":" horiz-adv-x="545" 
d="M141 0zM336.5 215.5q30.5 -17.5 48 -48t17.5 -65.5t-17.5 -65t-48 -48t-65.5 -18t-65.5 18t-48 48t-17.5 65t17.5 65.5t48 48t65.5 17.5t65.5 -17.5zM336.5 1063.5q30.5 -17.5 48 -48t17.5 -65.5t-17.5 -65t-48 -48t-65.5 -18t-65.5 18t-48 48t-17.5 65t17.5 65.5t48 48
t65.5 17.5t65.5 -17.5z" />
    <glyph glyph-name="comma" unicode="," horiz-adv-x="535" 
d="M378 168q35 -54 35 -135q0 -103 -52.5 -184.5t-158.5 -131.5l-19 37q64 27 110 84.5t46 116.5q0 25 -6 43q-35 -27 -76 -27q-56 0 -93.5 35.5t-37.5 95.5q0 56 38 93.5t93 37.5q79 0 121 -65z" />
    <glyph glyph-name="exclam" unicode="!" horiz-adv-x="537" 
d="M334.5 1573.5q26.5 -28.5 26.5 -86.5q0 -87 -28 -365q-23 -228 -35 -390.5t-12 -330.5h-37q0 169 -12.5 337t-35.5 384q-28 278 -28 365q0 59 26 87t68 28q41 0 67.5 -28.5zM332.5 215.5q30.5 -17.5 48 -48t17.5 -65.5t-17.5 -65t-48 -48t-65.5 -18t-65.5 18t-48 48
t-17.5 65t17.5 65.5t48 48t65.5 17.5t65.5 -17.5z" />
    <glyph glyph-name="numbersign" unicode="#" horiz-adv-x="1305" 
d="M831 547h301l-9 -41h-300l-58 -299h-41l58 299h-342l-58 -299h-41l58 299h-302l8 41h302l66 342h-300l6 41h302l59 303h41l-59 -303h342l59 303h41l-59 -303h300l-6 -41h-302zM514 889l-66 -342h342l66 342h-342z" />
    <glyph glyph-name="period" unicode="." horiz-adv-x="516" 
d="M322.5 215.5q30.5 -17.5 48 -48t17.5 -65.5t-17.5 -65t-48 -48t-65.5 -18t-65.5 18t-48 48t-17.5 65t17.5 65.5t48 48t65.5 17.5t65.5 -17.5z" />
    <glyph glyph-name="question" unicode="?" horiz-adv-x="940" 
d="M664 1557.5q97 -44.5 151 -128t54 -196.5q0 -168 -123 -284t-337 -171v-299h-41v318q130 48 200 108.5t94.5 130t24.5 158.5q0 186 -76.5 276.5t-210.5 90.5q-59 0 -113.5 -17t-86.5 -57q39 -8 62.5 -35.5t23.5 -69.5q0 -50 -32.5 -80t-80.5 -30q-47 0 -77.5 30.5
t-30.5 77.5q0 83 96 148q108 74 278 74q128 0 225 -44.5zM455.5 215.5q30.5 -17.5 48 -48t17.5 -65.5t-17.5 -65t-48 -48t-65.5 -18t-65.5 18t-48 48t-17.5 65t17.5 65.5t48 48t65.5 17.5t65.5 -17.5z" />
    <glyph glyph-name="quotedbl" unicode="&#x22;" horiz-adv-x="610" 
d="M121 958zM469.5 1469.5q20.5 -25.5 20.5 -68.5q0 -58 -6 -108.5t-21 -135.5q-19 -104 -32 -199h-29q-14 96 -30 188q-15 88 -22 141t-7 112q0 43 21 68.5t53 27.5q32 0 52.5 -25.5zM246.5 1469.5q20.5 -25.5 20.5 -68.5q0 -58 -6 -108.5t-21 -135.5q-19 -104 -32 -199
h-29q-14 96 -30 188q-15 88 -22 141t-7 112q0 43 21 68.5t53 27.5q32 0 52.5 -25.5z" />
    <glyph glyph-name="quotesingle" unicode="'" horiz-adv-x="387" 
d="M246.5 1469.5q20.5 -25.5 20.5 -68.5q0 -58 -6 -108.5t-21 -135.5q-19 -104 -32 -199h-29q-14 96 -30 188q-15 88 -22 141t-7 112q0 43 21 68.5t53 27.5q32 0 52.5 -25.5z" />
    <glyph glyph-name="semicolon" unicode=";" horiz-adv-x="584" 
d="M150 0zM401 168q35 -54 35 -135q0 -103 -52.5 -184.5t-158.5 -131.5l-19 37q64 27 110 84.5t46 116.5q0 25 -6 43q-35 -27 -76 -27q-56 0 -93.5 35.5t-37.5 95.5q0 56 38 93.5t93 37.5q79 0 121 -65zM359.5 1063.5q30.5 -17.5 48 -48t17.5 -65.5t-17.5 -65t-48 -48
t-65.5 -18t-65.5 18t-48 48t-17.5 65t17.5 65.5t48 48t65.5 17.5t65.5 -17.5z" />
    <glyph glyph-name="slash" unicode="/" horiz-adv-x="762" 
d="M69 -29l557 1508h67l-557 -1508h-67z" />
    <glyph glyph-name="underscore" unicode="_" horiz-adv-x="1210" 
d="M141 -235zM140 -317v82h928v-82h-928z" />
    <glyph glyph-name="CR" unicode="&#xd;" horiz-adv-x="0" 
 />
    <glyph glyph-name="dollar" unicode="$" horiz-adv-x="1071" 
d="M942 170.5q-44 -80.5 -120.5 -129t-175.5 -63.5v-248h-41v243q-34 -2 -53 -2q-30 0 -78 4v-245h-41v251q-81 17 -162 66q-44 29 -69 29q-19 0 -29 -21.5t-16 -68.5h-47q8 112 8 491h47q12 -175 75.5 -295.5t192.5 -156.5v665q-101 63 -167 120t-106 133t-40 175
q0 103 41.5 177.5t112 117.5t159.5 55v252h41v-248l31 1q58 0 100 -9v256h41v-266q48 -16 109 -57q44 -29 69 -29q19 0 29 21.5t16 68.5h48q-11 -113 -11 -418h-47q-9 127 -61.5 228.5t-151.5 142.5v-608q116 -73 186.5 -132.5t112 -135t41.5 -175.5q0 -109 -44 -189.5z
M474 1430v-521l82 -51q30 -17 49 -30v596q-36 10 -82 10q-28 0 -49 -4zM313.5 1052q40.5 -60 119.5 -115v483q-73 -24 -116.5 -83.5t-43.5 -140.5q0 -84 40.5 -144zM605 19v563q-49 35 -121 77l-10 6v-648q33 -5 64 -5q36 0 67 7zM761 122q43 64 43 163q0 81 -40 144.5
t-118 123.5v-522q72 27 115 91z" />
    <glyph glyph-name="asciitilde" unicode="~" horiz-adv-x="1329" 
d="M565.5 728q58.5 -20 142.5 -61q79 -38 134.5 -57.5t117.5 -19.5q134 0 184 119l35 -11q-8 -66 -49 -115t-104 -75.5t-136 -26.5q-68 0 -126.5 20t-142.5 61q-79 38 -134.5 57.5t-116.5 19.5q-135 0 -185 -119l-34 10q8 66 48.5 115.5t103.5 76t136 26.5q68 0 126.5 -20z
" />
    <glyph glyph-name="equal" unicode="=" horiz-adv-x="1325" 
d="M149 840v61h1026v-61h-1026zM149 553v61h1026v-61h-1026z" />
    <glyph glyph-name="greater" unicode="&#x3e;" horiz-adv-x="1245" 
d="M151 262zM990 727l-838 -391l35 -74l998 465l-998 465l-35 -74z" />
    <glyph glyph-name="less" unicode="&#x3c;" horiz-adv-x="1245" 
d="M255 727l838 -391l-35 -74l-998 465l998 465l35 -74z" />
    <glyph glyph-name="percent" unicode="%" horiz-adv-x="1520" 
d="M191 -113l-39 27l1198 1774l39 -27zM536 1519.5q69 -39.5 107 -115t38 -179.5q0 -102 -39.5 -180t-108.5 -121t-157 -43q-91 0 -160 39.5t-107 115t-38 178.5q0 101 39.5 179.5t109 122t156.5 43.5q91 0 160 -39.5zM214 1217q0 -146 44 -222.5t122 -76.5q156 0 156 303
q0 148 -43 224.5t-121 76.5q-158 0 -158 -305zM1298 609.5q69 -39.5 107 -115t38 -179.5q0 -101 -39.5 -179.5t-109 -121.5t-156.5 -43q-92 0 -160.5 39.5t-106.5 115t-38 179.5q0 101 39.5 179t109 121.5t156.5 43.5q91 0 160 -39.5zM976 307q0 -146 43.5 -222.5
t122.5 -76.5q155 0 155 303q0 148 -42.5 224.5t-120.5 76.5q-158 0 -158 -305z" />
    <glyph glyph-name="plus" unicode="+" horiz-adv-x="1202" 
d="M1113 758v-62h-475v-481h-74v481h-477v62h477v483h74v-483h475z" />
    <glyph glyph-name="arrowboth" horiz-adv-x="1382" 
d="M1079.5 677q103.5 -93 250.5 -136q-147 -44 -250.5 -136.5t-173.5 -246.5h-35q85 179 89 366h-539q4 -185 88 -366h-35q-70 154 -173.5 246.5t-250.5 136.5q147 43 250.5 136t173.5 247h35q-85 -182 -88 -367h539q-3 186 -89 367h35q70 -154 173.5 -247z" />
    <glyph glyph-name="arrowdown" horiz-adv-x="1012" 
d="M642 1040q91 88 246 160v-35q-154 -70 -247 -173.5t-136 -250.5q-43 147 -136 250.5t-247 173.5v35q155 -72 245.5 -160t137.5 -211q46 123 137 211zM642 856q91 88 246 160v-35q-141 -64 -230.5 -156t-136.5 -219v-256q185 3 367 88v-35q-154 -70 -247 -173t-136 -250
q-43 147 -136 250t-247 173v35q181 -84 366 -88v258q-47 126 -136 217.5t-230 155.5v35q155 -72 245.5 -160t137.5 -211q46 123 137 211z" />
    <glyph glyph-name="arrowdownleft" horiz-adv-x="1401" 
d="M969 633q133 0 298 -62l-25 -24q-140 53 -267 53q-154 0 -304 -82q82 149 82 303q0 127 -54 269l25 24q62 -165 62 -297q0 -122 -52 -235q116 51 235 51zM840 502q131 0 296 -60l-25 -24q-140 52 -264 52q-132 0 -258 -57l-183 -182q134 -128 322 -198l-24 -25
q-142 54 -269 54q-154 0 -303 -82q82 150 82 304q0 127 -53 267l24 24q71 -186 198 -322l183 185q57 125 57 254q0 124 -53 266l25 25q60 -165 60 -295q0 -123 -52 -237q116 51 237 51z" />
    <glyph glyph-name="arrowdownright" horiz-adv-x="1401" 
d="M133 0zM560 503q124 0 238 -52q-52 114 -52 238q0 129 60 294l25 -24q-53 -142 -53 -266q0 -131 57 -255l183 -185q127 135 198 323l24 -25q-53 -140 -53 -267q0 -154 82 -304q-150 82 -304 82q-124 0 -268 -53l-24 24q188 70 322 198l-184 182q-127 58 -256 58
q-123 0 -265 -53l-25 25q165 60 295 60zM431 634q122 0 236 -52q-52 114 -52 235q0 132 62 297l25 -24q-54 -142 -54 -268q0 -154 82 -303q-149 82 -303 82q-126 0 -268 -54l-25 25q165 62 297 62z" />
    <glyph glyph-name="arrowleft" horiz-adv-x="1395" 
d="M926.5 404q87.5 -91 159.5 -246h-34q-65 141 -156 229.5t-217 136.5h-258q4 -185 88 -366h-35q-70 154 -173.5 246.5t-250.5 136.5q147 43 250.5 136t173.5 247h35q-85 -182 -88 -367h255q127 47 219 136.5t157 230.5h34q-72 -156 -159.5 -246.5t-210.5 -136.5
q123 -46 210.5 -137zM1111 403.5q88 -90.5 160 -245.5h-35q-70 154 -173.5 246.5t-250.5 136.5q147 43 250.5 136t173.5 247h35q-72 -155 -160 -246t-211 -137q123 -47 211 -137.5z" />
    <glyph glyph-name="arrowright" horiz-adv-x="1395" 
d="M123 158zM468.5 404q-87.5 -91 -159.5 -246h34q65 141 156 229.5t217 136.5h258q-4 -185 -88 -366h35q70 154 173.5 246.5t250.5 136.5q-147 43 -250.5 136t-173.5 247h-35q85 -182 88 -367h-255q-127 47 -219 136.5t-157 230.5h-34q72 -156 159.5 -246.5t210.5 -136.5
q-123 -46 -210.5 -137zM284 403.5q-88 -90.5 -160 -245.5h35q70 154 173.5 246.5t250.5 136.5q-147 43 -250.5 136t-173.5 247h-35q72 -155 160 -246t211 -137q-123 -47 -211 -137.5z" />
    <glyph glyph-name="arrowup" horiz-adv-x="1012" 
d="M521 829v-255q47 -127 136.5 -219t230.5 -156v-35q-155 72 -246 160t-137 211q-47 -123 -137.5 -211t-245.5 -160v35q141 64 230 155.5t136 217.5v257q-185 -3 -366 -88v35q154 70 247 173.5t136 250.5q43 -147 136 -250.5t247 -173.5v-35q-179 85 -367 88zM641 188.5
q93 -103.5 247 -174.5v-34q-156 72 -246.5 159.5t-136.5 210.5q-46 -123 -137 -210.5t-246 -159.5v34q154 71 247 174.5t136 249.5q43 -146 136 -249.5z" />
    <glyph glyph-name="arrowupleft" horiz-adv-x="1401" 
d="M841 591q-124 0 -238 52q52 -114 52 -238q0 -129 -60 -294l-25 24q53 142 53 266q0 131 -57 255l-183 185q-127 -135 -198 -323l-24 25q53 140 53 267q0 154 -82 304q150 -82 304 -82q124 0 268 53l24 -24q-188 -70 -322 -198l184 -182q127 -58 256 -58q123 0 265 53
l25 -25q-165 -60 -295 -60zM970 460q-122 0 -236 52q52 -114 52 -235q0 -132 -62 -297l-25 24q54 142 54 268q0 154 -82 303q149 -82 303 -82q126 0 268 54l25 -25q-165 -62 -297 -62z" />
    <glyph glyph-name="arrowupright" horiz-adv-x="1401" 
d="M133 0zM560 591q124 0 238 52q-52 -114 -52 -238q0 -129 60 -294l25 24q-53 142 -53 266q0 131 57 255l183 185q127 -135 198 -323l24 25q-53 140 -53 267q0 154 82 304q-150 -82 -304 -82q-124 0 -268 53l-24 -24q188 -70 322 -198l-184 -182q-127 -58 -256 -58
q-123 0 -265 53l-25 -25q165 -60 295 -60zM431 460q122 0 236 52q-52 -114 -52 -235q0 -132 62 -297l25 24q-54 142 -54 268q0 154 82 303q-149 -82 -303 -82q-126 0 -268 54l-25 -25q165 -62 297 -62z" />
    <glyph glyph-name="ampersand" unicode="&#x26;" horiz-adv-x="1714" 
d="M1526 1445.5q68 -33.5 107 -96t39 -147.5q0 -98 -53 -170.5t-141 -116.5q-75 -36 -304 -107q115 -48 169.5 -139t54.5 -208q0 -127 -75.5 -239.5t-217.5 -181.5t-332 -69q-179 0 -330.5 62.5t-242 178.5t-90.5 269q0 135 67 228t152.5 141.5t158.5 67.5q-100 43 -153 114
t-53 150q0 68 40 126.5t118 94t188 35.5q137 0 213 -62q38 -31 57 -68.5t19 -72.5q0 -49 -35 -79t-80 -30q-44 0 -75.5 28t-31.5 75q0 44 30.5 76t78.5 36q-9 27 -52 46.5t-104 19.5q-107 0 -172 -64t-65 -180q0 -137 104 -233q71 12 127 12q38 0 60 -12t22 -35
q0 -18 -15.5 -28.5t-41.5 -10.5q-30 0 -64 11t-57 21.5t-29 12.5q-266 -79 -266 -336q0 -137 72 -237t197 -152.5t280 -52.5q146 0 269 45.5t196 131t73 198.5q0 80 -43.5 164.5t-162.5 132.5q-173 -54 -236 -78q-86 -33 -133 -75t-47 -103q0 -50 29.5 -87.5t73.5 -57
t85 -19.5q35 0 76.5 12t46.5 33q-39 7 -67.5 32t-28.5 72q0 48 32 77.5t80 29.5q49 0 79 -30.5t30 -80.5q0 -55 -37 -95t-93.5 -60.5t-113.5 -20.5q-62 0 -120.5 26t-96 80t-37.5 134q0 104 70.5 177t212.5 122q44 14 148 44q242 67 352 117q97 46 136.5 93.5t39.5 103.5
q0 57 -33 104.5t-87.5 75t-117.5 27.5q-52 0 -61 -18q27 -14 42 -40.5t15 -54.5q0 -42 -34 -71t-81 -29q-44 0 -76 26.5t-32 75.5q0 50 34 82t85.5 46t105.5 14q85 0 153 -33.5z" />
    <glyph glyph-name="asciicircum" unicode="^" horiz-adv-x="1098" 
d="M717 857q102 -106 232 -169l-16 -29q-124 45 -240 112t-186 134q-58 -67 -151.5 -134t-192.5 -112l-17 29q131 63 233 169t150 224h37q49 -118 151 -224z" />
    <glyph glyph-name="at" unicode="@" horiz-adv-x="1798" 
d="M986 186q0 33 7 66t14.5 56.5t9.5 31.5v2q-58 -149 -134 -219t-182 -70q-110 0 -160 67.5t-50 180.5q0 152 73 311t187 263t227 104q125 0 148 -109l16 80q117 0 184 29l-172 -752q-13 -42 -13 -70q0 -29 14.5 -41t45.5 -12q87 0 203 86.5t199.5 246.5t83.5 370
q0 182 -79.5 299t-213.5 171t-303 54q-247 0 -466.5 -142.5t-352 -381t-132.5 -510.5q0 -204 78 -336t216 -193t321 -61q236 0 422 111l14 -27q-79 -56 -192.5 -88.5t-245.5 -32.5q-196 0 -342.5 66.5t-229 206t-82.5 350.5q0 273 133.5 522t361 401t495.5 152
q185 0 328.5 -59.5t227 -185.5t83.5 -318q0 -219 -91 -390.5t-230 -266.5t-273 -95q-148 0 -148 133zM877 168q54 53 102 153t82 235l51 249q-7 127 -126 127q-85 0 -159 -93t-118 -237.5t-44 -288.5q0 -198 106 -198q52 0 106 53z" />
    <glyph glyph-name="bar" unicode="|" horiz-adv-x="455" 
d="M185 -399v2156h82v-2156h-82z" />
    <glyph glyph-name="grave" unicode="`" horiz-adv-x="457" 
d="M113 1680q44 0 79 -46q27 -35 82 -140q75 -146 141 -249l-23 -18q-89 94 -206 196q-85 75 -117 115q-28 37 -28 70q0 34 28 57q19 15 44 15z" />
    <glyph glyph-name="acute.case" horiz-adv-x="563" 
d="M446 1916q40 0 63 -34q11 -19 11 -38q0 -45 -54 -81q-45 -27 -146 -65q-160 -64 -266 -117l-14 27q91 69 218 184q85 78 126 104q31 20 62 20z" />
    <glyph glyph-name="brevecy.case" horiz-adv-x="918" 
d="M845.5 1900.5q30.5 -30.5 30.5 -81.5q0 -43 -23.5 -76t-75.5 -64q-127 -77 -319 -77q-191 0 -320 77q-51 31 -74.5 64t-23.5 76q0 51 30 81.5t79 30.5t80.5 -29.5t31.5 -80.5q0 -42 -23.5 -69.5t-62.5 -35.5q43 -40 123 -57t160 -17t159.5 17t122.5 57q-39 8 -62.5 35.5
t-23.5 69.5q0 50 32.5 80t80.5 30t78.5 -30.5z" />
    <glyph glyph-name="dieresis.case" horiz-adv-x="774" 
d="M227.5 1802.5q27.5 -16.5 44 -44t16.5 -58.5q0 -32 -16.5 -59.5t-44 -43.5t-58.5 -16q-49 0 -84 35t-35 84q0 31 16 58.5t43.5 44t59.5 16.5q31 0 58.5 -16.5zM661.5 1802.5q27.5 -16.5 44 -44t16.5 -58.5q0 -32 -16.5 -59.5t-43.5 -43.5t-59 -16q-49 0 -84 35t-35 84
q0 31 16 58.5t43.5 44t59.5 16.5q31 0 58.5 -16.5z" />
    <glyph glyph-name="grave.case" horiz-adv-x="563" 
d="M303 1792q127 -115 218 -184l-14 -27q-106 53 -266 117q-101 38 -146 65q-54 36 -54 81q0 19 11 38q23 34 63 34q31 0 62 -20q41 -26 126 -104z" />
    <glyph glyph-name="acute.smcp" horiz-adv-x="563" 
d="M593 1785q42 0 63 -34q12 -18 12 -39q0 -44 -55 -80q-37 -23 -148 -67q-147 -57 -263 -115l-15 27q98 74 220 185q78 73 124 103q33 20 62 20z" />
    <glyph glyph-name="brevecy.smcp" horiz-adv-x="918" 
d="M845.5 1751.5q30.5 -30.5 30.5 -82.5q0 -42 -23.5 -75t-75.5 -64q-129 -78 -319 -78q-189 0 -320 78q-51 31 -74.5 64t-23.5 75q0 52 30 82.5t79 30.5t80.5 -30t31.5 -81q0 -42 -23.5 -69t-62.5 -35q43 -40 122.5 -57t160.5 -17t160.5 17t121.5 57q-39 8 -62.5 35
t-23.5 69q0 51 32.5 81t80.5 30t78.5 -30.5z" />
    <glyph glyph-name="dieresis.smcp" horiz-adv-x="774" 
d="M227.5 1683.5q27.5 -16.5 44 -44t16.5 -58.5q0 -32 -16.5 -59.5t-44 -43.5t-58.5 -16q-49 0 -84 35t-35 84q0 32 16 59t43.5 43.5t59.5 16.5q31 0 58.5 -16.5zM661.5 1683.5q27.5 -16.5 44 -44t16.5 -58.5q0 -32 -16.5 -59.5t-43.5 -43.5t-59 -16q-49 0 -84 35t-35 84
q0 32 16 59t43.5 43.5t59.5 16.5q31 0 58.5 -16.5z" />
    <glyph glyph-name="dotaccent.smcp" horiz-adv-x="406" 
d="M267 1694.5q30 -17.5 48 -48t18 -65.5t-18 -65.5t-48 -48t-65 -17.5t-65.5 17.5t-48 48t-17.5 65.5t17.5 65.5t48 48t65.5 17.5t65 -17.5z" />
    <glyph glyph-name="grave.smcp" horiz-adv-x="563" 
d="M303 1661q127 -115 218 -184l-14 -27q-119 60 -264 115q-111 44 -148 67q-54 36 -54 81q0 19 11 38q23 34 63 34q31 0 62 -20q41 -26 126 -104z" />
    <glyph glyph-name=".ttfautohint" horiz-adv-x="1229" 
d="M0 0z" />
    </font>
</defs>
</svg>
